<?xml version="1.0" standalone="no"?>
<!DOCTYPE svg PUBLIC "-//W3C//DTD SVG 20010904//EN"
 "http://www.w3.org/TR/2001/REC-SVG-20010904/DTD/svg10.dtd">
<svg version="1.0" xmlns="http://www.w3.org/2000/svg"
 width="300.000000pt" height="300.000000pt" viewBox="0 0 300.000000 300.000000"
 preserveAspectRatio="xMidYMid meet">
<metadata>
Created by potrace 1.10, written by Peter Selinger 2001-2011
</metadata>
<g transform="translate(0.000000,300.000000) scale(0.100000,-0.100000)"
fill="#000000" stroke="none">
<path d="M1565 2300 c-7 -11 -2 -13 78 -28 184 -35 379 -160 481 -309 146
-215 184 -488 102 -722 -21 -58 -21 -84 0 -56 46 61 81 281 64 404 -48 350
-280 616 -607 695 -103 25 -112 26 -118 16z"/>
<path d="M1360 2294 c-8 -3 -44 -14 -80 -26 -303 -96 -517 -343 -570 -658 -21
-122 10 -347 56 -418 27 -41 26 -17 -2 70 -36 112 -45 294 -19 401 46 191 160
365 309 472 74 52 235 122 316 137 33 7 60 15 60 20 0 8 -45 10 -70 2z"/>
<path d="M1490 2206 c0 -15 -63 -203 -99 -294 -58 -146 -163 -329 -256 -444
-129 -159 -345 -363 -444 -418 -22 -13 -41 -27 -41 -32 0 -4 83 -8 184 -8 161
0 440 -20 488 -36 9 -3 26 -19 37 -37 25 -42 84 -218 113 -339 13 -54 25 -98
28 -98 3 0 17 51 32 113 47 193 106 350 135 361 8 3 67 10 131 16 64 6 126 12
137 15 11 2 107 5 213 5 129 1 192 5 190 12 -2 6 -24 22 -48 35 -96 53 -290
218 -370 315 -29 35 -63 69 -76 76 -43 23 -225 407 -303 640 -17 51 -31 99
-31 107 0 8 -4 17 -10 20 -5 3 -10 0 -10 -9z m45 -251 c60 -171 109 -289 173
-413 30 -59 72 -102 98 -102 13 0 24 -5 24 -12 0 -32 141 -185 230 -249 62
-45 36 -48 -38 -5 -63 37 -136 111 -183 184 -25 40 -28 42 -41 25 -25 -35 -80
-73 -103 -73 -13 0 -36 11 -52 24 -63 53 -107 179 -138 396 -23 165 -24 170
-39 164 -7 -3 -23 -28 -36 -57 -13 -29 -38 -77 -56 -107 -19 -30 -44 -84 -57
-120 -42 -112 -60 -154 -88 -200 -15 -24 -26 -46 -24 -48 22 -22 119 137 145
238 12 47 88 190 101 190 4 0 11 -26 15 -57 3 -32 8 -66 10 -75 1 -10 -3 -18
-10 -18 -8 0 -16 -17 -20 -40 -16 -101 -131 -367 -176 -407 -17 -14 -30 -30
-30 -34 0 -9 312 -1 415 11 65 8 91 7 132 -5 28 -8 114 -27 190 -41 147 -27
248 -53 239 -61 -8 -8 -210 16 -358 44 -135 25 -139 25 -410 15 -150 -6 -325
-18 -388 -27 -260 -38 -290 -41 -290 -34 0 14 99 39 240 61 207 32 200 29 241
95 20 32 45 74 54 93 30 59 134 324 130 328 -9 9 -37 -23 -54 -62 -10 -23 -38
-88 -62 -146 -53 -128 -114 -225 -150 -240 -15 -7 -46 -12 -70 -13 -24 -1 -47
-6 -50 -11 -4 -4 -9 -4 -12 0 -3 5 28 44 69 88 41 43 78 93 83 110 18 67 126
313 160 366 20 31 61 115 91 187 30 72 58 128 61 125 3 -4 18 -43 34 -87z
m-18 -469 c36 -121 93 -193 161 -206 34 -6 46 -3 82 23 l43 29 35 -39 c20 -21
53 -57 75 -80 l39 -41 -47 5 c-26 2 -68 11 -93 18 -27 9 -74 12 -121 10 -224
-11 -361 -16 -361 -11 0 3 11 29 24 58 46 102 100 245 110 290 10 47 29 27 53
-56z m-345 -93 c-28 -54 -136 -168 -201 -213 -52 -35 -101 -57 -101 -47 0 3
30 28 68 55 68 51 136 123 208 220 43 58 58 49 26 -15z m659 -318 c125 -27
126 -27 -61 -49 -108 -13 -120 -17 -148 -52 -28 -35 -76 -154 -96 -239 -16
-68 -35 -65 -56 10 -27 93 -70 198 -94 223 -35 40 -69 51 -190 63 -64 7 -116
15 -116 19 0 8 54 18 155 26 39 4 71 7 72 9 2 1 106 3 232 4 179 1 244 -2 302
-14z"/>
<path d="M1884 1981 c-7 -39 -19 -82 -29 -97 -19 -30 -71 -54 -115 -54 -16 0
-30 -4 -30 -10 0 -5 22 -10 50 -10 40 0 56 -5 80 -27 26 -23 33 -41 44 -103
l13 -75 7 50 c17 115 50 155 129 155 20 0 37 5 37 10 0 6 -11 10 -25 10 -13 0
-40 8 -60 17 -39 18 -74 79 -76 129 -3 73 -14 76 -25 5z m41 -131 c17 -18 17
-21 1 -45 -20 -31 -27 -31 -55 -1 l-22 24 22 21 c28 26 31 26 54 1z"/>
<path d="M1078 1933 c-12 -14 -12 -22 -3 -40 11 -22 11 -22 28 -2 13 15 15 24
7 39 -13 24 -13 24 -32 3z"/>
<path d="M1157 1932 c-14 -15 -14 -19 2 -38 l17 -21 10 22 c8 16 7 27 -1 38
-11 16 -13 15 -28 -1z"/>
<path d="M2010 904 c-74 -63 -207 -133 -313 -165 -40 -13 -64 -24 -55 -27 42
-9 234 68 319 128 45 32 89 70 113 98 34 39 3 23 -64 -34z"/>
<path d="M920 940 c0 -14 92 -85 169 -129 85 -49 226 -103 260 -99 20 2 9 9
-45 26 -102 31 -239 102 -312 161 -65 53 -72 57 -72 41z"/>
</g>
</svg>
