<?xml version="1.0" encoding="UTF-8"?>
<svg version="1.1" viewBox="0 0 1600 1600" width="1280" height="1280" xmlns="http://www.w3.org/2000/svg">
<path transform="translate(978,378)" d="m0 0h196l31 1 8 4 13 15 10 14 4 10 1 93v314l26-6 43-7 25-6 37-14 9-1v15l-3 23-7 28-7 20-11 22-11 19-8 12-9 12-9 10-7 8-16 12 2 4 7 9 13 4 26 5 14 5 18 8 21 9 23 12 11 10 1 6-4 6-9 7-35 17-15 9-19 14-13 11-11 9-17 16-15 14-18 18-8 7-9 9-8 7-13 12-8 7-13 11-11 6-9 2-9 1h-49l-50-1h-56l-70 3-51 3h-7v3l5 2 2-2h4l2 7-1 17-2 5-5 1-4-3-1 2-4-1-2-1-10-1-8-2-12-4-8-4-4-3-22-7-4-5-4-2-2-4-5-53-2-1 1-5h-2l-4-27-6 1 1-4 2-1-1-3-3-2-4 1-1 21-1 47-2 22-1 1-30 1-224 1-19 1-14 2-2 12-3 11-1 1h-27l-80-1-51-1-22-1-3-3-2-9-5-5-9-6-10-9-11-11-12-16-9-15-18-27-12-21-11-21-14-31-4-14v-9l9 2 29 8 6 1-4-17-10-32-12-40-10-32-12-34-10-24-6-18-7-27-5-35-1-13v-34l4-34 5-29 5-24 7-21 9-24 7-18 10-16 6-6 3 1 10 21 11 17 8 10 11 13 11 12 7 8 12 11 15 13 14 11 18 14 17 13 17 14 11 9 13 11 11 9 7 7 8 7 21 21 2 1-1-2-1-11v-100l1-274 2-10 7-14 11-13 8-7 9-4 5-1 17-1h349zm-92 859v1l11 1 1-2zm1 14v1h8v-1zm17 0 2 2 4-2zm-5 1m10 11-3 3h4z" fill="#C8E6FD"/>
<path transform="translate(978,378)" d="m0 0h196l31 1 8 4 13 15 4 5 3 7 4 10 1 6 1 177v141l-1 83-1 1h-6l-5-7-10-7-7-11-3-5v-2h-2l-5-12-13-18-11-12-5-3-3-5-8-3 3 19 8 14 3 7 3 4 3 8 6 7 6 3 10 11v2l5 2 9 8 1 4-1 5 5 1-3 2-19 7-40 17-21 11-21 13-10 8-6 5-3-1 2-4 5-5 8-9 11-9 8-7 9-7 1-2v-13l-5-5-1-2 5 2 6 6-1-4-6-5-24-6-10-6-7-5-12-1-9-5-9-4-6-2 2 4 7 3 1 4 7 1 3 2-4 1-16-3-2-2-17-4-5-5v-2l-3-1v-11l2-8v-9l3-8 7-5 13-4 22-5 50-3 2-1 18-2h6l-2-26-4-25-5-15-4-8-2-1-1-5h-517l1 6h194l10 2 7 1h4v2l-5 1h-12l-2-1 1 4 4 2v2l-8 3-5 4 1 2-4 2-3 8-6 4 3 2-5 12 1 5 2 3v4h2l1 5 6 3v3h17l11 4 4 3 3 7-1 7-4 5-4 1-12-1-3-1 4 10v7l-5-1-4-13 1-7v-3-3l-5 1h-1v7l2 3-2 5 3 4-3 1 2 5-3 4 10 5v2h7v4l-4 2-2 5h2l2-4 4-4 6-3-3-2 4-5h2l1-3 2 2 10 2 5 3v2h-4l5 4 3 6 11 7 10 8 8 11 9 19 8 20 8 21 2 10v16l-1 9-4 6-7 6-12 7-5-1-3-6-8-3-20-2-30-1-1 3-2-1 1-5v-6l2-7v-4l-10 5h-4v2l-7 1-6-3-1 11 1 12-7 12-3 17-3 33-1 76-4-1-8-3v2l-9 2-176 5-10 7-6 3-16 1-8 2-6-2-9 1-12-5-2-2v-3h-2l-5-22-5-16-6-15-3-4v-2l-5-2-8-4-11-2-19-2-5-2-2-10-1-128v-66l-1-11v-100l1-274 2-10 7-14 11-13 8-7 9-4 5-1 17-1h349z" fill="#FDFDFD"/>
<path transform="translate(221,593)" d="m0 0 3 1 10 21 11 17 8 10 11 13 11 12 7 8 12 11 15 13 14 11 18 14 17 13 17 14 11 9 13 11 11 9 7 7 8 7 22 22 1 64 1 128 2 10 12 2 16 2 8 2 11 6 5 9 8 20 6 26 3 21 9 51 3 24v13l-3 11-8 16-5 13-9 2-2 12-3 11-1 1h-27l-80-1-51-1-22-1-3-3-2-9-5-5-9-6-10-9-11-11-12-16-9-15-18-27-12-21-11-21-14-31-4-14v-9l9 2 29 8 6 1-4-17-10-32-12-40-10-32-12-34-10-24-6-18-7-27-5-35-1-13v-34l4-34 5-29 5-24 7-21 9-24 7-18 10-16z" fill="#6E38C7"/>
<path transform="translate(1230,405)" d="m0 0 5 5 4 8 1 4 1 93v314l26-6 43-7 25-6 37-14 9-1v15l-3 23-7 28-7 20-11 22-11 19-8 12-9 12-9 10-7 8-16 12 2 4 7 9 13 4 26 5 14 5 18 8 21 9 23 12 11 10 1 6-4 6-9 7-35 17-15 9-19 14-13 11-11 9-17 16-15 14-18 18-8 7-9 9-8 7-13 12-8 7-13 11-11 6-9 2-9 1h-49l-50-1h-56l-70 3-51 3h-7v3l5 2 2-2h4l2 7-1 17-2 5-5 1-4-3-1 2-4-1-2-1-10-1-8-2-12-4-8-4-4-3-22-7-4-5-4-2-2-4-5-53-2-1 1-5h-2l-4-27-6 1 1-4 2-1-1-3-3-2-4 1-1 21-1 47-2 22-1 1h-8v-4l1-6 1-153 1-50 2-51 2-12 4-7 8-4 7 1 9 4 3 5 2 1 1 3h33l17-2h11l1 52 5 48 4 45 2 14 2 23 10 81 2 11h2l1 2 8 1 1-7h2l2-6 5-6 6-2h20l16-4 55-8 26-4 37-6 25-5 37-7 22-1 4-2-1-2 2-4 7-2-1-7-18-2-2-4 3-3 2-6 8-2 8 4 1 1h12l24-11 13-10 10-8 4-3h2v-2l4-3h2v-2h2l2-4 2-1 3-7 17-10 10-8h2l-2-4-6-1-6 2-14 8-16 10-7 4-4 2-2 4-12 6-12 1-10 2-13 6-15 4-19 7-6 4-14 7-22 10-24 8-30 8-58 14-26 3-13 1-6-1v-17l3-12 6-10 9-8 14-8 18-7 5-3 2-5v-2l-3-1-5-5-8-5-7-8-6-7-2-9v-14l3-8 8-20 18-36 11-17 10-14 12-16 11-14 11-12 7-8 6-7 8-7 12-10 15-11 24-14 21-10 31-13 19-7-3-2 1-7-5-5-7-6-5-5-8-9-6-3-7-8-3-9-4-5-3-8-5-7-3-13v-9l9 3 4 6 5 3 11 12 13 19 3 8v2h2l7 12 5 7 10 7 3 5h6l1-83v-141l-1-177-2-9-5-10zm-344 832v1l11 1 1-2zm1 14v1h8v-1zm17 0 2 2 4-2zm-5 1m10 11-3 3h4z" fill="#0D74FB"/>
<path transform="translate(623,673)" d="m0 0 1 2h194l10 2 7 1h4v2l-5 1h-12l-2-1 1 4 4 2v2l-8 3-5 4 1 2-4 2-3 8-6 4 3 2-5 12 1 5 2 3v4h2l1 5 6 3v3h17l11 4 4 3 3 7-1 7-4 5-4 1-12-1-3-1 4 10v7l-5-1-4-13 1-7v-3-3l-5 1h-1v7l2 3-2 5 3 4-3 1 2 5-3 4 10 5v2h7v4l-4 2-2 5h2l2-4 4-4 6-3-3-2 4-5h2l1-3 2 2 10 2 5 3v2h-4l5 4 3 6 11 7 10 8 8 11 9 19 8 20 8 21 2 10v16l-1 9-4 6-7 6-12 7-5-1-3-6-8-3-20-2-30-1-1 3-2-1 1-5v-6l2-7v-4l-10 5h-4v2l-7 1-6-3-1 11 1 12-7 12-3 17-3 33-1 76-4-1-8-3v2l-9 2-176 5-10 7-6 3-16 1-8 2-6-2-9 1-12-5-2-2v-3h-2l-5-22-5-16-6-15-3-4v-2l-5-2-8-4-11-2-19-2-5-2v-1l6-2 2-4 3-2 2-12-1-17-2-11h-2l-4-1-2 1-1-11 2-1 2-12 5-2-3-5 2-2 1-7 1-15 1-30 3-7 3-14 6-18 4-6 2-1 3-8 8-4h2l1-6-8 2v2h-2v3l-9 4-4 4-5 1-2 2 1-6 4-10 5-16 3-7 7-10 8-6 7-8 11-14 3-3h2l2-4 9-9 8-4 6-4 7-4 9-3 11-7 18-10 10-8 6-4 3 1-10 8-1 3 2 1-8 7-1 1 5-1-5 5-10 7-6 4 10-5 3 1-17 12-8 4-9 6-12 6 1 2 10-4 8-3 16-8 16-5 8-4 4-3h4l1-5 6-8 6-5 8-6h2l3-9 2-1-1 6 11-6 5-5 1-4-3-4-13-3-6-7v-2l-3 1z" fill="#C8E6FC"/>
<path transform="translate(982,402)" d="m0 0h138l54 1 17 2 9 2 3 5 3 6 1 4v74l-1 17-4 24-2 5-4 3-3 1-122 1-52 1-46 2h-456l-28-2-9-4-2-7v-21l2-3 3-4 6-12 15-14 8-4 4-6 3-1v11l3 5h47l139-2 38-2 6-1 2-5v-6l-6-4-162-1-7-5-2-5-4-1-1-4 12-4 7-4 8-3 21-5 16-4 34-8 15-4 40-6 67-5 71-2 64-3 29-1z" fill="#7FCAFD"/>
<path transform="translate(446,816)" d="m0 0h1l1 64 1 128 2 10 12 2 16 2 8 2 11 6 5 9 8 20 6 26 3 21 9 51 3 24v13l-3 11-8 16-5 13-9 2-2 12-3 11-1 1h-27l-80-1-51-1-22-1-3-3-2-9-5-5-9-6-10-9-11-11-12-16-9-15-8-12 5-6v-10l4-13 6-25 7-24 5-14 4-9 5-18 5-15 6-9 6-7h3v-2l8-3 9-1 30-1h30l11-1 48-2 3 1-1-46z" fill="#4272FD"/>
<path transform="translate(1230,405)" d="m0 0 5 5 4 8 1 4 1 93v314l26-6 43-7 25-6 37-14 9-1v15l-3 23-7 28-7 20-11 22-11 19-8 12-9 12-9 10-7 8-16 12 2 4 4 6v2l-19-2h-34l-37 7-27 8-8 4-27 11-23 11-11 7-18 12-18 14-11 9-6 5-4 5-6 4-5 5h-3l-2 4-14 14-4 2v2l-5-1-12-8-7-8-6-7-2-9v-14l3-8 8-20 18-36 11-17 10-14 12-16 11-14 11-12 7-8 6-7 8-7 12-10 15-11 24-14 21-10 31-13 19-7-3-2 1-7-5-5-7-6-5-5-8-9-6-3-7-8-3-9-4-5-3-8-5-7-3-13v-9l9 3 4 6 5 3 11 12 13 19 3 8v2h2l7 12 5 7 10 7 3 5h6l1-83v-141l-1-177-2-9-5-10z" fill="#9E57E4"/>
<path transform="translate(647,768)" d="m0 0h3l-2 5-2 3 9-5h2l-1 4-3 3 3 1-1 4 2 4-1 5-1 7 11 3 4-1h18l21 3 18 1 11-4 12-6 11-4 3 1v2l22-12h10l6-2 5 4 1 2 3-1 2 4-3 4 10 5v2h7v4l-4 2-2 5h2l2-4 4-4 6-3-3-2 4-5h2l1-3 2 2 10 2 5 3v2h-4l5 4 3 6 11 7 10 8 8 11 9 19 8 20 8 21 2 10v16l-1 9-4 6-7 6-12 7-5-1-3-6-8-3-20-2-30-1-1 3-2-1 1-5v-6l2-7v-4l-10 5h-4v2l-7 1-6-3-1 10h-1l-2-36-23-1-7-1h-9l-17 6-14-1-9-3-7-1h-9l-20 3-20 2-4 3-7 3-11 3-18 2-4 3h-7l-13 3-13 2-2 2h-12l-19-4-5-4-8-8-1-5-2-6v-33l-1-8v-11l4-12 5-8 6-8 8-6 9-6 5-2 7-1 8-4 9-4 6-4 6-2 1-2 11-4 15-3 9-5z" fill="#C8DDF5"/>
<path transform="translate(826,915)" d="m0 0h1l-1 11-1 1v9l-4 7h-3l3 6-9-3-7-1-6 3h-2l-1 4-2 3-2 12-2 51-1 50-1 153-2 10-22 1-224 1-24 1 3-10 7-14 4-11 1-5v-13l-4-30-10-56v-6h2l3 5 11 4 10-1 6 2 9-2 14-1 9-5 7-5 58-2 86-2 32-1 5-1 2-1 2 1v-2l7 1 5 3v-76l3-33 3-17 7-12-1-13 1-11 9 3h5v-2l8-3z" fill="#A2D3FE"/>
<path transform="translate(399,772)" d="m0 0 4 2 13 12 10 9 20 20 1 151v46l-51 2-11 1h-32l-28 1-12 2-5 1v2l-3 1-9 11-5 12-7 25-4 9-10 30-6 23-5 21-2 14-3 3h-3l-12-19-10-18-10-19-14-31-4-14v-9l9 2 29 8 6 1-4-17-9-29 1-4 6 5 3 1 4-9v-7l4-3 3 1v2l9-1-1-2 6-3 2-6 6-2-1-8 5-12h2v-6l4-5 1-3-1-14 1-2 5-2 2-1-2-1v-2l5-1v-2l4 1 2 4 2-5 3-1v-17l-3-9-2-7-7-20-2-3-2-9-2-5v-6l3-2v3h2l1 4 3 1 8 12 7 11 7 10 5 6 1 4 3 1 5 7v2h2l1 5 3 1 6 9 12 15v2l4 2 4 6 8 10 14 18 9 8 2 1v-6l-12-20-4-9-3-9-9-20-5-11-7-11-7-15-1-16h10v2h5l3-11 5-7 3-6 5-4h2l2-5 11-2 3 3 4 13 5 29 3 11 5 8h1l1-12 2-3 4 2v15h2l2 6 1 8v3 9l2 4 1-15 1-46v-69l-7-11-9-11-5-5-14-13z" fill="#5A2CC2"/>
<path transform="translate(888,957)" d="m0 0h1l1 39 1 16 2 10 1 10 3 18 3 15h2l2 3h3l3 3h1v5l2 6 5-5 6-5 14-3 13-11 8-6 12-12 7-8 1-4 4-8 3-3 1-3 5-5 8-11 4-2 2-4 4-4-1-1-4 3 2-4 4-4h2l1-3 8-4h3v-2l7-4h2l1-2 2 6-10 15-9 15-17 34-8 20-2 6v14l2 9 7 8 5 5v2l5 2 8 6 4 5-2 5-10 6-18 7-11 7-8 7-6 12-2 9-1 17 19-1 26-3 42-10 39-10 23-7 19-8 11-5 14-7 8-5 36-12 12-5 15-2 7-1 10-6 5-5 7-4 16-10 15-9 9-1 4 3v3l-11 8-9 6-9 5-3 7-4 4h-2v2l-4 3h-2v2l-11 8-10 8-10 7-22 10h-12l-6-4-4-1-7 2-2 6-2 4 7 2 10 1 2 1 1 7-7 3-1 4 1 2-5 2-22 1-43 8-30 6-43 7-52 7-22 4-7 2h-19l-7 3-3 4-3 6h-2l-1 7h-8l-1-3h-2l-3-11-11-88-1-16-3-22-3-37-5-48z" fill="#7DC8FD"/>
<path transform="translate(221,593)" d="m0 0 3 1 10 21 11 17 8 10 11 13 11 12 7 8 12 11 15 13 14 11 18 14 17 13 17 14 11 9 13 11 6 7 8 7 5 5 7 8 8 11v7l-2 2-5-2v-3l-4-2-5-7-1-5-12-14-12-12-8-5v-2l-7-2-1-2-3-1v-3l-5-2-8-6v-2l-5-2-1-3-5-2-15-10-9-4-5 1-4 4h-15l-8-1v2h-3l1 13-3 6-6 3-9-1-2-1-3 1-1 1 3 7 8 15 6 10 5 8 3 12 6 11 6 8 9 13 2 4v3h2l4 8v2h2l2 7v2l1 4-1 3h-7l3 5 3 9-1 5-4-2-6-7v-2l-3-1-10-14-11-16-7-10-11-18-5-6-6-10-1-9h-2l-8-16-4-6-4-3v-2l-9 1-11 4-2 13-7 9-4 3-12 2-3 3-1 3h2l1 6-6 11-2 9-1 4 2 7v7l2 13 1 7 1 5 1 7 1 2-1 2 2 1 2 5 1 2-1 2h2l2 9 3 15h-2l2 10h-2l-7-20-8-19-6-18-7-27-5-35-1-13v-34l4-34 5-29 5-24 7-21 9-24 7-18 10-16z" fill="#9E4EDE"/>
<path transform="translate(481,1106)" d="m0 0 5 2 5 3v2l4 1 5 5 4 5 2 5 7 3 3 4 1 5h2l2 9 4 1 4 14v7h2l1 9v13l-3 11-8 16-5 13-9 2-2 12-3 11-1 1h-27l-80-1-51-1-22-1-3-3-1-9 8 5 10 3h5l-12-6v-2h-2l-1-4-4-2-2-4-3-1-2-5-1-3 5-10 1-4 4-5 5-5 7-8 5-6h2l2-5 6-7 4-4 6-4 5-4 8-4 6-4 13-3 14-8 6-4 14-4 7-3 9-3 7-5 6-1v-2l9-6 5-3 1-4 5-3z" fill="#3055F0"/>
<path transform="translate(577,652)" d="m0 0h20l12 2 13 5 4 8 513 1v1h-516l1 8h2l6 8 13 3 4 5-2 5-8 7-6 3h-2v-5l-4 9-10 7-8 7-5 10-7 3-5 3-12 5-8 2-12 6-5 3-11 3-6 3-2-1 5-5 15-8 7-5 9-5 9-7-11 5-2-1 11-7 11-8-7 2 10-10-2-1 5-6 4-4-9 6-9 7-15 8-13 8-7 2-7 4-9 6-6 3-14 14-13 16-7 8-5 4h-2l-2 4-5 7-3 9-6 19-2 6 5-1 1 1 4-5 8-2v-3h2v-2l8-2-1 6-8 4h-2l-3 9-4 4-6 17-3 10-1 7-3 7-1 36-1 9-1 7-2 3 2 4-4 2-2 15-2-2 1 10 2-1v2l5-2 3 13 1 19-2 10-4 2-1 4-2 2h-5l-2-9-1-128v-66l-1-11v-99h1l1 81 1 7 3-9 6-17 4-7 7-25 7-22 11-23 5-6 5-5 11-7 19-7 12-4 31-7z" fill="#E3F4FF"/>
<path transform="translate(1136,875)" d="m0 0 2 1-11 7-3 1-2 4-3 1v2l-8 7-8 9-5 6h-2l-2 4-7 11-1 3 3 1v3l4 2 6 4 5 2h6l4 3 15 4 30 3 6 4v2l6 1 5 6v3l4 6 1 4 9 7 1 5 18 1-4 2-25 8-9 4-31 13-21 11-15 10-13 9-14 11-11 9-6 5-4 5-6 4-5 5h-3l-2 4-14 14-4 2v2l-5-1-12-8-7-8-6-7-2-9v-14l3-8 8-20 18-36 11-17 10-14 12-16 11-14 11-12 7-8 6-7 8-7 12-10 15-11z" fill="#6841E2"/>
<path transform="translate(1140,671)" d="m0 0 1 3 3 1 6 13 4 15 4 28v18l-24 3-46 2-15 1-58 1h-18l-30 3-4 1h-49l-10 3-2 5-3 2h-4l-1-2-5 3h-7l-4 1-1 2h-7l-7 3-3 8h-1v-9l7-13 3-9v-8l-2-6 4-1 5-4 8-2h21l12 2h8l12-2 11-1h11l12 1 9-1 16 1 9-1-4-2-4 1-4-2 4-3v-3l-7 1-5 1-10-2v-2h8l5-1 8 1 10-1-10-2h-5l-4 1-8-1-7-2v-2l-7-1-3-4-3-2 6-1-7-3-7-2-5-4-2 1v-3h-2l-3-3h-4l-2 2-2-2v-3l-5-1-6 1-2 4h-5v-2h2v-2l-3 1-2-1-13 4-3 1 2-4 4-3h9l9-2h18l16-2-10-1 3-2h-7l4-2 20-2h45l98-1 25-1 10-1z" fill="#C8E6FD"/>
<path transform="translate(805,944)" d="m0 0 7 1 9 4 3 5 2 1 1 3h46l12-1 1 3v28l-2 19 2 31 1 7 1 28 3 15v10l1 2 1 13v14l-7 4-5 7-9-3-3-3-6-10v-4h-2l-10-33-7-31-1-6-3-1-3-4-7 1-2 15-2 39-1 64-2 52-1 5h-1l-3-25-1-13-2-1 1-5h-2l-4-27-6 1 1-4 2-1-1-3-3-2-4 1-1 21-1 47-2 22-1 1h-8v-4l1-6 1-153 1-50 2-51 2-12 4-7z" fill="#0D145A"/>
<path transform="translate(839,790)" d="m0 0 2 2 10 2 5 3v2h-4l5 4 3 6 11 7 10 8 8 11 9 19 8 20 8 21 2 10v16l-1 9-4 6-7 6-12 7-5-1-3-6-8-3-20-2-30-1-1 3-2-1 1-5v-6l2-7v-4l-10 5h-4v2l-7 1-6-3-1 10h-1l-2-39-5 1-33-2-14-3-14-6-12-9-15-14-8-7-9-10-9-12-9-9-2-1 1-2 32 5 12 5 8 6 7 7 9 11 6 4 27 6h13l13-1 2-10 5-12 5-8 5-5 6-7 5-8h2l2-4 4-4 6-3-3-2 4-5h2z" fill="#FEA943"/>
<path transform="translate(323,726)" d="m0 0 9 3 16 10 6 4 1 3-5 1 1 5h2v2h2l5 6 1 3-2 1-1 4-5 1-3 3h-7l-6 2-5 1-3 1 2 16-1 7-1 3-1 13-1 2-4 2v2l-4 1v-3l-3-1v-2l-3-1v-2l-5-1-3-5-5 1 2 6 1 4h2l7 14 4 6 3 7 8 13 10 17v2h2l12 22 4 10 7 11 2 6 7 12 3 7v3h2l1 6 3 7v5l-4 1-5-4-4-7-1-3h-2l-5-7-5-5-6-7-4-4-2-5-8-10-3-4v-2h-2l-12-17-9-12-10-15-10-14-8-12v-2l-4-2-3-4-4 1 3 14-1 5h-3l1 13 2 4v13l-3 2-8-1-5 7h-2v-2l-7 1-4 3-12 1h-5l-2 5v13l-3 1-3 12-1 8v6l2 6v4h2v9l1 5v7h2l2 10 3 8v6l-4 1-2-1-13-42-6-16v-6l-1-7 1-1-2-11-1-5v-4l-2-1 1-2h-2l-1-4-3-6-1-4-1-8-3-16-1-15-2-10 2-5 2-6 5-10v-6h-2l1-5 3-2 12-2 6-5 4-6 2-13 12-5 7-1 2 1v2l4 2 4 5 8 16v2h2l2 9 6 10 5 6 8 13 7 11 20 28 4 6 5 5 5 6h2l-1-6-3-8-1-4 4-1 3 1-1-7v-3l-1-6h-2l-4-7v-3h-2l-5-10-8-11-7-10-4-8-3-12-6-9-6-11-8-15-2-5 1-3 2 1 3-1 6 2 6-1 4-1 2-9v-10h3v-2h23l4-4z" fill="#8541D4"/>
<path transform="translate(995,400)" d="m0 0h67l85 1 40 1 9 1 4 4-9-1-17-2-56-1h-136l-35 1-62 3-30 1-63 2-67 5-40 6-15 4-59 14-15 4-9 4-8 4-7 1 1 4 4 1 3 5 6 4 162 1 6 4 1 1v6l-3 5-6 2-38 2-139 2h-47l-4-6v-10l-4 4-3 4-7 3-9 9-6 5-8 16-3 2v-76l1-5 17-12 10-4 8-4 21-5 48-4 28-1 45-1 133-2 129-1z" fill="#A1E2FE"/>
<path transform="translate(446,816)" d="m0 0h1l1 64 1 128 2 10 12 2 16 2 8 2 11 6 5 9 8 20v6l-3-4h-16l-29 1-32 2-25 3-13 2-15 4-12 6-13 9-15 15-16 11-9 6h-2l-1 3-4 4-7 4-6 7-3 5-5 3-2 1-1-8 2-11 2-25-1-7-1-29 7-25 6-12 8-9h3v-2l8-3 9-1 30-1h30l11-1 48-2 3 1-1-46z" fill="#73AFFC"/>
<path transform="translate(877,956)" d="m0 0h11l1 52 5 48 4 45 2 14 2 23 10 81 2 11h2l1 2h8l5-3 5-1h35l23-1 8-1 5 2 6 1v1l-8 1-60 3-35 2h-7v3l5 2 2-2h4l2 7-1 17-2 5-5 1-4-3-1 2-4-1-2-1-10-1-8-2-12-4-8-4-4-3-22-7-4-5-4-2-2-4-1-15 1-5 2-52 1-64 2-39 2-13 4-4 5 1 5 5 5 18 5 23 8 26v3h2l4 10 3 4v2l11 3 5-7 6-3v-14l-1-13-1-4v-8l-3-15-1-28-1-7-2-32 2-18v-31l-12 2h-13v-1zm9 281v1l11 1 1-2zm1 14v1h8v-1zm17 0 2 2 4-2zm-5 1m10 11-3 3h4z" fill="#0B1775"/>
<path transform="translate(623,669)" d="m0 0h517v4l-10 2-25 1-119 1h-25l-18 2h7v1l-5 1 9 1-2 2-16 2h-18l-11 2h-7l-5 4-1 2 9-4 8-2 4 1v2h-2v2l5-1 1-4 10-1 3 2 1 4 2-2 6 1 1 3 6 2 4 4 9 2 6 3v1l-5 1 3 4 7 2v2h6l4 1 8 1 3-1 11 1 8 2v1l-19 1-7-1-9 1-2-1v2l14 1 1-1h7l1 4-4 2 5 1 3-1 4 4-18 1-14-1-4 1-12-1h-11l-19 2-3 1-17-1-3-1h-21l-10 3-5 4h-1l2 5v8l-5 13-5 9-3 4-3 10-2 3-10-1-1-1 1-13 4-11v-6l-6-7-9-4-4-1-17-1v-3l-4-2-3-3v-3h-2l-3-7-1-5 5-12-4-3 7-3 4-9 3-2-1-2 6-4 5-2h3l-1-2-4-2v-4h19v-2l-8 1v-2l-3 1-13-2-191-1z" fill="#BCE9FE"/>
<path transform="translate(1302,1112)" d="m0 0 4 1 1 4-4 7-4 5-7 8-16 16h-2l-2 4-7 8h-2l-1 3h-2l-2 4-6 5-1 2h-2v2l-5 2v2l-5 4-1 3-12 9-11 9-21 13-15 6-6 1h-161l-9-2-5-1-5 1-23 1h-35l-7 2h-3l1-5h2l2-6 5-6 6-2h20l16-4 55-8 26-4 37-6 25-5 11-2 16-1 5-2 6-1 22-1 10-2 1-5 6-7 2-4-7-3 1-5 14-3 11-5 13-5 11-2 3-5 4-5 9-4 8-2 4 2 5 2v6l8-4 10-8z" fill="#107DFD"/>
<path transform="translate(1158,743)" d="m0 0h1l3 19 8 14 3 7 3 4 3 8 6 7 6 3 10 11v2l5 2 9 8 1 4-1 5 5 1-3 2-19 7-40 17-21 11-21 13-10 8-6 5-3-1 2-4 5-5 8-9 11-9 8-7 9-7 1-2v-13l-5-5-1-2 5 2 6 6-1-4-6-5-24-6-10-6-7-5-12-1-9-5-9-4-6-2 2 4 7 3 1 4 7 1 3 2-4 1-16-3-2-2-17-4-5-5v-2l-3-1v-11l2-8v-9l3-8 7-5 13-4 22-5 50-3 2-1 18-2h6z" fill="#D8F1FE"/>
<path transform="translate(1303,990)" d="m0 0 22 5 19 4 16 6 18 8 20 9 20 11 10 9 1 6-4 6-9 7-35 17-15 9-19 14-13 11-11 9-17 16-15 14-18 18-8 7-9 9-8 7-13 12-8 7-13 11-11 6-9 2-9 1h-49v-1l37-1 12-3 16-8 18-12 12-10 5-4h2l1-4 3-3h2v-2l5-2v-2h2l2-4 6-5 4-5 5-5 6-7 8-7 15-15 4-6 4-5 1-7-5 1-9 7-12 9-5 2-1-2v-5l-7-2-3-1-12 4-5 4-3 6-2 2-13 3-14 5-8 4-14 3-1 4 5 1 3 2-2 4-6 7-1 5-5 2-6 1-22 1-7 2-4 1h-10v-1l20-4 22-1 4-2-1-2 2-4 7-2-1-7-18-2-2-4 3-3 2-6 8-2 8 4 1 1h12l24-11 13-10 10-8 4-3h2v-2l4-2v3l12-11 11-8 8-6 7-8 6-6h2l2-4 8-7 5-6 2-4-5-1-10 4-10 3 4-4 17-10 10-6 7-2-1-3 4-2 2-2h-4l1 2h-3v-2l-3 1-7-1-4-4-9-2 1-2h5l3-2v-3h10l-1-2-12-3-13-4-7-5-7-2-1-4 14-1 1-5-3-1z" fill="#128AFD"/>
<path transform="translate(1246,985)" d="m0 0h34l20 2 4 5 2 1-1 5-12 2-1 3 9 2 5 4 13 4 12 3 3 3-7 1-5-1 1 4-5 2h-4l9 3 4 3 9 1 1 1 1-2 5 1-1 3h-3l-1 2-3 3-8 4-19 11-8 5 10-4 8-1 1-2 7 1-3 5-3 4h-2l-2 4-8 7-14 14-4 5-11 8-9 7-9 8-2-1 4-6h2l2-4 2-1 3-7 17-10 10-8h2l-2-4-6-1-6 2-14 8-16 10-7 4-4 2-2 4-12 6-12 1-10 2-13 6-15 4-19 7-6 4-14 7-22 10-24 8-30 8h-5v-2l13-5 18-4 16-8 14-6 19-10 17-7 20-7 29-12 12-6 12-3 8-4 20-12 11-6 3-3h2v-2l6-3 1-2 11-6 7-6 6-8v-2l-20 3-20 1-12 3-18 6-21 5-6 3-12-1-2-3 1-7-10-1-6 2-7-8-9-3-15-3 1-4 3-1-4-1 1-6 10-9 9-7 5-4h2l1-4 6-3 1-2 24-7z" fill="#107CFC"/>
<path transform="translate(1230,405)" d="m0 0 5 5 4 8 1 4 1 93v314l26-6 43-7 25-6 37-14 9-1v9l-6 18-5 26-6 20-6 15-14 28-14 24-5 8-1-3 3-5v-5l3-8-1-8-2-6h2l-1-9-5-3-4-6-9-6-5-4-3-5-4-7v-3l-4-2-7-5-15-5-14-6-12-6h-12l-3-6-8 3h-8l-1-5 1-3-5-5-7-6-5-5-8-9-6-3-7-8-3-9-4-5-3-8-5-7-3-13v-9l9 3 4 6 5 3 11 12 13 19 3 8v2h2l7 12 5 7 10 7 3 5h6l1-83v-141l-1-177-2-9-5-10z" fill="#B158E3"/>
<path transform="translate(900,947)" d="m0 0 5 2 1 1 12 2 4 5 1 3 9 4 1 3h3v2l11 1 12 1 9 1 17-3 24-10 9-3 4-2 7-1 9-3v2l3 1 2 2 5 2-2 4-8 11h-2l-2-3-6 4h-3v2l-11 5-5 5-2 3 4-3-1 4-6 7-5 4-4 6-6 8h-2l-1 4-4 4-1 5-2 3-2 4-9 11-8 7-7 6-11 9-4 3-16 4-7 6-3 3v-6l-2-1-1-4h-2l-1-3h-3l-1-4h-2l-3-10-1-5-3-20-1-8-2-10-1-16v-39l4-1 2-4z" fill="#A3D4FF"/>
<path transform="translate(221,593)" d="m0 0 3 1 10 21 11 17 8 10 11 13 11 12 7 8 12 11 15 13 14 11 18 14 17 13 17 14 11 9 13 11 6 7 8 7 5 5 7 8 8 11v7l-2 2-5-2v-3l-4-2-5-7-1-5-12-14-12-12-8-5v-2l-7-2-1-2-3-1v-3l-5-2-8-6v-2l-5-2-1-3-5-2-5-5-10-7-14-10-18-13-12-9-4-2-5-4-6-7-8-5-1-3-4-1-1 5v3l-4-1-5 2 1 4-1 2h-6l2 1 1 6 4 6v8l-2 3h-6l5 15 6 12 3 10-1 9 4 1v3l-3 3-9 1v-2l-4-1-1-3-3-3-9-25-3-10v-3l-4-1h-8l-9 2-6-1-5 4h-2l-2 4-8 7-4 2-3 6-2 7-1 5-4 4-1 6-1 27v19h-1l-1-13v-34l4-34 5-29 5-24 7-21 9-24 7-18 10-16z" fill="#B158E3"/>
<path transform="translate(492,1060)" d="m0 0h16l2 2v3h2l2 6v5l-1-4-3-1v-2l-3-1v-2l-5-2-8-1-43 7h-4v2l-16 4-10 6h-2l-2 4-5 7-9 7-5 5-28 18-13 9v3l-8 8-5 4-1 2h-2l-2 4-6 10-11 16-6 8-5 5-9 18-1 3v11l6 11-5-1-10-9-11-11-12-16-9-15-8-12 5-6v-10l4-13 6-25 7-24 5-14 4-9h1l1 6 1 20 1 9-2 23-2 11 1 7 3-3h3l2-5 8-9 6-3 5-6 11-7 16-11 16-16 12-8 14-7 17-4 25-3 27-2 20-1z" fill="#3F7EF9"/>
<path transform="translate(1070,461)" d="m0 0h62l21 2 3 1 1 3 1 15v37h-37l-34-1h-111l-4-4-4-12-1-5v-18l3-8 7-6 5-1 18-1z" fill="#FFD43E"/>
<path transform="translate(1079,900)" d="m0 0 6 4 3 1 2 5-14 14-9 11-8 9-10 13-7-2-4-3v-2l-12 5-6 1-6 3-13 4-16 7-17 3-18-2h-8l-6-2v-2h-3l-4-4-7-3-4-7-12-2-4-3-4 1-5 7-5 1h-11l-17 2h-33l-1-4-3-1-5-8v-3h3l1-4 3-1 1-2h30l20 2 8 3 4 7 6-1 14-9 5-6 3-6 3-17 2-2 1 1v5l5-2v2l9-2 7 3h9l9-1 11-4 13-3h9l12 3 2 1 15 2 13-1 11-4 13-1h11v-2h4l1-2h2z" fill="#B6DBFC"/>
<path transform="translate(968,507)" d="m0 0 3 2 5 11v2l17 1 97 1 59 2 9 2 1 3 2 1 37 2 2-4 2-2v9l-2 5-4 3-3 1-122 1-52 1-46 2h-262l-31-1v-1l25-1 22-3 13-1 37-1 34-2 33-4 28-5 42-7 13-3 19-3 16-6 4-3h2z" fill="#5CB3FD"/>
<path transform="translate(498,1031)" d="m0 0 9 3 11 4h8l12 2h37l6 1h21l2 1h12l5 1 3-2 6 1 2 1 5-2h11l6 2 1 3 9-1 5 4 5 2 3-1 5 9 9 4 3 6-1 2 3-1 16 5 6 1h43l4-1 14-1 2-4 2-3 1-16h1v31l-4-1-8-3v2l-9 2-176 5-10 7-6 3-16 1-8 2-6-2-9 1-12-5-2-2v-3h-2l-5-22-5-16-6-15z" fill="#B5DBFD"/>
<path transform="translate(577,652)" d="m0 0h20l12 2 13 5 4 8 513 1v1h-516v7l-5 2-24 4-18 7-11 5-13 4-16 8-12 9-3 1-2 4-10 13-7 9-5 4-7 8-8 7-8 14-7 21-3 11-6 7-5 4-1 12-4 4-1-1v-19l-1-11v-99h1l1 81 1 7 3-9 6-17 4-7 7-25 7-22 11-23 5-6 5-5 11-7 19-7 12-4 31-7z" fill="#E8F6FE"/>
<path transform="translate(1162,861)" d="m0 0 4 1-9 6-3 5-4 3-1 3-3 2v13l-1 3 1 4 4 1 8 5 16 4 16 8 10 7 5 3 2 1 1 4 5 3 4 2 2 4 3 3v2h-2l4 7v4l3 1 4 11 5 3 5 2 4 4 30 3 13 2v1h-42l-33 6-12 1-11-1-2-7-8-6-3-7-3-5v-3l-5-4-4-1-4-4-2-1-20-2-11-1-16-5-3-2-7-1-6-3-7-5-1-3-2-1 1-4 6-10 3-4h2l2-4h2l2-4 7-8 3-1 2-4 3-1v-2l8-7 10-6v-2z" fill="#804EE8"/>
<path transform="translate(1151,709)" d="m0 0h4l3 22v18l-24 3-46 2-15 1-58 1h-18l-30 3-4 1h-49l-10 3-2 5-3 2h-4l-1-2-5 3h-7l-4 1-1 2h-7l-7 3-3 8h-1v-9l7-13 3-9v-8l-2-6 4-1 5-4 8-2h21l12 2h8l12-2 11-1h11l12 1 9-1 16 1 6 1 2 1 28 1h18l8-1-9-1 2-2 5-1-6-1 2-2 26-1-3-2-5-1 4-2h13l9 2h12l9 2h8l7-3-1-2 6-4 2-2 10-1z" fill="#B6E4FE"/>
<path transform="translate(549,387)" d="m0 0h54l55 3 38 1 35 2 28 1 118-1 46-1 30 1 21 2h37l31-1 37 2 52 2 45 3v1h-29l-89-1h-63l-88 1-118 1-141 2-44 1-35 2-34 3-24 6-12 6-9 5-9 7h-2v102l1 5h-3v-121l2-16 7-9 8-4 12-3 8-1z" fill="#F0FBFE"/>
<path transform="translate(323,726)" d="m0 0 9 3 16 10 6 4 1 3-5 1 1 5h2v2h2l5 6 1 3-2 1-1 4-5 1-3 3h-7l-6 2-5 1-3 1 2 16-1 7-1 3-1 13-1 2-4 2v2l-4 1v-3l-3-1v-2l-3-1v-2l-5-1-3-5-5 1 2 6 1 4h2l7 14 4 6 3 7 8 13 10 17v2h2l12 22 4 10 7 11 2 6 7 12 3 7v3h2l1 6 3 7v5l-4 1-5-4-4-7-1-3h-2l-5-7-5-5-6-7-4-4-2-5-8-10-3-4v-2h-2l-12-17-9-12-10-15-10-14-15-23-4-8 1-2 10 16 7 11 20 28 4 6 5 5 5 6h2l-1-6-3-8-1-4 4-1 3 1-1-7v-3l-1-6h-2l-4-7v-3h-2l-5-10-8-11-7-10-4-8-3-12-6-9-6-11-8-15-2-5 1-3 2 1 3-1 6 2 6-1 4-1 2-9v-10h3v-2h23l4-4z" fill="#8441D4"/>
<path transform="translate(1209,842)" d="m0 0h2v2l-4 1-1 3-7 5-1 3 3 2 2 9-3 1 3 3v3h2v3l6 2 12 8-1 5 6 6v2h3l2 5 4 2 8 12 8 5v3l4 1 3 2 5 10 5 8 3 2v6l-6 4v3l-2 6 3 9v3l6 1v1l-19-1-10-1-5-5-4-1-6-4-4-11-2-1-3-7-1-4h2v-2l-3-1-3-5-1-2-5-1-4-5 1-2-6-2-5-4-6-4-16-8-11-3-9-3-5-4-3-1-2-5 1-2v-13l4-2 1-4 4-2 2-5 6-5 3-2 2-2 31-13z" fill="#9055E8"/>
<path transform="translate(578,822)" d="m0 0h21l10 5 8 8 8 14 4 14 1 6v15l-3 10-4 6-11 4-17 4-8 1h-28l-12-3-7-6-4-10-1-4v-12l4-15 7-11 13-15 9-7z" fill="#FFD33E"/>
<path transform="translate(351,745)" d="m0 0 7 2 2 1v2l4 2 9 6v3l4 1 1 2 6 2v2l5 2 10 9 5 5 11 12 3 4 1 6 5 6 2 1v3l5 1 2-6 2 2v69l-1 52-1 11-3-1-1-9v-5-3l-1-15v-11l-2-10-1-8-3-7-4-10-3-16-1-7-3-4-3-8-3-3-3-5-7-8-3-5-7-7-5-3-10-3-6 2-3 9-6 3-4 6h-2l1 3-1 1v10l-3 5v8l-2 5-6 2-5-1v7l-2 1-2-2v1l10 19-2 1-9-16-12-19-3-7-8-14v-3h-2l-4-8 2-4 5 1 2 5 5 1 4 5 2 1v3l5-5h3l1-17 2-4-1-16-1-5 4-1 5-1 6-2h9l1-3h5l1-5v-3l-4-4v-2h-2v-2h-2l-2-6z" fill="#6E38C7"/>
<path transform="translate(834,1047)" d="m0 0 4 1 5 6 15 60 6 23 6 29 5 24 3 17 1 10v10h-54l-1-1 1-25 1-28 2-95 1-2 1-26 1-2z" fill="#7DC8FD"/>
<path transform="translate(801,780)" d="m0 0 6 4 1 2 3-1 2 4-3 4 10 5v2h7v4l-4 2-3 8-7 10-6 7-4 4-5 10-5 16-13 2h-13l-13-3v-2l-6-2-9-7-1-3h-2l-7-8v-2h-2l-5-5-9-8-12-6-15-4-8-4-5-1-5-5 2-2h18l21 3 18 1 11-4 12-6 11-4 3 1v2l22-12h10z" fill="#B6DCFC"/>
<path transform="translate(995,400)" d="m0 0h67l85 1 40 1 9 1 4 4-9-1-17-2-56-1h-136l-31 1h-48l-41 2h-70l-47 2-42 3-37 4-36 5-25 5-33 8-24 6-11 3-9 2-10 5-13 7-14 10-4 2-2 4-3 3h-3v18h-1v-53l1-5 17-12 10-4 8-4 21-5 48-4 28-1 45-1 133-2 129-1z" fill="#B6E4FE"/>
<path transform="translate(432,1208)" d="m0 0h8l8 2h5v-1h9l8 2 3 2 4 2v2l10 1 5 2 6 10-1 9-3 6-1 5-7 6-9 3h-83l-51-1-22-1-3-3-1-9 8 5 14 4h14l1-3h2l1-3h2v-2h2l-1-6 3 1v-2h2l1-5h2l3-5 26-15 10-1z" fill="#253EDA"/>
<path transform="translate(1036,973)" d="m0 0h1v6l-4 7-3 8-4 8-1 4-3 7 3 1v2h2l1-5 5 5 14-4h5l1 3-1 4h2v2h7v2h2v3h2l2 5h3v9l-8 14-3 11 1 2 4 1-11 11-8 7-11 12-5 4-5 6h-2v2l-5-1-12-8-7-8-6-7-2-9v-14l3-8 8-20 18-36 11-17z" fill="#592CC2"/>
<path transform="translate(481,1106)" d="m0 0 5 2 5 3v2l4 1 5 5 4 5 2 5 7 3 3 4 1 5h2l2 9 4 1 4 14v7h2l1 9v13l-3 11-2 1v-7l-1-2-1-15h-6l-9-4-4-9-3-8-2-8-5-5-6-7-8-4-9 1-10 4-3 2-9 3-7 4-15 4-11 5-12 2-10 4-7 4-13 8-14 10-6 9-8 7-11 12-5 8-2 11 4 10 2 2v3l-5-2-3-1v-2h-2l-1-4-4-2-2-4-3-1-2-5-1-3 5-10 1-4 4-5 5-5 7-8 5-6h2l2-5 6-7 4-4 6-4 5-4 8-4 6-4 13-3 14-8 6-4 14-4 7-3 9-3 7-5 6-1v-2l9-6 5-3 1-4 5-3z" fill="#3068F4"/>
<path transform="translate(1256,1054)" d="m0 0h27l2 1-1 4-9 8-9 4-8 8-13 8-10 6-16 7-17 7-16 6-22 9-25 8-13 7-20 7-10 3-5-1-4-2 2-4v-3l3-3 4-2 1-3 6-3 6-7 3 1 2-3v-3l11-9h7v-2l10-4 1-3 5-2 5-1 4-1 1-3 11-4 26-8 18-8 11-4 12-5 15-5z" fill="#0B6EF8"/>
<path transform="translate(437,1054)" d="m0 0h24l38 1 11 1 1 9-3-4h-16l-29 1-32 2-25 3-13 2-15 4-12 6-13 9-15 15-16 11-9 6h-2l-1 3-4 4-7 4-6 7-3 5-5 3-2 1-1-8 2-11 2-25-1-7-1-29 3-10 8 3 15 2 5 1 21-2 25-2 21-1 9-1 40-2z" fill="#609EFB"/>
<path transform="translate(232,1021)" d="m0 0 3 1 1 5 4 10 2 8 7-2 3 5 5 3-2-2v-8l9 1 2 2v11h-2v2l3 1 3 7v6l2 2 4-4 1-2 6-1-2 9-11 34-6 23-5 21-2 14-3 3h-3l-12-19-10-18-10-19-14-31-4-14v-9l9 2 29 8 6 1-4-17-9-29z" fill="#4C25BF"/>
<path transform="translate(1293,1073)" d="m0 0 6 1 2 2v3l-11 8-9 6-9 5-3 7-4 4h-2v2l-4 3h-2v2l-11 8-10 8-10 7-22 10h-12l-6-4-4-1-7 2-2 6-2 4 7 2 10 1 2 1 1 7-7 3-1 4 1 2-5 2-22 1-43 8-30 6-43 7-52 7-22 4-7 2h-19l-7 3-3 4-2 3v-5l7-6 13-3 7-2 4-6 6-3 21-3 6-2 39-5 6 1 6 3h16l24-3 31-5 18-4 23-7 9-5v-2l2-1-1-4-7-3 1-5h2l2-5 9-5 11-3v-4l-4-1 1-4 3-4-7 1-5 3-6 5-14 4-17 7-11 5-21 7-23 6-8 2h-5l4-2 26-7 24-8 22-10 14-7 8-5 36-12 12-5 15-2 7-1 10-6 5-5 7-4 16-10 15-9z" fill="#5BB1FC"/>
<path transform="translate(1024,1206)" d="m0 0h28l83 2 29 1h18l5 2 2 4-1 5-4 3 2 1-5 2-14 3h-19l-19 1h-117l-9-2-5-1-5 1-23 1h-35l-7 1 2-4 4-2v-3l3-2 24-4 20-4 31-4z" fill="#253EDA"/>
<path transform="translate(370,796)" d="m0 0 10 3 8 5 2 5 3 1 4 6v2l4 2 4 5 6 10 3 7 1 1 3 20 3 9 4 7 2 10 1 10 1 7v11h-2v-4h-2l-1-7v-8l-3-2-1 5-1 10-2 2-6-10-4-15-4-25-4-13-4-2-9 1-2 5-6 4-5 9-4 7-3 8h-5v-2l-3 1-7-1 1 3 1 16-4-5-3-5v-2l-4-2-13-26v-2h-2l1-2 4 2 1-7h7l4-1 1-9 1-6 2-3v-10l1-4h2l2-4 4-4 3-1 4-9z" fill="#6931BF"/>
<path transform="translate(706,467)" d="m0 0h42l6 4 1 1v6l-3 5-6 2-38 2-139 2h-47l-4-6v-9h2l1-4 3-2h70z" fill="#E3F7FE"/>
<path transform="translate(974,521)" d="m0 0 5 1 14 1 97 1 59 2 9 2 1 3 2 1 37 2 2-4 2-2v9l-2 5-2 2-14 1-141 1-25 1h-26l-2-6-9-9-7-9z" fill="#128AFD"/>
<path transform="translate(1303,990)" d="m0 0 22 5 19 4 16 6 18 8 20 9 20 11 10 9 1 6-4 6-9 7-29 14h-2v-5l1-5-2-1 4-6 1-5 1-3-17-1-5-2-3-4v-2l-14-5-14 3-1-3 4-2 2-2h-4l1 2h-3v-2l-3 1-7-1-4-4-9-2 1-2h5l3-2v-3h10l-1-2-12-3-13-4-7-5-7-2-1-4 14-1 1-5-3-1z" fill="#1288FC"/>
<path transform="translate(1158,743)" d="m0 0h1l3 19 8 14 3 7 3 4 3 8 6 7 6 3 10 11v2l5 2 9 8 1 4-1 5 5 1-3 2-19 7-12 5h-7l-1-4 1-4-3-3-2-6-5-6-10-10-6-5-4-6-4-4-3-6-4-5v-2l-5-2-1-4-1-5-3-4-3-7 1-4 7-8 7-5 5-2 13-1z" fill="#E3F4FE"/>
<path transform="translate(903,1172)" d="m0 0 2 2 3 20 1 1 3 24 2 11h2l1 2h8l5-3 5-1h35l23-1 8-1 5 2 6 1v1l-8 1-60 3-35 2h-7v3l5 2 2-2h4l2 7-1 17-2 5-5 1-4-3-1 2-4-1-2-1-10-1-8-2-12-4-8-4-4-3-22-7-4-5-4-2-2-4 1-7 5 2 45-1 6-2 5-6 6-11 4-5 4-19 3-12zm-17 65v1l11 1 1-2zm1 14v1h8v-1zm17 0 2 2 4-2zm-5 1m10 11-3 3h4z" fill="#0D145B"/>
<path transform="translate(1261,1152)" d="m0 0h2l-2 6-7 10-11 12-3 3h-2v2l-4 4-5 7h-2l-1 5-11 9-21 13-15 6-6 1h-44v-1l20-1h18l17-4-4-1 6-3h2v-5l-2-4-8-1h-14l-29-1-49-1v-1l79-1v-2l-9-2-59-3-4-1 1-3 13-3 5-1 14-1 4-2 9-3 13-1h14l20-2 3-1 16-1 8-4 9-3 3-3 6-3 3-5 4-2 10-2z" fill="#0D75FC"/>
<path transform="translate(261,812)" d="m0 0 3 1v2h3l9 16 3 4-1 2-5-6-4 1 3 14-1 5h-3l1 13 2 4v13l-3 2-8-1-5 7h-2v-2l-7 1-4 3-12 1h-5l-2 5v13l-3 1-3 12-1 8v6l2 6v4h2v9l1 5v7h2l2 10 3 8v6l-3-1-3-9-4-8-3-12-2-7h3l-2-5-1-7-1-2-1-11-3-8-2-18-2-10 4-14h3l1-12-1-5h3l10-1v-2h2l2-5 2-4h15v-2h2l1-12 1-3 5-4 4-8 1-7z" fill="#793FD4"/>
<path transform="translate(262,674)" d="m0 0 5 2v3l5 2 5 5 4 3v2l4 2 4 3 11 7 10 8 28 20 6 4 1 2-5-2-9-6-8-2-3 1-4 4h-15l-8-1v2h-3l1 13-3 6-6 3-9-1-2-1-3 1-1 1-1 4-5-9-8-16v-2h-2l-4-9-2-5v-4l6-1 1-2v-8l-5-9-1-4h6v-6l6-3 3 2-1-3v-3z" fill="#9F4FDF"/>
<path transform="translate(252,732)" d="m0 0 3 4 8 17 3 4v2l3 1 9 17 6 10 5 8 3 12 6 11 6 8 9 13 2 4v3h2l4 8v2h2l2 7v2l1 4-1 3h-7l3 5 3 9-1 5-4-2-6-7v-2l-3-1-10-14-11-16-7-10-11-18-5-6-6-10-1-9h-2l-8-16-4-11-5-12 1-3 2 7 3 1v3l6 2h5l1-2 3 1 1-4-4-2v-10l-5-13z" fill="#9E56E5"/>
<path transform="translate(1156,732)" d="m0 0 2 4v13l-24 3-19 1h-62l-41 1-4 1-14-1h-13l-8 1-23 1h-16l-11-1h-8l-11 2-10 2h-5l-2-4 2-1-3-6h4l-1-2-2-1 6-3h33l15-2h24l66 1h65l17 1h18l15-2 8-7z" fill="#B6DCFD"/>
<path transform="translate(1349,1035)" d="m0 0 9 2 8 4 1 4 2 2 4 1 13 1 4 1-2 10-3 4 2 5-2 7-16 9-14 10-14 11-9 7v-3l8-9 6-2v-2h2v-2l5-4h2l1-7-7 1-8 2-1-2-6 2-12 3-2-1-2-6-3-2-9 1-11 7-2-1 12-12h2l2-4 8-7 5-6 2-4-5-1-10 4-10 3 4-4 17-10 10-6z" fill="#2A95FA"/>
<path transform="translate(1042,1101)" d="m0 0 2 1-2 4-9 7h-2l-1 3-6 1v6l-2 5 2 1-2 6h-4l1 8 8 13 2 8-3 1 6 3 30-1-3 2-50 12-26 3-13 1-6-1v-17l3-12 6-10 9-8 14-8 18-7 5-3 2-5 3-5 12-3z" fill="#107DFC"/>
<path transform="translate(570,799)" d="m0 0h16l-1 3-5 3-6 2 11-1v5l15 4 13 8 8 6 4 5 3 3 2 9v10l3 5v2h2l2 7 1 28-3 10-15 2-4 3h-7l-13 3-13 2-2 2h-12l-19-4-5-4-8-8-1-5-2-6v-33l-1-8v-11l4-12 5-8 6-8 8-6 9-6zm8 23-12 5-11 10-9 11-7 11-4 15v12l3 10 4 6 5 4 12 3h28l17-3 15-4 6-4 4-9 1-5v-15l-4-16-4-10-7-10-9-8-7-3z" fill="#D1DDF3"/>
<path transform="translate(1230,405)" d="m0 0 5 5 4 8 1 4 1 93v314l12-3h5l-3 2-19 5-13 5h-8l-1-5 1-3-5-5-7-6-5-5-8-9-6-3-7-8-3-9-4-5-3-8-5-7-3-13v-9l9 3 4 6 5 3 11 12 13 19 3 8v2h2l7 12 5 7 10 7 3 5h6l1-83v-141l-1-177-2-9-5-10z" fill="#F1FBFE"/>
<path transform="translate(622,669)" d="m0 0h1v7l-5 2-24 4-18 7-11 5-13 4-16 8-12 9-3 1-2 4-10 13-7 9-5 4-7 8-8 7-8 14-7 21-3 11-6 7-5 4-1 12-4 4-1-1v-17l5-12 4-8 5-5 5-12 7-22 7-15 7-10 5-5 7-6 10-13 11-11 15-9 17-7 22-6 18-4h30z" fill="#E8F9FE"/>
<path transform="translate(789,402)" d="m0 0h79v1l-13 1-101 1-32 1-34 2-25 1-61 5-34 5-34 8-13 4-5 3-7 3-6 5-14 9-3 1-2 4-4 5-1 32h-1v-53l1-5 17-12 10-4 8-4 21-5 48-4 28-1 45-1z" fill="#BCE9FE"/>
<path transform="translate(399,772)" d="m0 0 4 2 13 12 10 9 20 20 1 151v46l-22-1-2-7-5-5-5-4v-2h-2l-5-5-2-4h-2l1-4-3-11 5 3 4 5 2 5 3 1 4 8 6 7 4 1 3-3h2l1-58 1-37v-80l-2-10-7-10-8-10-5-5-14-13z" fill="#4B24BE"/>
<path transform="translate(492,820)" d="m0 0h2l-1 6-8 4h-2l-3 9-4 4-6 17-3 10-1 7-3 7-1 36-1 9-1 7-2 3 2 4-4 2-2 15-2-2 1 10 2-1v2l5-2 3 13 1 19-2 10-4 2-1 4-2 2h-5l-2-9-1-128v-34l1 2 5-5 6-4 10-6 3 1 4-5 8-2v-3h2v-2z" fill="#D8F1FE"/>
<path transform="translate(283,937)" d="m0 0h6l4 4h-2v2l4 2-9 2 1 17-4 6-2 7h-2l-3 9-1 8v3l-6 2v5l-3 3-4 2 3 2h-7l-2 1-3-1-1-2-5 2v7l-2 5-3 5-6-2-2-6 4-1 1-7v-19l-1-4 2-5v-9l-3-8v-5l3-1 1-6v-6l2-2v2l10 2 3-6 6 1 3 2 2 3 2-2v-7l2 1v2l4-2 2-4z" fill="#6931BF"/>
<path transform="translate(334,934)" d="m0 0 6 1 4 4v2l3 1 6 7 6 8 3 3 2 4 2 1v2h2l4 5 2 4 5 5 8 15 9 12 1 4-3 1-15 1h-52v-1l8-1-1-8 5-6h2v-3h2v-11l-4-15-3-11-3-9z" fill="#4C25BF"/>
<path transform="translate(860,810)" d="m0 0 5 2 14 10 9 11 10 21 8 20 8 21 2 10v16l-1 9-4 6-7 6-12 7-5-1-3-6-8-3-20-2-30-1v-1h35l22 2h9l3-2 10-1 2-1 3-7 1-7-1-2v-14-4l-4-3v-2h-3v-2h-5l-1-7h-9l-8-4-1-9-5-6-3-4-2-9-2-4v-3l-4-2-4-8v-3l-6-2-5-6 1-4 7-8h5z" fill="#FFD23E"/>
<path transform="translate(1071,546)" d="m0 0h105l-2 5-5 2-21 1-33 5-42 2-11 1-6 2h-32l-6-1-25-2-9-3-3-4v-4h-8v-1l46-2z" fill="#EFFBFE"/>
<path transform="translate(773,1078)" d="m0 0 6 2 1 4-4 13-2 15-1 4 1 4-3 9h-3l1-5-2 1v-2h-2l2-5-5-2-1-3 2-5-3-3 10-4 1-2h-7v-3l-14-2h-36l-10 1h-21l-39 1-12 1h-30l-9-2-3-5 1-4 55-2 86-2 32-1 5-1 2-1 2 1z" fill="#7FCAFE"/>
<path transform="translate(623,669)" d="m0 0h517v4l-2 1h-402l-78 1h-34z" fill="#1489FD"/>
<path transform="translate(289,797)" d="m0 0 2 1 6 12 9 15 13 20 8 13 10 17v2h2l12 22 4 10 7 11 2 6 7 12 3 7v3h2l1 6 3 7v5l-4 1-5-4-4-7-1-3h-2l-5-7-5-5-6-7-4-4-2-5-8-10-3-4v-2h-2l-12-17-9-12-10-15-10-14-15-23-4-8 1-2 10 16 7 11 20 28 4 6 5 5 5 6h2l-1-6-3-8-1-4 4-1 3 1-1-7v-3l-1-6h-2l-4-7v-3h-2l-5-10-8-11-7-10-4-8-2-6z" fill="#814FE9"/>
<path transform="translate(842,756)" d="m0 0 5 5-1 9-3 8-1 13 10 2 3-9 3-7h2v12l3 3 1 4 7 1 5 4 8 10 6 9 3 5 6 7 4 9h-2l4 8 5 12 1 5h2v6h2l3 3 3 12v20l-2 5-2 14-2 3v-24l-3-13-10-25-9-22-8-15-7-8-13-9-7-5-3-6-4-4 5 1-1-2-6-3-8-1-2-2-6 7h3l-2 4-6 3-5 6h-2l1-5 2-2h3v-4h-7l-3-3-8-4 2-1 1-4-1-4 2-2-3-3 2-6-2-4v-9l2 3h5l2 7-2 4 3 13 2 2 3 1-2-9-2-8 17 1 5-5 1-7z" fill="#C8DCF5"/>
<path transform="translate(1205,449)" d="m0 0h1v64l-3 20-2-3-3 4h-16l-21-1-3-2v-3l-9-1-59-2-97-1-14-1-3-2 123 1 35 1h26l1-12 5-2 9-5 7-6 6-10 8-9 3-2 3-17 2-9z" fill="#5FB4FD"/>
<path transform="translate(805,944)" d="m0 0 7 1 6 2v2l-8 1-1 7 2 1v28l-1 11 1 9-2 19 1 1-1 8-2 2-4 6-1 5-6 2-3 7h-2l-1 25-1 144-2 2 1-159 1-50 2-51 2-12 4-7z" fill="#0A1673"/>
<path transform="translate(1322,895)" d="m0 0 6 3 1 1v9h-2l4 9-1 8-2 5-4 5-3 6-2 5-8 12-3 2-1 3-3 1-4-1v-4l-5 3-2-3-15-5-3-2 1-5 1-1-2-1v-2l-5-2v-5h4l3 5 3 1 4-5 2-5-2-6 5-1 3-6 10-7 6-5 4-6h3v2h2l2-5z" fill="#9F4FDF"/>
<path transform="translate(624,677)" d="m0 0h2l6 8 13 3 4 5-2 5-8 7-6 3h-2v-5l-4 9-10 7-8 7-5 10-7 3-5 3-12 5-8 2-12 6-5 3-11 3-6 3-2-1 5-5 15-8 7-5 9-5 9-7-11 5-2-1 11-7 11-8-7 2 10-10-2-1 5-6 4-4-2-1 13-12 6-4z" fill="#D8F1FE"/>
<path transform="translate(1024,1206)" d="m0 0h28l83 2 29 1h18l5 2 2 4-1 5-4 3 2 1-5 2-14 3h-19l-19 1h-43l-4-2h3v-2l9-5-1-4-3-3-3-2-6-2-8-1-49-2z" fill="#3055F0"/>
<path transform="translate(539,400)" d="m0 0h95l29 1 126 1v1l-141 2-44 1-35 2-34 3-24 6-12 6-9 5-9 7h-2v102l1 5h-3v-121l3-7 8-6 12-4 24-3z" fill="#D9F2FF"/>
<path transform="translate(1158,743)" d="m0 0h1l3 19 8 14 3 7 3 4 3 8 6 7 6 3 10 11v2l5 2 9 8 1 4-1 5 5 1-3 2-19 7-2 1h-8l2-1 1-4 2-3-1-4-1-5-4-2-3-3-3-6-1-3-5-2-10-11-3-7-11-22-5-8v-5l3-4 3-9h6z" fill="#E8F9FE"/>
<path transform="translate(820,726)" d="m0 0h10l13 2 14 5 8 5 3 3 2 5v8l-5 13-5 9-3 4-3 10-2 3-10-1-1-1 1-13 4-11v-6l-6-7-9-4-9-2-9-1-1-1v-9l3-7z" fill="#090A43"/>
<path transform="translate(1159,1157)" d="m0 0 6 1 6 2 6 1 3 1 3 3 5-5h2l1 7-7 3-1 4 1 2-5 2-22 1-43 8-30 6-43 7-52 7-22 4-7 2h-19l-7 3-3 4-2 3v-5l7-6 13-3 7-2 4-6 6-3 21-3 6-2 39-5 6 1 6 3h16l24-3 31-5 18-4 23-7 9-5v-2l2-1-1-4-7-3z" fill="#5BB2FD"/>
<path transform="translate(824,1236)" d="m0 0 28 1h34l11 1-1-2h6v3l5 2 2-2h4l2 7-1 17-2 5-5 1-4-3-1 2-4-1-2-1-10-1-8-2-12-4-8-4-4-3-22-7-4-5-4-2zm63 15v1h8v-1zm17 0 2 2 4-2zm-5 1m10 11-3 3h4z" fill="#0E145A"/>
<path transform="translate(706,467)" d="m0 0h42v1h-26l-2 4-9 4h-8l-7 3-15 2-28 2-5 1-12-2-66-10-17-2-29-1v-1h70z" fill="#E3F4FE"/>
<path transform="translate(1318,1053)" d="m0 0 8 1-3 5-3 4h-2l-2 4-8 7-14 14-4 5-11 8-9 7-9 8-2-1 4-6h2l2-4 2-1 3-7 17-10 10-8h2l-2-4-6-1-6 2-14 8-16 10-7 4-4 2-2 4-12 6-12 1-10 2-13 6-15 4-19 7-6 4-14 7-22 10-24 8-22 6-4-1 35-11 16-7 22-12 27-11 20-7 28-11 15-7 7-2 17-8 20-14 15-10 4-3 18-6h3z" fill="#168AFD"/>
<path transform="translate(336,1016)" d="m0 0h38l7 1-1 2-6 2 12 2 3 3-8 3h-11l-6-2-19 1-9 3-5 4-16 8-9 8-2 3h-2l-1 2-7 1-4-1-1-8 4-11 6-9 6-7h3v-2l9-2z" fill="#7EC9FD"/>
<path transform="translate(1293,1073)" d="m0 0 6 1 2 2v3l-11 8-9 6-9 5-3 7-4 4h-2v2l-4 3h-2v2l-11 8-10 8-10 7-22 10h-12l-2-3 8-1 4-6 2-6h6l7 2 7-3 6-5 10-7 5-5 1-2-2-1h-7l-8 4-5 4-14 4-3 1 2-5 14-7 16-7 6-4 5-5 7-4 16-10 15-9z" fill="#609FFC"/>
<path transform="translate(836,967)" d="m0 0h3l2 8v17l-1 2 1 22 3 21 2 11v10l-2-4-1-6-3-1-3-4-7 1-2 15-2 39-1 64-2 52-1 5h-1l-1-5v-8l1-3v-54l2-43v-27l-1-10v-11l1-13-1-3v-18l6-8 3-13 1-10 1-7z" fill="#0A1672"/>
<path transform="translate(575,393)" d="m0 0 33 1 97 5 10 1h103l89 1v1h-250l-31-1h-87l-26 2-17 3-9 4-7 5-1-4 4-6 6-4 9-3 25-3z" fill="#E7F8FF"/>
<path transform="translate(826,936)" d="m0 0h30l20 2 8 3 4 7 3 2-6 5-15 3-10 1h-33l-1-4-3-1-5-8v-3h3l1-4 3-1z" fill="#FDF8F2"/>
<path transform="translate(201,1060)" d="m0 0 9 2 8 2-2 1 3 18 3 9 2 4h2l6 11 4 3-2 1 1 2-1 2 3 1-2 1 6 16 3 10 9 12v2l4-1 1 5-1 6-3 3h-3l-12-19-10-18-10-19-14-31-4-14z" fill="#5C2EC3"/>
<path transform="translate(826,915)" d="m0 0h1l-1 11-1 1v9l-4 7h-3l3 6-9-3-7-1-6 3h-2l-1 4-2 3-2 12-2 51-1 50-1 153-2 10h-29v-1l26-3 2-2 1-22v-162l2-53 1-8 1-20 4-10 4-6-1-13 1-11 9 3h5v-2l8-3z" fill="#2B56E7"/>
<path transform="translate(1070,532)" d="m0 0h56l23 1 7 2 5 6v1l-5 1h-30l-84-2-37-4-2-1v-3z" fill="#107DFD"/>
<path transform="translate(814,696)" d="m0 0 4 2h8l2-1h7l5 4 2 7-2 5-2 4-15 5h-2v3h19v2l3 1-13-1h-10l-5 5-2 5v9l9 1v1h-12v-3l-4-2-3-3v-3h-2l-3-7-1-5 5-12-4-3 7-3 4-9z" fill="#B5E2FE"/>
<path transform="translate(782,1089)" d="m0 0 2 1v83l1 20v23l-3 5-7-1-3-4v-2h-2l-1-12 1-5 2-5v-10h2v-10l1-8v-10l-1-4h1l1-6 1-24-1-6 1-15 2-9z" fill="#B5E4FF"/>
<path transform="translate(778,1079)" d="m0 0 6 3v8h-5v7l-1 2-1 16 1 5-1 24-1 8v2 10l-2 18h-2l1 3v7l-2 5-1 6v11h2l3 5 7 1 2-1-1 6-1 1h-14l-13-1-7-2 5-5 6-5 2-5 1-6 3 1v-11l-2-10 1-15 6-23h-1l1-9 3-17-1-3 2-12 4-16 1-5z" fill="#A1E1FE"/>
<path transform="translate(834,850)" d="m0 0 4 4 7 14 6 5 4 4 4 2 8 16 4 10v9l-7-1-4-2h-3l-3 1-3-8 1-3h-8l-2-2-2-4-1 2h-2v-2h-4l-1-2v-26l3-6-1-5-2-1z" fill="#B258E4"/>
<path transform="translate(1151,709)" d="m0 0h4l1 13-8 6-16 8-1 1h-15l-37-2-30-1 2-2 5-1-6-1 2-2 26-1-3-2-5-1 4-2h13l9 2h12l9 2h8l7-3-1-2 6-4 2-2 10-1z" fill="#BCEAFE"/>
<path transform="translate(221,593)" d="m0 0 3 1 10 21 11 17 8 10 11 13 11 12 7 8 12 11 15 13 14 11 1 4 4 2 8 6 5 4 2 5-8-4-11-8-5-5-8-6-8-5-5-5-5-3-2-5h-2v-2l-4-2-2-4-4-2-7-8v-2h-2l-7-8-1-3h-2v-2h-2l-6-8-2-4h-2v-2h-2l-8-11-5-6v-2l-4-2-1-3-4-2h-9l-4-4 4-7 1-8z" fill="#BABDE5"/>
<path transform="translate(1328,1113)" d="m0 0 3 1-14 13-8 7-7 7-8 7-21 21-8 7-9 9-8 7-13 12-8 7-13 11-11 6-9 2-9 1h-49v-1l37-1 12-3 16-8 18-12 12-10 15-11 9-7 6-5 1-2h2l2-4h2v-2l8-7 9-8 5-4h2v-2h2l2-4 10-9h2v-2h3v-2l9-6 6-7z" fill="#66B7FC"/>
<path transform="translate(742,1157)" d="m0 0 6 2 3 4 3-3 3 7v12l-3 5-7 1-3 1v2l-4-2-3-2-6 1-4 4h-6l-5-5-4-5 3-9 4-2 4-9 2-1h8 2 6z" fill="#B6DCFD"/>
<path transform="translate(789,967)" d="m0 0h1v13l-1 8-2 53v167l-1 17-3 3-18 2-1 2h-107l-2-2 5-1 23-1h67l-10-1h-13l-4-2h12l6-1v-2l4-1 5-1-1 2 6 2 13 1h14l2-9v-23l-1-20v-33l2-134 3-33z" fill="#77C2FD"/>
<path transform="translate(1230,405)" d="m0 0 5 5 4 8 1 4 1 93v315h-4l1-86v-141l-1-177-2-9-5-10z" fill="#3B1F88"/>
<path transform="translate(833,1042)" d="m0 0 5 1 5 5 5 18 5 23 9 29 7 32 8 36 4 27v11l-2 2-2-19-7-38-6-26-4-18-8-30-6-25-4-16-5-6h-6l-1 28-1 2-2 95-2 44v9h25l26 1-3 2-45 1-4-2-2 1-1-10 1-5 2-52 1-64 2-39 2-13z" fill="#2656E7"/>
<path transform="translate(736,673)" d="m0 0h244l150 1v1l-25 1-119 1h-25l-12 1-14-1-34-1h-94l-149-1v-1z" fill="#8FCBFD"/>
<path transform="translate(1091,1193)" d="m0 0h5v2l-3 3 44 2 19 1 9 2v4h-113l-27-1v-1l14-2h11v-2l22-5z" fill="#0F7CFC"/>
<path transform="translate(300,868)" d="m0 0 3 3 7 10 13 18 6 8v2h2l10 14 3 3 2 7 3 1 8 10 5 4 2 5h2l5 7 2 4 4 2h3l-3-10-2-6 1-2h-2l-7-16-5-7-2-7-7-10-3-9-6-12h2l6 10v2h2l10 19 4 5 4 10 9 20 5 13 7 14 4 5 3 6-1 6-5-2-9-9-12-16-9-11-4-6-5-5-7-9-8-11-4-5v-3h-2l-6-9-3-3-4-6-5-6-6-9-7-11-3-4z" fill="#6E38C7"/>
<path transform="translate(1156,464)" d="m0 0h2l2 6 1 53-1 1h-26l-35-1-119-1-5-2-1-3h113l71 2-1-37z" fill="#E7F6FE"/>
<path transform="translate(235,768)" d="m0 0 6 1v2l4 2 4 5 8 16-1 2-5-2-9-5-7-2-4 2 1 2h-2l3 5-1 6h-3l-2 6-3 1-6 1h-4l-5-5v-2h-2v-2h-3v-2l7-3 7-9 2-13 12-5z" fill="#814FE9"/>
<path transform="translate(1219,1188)" d="m0 0 5 1 2 7-5 7h-2l-1 5-19 12-14 7-12 3h-44v-1l20-1h18l17-4-4-1 6-3h2v-5l-2-4-8-1h-14l-29-1-49-1v-1h81l17-2 26-10 4-6z" fill="#0B6EF8"/>
<path transform="translate(520,472)" d="m0 0 22 1 22 2 24 6 6 2 1 3-2 1-24 2h-47l-4-6v-9h2z" fill="#EFFBFE"/>
<path transform="translate(795,895)" d="m0 0h1l2 37 1 12-7 12-4 12-4 1v-2l-5-2-5-4-7-4 2-4 5-5 4-7 3-3 4-20 5-6 3-8h1z" fill="#D9F1FE"/>
<path transform="translate(770,1245)" d="m0 0h27l19 2 2 6v9l-1 1h-47l-4-4-1-9z" fill="#F8FAFD"/>
<path transform="translate(351,752)" d="m0 0h2v2h2l5 6 1 3-2 1-1 4-5 1-3 3h-7l-6 2-5 1-3 1 2 16-1 7-1 3-1 13-1 2-4 2v2l-4 1v-3l-3-1v-2l-3-1v-2l-5-1-3-5-5 1 2 6 1 4h2l7 14 4 6-1 2-10-15-9-15-2-5v-7h2l2-4 13 5 5 2 1 2 3-1 3-10 1-16 1-6h8l6-2 8 1 4-5 2-5-1-4z" fill="#793FD4"/>
<path transform="translate(879,957)" d="m0 0h6l1 3v20l-3 13-5 1-4-10-1-2v-13l-3 1-5 7-3 1-8-4-10 1-2-7-2-8 33-2z" fill="#06083E"/>
<path transform="translate(842,756)" d="m0 0 5 5-1 9-3 8-1 13 10 2 3-9 2-4v13l-2 4-6-3-8-1-2-2-6 7h3l-2 4-6 3-5 6h-2l1-5 2-2h3v-4h-7l-3-3-8-4 2-1 1-4-1-4 2-2-3-3 2-6-2-4v-9l2 3h5l2 7-2 4 3 13 2 2 3 1-2-9-2-8 17 1 5-5 1-7z" fill="#C9DEF6"/>
<path transform="translate(1155,738)" d="m0 0h2l1 2v9l-24 3-19 1h-63l-33-1-13-1-1-2 5-1h8l7-1h37l26 1 38-2 8-1 7-2 9-2z" fill="#7FCAFE"/>
<path transform="translate(1132,743)" d="m0 0h9v1l-15 3-40 2-24-1h-42l-3 1h-10l-1 1 13 1 33 1v1h-46l-26-1-24-2-4-2 7-2 57-2z" fill="#A2D4FF"/>
<path transform="translate(523,469)" d="m0 0h30l32 4 24 4 35 5 8 2v1l-28 2h-31l2-1-2-3-21-5-8-2-37-3-6-1v-2z" fill="#E8F9FF"/>
<path transform="translate(1e3 669)" d="m0 0h140v4l-2 1h-140v-3h2z" fill="#1989FD"/>
<path transform="translate(283,1075)" d="m0 0 2 1 1 20 1 9-2 23-4 15-7 4-3-5-1-13 4-25 7-24z" fill="#1189FD"/>
<path transform="translate(1103,1188)" d="m0 0 4 1-6 3-33 6-12 3h-6v2l-25 3-1 1-28 3-32 5-21 4-9 2v3l-5 4-2 4-2-1 1-5h2l2-6 5-6 6-2h20l16-4 55-8 26-4 37-6z" fill="#168AFC"/>
<path transform="translate(537,899)" d="m0 0 8 6 14 3h28l19-2 16-5 2 1-3 2 2 2-4 3 1 2-4 2h-7l-13 3-13 2-2 2h-12l-19-4-5-4-8-8z" fill="#C9DDF5"/>
<path transform="translate(978,378)" d="m0 0h196l31 1 8 4 4 6-5-2-8-4-11-2h-358v-1l20-1z" fill="#221B74"/>
<path transform="translate(364,756)" d="m0 0 4 2 9 4 1 2 6 2v2l5 2 10 9 5 8 3 2v6l2 2 2 5-1 4-2 1-7-3-6-7-5-5v-2h-2v-3h-2v-2h-2l-1-4h-2l-2-5h-2l-7-8-8-8z" fill="#6931BF"/>
<path transform="translate(648,404)" d="m0 0h58v1l-59 2-32 1-49 4-31 4-28 7-16 8-9 6-3 1v-3l17-12 10-4 8-4 21-5 48-4 28-1z" fill="#C9E7FD"/>
<path transform="translate(1130,1023)" d="m0 0 2 1-12 8-3 1v2l-8 5-1 2-3 1-8 8h-3v2l-8 7-10 8-12 9-3 1v3l-7 4h-2l-2 7-6 7-5 6-6 3-9 2-3 3-3-3h4v-2l5-4 14-14 1-2 5-3 7-6 5-5 10-9 27-21 17-11 15-9z" fill="#0B6DF7"/>
<path transform="translate(1379,806)" d="m0 0h2l-2 22-6 26-9 27-11 22-11 19-8 12-9 12-3 2 2-5 9-15 12-21 14-28 8-23 6-29 4-15z" fill="#100D50"/>
<path transform="translate(1315,994)" d="m0 0 10 1 19 4 16 6 18 8 14 6v7l-4 2-19-7-16-8-9-4-10-5-4-4-15-5z" fill="#5AAFFC"/>
<path transform="translate(817,748)" d="m0 0h10l11 4 4 3 3 7-1 7-4 5-4 1-12-1-4-4-5-14v-6h2z" fill="#FCFBFB"/>
<path transform="translate(317,1017)" d="m0 0h19l-5 5-17 11-20 20h-5l1-8 5-12 10-12h3v-2z" fill="#A2D3FE"/>
<path transform="translate(826,915)" d="m0 0h1l-1 11-1 1v9l-4 7h-3l-1 3-18-5-1-1-1-9 1-11 9 3h5v-2l8-3z" fill="#B157E4"/>
<path transform="translate(895,847)" d="m0 0h6l10 16v3h2v6h2l3 3 3 12v20l-2 5-2 14-2 3v-24l-3-13-10-25-7-18z" fill="#CAE6FC"/>
<path transform="translate(700,968)" d="m0 0 39 1 2 1 12 1 4 2-1 4h-19l-32 1-15-1-9-2v-6z" fill="#7FCAFE"/>
<path transform="translate(723,878)" d="m0 0 5 2 12 6 10 3 22 2 22 1v3l-22-1-7-1h-9l-17 6-14-1-9-3-10-2v-1l8-2-1-4 1-3h10l4 1v-2l-4-2z" fill="#D1DDF3"/>
<path transform="translate(739,969)" d="m0 0 26 1 7 2 1 6-1 7 3 3-2 9-3 13-3 15-2-4-4-11 2-10 2-3v-14l1-2-12-1-2-1h-53l-15-2-2-2h6l2 1 17 1 37-1h12l1-3-16-2z" fill="#BBE9FE"/>
<path transform="translate(623,669)" d="m0 0h121v1l-5 1v1l-5 1-64 1-12 1h-34z" fill="#2D6BF5"/>
<path transform="translate(375,752)" d="m0 0 4 2 14 12 6 5 6 7 8 7 5 5 7 8 8 11v7l-2 2-5-2v-3l-4-2-5-7-1-5-12-14-12-12-8-5v-2l-7-2-1-2-3-1 1-3 6 5 3 1v-2l-2-1h2v-2l-4-2z" fill="#8F4FDE"/>
<path transform="translate(1182,1143)" d="m0 0 8 3 2 2h14v2l-13 3-1 4 5 1 3 2-2 4-6 7-1 5-5 2-6 1-22 1-7 2-4 1h-10v-1l20-4 22-1 4-2-1-2 2-4 7-2-1-7-18-2-2-4 3-3 2-6z" fill="#128AFE"/>
<path transform="translate(819,675)" d="m0 0h75l-4 2-5 2-10 1-5 2-28 4-17 2-1-2-4-2v-4h19v-2l-8 1v-2l-3 1-8-1z" fill="#B7E5FF"/>
<path transform="translate(1237,1111)" d="m0 0h7l3 3-5 6-9 6-8 6-5 3-5 1-7-2-8 1-5-2v-2l8-4 2-2 16-5 6-3 5-4z" fill="#74AFFD"/>
<path transform="translate(588,970)" d="m0 0h44l13 1 5 3 1 5h-50l-7-2-5-3z" fill="#4382FA"/>
<path transform="translate(1246,985)" d="m0 0h34l11 1v1l-18 1-5 2-2 3-10 3h-26l-16-2-13 1 4-2 29-6z" fill="#126DF8"/>
<path transform="translate(744,669)" d="m0 0h107l6 1-3 2-44 1-74 1h-66v-1l64-1 1-2z" fill="#1289FD"/>
<path transform="translate(893,1252)" d="m0 0 5 2 1-2h9l4 3v6l-3 3h-6l-1 4-4-1-2-1-10-1-8-2-12-4-4-3 9-2z" fill="#F0F0F6"/>
<path transform="translate(1079,900)" d="m0 0 6 4 3 1 2 5-14 14-9 11-8 9-8 10h-3l5-12 4-6 3-3 7-11h2l4-7 1-5h-3v-6h4l1-2h2z" fill="#B4E3FE"/>
<path transform="translate(833,1042)" d="m0 0 5 1 5 5 5 18 5 23 9 29 7 32 8 36 4 27v11l-2 2-2-19-7-38-6-26-4-18-8-30-6-25-4-16-5-6h-6l-1 2v-6z" fill="#275CEB"/>
<path transform="translate(782,1089)" d="m0 0 2 1v17l-1 17-1 5h-2v16l1 8-1 1-2 14-3 18-1 11-2 11-1 6h-1l-1-12 1-5 2-5v-10h2v-10l1-8v-10l-1-4h1l1-6 1-24-1-6 1-15 2-9z" fill="#B6DCFD"/>
<path transform="translate(179,837)" d="m0 0 2 4 3 12 3 8 2 15 1 4h2l2 5-1 2 2 1 2 5 1 2-1 2h2l2 9 3 15h-2l2 10h-2l-7-20-8-19v-10l-2-6-1-9 1-4-3-1-4-13-1-11z" fill="#A25BE4"/>
<path transform="translate(1234,1098)" d="m0 0 3 1-15 8-21 8-8 3-10 3-13 5h-2v2l-10 5-6 4-20 9-14 6-21 7-22 6-4-1 35-11 16-7 22-12 27-11 20-7 28-11z" fill="#168CFD"/>
<path transform="translate(836,811)" d="m0 0h3l2 6 1 4-2 14 1 2 1 12 6 6 4 7 3 6 1 6-4-2-9-11-4-8v-2l-3-1-2-7-1-9-1-1-1-17z" fill="#FED441"/>
<path transform="translate(836,860)" d="m0 0 2 2 5 9 5 4 1 2v8l-4 6-5 5-3 1v-2h-4l-1-2v-26z" fill="#D2DAEC"/>
<path transform="translate(842,982)" d="m0 0 4 1 1 2v20l3 19 1 16-1 3h-2l-1 2-6-21-2-23v-7z" fill="#06083E"/>
<path transform="translate(506,379)" d="m0 0h291v1l-251 1-45 1-15 2-12 5-4 3-2-1 7-6 9-4 5-1z" fill="#0C0B48"/>
<path transform="translate(411,793)" d="m0 0 5 5 2 4 2 5 4 5 2 1v3l5 1 3-2v25l-1 5-4-1-3-2v-3h-2l-4-9-1-8 1-2v-7l-2-3v-3h-2l-4-6z" fill="#793ED4"/>
<path transform="translate(1374,802)" d="m0 0 7 1-6 19-5 26-6 20-6 15-14 28-14 24-5 8-1-3 13-22 14-27 11-28 6-21 2-9v-16l-1-8 2-5z" fill="#D2D5E9"/>
<path transform="translate(274,1093)" d="m0 0h1v6l-3 9-4 30-3 28-3 9-1 1h-6l-3-6 5-5v-10l4-13 6-25z" fill="#3155F0"/>
<path transform="translate(785,980)" d="m0 0h2v14l-1 12-1 45-1 14h-3l-2-5v-27l2-30 1-4v-13z" fill="#D9F2FF"/>
<path transform="translate(445,818)" d="m0 0h1l1 148v46h-2l-3-6 1-5h2l-1-76-1-9v-40l1-42v-12z" fill="#2845DE"/>
<path transform="translate(1328,1113)" d="m0 0 3 1-14 13-8 7-7 7-8 7-21 21-8 7-4 4h-4l-2 4h-3v2l-3-1 8-7 5-7h2l2-4h2v-2l8-7 9-8 5-4h2v-2h2l2-4 10-9h2v-2h3v-2l9-6 6-7z" fill="#61B5FD"/>
<path transform="translate(842,756)" d="m0 0 5 5-1 9-3 8-1 13 10 2 3-9 2-4v13l-2 4-6-3-8-1-2-2-2 2-2-3-7-1-4-9-2-7 16 1 5-5 1-7z" fill="#CAD8F0"/>
<path transform="translate(974,521)" d="m0 0 5 1 14 1 56 1v1l-27 1h-21v2h-2v4l-10 1 2 3 4 2 5 7v2h-8l-2-6-9-9-7-9z" fill="#2A95FA"/>
<path transform="translate(995,400)" d="m0 0h67l85 1 40 1 9 1 4 4-9-1-17-2-56-1h-135l-65-1v-1z" fill="#C0E7FE"/>
<path transform="translate(399,772)" d="m0 0 4 2 13 12 10 9 20 20-1 7v16l-1 38h-1l-1-15-1-32-5-10-4-10-12-16-6-5-7-8-8-7z" fill="#0C0B4A"/>
<path transform="translate(998,1226)" d="m0 0 7 1 7 2v1l-8 1-60 3-28 1 2-2 9-2 3-2 5-1h35l23-1z" fill="#111978"/>
<path transform="translate(1036,973)" d="m0 0 1 4-5 6-3 8-5 7-4 7-3 6-4 11-5 11-5 13-2 4h-2l-2 8-3 3-1-3 2-9 9-20 15-30 11-17z" fill="#4A2DC6"/>
<path transform="translate(674,1228)" d="m0 0h84v1l-5 1 11 1v1h-107l-2-2 5-1z" fill="#83CBFE"/>
<path transform="translate(497,1030)" d="m0 0 4 5 6 13-1 3-12-3-9-3-5-6v-5l1-1 15-2z" fill="#7EC9FD"/>
<path transform="translate(1315,995)" d="m0 0 11 3 5 2 6 5 15 6 7 4 15 7 14 5 3-1v-6l5 1 2 2v2l1 6-4 1-22-8-10-3-13-5-15-7-16-8z" fill="#2994FA"/>
<path transform="translate(452,1021)" d="m0 0 18 2h15l10 5 2 3-1 1h-26l-14-4-3-1-2-5z" fill="#325CF2"/>
<path transform="translate(770,1245)" d="m0 0h27l19 2 2 6v3l-5-1-7-3-9-1h-17l-12 5h-2l-1-6z" fill="#0D0D4E"/>
<path transform="translate(170,811)" d="m0 0 2 4 1 5 3-1 2 8 1 11h-2l3 16 3 8 2 1 1 5-1 1 2 9 1 7-2 4-5-15-7-27-4-27z" fill="#A257DE"/>
<path transform="translate(1103,1188)" d="m0 0 4 1-6 3-33 6-12 3h-6v2l-25 3h-21l-1-2 44-6 37-6z" fill="#1488FD"/>
<path transform="translate(528,1205)" d="m0 0 1 2-3 10 1 7 4 2 25 2 10 3v1l-50 2 3-10 7-14z" fill="#7EC6FD"/>
<path transform="translate(851,669)" d="m0 0h115v1l-62 1-1 2h-93v-1l44-1z" fill="#4686FA"/>
<path transform="translate(974,517)" d="m0 0h113l1 2-15 1-47 1h-23l-8-1h-11l-1 1h-7z" fill="#F9FCFE"/>
<path transform="translate(794,1184)" d="m0 0 2 3v32l-1 11-1 1h-8v-4h2l2-33 1-8h2z" fill="#080942"/>
<path transform="translate(731,850)" d="m0 0 9 6 1 5 3 1v2l8 1h23l-2 4-6 4-9 1-16-6-7-8-4-8z" fill="#FED64A"/>
<path transform="translate(827,1217)" d="m0 0 17 1 10 4 15 1 4 1v2h-21l-27 1v-7z" fill="#A2E2FE"/>
<path transform="translate(283,1070)" d="m0 0h1l-1 7-7 23-3 16-3 24-1 12-3 22-2 5-5 2-3-5 5-1 3-10 5-43 3-18 2-5 2-12 4-9z" fill="#3169F4"/>
<path transform="translate(824,1098)" d="m0 0h1v64l-2 52-1 5h-1l-1-5v-8l1-3v-54l2-43v-7z" fill="#0A1774"/>
<path transform="translate(1375,795)" d="m0 0h6v8h-7l-11 4-30 6-9 1 4-2 18-6 26-10z" fill="#0D0B4A"/>
<path transform="translate(657,414)" d="m0 0h9v1l-36 5-25 5-33 8-24 6-9 2 2-2 16-6 25-6 31-7 35-5z" fill="#B6DCFD"/>
<path transform="translate(679,835)" d="m0 0h2l8 10 11 12 8 7 5 4 1 4-7-1-11-9-10-10-6-10z" fill="#B7DCFC"/>
<path transform="translate(1062,1067)" d="m0 0 2 1-11 11-8 7-13 12-7 5-3-5h2l1-5 8-6h2v-2l9-6 6-2v-2l10-6z" fill="#4C25BF"/>
<path transform="translate(689,970)" d="m0 0h49l1 3-8 2h-48v-4z" fill="#609EFB"/>
<path transform="translate(1191,1150)" d="m0 0h13v1l-11 2-1 4 5 1 3 2-2 4-6 7-1 5-5 2-6 1-22 1-7 2-4 1h-10v-1l20-4 22-1 4-2-1-2 2-4 10-4 1-3-4-2v-2l-7-1 1-4z" fill="#2894FA"/>
<path transform="translate(218,719)" d="m0 0h8l4 2 8 25 2 5-1 3-1-3h-2l-6-8-3-5-2-7-5-7-3-1-1-3z" fill="#9F57E5"/>
<path transform="translate(1079,669)" d="m0 0h61v4l-2 1h-26l-22-2-13-1z" fill="#178CFD"/>
<path transform="translate(867,1250)" d="m0 0h29l1 1 4-1h11l2 1v12l-2 5-5 1-4-3v-2h5l2 2 1-11-3-3-4-1-1 2-5-1v2l-3-1v-2l-2 2-22 2-12 1-3-4 1-1z" fill="#592EBE"/>
<path transform="translate(785,1219)" d="m0 0h1v6l-3 3-26 3h-21v-1l17-1 5-1-18-1h-13l-4-2h12l6-1v-2l4-1 5-1-1 2 6 2 13 1h14z" fill="#7AC3FD"/>
<path transform="translate(447,1018)" d="m0 0 32 4v1l-13 1-9-2h-5l1 5 9 2 3 2-17-2-13-4-3-3 1-2z" fill="#62A0FC"/>
<path transform="translate(594,468)" d="m0 0h93v1l-21 2-25 1-23-1-24-2z" fill="#D9F2FF"/>
<path transform="translate(313,1019)" d="m0 0 2 1-2 5-11 13h-2l-1 4-8 1 4-10 10-12z" fill="#B3D8FC"/>
<path transform="translate(912,866)" d="m0 0h1v6h2l3 3 3 12v20l-2 5-2 14-2 3v-24l-1-9 2 2v-10l-4-15z" fill="#C8DDF6"/>
<path transform="translate(203,630)" d="m0 0 1 2-11 30-12 32-2 6-1-3 5-22 2-7h2l3-10 5-12 6-15z" fill="#CAC2EA"/>
<path transform="translate(563,810)" d="m0 0 4 1-3 2 4 1-2 5-6 3-3 1-1 4-5 3-4-1v-3l-3 3 1-5 6-7 9-6z" fill="#C8DDF5"/>
<path transform="translate(1122,1026)" d="m0 0 2 1-11 7-18 12-18 14-11 9-6 5-4 5-6 4-5 5-2-1 8-8 8-7 7-8 13-10 18-13z" fill="#2B44DF"/>
<path transform="translate(593,1087)" d="m0 0h33l-2 4-7 3h-17l-6-2-2-4z" fill="#5BB2FD"/>
<path transform="translate(887,956)" d="m0 0h1l1 52 5 48 2 22v13h-1l-4-35-4-42z" fill="#2B4CE2"/>
<path transform="translate(1147,1182)" d="m0 0m-16 1h16l-1 2-10 2-6 2-4 2-14 1-10 2h-6l1-2 8-3 3-2z" fill="#1382FC"/>
<path transform="translate(851,798)" d="m0 0 5 1 1 3 7 1 7 4v2l4 2 5 8v2h2l1 4-4-2-21-15-3-6z" fill="#CAE7FC"/>
<path transform="translate(1245,1094)" d="m0 0 3 1-6 4-6 5-6 2v2l-3 2-17 3-13 6-15 4-11 4-3-1 17-7 14-4 20-8 16-8z" fill="#2A95FA"/>
<path transform="translate(906,1224)" d="m0 0h6l2 3v3h2l2 4-9 2-14 1 1-8 3-2 6-2z" fill="#080942"/>
<path transform="translate(321,856)" d="m0 0h2l2 7v2l1 4-1 3h-7l3 5 3 9-1 5-4-2-6-7 1-2 4 2-4-13-3-5 1-3 5 3 4 2z" fill="#9156E9"/>
<path transform="translate(443,916)" d="m0 0h1l1 9v76h-2l-1-17v-54z" fill="#0A1774"/>
<path transform="translate(870,747)" d="m0 0 4 4 1 6-4 16-8 4-3 8h-1v-9l7-13 3-9z" fill="#B2E1FE"/>
<path transform="translate(970,1169)" d="m0 0h6l6 7v5l-5 2h-11l-1-6 3-5z" fill="#0D75FC"/>
<path transform="translate(913,1206)" d="m0 0 5 2 3 8 4 6v6l-5 3v-5l-4 1-3-3-1-6v-11z" fill="#A4E1FE"/>
<path transform="translate(274,1093)" d="m0 0h1v6l-3 9-4 16-4 27-2 9-3 4-2-1v-8l4-13 6-25z" fill="#253EDA"/>
<path transform="translate(1374,802)" d="m0 0 7 1-6 19-4 19-2 1 1-9v-16l-1-8 2-5z" fill="#CFDBF3"/>
<path transform="translate(1007,1107)" d="m0 0h5l3 3v3l3-1 1 8-13 5-3-1 3-15z" fill="#A0DFFE"/>
<path transform="translate(739,969)" d="m0 0 17 1 7 2 1 5-4 2h-61l-15-2-2-2h6l2 1 17 1 37-1h12l1-3-16-2z" fill="#A5D4FE"/>
<path transform="translate(864,878)" d="m0 0 4 1 9 3-1 3 5 1 1 3h2l1 4-5 1v-2l-7 1-6-3-4-10z" fill="#FFD13E"/>
<path transform="translate(632,971)" d="m0 0h13l5 3 1 5h-50v-1l13-1 6-1h15v-4z" fill="#73B0FC"/>
<path transform="translate(818,762)" d="m0 0 4 5 13-1 7-2h3l-1 5-4 5-4 1-12-1-4-4-2-5z" fill="#F0FBFF"/>
<path transform="translate(1217,1206)" d="m0 0 2 1-15 10-14 8-11 4-6 1h-44v-1l20-1h18l21-5 3-1 4-4 11-7h4l1-3z" fill="#1084FD"/>
<path transform="translate(623,669)" d="m0 0h37l-2 1v2l-7 2-27 1z" fill="#3058F0"/>
<path transform="translate(1413,1040)" d="m0 0h6l4 3h3l1-2 2 5-4 5-4 2h-8l-2-4v-8z" fill="#298CF6"/>
<path transform="translate(823,1230)" d="m0 0 11 2h15l8 3 2 2-7 1-27-1-2-1z" fill="#060840"/>
<path transform="translate(783,1107)" d="m0 0h1v33l-1 33h-1l-1-8h-2v-11l1-1-1-11 1-13h2z" fill="#A1E2FF"/>
<path transform="translate(1104,378)" d="m0 0h70l31 1 8 4 4 6-5-2-8-4-11-2-26-1-63-1z" fill="#5429C1"/>
<path transform="translate(768,1078)" d="m0 0h5v2l-9 2-79 2h-32v-1l95-3z" fill="#A3D4FF"/>
<path transform="translate(782,1089)" d="m0 0 2 1v17l-1 17-1 5h-2l-2-13v-8l2-11-1-7z" fill="#B5E4FE"/>
<path transform="translate(221,593)" d="m0 0 3 1 10 21 11 17 8 10 6 7-1 2-11-12-9-11-7-10-5-12-5-10z" fill="#17105B"/>
<path transform="translate(996,1205)" d="m0 0 28 1v1l-28 3-25 4h-6l4-2 5-2 3-2z" fill="#0E79FA"/>
<path transform="translate(196,893)" d="m0 0 2 2-1 2h2l2 9 3 15h-2l2 10h-2l-7-20v-17z" fill="#8A57E8"/>
<path transform="translate(870,1160)" d="m0 0 2 4 6 27 3 22v11l-2 2-2-19-6-33z" fill="#2B56E8"/>
<path transform="translate(452,1021)" d="m0 0 18 2h15l5 2v1l-21-1v2h-2l2 4-7-1-9-3-2-5z" fill="#4173FD"/>
<path transform="translate(1299,1140)" d="m0 0 3 1-8 7-21 21-8 7-4 4h-4l-2 4h-3v2l-3-1 9-8 5-3 9-10 4-2 4-5 4-2 7-8z" fill="#90B4E9"/>
<path transform="translate(789,967)" d="m0 0h1v13l-1 8-2 53-2 4v-39l3-33z" fill="#93CCFD"/>
<path transform="translate(823,956)" d="m0 0 8 4 2 8v11h-5l-5-14z" fill="#06083E"/>
<path transform="translate(417,799)" d="m0 0 5 1 7 6h2l2 3v7l-2 2-5-2v-3l-4-2-5-7z" fill="#804EE7"/>
<path transform="translate(1075,520)" d="m0 0h26l42 2 17 1v1h-26l-57-2z" fill="#C4E4FC"/>
<path transform="translate(836,967)" d="m0 0h3l2 8v12l-2 5h-3l-3-2 2-16z" fill="#0A1774"/>
<path transform="translate(214,601)" d="m0 0 1 2-13 28-7 17-5 13-3 7-1-3 11-29 8-21z" fill="#160F58"/>
<path transform="translate(317,1245)" d="m0 0 8 5 14 4 13 2v1h-31l-3-3z" fill="#0A0A46"/>
<path transform="translate(313,1012)" d="m0 0 6 2-3 3-4 2h-4v2l-3 1-9 11h-3l1-7 2-4 3-2h3v-2z" fill="#4E29C2"/>
<path transform="translate(795,935)" d="m0 0 2 4-1 10-4 7-2 5h-4l-1-7 4-7z" fill="#E4F5FF"/>
<path transform="translate(506,379)" d="m0 0h15l25 1v1l-45 1-15 2-12 5-4 3-2-1 7-6 9-4 5-1z" fill="#221770"/>
<path transform="translate(1221,1209)" d="m0 0 3 1-8 7-13 8-9 5-16 1 4-2 8-2 4-2h3l1-3 5-4 5 1 5-3 5-5z" fill="#8CCFFD"/>
<path transform="translate(436,817)" d="m0 0 2 1v2h5l2-1v19l-1 38h-1l-1-15-1-32-5-10z" fill="#0A1671"/>
<path transform="translate(1156,732)" d="m0 0 2 4-1 4v-2l-9 5-16 1h-36l1-2h34l15-2 8-7z" fill="#B6DCFD"/>
<path transform="translate(1234,1098)" d="m0 0 3 1-15 8-21 8-8 3-10 3-15 6-3-1 12-5 14-5 28-11z" fill="#128AFE"/>
<path transform="translate(220,594)" d="m0 0 4 5 3 7-1 5h-9l-1-1v-12z" fill="#F6F0FB"/>
<path transform="translate(1156,464)" d="m0 0h2l2 6 1 53-3-6-1-35z" fill="#D8ECFC"/>
<path transform="translate(784,1051)" d="m0 0h1v31l-4-1-8-3-12-1 1-2h9l8-1 2-4 2-3z" fill="#B9E8FE"/>
<path transform="translate(253,703)" d="m0 0 1 2h2l6 8v5l-10 1-7-1v-4l6-1z" fill="#9F57E5"/>
<path transform="translate(477,421)" d="m0 0h1l1 116 1 5h-3z" fill="#E8F8FF"/>
<path transform="translate(858,1109)" d="m0 0 2 2 6 24 4 18 1 16-2-3-7-34-3-11z" fill="#2459EA"/>
<path transform="translate(1040,1089)" d="m0 0 2 1-16 16-4 2v2l-5-1-3-4 1-5 7-2 4 4 12-11z" fill="#6942E3"/>
<path transform="translate(1028,1011)" d="m0 0 5 5 14-4h5l1 3-1 5-9-3-5 3-4 2-4-1v-3l-3 1z" fill="#6E38C7"/>
<path transform="translate(1240,1196)" d="m0 0 2 1-7 7-8 7-13 11-11 6-8 1 4-3 11-6 12-9 10-8z" fill="#120E55"/>
<path transform="translate(1428,1046)" d="m0 0 1 2-4 6-9 7-23 11-2-1 17-11 14-8 5-5z" fill="#0E0D4F"/>
<path transform="translate(824,1236)" d="m0 0 28 1h34l8 1v1l-68 1z" fill="#572CC4"/>
<path transform="translate(984,519)" d="m0 0h11l12 1 64 1v1h-91z" fill="#C9E7FD"/>
<path transform="translate(831,1226)" d="m0 0h19l26 1-3 2-45 1-3-1v-2z" fill="#4C85F1"/>
<path transform="translate(1207,1214)" d="m0 0 2 1-2 4-7 1-1 3-6 4-7 2-8 2h-42v-1l37-1 12-3 16-8z" fill="#6CB0FC"/>
<path transform="translate(810,1258)" d="m0 0 8 1-1 4h-33l2-2 8-2z" fill="#151761"/>
<path transform="translate(386,775)" d="m0 0h3v2l5-1 4 4-1 4 3 6-1 3-6-4-7-9-1-3z" fill="#5B2CC1"/>
<path transform="translate(290,1059)" d="m0 0 9 2 11 1 1 3-6 4v1l-8-1-5-5z" fill="#5BB2FD"/>
<path transform="translate(1143,401)" d="m0 0 44 1 9 1 4 4-9-1-17-2-54-1v-1z" fill="#B8E5FE"/>
<path transform="translate(240,1107)" d="m0 0 5 1 3 5-2 5-4 1-5-2v-2h-3l-1-5z" fill="#582BC1"/>
<path transform="translate(780,1250)" d="m0 0h17l12 2 5 3 4 1v3l-29 1 3-2 4-1h11l-1-4-26-2z" fill="#85A8F3"/>
<path transform="translate(211,1063)" d="m0 0 3 1h-2v19l-3 2-3-3-1-3v-7l4-7z" fill="#BDD6F7"/>
<path transform="translate(1036,973)" d="m0 0 1 4-5 6-3 8-5 7-4 7-3 6-4 2 2-6 6-11 9-14z" fill="#4133CB"/>
<path transform="translate(300,868)" d="m0 0 3 3 7 10 13 18 4 5-1 2-9-8-6-10-7-10-4-6z" fill="#743BCE"/>
<path transform="translate(1142,674)" d="m0 0 3 3 5 11-1 2-2 3-5-1-2-3v-8l2-5z" fill="#D9F2FF"/>
<path transform="translate(1050,1202)" d="m0 0h6v3l23 1v1h-27l-27-1v-1z" fill="#0B6EF8"/>
<path transform="translate(628,870)" d="m0 0 2 2v12l-3 10-4 6-11 4-17 4h-7v-1l21-5 13-4 4-8 1-4z" fill="#FFA942"/>
<path transform="translate(256,1156)" d="m0 0 2 2v7l-4 5h-3l-8-12h3l6 1z" fill="#6E4AE3"/>
<path transform="translate(831,1240)" d="m0 0h36l-1 2-27 2h-8z" fill="#06083E"/>
<path transform="translate(201,1060)" d="m0 0 9 2v3l-4 7v7l3 5v5l-3-4-5-16z" fill="#1B1261"/>
<path transform="translate(179,837)" d="m0 0 2 4 3 12 3 8v6l-2-1v-3l-3-1-4-13-1-11z" fill="#9F57E4"/>
<path transform="translate(750,470)" d="m0 0 4 1 1 1v6l-3 5-2 1h-13l3-3 8-3z" fill="#EEFAFE"/>
<path transform="translate(1103,1188)" d="m0 0 4 1-6 3-33 6h-5l1-3 31-5z" fill="#178CFD"/>
<path transform="translate(1370,841)" d="m0 0 1 2-4 16-7 20-5 5 1-5 9-25 3-12z" fill="#C1D8F6"/>
<path transform="translate(700,968)" d="m0 0 39 1 2 5-3 1h-7v-1l8-1-1-2h-55v4h-2v-6z" fill="#76B4FD"/>
<path transform="translate(663,817)" d="m0 0h11l22 3 14 7-2 1-10-4-32-5 1 1-3 1z" fill="#D3DEF3"/>
<path transform="translate(503,1248)" d="m0 0h1l-1 8-2 4h-17l1-2 12-5z" fill="#090A42"/>
<path transform="translate(817,769)" d="m0 0 4 4 4 10v7l-5-1-4-13z" fill="#B6DCFD"/>
<path transform="translate(1084,904)" d="m0 0 4 1 2 5-14 14-2-1v-2l4-4 2-7z" fill="#B7E6FE"/>
<path transform="translate(829,1046)" d="m0 0h1v30l-1 2-1 18h-1v-37z" fill="#306BEE"/>
<path transform="translate(799,941)" d="m0 0 11 2 9 3 2 3-9-3-7-1-6 3h-2l-1 4-2 3-2 12-2 1v-8l4-10 4-6z" fill="#4048DA"/>
<path transform="translate(212,1064)" d="m0 0h2l1 10-1 13-1 5 1 1v5h-2l-4-9 2-5 1-1v-16z" fill="#8353E4"/>
<path transform="translate(790,968)" d="m0 0h1v30l-1 17-2 1v-28z" fill="#2B4CE3"/>
<path transform="translate(1073,671)" d="m0 0h17l22 2v1h-45v-1z" fill="#2A95FA"/>
<path transform="translate(1201,528)" d="m0 0h1v9l-2 5-2 2-7-1 1-5 3-3h3l1-4z" fill="#1A86FC"/>
<path transform="translate(781,1192)" d="m0 0h2l1 5v17h-3l-2-2v-12z" fill="#BCEAFF"/>
<path transform="translate(1121,1150)" d="m0 0m-3 1h3v2l-18 6-23 6-8 2h-5l4-2 26-7z" fill="#5BB2FD"/>
<path transform="translate(830,858)" d="m0 0h1l1 39h-3l-1-2v-27z" fill="#B258E4"/>
<path transform="translate(283,1070)" d="m0 0h1l-1 7-7 23-3 12-2 1 1-9 2-5 2-12 4-9z" fill="#3863F1"/>
<path transform="translate(1320,1119)" d="m0 0 2 1-6 5-5 2v2h-3v2l-10 8-4 5h-2v2l-9 7-2-1 13-12 8-8 10-8h3v-2z" fill="#2A95FA"/>
<path transform="translate(927,1231)" d="m0 0h24v2l-7 1-28 1 2-2z" fill="#16145F"/>
<path transform="translate(851,798)" d="m0 0 5 1 5 5 9 8 5 5-1 2-15-10-4-7z" fill="#EFF9FE"/>
<path transform="translate(1158,517)" d="m0 0 2 2v4h-17l-8-3v-1h23z" fill="#F0FBFE"/>
<path transform="translate(826,786)" d="m0 0 2 2 7 1 2 4-4 5h3l-2 4-5 1 1-5-4-7z" fill="#DAE3F2"/>
<path transform="translate(786,1208)" d="m0 0h1v19l-1 4h-29v-1l26-3 2-2z" fill="#3C7AF6"/>
<path transform="translate(212,958)" d="m0 0h2l4 10 2 7 3 7 3 10-2 1-2-1-10-33z" fill="#885CE9"/>
<path transform="translate(191,656)" d="m0 0 1 3-3 10-2 2-1 5-3 9-3 13-2 2 2-13 5-19h2l3-10z" fill="#F0EBE7"/>
<path transform="translate(1141,1149)" d="m0 0 4 1-1 4-9 5-6-1 2-4z" fill="#A3D4FF"/>
<path transform="translate(1374,802)" d="m0 0 7 1-5 15-3 1v-11l-1-3z" fill="#F4F1F6"/>
<path transform="translate(993,1055)" d="m0 0 1 3v17l1 4v4h-2l-1 3-2-9v-14z" fill="#5D56EB"/>
<path transform="translate(588,970)" d="m0 0h19v2l-10 3-1 1h-5l-3-4z" fill="#356DF5"/>
<path transform="translate(1043,956)" d="m0 0 5 1-2 4-8 11h-2l-1-4 3-6 2-1z" fill="#9CDDFE"/>
<path transform="translate(1180,379)" d="m0 0h25l8 4 4 6-5-2-8-4-11-2-13-1z" fill="#130E54"/>
<path transform="translate(289,797)" d="m0 0 2 1 6 12 2 3 4 12-4-4-7-11-3-9z" fill="#8C54E9"/>
<path transform="translate(1199,1159)" d="m0 0 3 1 1 3-6 10-5 4-2-1 1-5 6-7 2-4z" fill="#128AFE"/>
<path transform="translate(687,974)" d="m0 0h39l5 1v1h-24v2l-17-1z" fill="#74B0FD"/>
<path transform="translate(942,1214)" d="m0 0h5l2 2h5l-4 2-13 2-3 1v3l-5 4-2 4-2-1 1-5 5-3 1-3 5-3h5z" fill="#1771F7"/>
<path transform="translate(1012,753)" d="m0 0 61 1v1l-58 1h-8l3-2z" fill="#B8E6FF"/>
<path transform="translate(1217,1206)" d="m0 0 2 1-15 10-5 3-7 1 3-3 11-7h4l1-3z" fill="#1281FC"/>
<path transform="translate(267,1159)" d="m0 0h1v19l-2 6-1 2h-3l-3-5 5-2 2-10z" fill="#4474FD"/>
<path transform="translate(1391,1020)" d="m0 0 5 1 2 2v2l1 6-4 1-6-2 2-6z" fill="#2D96FA"/>
<path transform="translate(358,741)" d="m0 0 5 2 14 11 6 5v2l-4-1-11-9-10-8z" fill="#D1DDF3"/>
<path transform="translate(833,1042)" d="m0 0 5 1 5 5 2 9-3-3-5-6h-6l-1 2v-6z" fill="#2553E6"/>
<path transform="translate(1169,1157)" d="m0 0 19 2-1 4-4 3-3-1v-3l-10-2z" fill="#5FA2FC"/>
<path transform="translate(1135,837)" d="m0 0 5 2 7 7v6l-3 5h-2l-1-13-5-5z" fill="#D9F2FF"/>
<path transform="translate(519,1224)" d="m0 0 2 3 7 2 3 3-10 2h-5z" fill="#74AFFC"/>
<path transform="translate(718,834)" d="m0 0 5 2 7 6 5 7 2 5-4-2-13-15z" fill="#D1DDF3"/>
<path transform="translate(225,998)" d="m0 0 2 1v3l3-1 2 5v14l-2-2-5-16z" fill="#552AB8"/>
<path transform="translate(1326,931)" d="m0 0 2 4-3 5-3 10-6 5 2-5 3-5-1-5z" fill="#A571DC"/>
<path transform="translate(296,807)" d="m0 0 5 4 2 7h2l7 14 4 6-1 2-10-15-9-15z" fill="#7C3FD4"/>
<path transform="translate(913,1209)" d="m0 0 5 5v11l-2 2-3-3z" fill="#B5E4FE"/>
<path transform="translate(393,826)" d="m0 0 5 1 2 2v7l-1 2-4-2-3-7z" fill="#5A2CC2"/>
<path transform="translate(1229,1136)" d="m0 0 3 2-3 3-14 5-9 4 1-3 21-10z" fill="#188CFC"/>
<path transform="translate(1326,910)" d="m0 0h2l3 7-1 8-2 5-2 1 1-7-1-7 1-3-2-1z" fill="#9F56E4"/>
<path transform="translate(832,859)" d="m0 0h4l-2 6-1 2v28h4v2h-5l-1-2v-30z" fill="#FFB042"/>
<path transform="translate(777,1251)" d="m0 0h19l10 2 1 4h-9l2-1v-2l-7-1h-19z" fill="#BEDDFC"/>
<path transform="translate(1184,1223)" d="m0 0 2 1-5 2-14 3h-18v-1l23-3z" fill="#2E68F4"/>
<path transform="translate(837,978)" d="m0 0 3 1v12l-3 2-2-2v-9z" fill="#2847E1"/>
<path transform="translate(856,780)" d="m0 0h1v13l-2 4-6-3-8-1-1-5 2 3 10 2 3-9z" fill="#B258E4"/>
<path transform="translate(991,717)" d="m0 0 13 1 8 2v1l-19 1-5-1v-2z" fill="#BCEAFF"/>
<path transform="translate(1013,1115)" d="m0 0h4v5l-8 4h-3l1-5 3-3z" fill="#B5DDFD"/>
<path transform="translate(1273,987)" d="m0 0h21l-5 4-1 1-9-1v-2l-6-1z" fill="#0C73FB"/>
<path transform="translate(794,855)" d="m0 0h1v14h-6l-4-2 1-3 6-2z" fill="#FFD43E"/>
<path transform="translate(324,712)" d="m0 0 7 4 15 12 12 9-2 1-17-13-8-6-7-5z" fill="#1F1569"/>
<path transform="translate(893,1252)" d="m0 0 5 2 1-2h9l3 2-1 2-22-1-9-1v-1z" fill="#C8CFF0"/>
<path transform="translate(902,1239)" d="m0 0 5 2 2-2h4l1 7-7 2-2-5-3-2z" fill="#40299C"/>
<path transform="translate(862,1252)" d="m0 0h20l-3 2-15 2h-5l-2-3z" fill="#4F27C0"/>
<path transform="translate(384,767)" d="m0 0 5 1 8 6 9 9 1 4-7-5-7-8-9-6z" fill="#8C53E8"/>
<path transform="translate(975,670)" d="m0 0h17l4 2v1h-22z" fill="#2A95FA"/>
<path transform="translate(1067,1065)" d="m0 0 2 1-12 12-8 6-4 4-2-1 8-8 8-7 5-6z" fill="#2B49E4"/>
<path transform="translate(193,654)" d="m0 0h2l-3 12-6 14-3 8-1-3 4-11 1-5h2l2-10z" fill="#D7E1F4"/>
<path transform="translate(1138,526)" d="m0 0h11l9 2 1 3 2 2-7-1-6-3-10-2z" fill="#2A95FA"/>
<path transform="translate(1299,1140)" d="m0 0 3 1-8 7-13 13-4-1 3-3 4-2 7-8z" fill="#9AD3FC"/>
<path transform="translate(794,945)" d="m0 0 2 1-1 4-4 10-4-2 1-5 3-5z" fill="#DFF4FE"/>
<path transform="translate(1216,1216)" d="m0 0m-2 1 2 1-2 4-11 6-8 1 4-3 11-6z" fill="#140E56"/>
<path transform="translate(640,972)" d="m0 0h8l2 2v4h-9l-2-5z" fill="#3F76FA"/>
<path transform="translate(756,970)" d="m0 0h9l3 3v5l-3 2h-11v-1l9-2v-4l-7-2z" fill="#B6DCFD"/>
<path transform="translate(974,517)" d="m0 0 39 1v1l-29 1-1 1h-7z" fill="#FEFEFE"/>
<path transform="translate(975,669)" d="m0 0h25v2h-2v3h-18v-1l15-1-3-1-17-1z" fill="#128AFD"/>
<path transform="translate(824,1236)" d="m0 0 35 2v1l-33 1z" fill="#6B3DD7"/>
<path transform="translate(1080,1159)" d="m0 0h4v2l-10 3h-3v2l-9 1v-2l13-5z" fill="#117FFD"/>
<path transform="translate(481,1010)" d="m0 0 8 1-3 2h-2l3 5 1 2-6-2-5-3 2-4z" fill="#C8DDF6"/>
<path transform="translate(1345 1e3)" d="m0 0 5 1 19 8 1 2-9-2-14-6v-2z" fill="#2865E3"/>
<path transform="translate(312,888)" d="m0 0 7 5 8 11-1 2-9-8-5-8z" fill="#723ACC"/>
<path transform="translate(792,889)" d="m0 0h3l1 6-1-3-5 1-33-2v-1h31z" fill="#FFD43E"/>
<path transform="translate(345,737)" d="m0 0 5 2 5 3v2l4 2 9 7 5 5-5-2-8-6v-2l-5-2-1-3-5-2z" fill="#9654E5"/>
<path transform="translate(1156,732)" d="m0 0 2 4-1 4v-2l-9 5h-5l5-4z" fill="#B2DDFD"/>
<path transform="translate(1040,1089)" d="m0 0 2 1-16 16-4 2v2l-5-1-1-2 6-1 5-5 10-9z" fill="#2A4BE5"/>
<path transform="translate(1154,1159)" d="m0 0h5v4l-3 2h-7v-4z" fill="#A3D4FF"/>
<path transform="translate(1103,1188)" d="m0 0 4 1-6 3-10 2-7-1 4-2z" fill="#1A8DFC"/>
<path transform="translate(477,499)" d="m0 0h1l1 38 1 5h-3z" fill="#D0EEFE"/>
<path transform="translate(971,1209)" d="m0 0 4 1-2 2-8 2h-9l-9-1v-1h14z" fill="#1C8DFB"/>
<path transform="translate(914,896)" d="m0 0 4 5-1 25-2 3v-24z" fill="#D1DDF3"/>
<path transform="translate(778,1079)" d="m0 0 6 3v8h-6l1-8z" fill="#A1E2FF"/>
<path transform="translate(689,970)" d="m0 0h6l-1 4 2 1h-13v-4z" fill="#5DB1FD"/>
<path transform="translate(346,1255)" d="m0 0h11l13 2v1h-27z" fill="#6439D5"/>
<path transform="translate(1257,1180)" d="m0 0 3 1-15 14h-3l3-3 2-5 5-1v-2l4-2z" fill="#5463A8"/>
<path transform="translate(1230,405)" d="m0 0 5 5 4 8 1 9-3-1-2-9-5-10z" fill="#1E1462"/>
<path transform="translate(1174,403)" d="m0 0h22l4 4-9-1-17-2z" fill="#A8E3FE"/>
<path transform="translate(946,1212)" d="m0 0 18 2-3 2-13 1-1-3-4-1z" fill="#1082FC"/>
<path transform="translate(232,1021)" d="m0 0 3 1 1 7 4 14-1 3-7-21z" fill="#2D1E78"/>
<path transform="translate(1358,878)" d="m0 0 1 3-10 20-2 1 1-5 6-13h2z" fill="#DCE7F7"/>
<path transform="translate(419,799)" d="m0 0 4 2 6 5h2v4l-10-4-2-4z" fill="#8F54E8"/>
<path transform="translate(912,1260)" d="m0 0h2l-1 7-3 2-5-1-2-4h5l2 2 1-5z" fill="#23166B"/>
<path transform="translate(913,1224)" d="m0 0 4 2h3l1 5 4 2h-8l-1-3h-2z" fill="#5E9CF4"/>
<path transform="translate(1221,1209)" d="m0 0 3 1-8 7-9 5-1-2 7-4 5-5z" fill="#A1D9FD"/>
<path transform="translate(889,996)" d="m0 0h1l1 16 2 10-1 5h-1l-2-11z" fill="#7BC3FD"/>
<path transform="translate(840,794)" d="m0 0 5 1 1 2v6l-4 1-2-3z" fill="#FFD43E"/>
<path transform="translate(1215,1209)" d="m0 0h2l-1 3-3 2v3l-5 3-2-1 2-4 5-5z" fill="#78C4FD"/>
<path transform="translate(858,1109)" d="m0 0 2 2 4 17-1 3-2-2-2-8z" fill="#2452E6"/>
<path transform="translate(847,794)" d="m0 0 6 3v3l4 3 1 5-3-3v-2h-6l-1-4z" fill="#FFD43E"/>
<path transform="translate(212,1064)" d="m0 0h2l1 10-2 10-3 2 1-3v-16z" fill="#9855E6"/>
<path transform="translate(674,894)" d="m0 0h6l2 2-2 1-9 1h-9l4-2z" fill="#D1DDF3"/>
<path transform="translate(1370,841)" d="m0 0 1 2-4 16-2 2v-7l3-12z" fill="#A0BFF5"/>
<path transform="translate(214,1093)" d="m0 0 2 1v5l3 1-1 9-3-4-2-7z" fill="#7340CA"/>
<path transform="translate(408,783)" d="m0 0 4 1 4 5 3 2 2 5-4-2-5-5-4-5z" fill="#C2C3EF"/>
<path transform="translate(844,1247)" d="m0 0 12 1 4 2-3 2-9-2-4-2z" fill="#0E0C4D"/>
<path transform="translate(913,1206)" d="m0 0 5 2 1 7-5-3-1 6h-1v-11z" fill="#99DBFE"/>
<path transform="translate(843,1056)" d="m0 0 3 2 4 19-1 3-4-12z" fill="#2A5EE9"/>
<path transform="translate(819,811)" d="m0 0h2l-2 5-6 8-1-3 3-7z" fill="#E0F1FD"/>
<path transform="translate(819,773)" d="m0 0h2l3 8v6l-4-4-1-3z" fill="#A4D4FE"/>
<path transform="translate(975,1209)" d="m0 0 13 1v1l-17 3h-6l4-2 5-2z" fill="#0D75F9"/>
<path transform="translate(663,817)" d="m0 0h11l6 2v1h-8l-6-1 1 1-3 1z" fill="#D7E2F4"/>
<path transform="translate(896,1236)" d="m0 0h6l2 8-3 1-3-3v-5z" fill="#16115C"/>
<path transform="translate(1159,1157)" d="m0 0 6 1 6 3 1 4-2 2h-5l2-4-3-3-5-2z" fill="#76B3FD"/>
<path transform="translate(1135,519)" d="m0 0h22v1l-17 2-5-2z" fill="#FDFDFE"/>
<path transform="translate(809,1253)" d="m0 0 9 3v3h-12l3-1z" fill="#6065DC"/>
<path transform="translate(207,1068)" d="m0 0 2 1v3l1 3h-2v6h-2l-1-2v-7z" fill="#C7DCF5"/>
<path transform="translate(452,1021)" d="m0 0 9 1-4 2 3 5-7-2-2-5z" fill="#407FFA"/>
<path transform="translate(503,1246)" d="m0 0h2v2l-10 7-5 2-3-1 9-5z" fill="#4873F0"/>
<path transform="translate(762,1075)" d="m0 0 13 1 7 2-1 3-8-3-12-1z" fill="#B5E4FF"/>
<path transform="translate(889,1016)" d="m0 0h1l2 19v7h-1l-2-6z" fill="#3767EF"/>
<path transform="translate(1156,464)" d="m0 0h2l2 6v21h-1v-20h-2z" fill="#B8DDFD"/>
<path transform="translate(210,1074)" d="m0 0h1l1 9-3 2-3-4h2v-6z" fill="#A5CDFC"/>
<path transform="translate(295,1058)" d="m0 0 11 1 1 3h-8l-6-2z" fill="#7FCAFE"/>
<path transform="translate(214,958)" d="m0 0 4 1v3l2 1-1 9-2-4z" fill="#8541D4"/>
<path transform="translate(858,729)" d="m0 0 6 4 1 3-7-1-5-2v-1h5z" fill="#A8D1FB"/>
<path transform="translate(1122,519)" d="m0 0h13l5 2v1h-12v-2h-6z" fill="#EAF8FF"/>
<path transform="translate(881,1260)" d="m0 0 7 2v2l8 1v1l-10-1-7-2v-2z" fill="#8E73D5"/>
<path transform="translate(822,1203)" d="m0 0h1v11l-1 5h-1l-1-5v-8z" fill="#141C80"/>
<path transform="translate(845,726)" d="m0 0 10 2-3 1v3l-9-3z" fill="#AACDF9"/>
<path transform="translate(191,656)" d="m0 0 1 3-3 10-2 2-3 4 1-7h2l3-10z" fill="#EBBFA3"/>
<path transform="translate(1244,1189)" d="m0 0h2l-1 4-7 6h-2l2-4z" fill="#8CC9FB"/>
<path transform="translate(212,958)" d="m0 0h2l4 10v8l-2-4z" fill="#9265E9"/>
<path transform="translate(836,873)" d="m0 0 2 1v9l-5-2z" fill="#FEFEFE"/>
<path transform="translate(863,768)" d="m0 0 3 1-5 12-2 4v-9z" fill="#AFD0F9"/>
<path transform="translate(998,671)" d="m0 0 2 1 6-1v2h14v1h-22z" fill="#2894FA"/>
<path transform="translate(1247,1181)" d="m0 0 3 2-11 8v-3l3-3h2v-2z" fill="#1B8EFC"/>
<path transform="translate(474,1023)" d="m0 0h11l5 2v1h-9l-8-1z" fill="#4F84FD"/>
<path transform="translate(260,802)" d="m0 0 3 2v3l3 1 3 7-1 3-8-13z" fill="#8450E9"/>
<path transform="translate(1007,723)" d="m0 0 3 1v3l-2 1h-7l-1-2z" fill="#BCEAFF"/>
<path transform="translate(486,1255)" d="m0 0 3 1-1 2-4 2h-10l3-2z" fill="#7557DC"/>
<path transform="translate(989,1206)" d="m0 0 3 1-3 1v2h-9l-3-2z" fill="#178AFC"/>
<path transform="translate(870,1160)" d="m0 0 2 4 2 8-1 7h-1l-2-14z" fill="#254FE4"/>
<path transform="translate(1220,1141)" d="m0 0m-3 1 3 1-8 5-6 2 1-3z" fill="#158BFD"/>
<path transform="translate(1315,994)" d="m0 0 10 1 10 2v1h-11l-9-3z" fill="#76B6FD"/>
<path transform="translate(811,737)" d="m0 0h1l1 9 9 1v1h-12v-9z" fill="#7175E1"/>
<path transform="translate(288,1052)" d="m0 0 2 1v3l6 1-3 3-5-2z" fill="#6DA8FC"/>
<path transform="translate(1036,973)" d="m0 0 1 4-9 11v-3z" fill="#2C4AE1"/>
<path transform="translate(851,798)" d="m0 0 5 1 3 4 1 4 2 1v2l-4-2-3-6z" fill="#FDFDFE"/>
<path transform="translate(1032,727)" d="m0 0h12l1 3-13-1z" fill="#BCEAFF"/>
<path transform="translate(893,1252)" d="m0 0 4 2v1h-9l-9-1v-1z" fill="#D1DDF3"/>
<path transform="translate(878,1227)" d="m0 0h4l-1 8-4-4z" fill="#06083E"/>
<path transform="translate(681,969)" d="m0 0h11l-2 2h-7v4h-2z" fill="#81CAFE"/>
<path transform="translate(1360,870)" d="m0 0h1l-1 9-5 5 1-5z" fill="#CDE0F6"/>
<path transform="translate(889,833)" d="m0 0 5 1 1 3-3 3-3-3z" fill="#C9E5FB"/>
<path transform="translate(842,793)" d="m0 0h7l7 4v2l-5-2-3-2-2 2z" fill="#FFAC42"/>
<path transform="translate(840,769)" d="m0 0 3 1-5 5-9-1v-1l9-2z" fill="#E6F7FF"/>
<path transform="translate(360,740)" d="m0 0 4 2 11 9h-3l-12-9z" fill="#6E3BC9"/>
<path transform="translate(830,724)" d="m0 0h13l2 3-2 1-3-1v-2l-8 1z" fill="#C8E8FD"/>
<path transform="translate(974,517)" d="m0 0 10 1-1 3h-7z" fill="#FCFDFD"/>
<path transform="translate(1207,1222)" d="m0 0m-2 1 2 1-4 4-8 1 4-3z" fill="#191261"/>
<path transform="translate(526,1154)" d="m0 0h2l2 10v8h-1l-3-14z" fill="#4175FC"/>
<path transform="translate(1421,1043)" d="m0 0 5 1v4l-4 1-2-1z" fill="#5BB2FD"/>
<path transform="translate(1213,991)" d="m0 0h5l-4 3-13 1 4-2z" fill="#276EFA"/>
<path transform="translate(687,974)" d="m0 0h10l3 3h-10z" fill="#7ABFFD"/>
<path transform="translate(197,645)" d="m0 0 1 3-2 6h-3l-1 2 1-4 2-6z" fill="#DDCBC4"/>
<path transform="translate(201,628)" d="m0 0 1 3-5 12-2-1 4-12z" fill="#130F51"/>
<path transform="translate(974,521)" d="m0 0 12 3-4 2-5-1-3-2z" fill="#168CFD"/>
<path transform="translate(857,1253)" d="m0 0h13l-4 2-7 1z" fill="#16115F"/>
<path transform="translate(1207,1214)" d="m0 0 2 1-2 4-7 1-1 3-3-2z" fill="#6AAEFC"/>
<path transform="translate(1200,1215)" d="m0 0h2l-1 4-9 2 3-3z" fill="#0F7DFC"/>
<path transform="translate(1243,1091)" d="m0 0m-1 1m-3 1 4 3-3 2h-6z" fill="#1080FD"/>
<path transform="translate(832,859)" d="m0 0h4l-4 12h-1z" fill="#FFD43E"/>
<path transform="translate(811,821)" d="m0 0 1 4-5 6-1-4z" fill="#CFE2F8"/>
<path transform="translate(387,770)" d="m0 0 5 2 8 8h-3l-3-2v-2h-2z" fill="#773CD0"/>
<path transform="translate(1155,735)" d="m0 0 3 1-1 4v-2l-7 4-2-1z" fill="#A3E2FF"/>
<path transform="translate(826,1242)" d="m0 0h3l-1 3-2-1z" fill="#271779"/>
<path transform="translate(804,1162)" d="m0 0h2v5l-2-3z" fill="#7B4AE3"/>
<path transform="translate(801,1141)" d="m0 0 3 1-1 3z" fill="#694AC4"/>
<path transform="translate(943,229)" d="m0 0h3v2l-3-1z" fill="#8972D5"/>
<path transform="translate(997,245)" d="m0 0 2 1z" fill="#FEFEFE"/>
<path transform="translate(995,244)" d="m0 0 2 1z" fill="#FEFEFE"/>
<path transform="translate(992,243)" d="m0 0 2 1z" fill="#D1DDF3"/>
<path transform="translate(985,241)" d="m0 0 2 1z" fill="#8642D3"/>
<path transform="translate(947,230)" d="m0 0 2 1z" fill="#5328C0"/>
<path transform="translate(858,1264)" d="m0 0" fill="#5A2CC2"/>
<path transform="translate(795,1238)" d="m0 0" fill="#5A2CC2"/>
<path transform="translate(805,1173)" d="m0 0" fill="#5A2CC2"/>
<path transform="translate(1e3 253)" d="m0 0" fill="#B258E4"/>
<path transform="translate(1e3 250)" d="m0 0" fill="#FEFEFE"/>
<path transform="translate(1e3 249)" d="m0 0" fill="#FEFEFE"/>
<path transform="translate(1e3 248)" d="m0 0" fill="#FEFEFE"/>
<path transform="translate(1e3 247)" d="m0 0" fill="#FEFEFE"/>
<path transform="translate(999,246)" d="m0 0" fill="#FEFEFE"/>
<path transform="translate(989,242)" d="m0 0" fill="#B258E4"/>
<path transform="translate(957,242)" d="m0 0" fill="#B258E4"/>
<path transform="translate(982,240)" d="m0 0" fill="#B258E4"/>
</svg>
