<svg version="1.1" id="Layer_1" xmlns="http://www.w3.org/2000/svg" xmlns:xlink="http://www.w3.org/1999/xlink" x="0px" y="0px"
	 width="100%" viewBox="0 0 602 294" enable-background="new 0 0 602 294" xml:space="preserve">
<path fill="#FEFEFE" opacity="1.000000" stroke="none" 
	d="
M603.000000,278.000000 
	C603.000000,283.665009 603.000000,289.330048 603.000000,294.996277 
	C402.393494,294.997528 201.786987,294.997528 1.090246,294.997528 
	C1.090246,197.088806 1.090246,99.177513 1.090246,1.133109 
	C201.666595,1.133109 402.333282,1.133109 603.000000,1.133109 
	C603.000000,5.390216 603.000000,9.722330 602.536621,14.604296 
	C540.821106,15.175214 479.568939,15.190571 418.316803,15.241286 
	C416.190857,15.243046 414.065216,15.597774 411.558624,15.784308 
	C404.263763,17.826061 400.731903,22.679995 401.646057,28.880272 
	C402.594391,35.311996 407.105988,39.054764 414.273010,39.136707 
	C422.601532,39.231937 430.935669,39.031460 439.259888,39.247902 
	C447.017334,39.449612 451.996094,44.254250 452.043243,51.099495 
	C452.092224,58.207325 447.010925,63.061039 439.006744,63.142387 
	C426.347168,63.271053 413.685394,63.178329 401.024536,63.187725 
	C391.195892,63.195019 381.361877,63.021027 371.540436,63.293953 
	C364.299072,63.495190 359.505249,68.689957 359.661835,75.428757 
	C359.813293,81.946518 364.613464,86.661407 371.638367,86.980888 
	C375.795654,87.169960 380.105042,86.455696 384.086761,87.329346 
	C387.572174,88.094109 391.304565,89.886635 393.825226,92.352364 
	C397.008728,95.466484 396.890442,99.971504 394.961761,104.039871 
	C392.747345,108.710999 388.828583,110.936470 383.724884,110.957695 
	C371.064240,111.010361 358.403107,110.952560 345.742493,111.007263 
	C337.215759,111.044098 331.859558,115.533867 331.727203,122.606781 
	C331.588806,130.001541 336.984497,134.874619 345.556488,134.940079 
	C354.884949,135.011307 364.216675,134.840057 373.542542,135.013504 
	C380.839752,135.149200 385.860016,140.031097 385.978241,146.656616 
	C386.095795,153.240707 381.175964,158.218094 373.916168,158.765610 
	C371.428070,158.953247 368.890076,158.716110 366.436737,159.084671 
	C358.370483,160.296387 354.223694,168.942535 357.906708,176.153091 
	C361.162811,182.527863 366.897522,182.763382 372.856964,182.827393 
	C381.115967,182.916107 386.262939,187.227936 386.513611,194.194183 
	C386.772156,201.380249 381.563904,206.369186 373.281189,206.661728 
	C368.455475,206.832169 363.612061,206.569412 358.791687,206.807404 
	C351.981445,207.143616 347.102692,212.405655 347.330200,218.827362 
	C347.561157,225.347595 352.103241,229.932388 358.868073,230.086777 
	C368.859375,230.314804 378.855438,230.377640 388.849854,230.418396 
	C406.674286,230.491089 424.501434,230.333817 442.322540,230.601181 
	C450.160156,230.718781 454.985321,235.681747 454.954559,242.547806 
	C454.923859,249.401993 449.949951,254.019730 442.163391,254.367584 
	C438.673889,254.523453 435.149536,254.339539 431.696228,254.761505 
	C426.604370,255.383667 422.768097,259.223816 421.861267,264.047821 
	C420.915588,269.078491 422.808319,273.994263 427.536926,276.262512 
	C430.392090,277.632080 433.890533,278.202179 437.101532,278.207794 
	C490.576752,278.300995 544.052246,278.249908 597.527710,278.217529 
	C599.019226,278.216644 600.510681,278.067291 602.250732,278.062286 
	C602.666199,278.091583 602.833069,278.045807 603.000000,278.000000 
M234.161514,177.874329 
	C234.325287,177.974792 234.502930,178.020462 234.998688,178.680954 
	C236.888107,180.629730 248.871582,182.742477 250.891678,181.355942 
	C251.446609,180.975052 251.890625,180.020538 251.898788,179.323547 
	C251.943527,175.504089 252.196198,171.633911 251.684372,167.875549 
	C251.136139,163.849716 248.103149,162.057770 244.179886,161.978790 
	C240.317535,161.901001 237.067154,162.932983 235.725464,167.738449 
	C239.677383,167.522934 243.205688,167.330536 246.733994,167.138123 
	C246.733627,167.539764 246.733276,167.941422 246.732925,168.343063 
	C242.817200,169.892929 238.901459,171.442795 234.698746,172.893799 
	C234.698746,172.893799 234.401108,172.953430 234.339478,172.127701 
	C234.393295,167.821350 232.966339,164.280090 228.709320,162.660904 
	C225.090210,161.284348 221.618820,161.542282 218.322922,165.237106 
	C217.424240,169.046371 216.525558,172.855652 215.644501,176.590210 
	C212.155991,176.590210 207.938904,176.590210 203.230652,176.590210 
	C203.230652,169.424225 203.230652,162.686920 203.230652,156.107712 
	C199.612915,154.991455 198.021683,155.775269 198.189438,159.393555 
	C198.381439,163.535049 198.234070,167.692291 198.234055,171.842682 
	C198.234009,181.705658 198.237381,181.852432 208.271255,181.620972 
	C211.526398,181.545883 216.027771,183.710419 217.324600,178.147675 
	C217.866852,178.478241 218.409088,178.808807 219.282822,179.779709 
	C225.078598,183.229172 228.826813,182.702042 234.161514,177.874329 
M113.930077,117.980698 
	C113.527878,118.029602 113.125687,118.078514 111.873184,118.180603 
	C110.632271,118.056030 109.391357,117.931458 109.254791,117.917747 
	C107.836388,115.130890 107.006798,111.606934 105.810394,111.477661 
	C100.594116,110.914017 104.614059,116.328300 101.736717,118.234100 
	C92.659874,115.464867 93.923409,125.206345 89.560677,129.872833 
	C87.489220,121.061592 81.880470,116.078484 74.194511,111.983864 
	C70.738533,111.846886 67.267982,111.482162 63.834827,111.701820 
	C62.699589,111.774467 60.756901,113.319595 60.722012,114.249214 
	C60.462383,121.166626 60.528652,128.099854 60.672886,135.024353 
	C60.691048,135.896088 61.723103,137.417007 62.348396,137.450195 
	C63.309193,137.501205 64.324623,136.522995 65.513008,135.124542 
	C65.513008,133.037796 65.513008,130.951050 65.513008,128.700043 
	C71.776382,128.131256 77.896957,129.236938 81.421867,122.210823 
	C84.009392,129.976517 90.151901,136.049423 84.058952,144.589478 
	C86.289612,144.589478 87.884392,144.930634 88.091240,144.538910 
	C91.922546,137.283173 95.588318,129.940048 99.335632,122.522987 
	C103.238350,122.071564 103.033669,124.752205 103.032822,127.540009 
	C103.030251,136.035431 104.116455,137.140427 113.277901,137.841446 
	C113.792053,137.580688 114.306206,137.319916 115.448204,137.448395 
	C118.487083,138.367935 119.848839,137.236694 119.724586,134.074005 
	C119.639984,131.920700 119.706337,129.760590 119.734695,127.603905 
	C119.771187,124.828491 120.688950,122.063644 123.834114,122.859245 
	C125.511795,123.283630 127.137352,125.935402 127.772728,127.908333 
	C128.451004,130.014557 127.681984,132.546600 128.050644,134.810379 
	C128.225128,135.881836 129.578461,136.761322 130.397690,137.727783 
	C131.226089,136.738724 132.512192,135.857574 132.776733,134.735580 
	C133.184647,133.005402 132.903061,131.110199 132.896088,129.285065 
	C132.857864,119.291336 130.001816,116.884338 120.224396,118.609833 
	C120.088455,118.316261 119.938377,118.028320 119.818817,117.728218 
	C118.953491,115.556328 121.464615,111.408226 117.290771,111.366737 
	C112.679459,111.320885 115.736526,115.810501 113.930077,117.980698 
M314.976471,174.619080 
	C316.561066,176.809341 317.707123,179.913712 319.849426,180.941376 
	C322.145447,182.042770 325.378998,181.189850 328.432587,181.189850 
	C325.289551,190.231277 319.205231,180.615143 315.240906,183.448456 
	C316.721863,187.952042 320.344574,190.274597 325.100525,189.695923 
	C329.456421,189.165955 332.810303,187.202957 333.134155,182.373657 
	C333.422516,178.074692 333.381378,173.744995 333.298767,169.432434 
	C333.228241,165.750412 335.094391,160.039871 327.502594,163.149460 
	C327.186859,163.278778 326.633118,162.708832 326.158844,162.587204 
	C319.744202,160.942398 316.281036,163.288452 314.336975,170.699036 
	C313.880219,169.574966 313.704132,168.167191 312.911316,167.382812 
	C310.945435,165.437943 308.944824,162.950546 306.498627,162.220032 
	C303.658478,161.371872 300.312836,162.022232 297.221527,162.350861 
	C296.480896,162.429596 295.333099,163.787979 295.302155,164.593536 
	C295.117584,169.397827 295.063293,174.220367 295.325958,179.017029 
	C295.376465,179.939285 297.030457,180.773727 297.944702,181.648682 
	C298.667419,180.769485 299.914062,179.946548 300.015686,179.000656 
	C300.333008,176.045547 299.781891,172.941254 300.450714,170.102951 
	C300.794037,168.646088 302.989410,166.727859 304.396881,166.686447 
	C305.660370,166.649277 307.760315,168.704620 308.124268,170.175201 
	C308.785095,172.845261 308.227020,175.793976 308.600464,178.569504 
	C308.749725,179.678665 310.019043,180.637131 310.778473,181.664169 
	C311.652496,180.596130 312.715637,179.628754 313.351624,178.434006 
	C314.107880,177.013367 314.497070,175.397354 314.976471,174.619080 
M386.190857,254.803879 
	C379.233429,256.893494 375.956665,261.447540 376.727325,267.956268 
	C377.449860,274.058685 382.013336,277.984009 388.862213,278.163177 
	C393.691528,278.289551 398.531982,278.311310 403.358734,278.137451 
	C409.915710,277.901276 414.622498,273.513214 415.114319,267.467834 
	C415.644318,260.953705 411.881775,256.265381 404.293732,254.542053 
	C398.512634,254.647476 392.731567,254.752899 386.190857,254.803879 
M352.177246,76.292885 
	C351.945190,68.431572 348.013519,63.713844 340.786835,63.282417 
	C335.492615,62.966354 330.146393,62.966473 324.854340,63.307106 
	C317.988037,63.749073 313.495819,68.918152 313.691223,75.533516 
	C313.879364,81.903389 318.473480,86.625130 325.169373,86.949333 
	C329.974670,87.181992 334.801392,87.106262 339.614990,87.002617 
	C346.434082,86.855782 350.025940,83.937996 352.177246,76.292885 
M170.368698,137.712372 
	C171.137131,137.207138 172.575165,136.694595 172.569748,136.197815 
	C172.519333,131.576263 172.657990,126.870773 171.768646,122.382454 
	C171.434799,120.697601 168.704086,118.650848 166.786484,118.300743 
	C163.389862,117.680595 159.767883,118.101242 156.268539,118.408760 
	C155.609741,118.466660 154.755539,119.963799 154.571075,120.909805 
	C154.284546,122.379288 154.495392,123.945755 154.495392,126.916557 
	C150.689590,119.183517 146.765976,116.817406 141.442963,118.237450 
	C136.774185,119.482956 134.767868,122.823326 134.638214,127.496017 
	C134.487991,132.910599 136.957581,136.617340 141.499634,137.724319 
	C146.767334,139.008148 150.435043,136.861298 154.160950,129.942352 
	C154.289795,131.692917 154.109665,133.046646 154.544571,134.160110 
	C155.050217,135.454651 156.094833,136.538666 156.905533,137.714050 
	C157.811325,136.461212 159.258789,135.306107 159.506332,133.934479 
	C159.972824,131.349548 159.355957,128.544754 159.968445,126.020355 
	C160.296249,124.669334 162.208954,122.866692 163.475403,122.810028 
	C164.794586,122.750999 166.879044,124.278549 167.400162,125.597771 
	C168.150726,127.497894 167.620270,129.863617 167.956253,131.979874 
	C168.262833,133.910812 168.995071,135.774170 170.368698,137.712372 
M73.283157,175.292175 
	C75.325539,172.945419 77.367920,170.598648 79.922913,167.662872 
	C79.922913,171.783813 79.742676,175.233047 80.030022,178.642899 
	C80.119102,179.700043 81.478020,180.650177 82.255562,181.649307 
	C83.156212,180.767380 84.813499,179.906265 84.838425,179.000229 
	C85.047638,171.394684 84.957497,163.780884 84.957497,155.569778 
	C76.318947,155.905518 77.300728,164.709335 72.783585,167.879318 
	C68.182907,164.655838 69.161926,155.940445 60.863884,155.558029 
	C60.863884,164.463257 60.863884,172.729324 60.863884,181.087570 
	C64.015266,182.188263 65.881767,181.846039 65.743820,178.053955 
	C65.626251,174.822006 65.719521,171.582397 65.719521,168.346176 
	C67.474045,169.472198 68.137428,170.943466 69.127960,172.145035 
	C70.112259,173.339020 71.425529,174.261826 73.283157,175.292175 
M260.301239,163.168854 
	C254.452148,161.314941 254.109344,161.577728 254.100235,167.937515 
	C254.097137,170.101395 253.721390,172.353592 254.199112,174.406433 
	C254.774414,176.878693 251.760681,181.500992 256.710693,181.455765 
	C261.076111,181.415878 258.861206,177.042221 258.949371,174.685074 
	C259.243805,166.813736 259.175293,166.705170 267.418732,167.121262 
	C267.418732,171.077484 267.246979,175.068130 267.543732,179.023636 
	C267.614777,179.970535 269.245483,180.800415 270.158875,181.684097 
	C270.890045,180.802750 272.138885,179.983337 272.253113,179.028214 
	C272.567383,176.400314 271.885986,173.563187 272.606262,171.103973 
	C273.132660,169.306778 275.255859,167.977249 276.667297,166.439255 
	C278.013550,168.040253 280.166351,169.479034 280.528107,171.278015 
	C281.164520,174.442780 280.706024,177.827698 280.706024,180.987259 
	C283.962219,182.194382 285.864899,181.928284 285.729126,178.376678 
	C285.595947,174.891785 285.638641,171.383133 285.224091,167.930542 
	C284.760376,164.068436 282.180084,162.094666 278.378845,161.998215 
	C275.236572,161.918472 272.083923,162.129929 268.939575,162.286682 
	C266.316467,162.417435 263.698730,162.655930 260.301239,163.168854 
M100.925575,181.687439 
	C101.883766,181.030319 103.644905,180.400604 103.668411,179.711594 
	C103.809311,175.581268 103.969818,171.368835 103.308090,167.317139 
	C102.644127,163.251755 99.266411,161.873688 95.424652,161.965546 
	C91.752403,162.053375 88.627876,163.109741 87.600891,167.756134 
	C91.482727,167.541489 95.025642,167.345596 98.568558,167.149689 
	C98.621162,167.737030 98.673767,168.324371 98.726364,168.911713 
	C96.657219,169.341995 94.575096,169.718430 92.521500,170.213257 
	C87.592171,171.401031 85.421165,174.096939 86.457092,177.648819 
	C87.492828,181.200043 91.523117,182.738510 95.959785,181.531601 
	C97.265678,181.176361 98.765923,181.535538 100.925575,181.687439 
M174.035080,165.657700 
	C173.444870,168.356567 172.227463,171.097839 172.406342,173.744736 
	C172.700333,178.094559 175.271393,181.245148 179.876022,181.817474 
	C184.027176,182.333420 187.670258,181.334457 190.375076,175.763397 
	C187.207565,176.343216 185.107559,177.047806 183.019058,177.015213 
	C181.127899,176.985672 179.249298,176.151962 177.365158,175.672836 
	C177.483307,175.058197 177.601456,174.443558 177.719620,173.828918 
	C181.801315,173.828918 185.883011,173.828918 190.043503,173.828918 
	C190.798187,168.867706 189.661163,165.090408 185.364395,162.956253 
	C181.347977,160.961365 177.614883,161.701065 174.035080,165.657700 
M139.068771,181.237259 
	C142.225433,182.468445 143.384506,181.185989 143.213257,178.037231 
	C143.113968,176.211334 143.211487,174.375488 143.191147,172.544434 
	C143.084137,162.911484 139.668900,160.393723 129.985733,163.148132 
	C129.985733,161.575760 130.297256,160.007401 129.895096,158.650558 
	C129.518753,157.380798 128.385986,156.335236 127.586105,155.191010 
	C126.739853,156.290955 125.200592,157.366776 125.161324,158.494827 
	C124.929756,165.145782 124.926773,171.813232 125.166855,178.463577 
	C125.206451,179.560608 126.826462,180.600586 127.716110,181.666916 
	C128.471542,180.643280 129.736465,179.686188 129.880600,178.582703 
	C130.223053,175.961090 129.540787,173.131699 130.234802,170.655991 
	C130.696747,169.008057 132.816788,167.824951 134.194717,166.433792 
	C135.517456,167.834518 137.644608,169.061432 137.992737,170.672729 
	C138.683136,173.868195 138.392105,177.275696 139.068771,181.237259 
M153.103806,180.717545 
	C155.953873,182.406464 157.842651,182.235474 157.839066,178.302521 
	C157.836792,175.805481 157.397751,173.172394 158.056244,170.856720 
	C158.536499,169.167847 160.487991,167.897339 161.783615,166.440308 
	C163.203018,167.938721 165.390884,169.230591 165.862137,170.983841 
	C166.573074,173.628799 165.889496,176.619537 166.226471,179.411682 
	C166.327957,180.252502 167.768143,181.316345 168.752884,181.521881 
	C169.344452,181.645355 170.883286,180.318420 170.895065,179.624649 
	C170.965515,175.477615 171.295822,171.183731 170.333008,167.233002 
	C169.837616,165.200226 167.078827,162.820999 164.929550,162.298599 
	C161.658035,161.503418 158.011154,162.025253 154.563980,162.379608 
	C153.906891,162.447144 152.992218,164.315414 152.956161,165.378647 
	C152.792587,170.201141 152.901138,175.032867 153.103806,180.717545 
M123.119820,167.525360 
	C120.249100,162.418381 115.633110,160.592728 110.697952,162.612442 
	C106.258522,164.429276 103.997284,169.409683 105.215469,174.687683 
	C106.290031,179.343399 110.263657,182.240891 115.145058,181.928116 
	C119.900887,181.623398 122.440895,179.281921 122.821938,173.991867 
	C120.927116,174.730164 119.437523,175.627594 117.852905,175.851028 
	C115.669952,176.158859 111.739113,176.552368 111.495506,175.866104 
	C110.658661,173.508591 110.573799,170.519363 111.365395,168.161392 
	C111.616814,167.412476 115.503098,167.794708 117.723877,167.823929 
	C119.532425,167.847733 121.337746,168.117126 123.119820,167.525360 
M181.124634,128.574478 
	C183.075195,128.769562 185.025772,128.964645 185.766678,129.038742 
	C187.540024,132.059525 188.852158,134.294632 190.164276,136.529739 
	C191.426254,134.225876 192.688232,131.921997 193.905716,129.699356 
	C195.745728,128.820953 199.663559,127.903801 199.733429,126.753014 
	C200.043610,121.644157 194.861420,125.663086 193.429260,123.249313 
	C192.615128,120.874382 191.616714,116.789597 190.325745,116.694946 
	C185.006119,116.304939 189.133041,121.852440 186.044495,124.199402 
	C185.077560,125.805763 178.722656,121.145294 181.124634,128.574478 
M292.742188,166.892212 
	C292.494904,164.964828 293.620178,161.923645 290.111389,162.398438 
	C289.144379,162.529297 287.968170,165.088547 287.834351,166.616440 
	C287.503967,170.387848 287.503632,174.226807 287.839996,177.996719 
	C287.955597,179.292725 289.462708,180.464584 290.334167,181.693146 
	C291.136719,180.531952 292.518494,179.424103 292.631317,178.199371 
	C292.948242,174.758850 292.742249,171.270172 292.742188,166.892212 
M145.217606,177.985565 
	C146.107651,179.219788 146.997711,180.454025 147.887756,181.688248 
	C148.669693,180.534180 150.048965,179.418503 150.126007,178.219147 
	C150.400818,173.941101 150.408539,169.622482 150.112778,165.347214 
	C150.036407,164.243240 148.481445,163.241547 147.605698,162.192871 
	C146.815277,163.191452 145.416046,164.147476 145.342773,165.196167 
	C145.067017,169.142563 145.223160,173.119156 145.217606,177.985565 
z"/>
<path fill="#3A5367" opacity="1.000000" stroke="none" 
	d="
M603.000000,141.000000 
	C603.000000,144.361282 603.000000,147.722580 602.531372,151.542389 
	C575.908691,152.001022 549.754639,152.011108 523.600647,151.987320 
	C520.651123,151.984650 517.307800,151.929169 517.186096,155.736984 
	C517.038757,160.346130 521.030701,158.940430 523.538696,158.948395 
	C550.025574,159.032532 576.512817,159.000214 603.000000,159.000000 
	C603.000000,187.354233 603.000000,215.708450 602.531372,244.532745 
	C564.674500,245.003906 527.286316,245.010086 489.898163,245.000748 
	C484.094940,244.999298 482.127777,243.104858 482.016235,237.354965 
	C481.929199,232.869965 481.971741,228.382462 481.983826,223.674072 
	C482.010925,223.452072 482.021362,223.005066 482.283020,222.686218 
	C482.465515,211.901825 482.386383,201.436295 482.441772,190.833420 
	C482.576233,190.696091 482.749390,190.353943 482.817322,189.888931 
	C482.873505,187.536957 482.861694,185.649979 482.813232,183.355438 
	C482.601318,172.669846 482.426056,162.391830 482.296783,151.806702 
	C482.306244,151.295807 482.269775,151.092010 482.296204,150.654572 
	C482.359070,150.420929 482.335510,149.937592 482.541321,149.637634 
	C482.825989,147.865875 482.904877,146.394104 482.973083,144.462143 
	C482.960327,121.813828 482.983734,99.625603 482.914642,77.437668 
	C482.908112,75.346420 482.319824,73.256973 482.002258,70.689178 
	C482.002350,66.554848 481.970062,62.897697 482.008331,59.241283 
	C482.076141,52.763466 483.851837,50.997990 490.303375,50.997208 
	C527.868896,50.992645 565.434448,50.997997 603.000000,51.000000 
	C603.000000,78.354225 603.000000,105.708458 602.531372,133.534912 
	C575.908936,134.008011 549.755249,134.018738 523.601501,133.996155 
	C520.652161,133.993607 517.307983,133.942017 517.186096,137.747192 
	C517.038513,142.356354 521.032715,140.949615 523.539490,140.957336 
	C550.026062,141.038940 576.513123,141.003296 603.000000,141.000000 
M548.500000,210.989990 
	C539.364380,210.991364 530.226868,210.904175 521.095093,211.092270 
	C519.768921,211.119583 517.620972,212.258224 517.379272,213.253250 
	C517.095337,214.422180 518.146729,216.418350 519.234314,217.269928 
	C520.233765,218.052383 522.049805,217.959274 523.506897,217.963699 
	C537.791565,218.006989 552.076477,217.990631 566.361267,217.989594 
	C571.344299,217.989227 576.331665,218.106354 581.308716,217.932709 
	C584.003906,217.838669 587.200806,217.254227 586.654236,213.721817 
	C586.475586,212.567566 583.250183,211.155136 581.388794,211.111420 
	C570.764099,210.861969 560.130554,210.990112 548.500000,210.989990 
M576.776428,115.118248 
	C558.632446,115.082397 540.486938,114.935974 522.346863,115.185066 
	C520.570557,115.209450 517.582275,117.463257 517.325317,119.036400 
	C516.769775,122.438614 520.029541,121.990906 522.287781,121.994225 
	C539.767456,122.019882 557.247437,122.050339 574.726440,121.939514 
	C576.366943,121.929115 578.001404,120.955154 579.638672,120.428566 
	C578.952454,118.755463 578.266174,117.082367 576.776428,115.118248 
M536.500916,178.000610 
	C546.304932,178.000565 556.108948,177.985138 565.912903,178.010193 
	C568.716125,178.017349 571.903381,177.801956 571.538879,174.297379 
	C571.405823,173.018036 567.921692,171.194305 565.930054,171.147079 
	C553.640381,170.855698 541.340454,171.000076 529.043884,171.001099 
	C526.551392,171.001297 523.891296,170.472641 521.620178,171.183517 
	C519.854309,171.736237 518.573120,173.837631 517.076538,175.250732 
	C518.565552,176.166824 520.003479,177.754990 521.553162,177.872833 
	C526.179199,178.224686 530.849060,178.000061 536.500916,178.000610 
M529.418396,101.993591 
	C530.914978,101.993149 532.411926,101.973564 533.908142,101.996498 
	C536.541992,102.036850 539.174377,101.989540 539.071777,98.323044 
	C538.978271,94.981522 536.498169,94.987480 534.065308,94.990913 
	C525.584534,95.002876 517.103699,95.014023 508.623016,94.983543 
	C505.922882,94.973839 503.035797,95.436058 503.432404,98.640343 
	C503.594025,99.946014 506.661743,101.733269 508.492493,101.840042 
	C515.121521,102.226646 521.786743,101.993088 529.418396,101.993591 
M529.988342,195.410690 
	C521.836060,195.098236 513.684143,194.675537 505.530975,194.650299 
	C504.748169,194.647858 503.190674,197.254562 503.393768,198.402130 
	C503.583984,199.477142 505.607483,200.945450 506.871216,200.993057 
	C513.648743,201.248276 520.442566,201.202545 527.227295,201.074783 
	C530.468567,201.013763 531.654297,199.213287 529.988342,195.410690 
M511.540253,66.787292 
	C511.048676,65.260193 510.557098,63.733089 510.065552,62.205997 
	C508.623688,62.760220 506.909424,63.018532 505.852814,63.991230 
	C505.309601,64.491272 505.729370,67.223969 506.074493,67.299446 
	C507.672119,67.648849 509.396149,67.420029 511.540253,66.787292 
M496.516510,62.979469 
	C496.416626,64.547958 495.929993,66.250061 496.403473,67.620445 
	C496.598236,68.184227 499.084412,68.526260 500.112488,68.057388 
	C500.983398,67.660202 501.887360,65.103188 501.690582,64.956215 
	C500.317657,63.930820 498.661865,63.284149 496.516510,62.979469 
M516.575073,63.161709 
	C516.909546,64.851799 517.068726,66.616821 517.731079,68.166817 
	C517.858765,68.465630 520.526428,68.336426 521.012817,67.669006 
	C521.725220,66.691353 522.141663,64.311852 521.585449,63.848431 
	C520.504639,62.947906 518.660095,62.964123 516.575073,63.161709 
z"/>
<path fill="#324250" opacity="1.000000" stroke="none" 
	d="
M482.983734,144.922318 
	C482.904877,146.394104 482.825989,147.865875 482.087341,149.631012 
	C479.944061,150.008514 478.460602,150.092697 476.524445,150.109833 
	C472.710175,150.093704 469.348602,150.144638 465.539124,150.117615 
	C462.057037,150.091583 459.022919,150.143539 455.551239,150.116638 
	C438.811981,149.900208 432.789642,155.830933 432.753723,172.106888 
	C432.730286,182.739182 432.831360,193.372498 432.711243,204.003510 
	C432.656128,208.883240 434.513733,212.780457 438.179169,215.747696 
	C443.736450,220.246399 450.147034,222.722595 457.459534,223.176483 
	C458.053925,223.560272 458.527161,223.803604 458.990692,224.452621 
	C458.721954,227.298660 457.693970,229.961792 458.326233,232.143875 
	C463.152466,248.800568 472.924286,261.064392 489.637756,267.445007 
	C501.349945,271.916290 513.596802,272.549133 525.727478,272.822784 
	C551.473206,273.403656 577.241150,273.000000 603.000000,273.000000 
	C603.000000,274.066681 603.000000,275.133331 602.780640,276.704498 
	C602.288269,277.406128 602.101868,277.665527 602.002136,277.987183 
	C600.510681,278.067291 599.019226,278.216644 597.527710,278.217529 
	C544.052246,278.249908 490.576752,278.300995 437.101532,278.207794 
	C433.890533,278.202179 430.392090,277.632080 427.536926,276.262512 
	C422.808319,273.994263 420.915588,269.078491 421.861267,264.047821 
	C422.768097,259.223816 426.604370,255.383667 431.696228,254.761505 
	C435.149536,254.339539 438.673889,254.523453 442.163391,254.367584 
	C449.949951,254.019730 454.923859,249.401993 454.954559,242.547806 
	C454.985321,235.681747 450.160156,230.718781 442.322540,230.601181 
	C424.501434,230.333817 406.674286,230.491089 388.849854,230.418396 
	C378.855438,230.377640 368.859375,230.314804 358.868073,230.086777 
	C352.103241,229.932388 347.561157,225.347595 347.330200,218.827362 
	C347.102692,212.405655 351.981445,207.143616 358.791687,206.807404 
	C363.612061,206.569412 368.455475,206.832169 373.281189,206.661728 
	C381.563904,206.369186 386.772156,201.380249 386.513611,194.194183 
	C386.262939,187.227936 381.115967,182.916107 372.856964,182.827393 
	C366.897522,182.763382 361.162811,182.527863 357.906708,176.153091 
	C354.223694,168.942535 358.370483,160.296387 366.436737,159.084671 
	C368.890076,158.716110 371.428070,158.953247 373.916168,158.765610 
	C381.175964,158.218094 386.095795,153.240707 385.978241,146.656616 
	C385.860016,140.031097 380.839752,135.149200 373.542542,135.013504 
	C364.216675,134.840057 354.884949,135.011307 345.556488,134.940079 
	C336.984497,134.874619 331.588806,130.001541 331.727203,122.606781 
	C331.859558,115.533867 337.215759,111.044098 345.742493,111.007263 
	C358.403107,110.952560 371.064240,111.010361 383.724884,110.957695 
	C388.828583,110.936470 392.747345,108.710999 394.961761,104.039871 
	C396.890442,99.971504 397.008728,95.466484 393.825226,92.352364 
	C391.304565,89.886635 387.572174,88.094109 384.086761,87.329346 
	C380.105042,86.455696 375.795654,87.169960 371.638367,86.980888 
	C364.613464,86.661407 359.813293,81.946518 359.661835,75.428757 
	C359.505249,68.689957 364.299072,63.495190 371.540436,63.293953 
	C381.361877,63.021027 391.195892,63.195019 401.024536,63.187725 
	C413.685394,63.178329 426.347168,63.271053 439.006744,63.142387 
	C447.010925,63.061039 452.092224,58.207325 452.043243,51.099495 
	C451.996094,44.254250 447.017334,39.449612 439.259888,39.247902 
	C430.935669,39.031460 422.601532,39.231937 414.273010,39.136707 
	C407.105988,39.054764 402.594391,35.311996 401.646057,28.880272 
	C400.731903,22.679995 404.263763,17.826061 411.856537,16.083221 
	C414.333710,16.551401 416.131805,16.856575 417.930664,16.860783 
	C434.226379,16.898905 450.522217,16.875196 466.818024,16.887096 
	C512.212036,16.920246 557.606018,16.961779 603.000000,17.000000 
	C603.000000,18.388889 603.000000,19.777779 602.531372,21.583241 
	C589.587219,21.999800 577.106262,21.764711 564.637451,22.053223 
	C544.426025,22.520889 524.154846,22.520557 504.032471,24.199274 
	C477.627197,26.402138 459.777313,44.618889 455.655090,71.346741 
	C452.301483,72.346451 449.173828,72.949852 446.283966,74.133804 
	C440.975555,76.308632 434.316376,77.795761 433.307220,84.432777 
	C432.305634,91.020126 433.088013,97.878738 433.088013,104.989136 
	C441.126465,104.989136 448.562012,104.989136 456.461060,105.024361 
	C461.252777,105.065987 465.580994,105.072388 469.947510,105.488174 
	C469.973572,107.540405 469.961334,109.183235 469.488037,110.857399 
	C464.020630,110.909653 459.014313,110.930580 453.539368,110.925171 
	C441.247833,110.889305 429.417847,111.127899 417.604218,110.791542 
	C408.199615,110.523766 402.034912,115.147049 398.077087,122.926369 
	C390.660522,137.504013 390.527405,152.785156 396.044373,167.837189 
	C402.507996,185.471863 411.345947,186.590744 427.985168,184.341293 
	C427.985168,178.204742 427.782440,171.950394 428.029602,165.713867 
	C428.471252,154.570511 433.558655,148.040237 443.115173,146.219269 
	C446.691528,145.537827 450.364899,145.365280 454.460449,144.995956 
	C459.946106,144.992676 464.965363,144.954132 470.447205,144.954880 
	C474.934479,144.970215 478.959106,144.946274 482.983734,144.922318 
z"/>
<path fill="#2E3E4B" opacity="1.000000" stroke="none" 
	d="
M455.988281,71.212265 
	C459.777313,44.618889 477.627197,26.402138 504.032471,24.199274 
	C524.154846,22.520557 544.426025,22.520889 564.637451,22.053223 
	C577.106262,21.764711 589.587219,21.999800 602.531372,21.999908 
	C603.000000,31.354229 603.000000,40.708458 603.000000,50.531342 
	C565.434448,50.997997 527.868896,50.992645 490.303375,50.997208 
	C483.851837,50.997990 482.076141,52.763466 482.008331,59.241283 
	C481.970062,62.897697 482.002350,66.554848 481.556763,70.659348 
	C478.734619,71.113716 476.358551,71.120415 473.518982,71.085632 
	C468.362885,71.133347 463.670288,71.222542 458.608368,71.246803 
	C457.488770,71.192001 456.738525,71.202133 455.988281,71.212265 
z"/>
<path fill="#2E3E4B" opacity="1.000000" stroke="none" 
	d="
M603.000000,272.531342 
	C577.241150,273.000000 551.473206,273.403656 525.727478,272.822784 
	C513.596802,272.549133 501.349945,271.916290 489.637756,267.445007 
	C472.924286,261.064392 463.152466,248.800568 458.326233,232.143875 
	C457.693970,229.961792 458.721954,227.298660 459.440063,224.413010 
	C462.603851,224.027725 465.308563,224.087753 468.463501,224.239655 
	C472.272888,224.182312 475.631958,224.033066 479.329498,223.941574 
	C480.121704,223.950211 480.575439,223.901108 481.259064,223.905304 
	C481.488922,223.958588 481.956696,223.896072 481.956696,223.896072 
	C481.971741,228.382462 481.929199,232.869965 482.016235,237.354965 
	C482.127777,243.104858 484.094940,244.999298 489.898163,245.000748 
	C527.286316,245.010086 564.674500,245.003906 602.531372,245.001404 
	C603.000000,254.020889 603.000000,263.041779 603.000000,272.531342 
z"/>
<path fill="#4D6375" opacity="1.000000" stroke="none" 
	d="
M603.000000,140.562500 
	C576.513123,141.003296 550.026062,141.038940 523.539490,140.957336 
	C521.032715,140.949615 517.038513,142.356354 517.186096,137.747192 
	C517.307983,133.942017 520.652161,133.993607 523.601501,133.996155 
	C549.755249,134.018738 575.908936,134.008011 602.531372,134.003571 
	C603.000000,136.041672 603.000000,138.083328 603.000000,140.562500 
z"/>
<path fill="#4E6476" opacity="1.000000" stroke="none" 
	d="
M603.000000,158.562500 
	C576.512817,159.000214 550.025574,159.032532 523.538696,158.948395 
	C521.030701,158.940430 517.038757,160.346130 517.186096,155.736984 
	C517.307800,151.929169 520.651123,151.984650 523.600647,151.987320 
	C549.754639,152.011108 575.908691,152.001022 602.531372,152.000458 
	C603.000000,154.041672 603.000000,156.083328 603.000000,158.562500 
z"/>
<path fill="#54616C" opacity="1.000000" stroke="none" 
	d="
M603.000000,16.666668 
	C557.606018,16.961779 512.212036,16.920246 466.818024,16.887096 
	C450.522217,16.875196 434.226379,16.898905 417.930664,16.860783 
	C416.131805,16.856575 414.333710,16.551401 412.237335,16.086899 
	C414.065216,15.597774 416.190857,15.243046 418.316803,15.241286 
	C479.568939,15.190571 540.821106,15.175214 602.536621,15.077074 
	C603.000000,15.444445 603.000000,15.888889 603.000000,16.666668 
z"/>
<path fill="#273645" opacity="1.000000" stroke="none" 
	d="
M602.250732,278.062286 
	C602.101868,277.665527 602.288269,277.406128 602.780640,277.104492 
	C603.000000,277.000000 603.000000,277.500000 603.000000,277.750000 
	C602.833069,278.045807 602.666199,278.091583 602.250732,278.062286 
z"/>
<path fill="#344452" opacity="1.000000" stroke="none" 
	d="
M352.134888,76.706100 
	C350.025940,83.937996 346.434082,86.855782 339.614990,87.002617 
	C334.801392,87.106262 329.974670,87.181992 325.169373,86.949333 
	C318.473480,86.625130 313.879364,81.903389 313.691223,75.533516 
	C313.495819,68.918152 317.988037,63.749073 324.854340,63.307106 
	C330.146393,62.966473 335.492615,62.966354 340.786835,63.282417 
	C348.013519,63.713844 351.945190,68.431572 352.134888,76.706100 
z"/>
<path fill="#324250" opacity="1.000000" stroke="none" 
	d="
M405.030182,254.902344 
	C411.881775,256.265381 415.644318,260.953705 415.114319,267.467834 
	C414.622498,273.513214 409.915710,277.901276 403.358734,278.137451 
	C398.531982,278.311310 393.691528,278.289551 388.862213,278.163177 
	C382.013336,277.984009 377.449860,274.058685 376.727325,267.956268 
	C375.956665,261.447540 379.233429,256.893494 386.861298,255.137665 
	C393.364563,255.281754 399.197357,255.092041 405.030182,254.902344 
z"/>
<path fill="#FECC28" opacity="1.000000" stroke="none" 
	d="
M74.987732,112.238586 
	C81.880470,116.078484 87.489220,121.061592 89.560677,129.872833 
	C93.923409,125.206345 92.659874,115.464867 101.736717,118.234100 
	C104.614059,116.328300 100.594116,110.914017 105.810394,111.477661 
	C107.006798,111.606934 107.836388,115.130890 109.254791,117.917747 
	C109.391357,117.931458 110.632271,118.056030 112.412682,118.550354 
	C114.027084,123.986443 109.625832,122.489136 107.093964,123.482895 
	C107.283478,128.011124 105.060959,133.449402 112.512680,134.420273 
	C112.721375,134.447464 112.642105,136.684860 112.697113,137.891647 
	C104.116455,137.140427 103.030251,136.035431 103.032822,127.540009 
	C103.033669,124.752205 103.238350,122.071564 99.335632,122.522987 
	C95.588318,129.940048 91.922546,137.283173 88.091240,144.538910 
	C87.884392,144.930634 86.289612,144.589478 84.058952,144.589478 
	C90.151901,136.049423 84.009392,129.976517 81.421867,122.210823 
	C77.896957,129.236938 71.776382,128.131256 65.513008,128.700043 
	C65.513008,130.951050 65.513008,133.037796 64.972656,135.543594 
	C63.624969,134.811111 62.180218,133.691544 62.120621,132.502533 
	C61.862633,127.355759 61.843170,122.179733 62.120419,117.035011 
	C62.194176,115.666405 63.848900,113.151253 64.402626,113.250717 
	C66.977745,113.713326 71.098480,110.622467 71.502914,116.002701 
	C69.517754,116.174423 67.899521,116.292915 66.051010,116.428268 
	C66.051010,118.883530 66.051010,121.098885 66.051010,124.670746 
	C69.625702,123.545319 72.568352,122.618874 75.511002,121.692429 
	C74.841263,119.880058 74.171524,118.067680 73.828094,116.055847 
	C74.432182,114.650444 74.709961,113.444519 74.987732,112.238586 
z"/>
<path fill="#FECC28" opacity="1.000000" stroke="none" 
	d="
M169.954208,137.689850 
	C168.995071,135.774170 168.262833,133.910812 167.956253,131.979874 
	C167.620270,129.863617 168.150726,127.497894 167.400162,125.597771 
	C166.879044,124.278549 164.794586,122.750999 163.475403,122.810028 
	C162.208954,122.866692 160.296249,124.669334 159.968445,126.020355 
	C159.355957,128.544754 159.972824,131.349548 159.506332,133.934479 
	C159.258789,135.306107 157.811325,136.461212 156.905533,137.714050 
	C156.094833,136.538666 155.050217,135.454651 154.544571,134.160110 
	C154.109665,133.046646 154.289795,131.692917 154.160950,129.942352 
	C150.435043,136.861298 146.767334,139.008148 141.499634,137.724319 
	C136.957581,136.617340 134.487991,132.910599 134.638214,127.496017 
	C134.767868,122.823326 136.774185,119.482956 141.442963,118.237450 
	C146.765976,116.817406 150.689590,119.183517 154.495392,126.916557 
	C154.495392,123.945755 154.284546,122.379288 154.571075,120.909805 
	C154.755539,119.963799 155.609741,118.466660 156.268539,118.408760 
	C159.767883,118.101242 163.389862,117.680595 166.786484,118.300743 
	C168.704086,118.650848 171.434799,120.697601 171.768646,122.382454 
	C172.657990,126.870773 172.519333,131.576263 172.569748,136.197815 
	C172.575165,136.694595 171.137131,137.207138 169.954208,137.689850 
M139.903442,130.668976 
	C141.809662,131.483475 143.799194,133.045837 145.592438,132.846085 
	C146.762283,132.715790 148.423355,130.042938 148.456924,128.478821 
	C148.496140,126.651863 147.381851,124.399620 146.030563,123.096741 
	C145.246674,122.340927 142.056763,122.525162 141.619019,123.268921 
	C140.486603,125.193008 140.280365,127.662209 139.903442,130.668976 
z"/>
<path fill="#384855" opacity="1.000000" stroke="none" 
	d="
M72.938843,175.297867 
	C71.425529,174.261826 70.112259,173.339020 69.127960,172.145035 
	C68.137428,170.943466 67.474045,169.472198 65.719521,168.346176 
	C65.719521,171.582397 65.626251,174.822006 65.743820,178.053955 
	C65.881767,181.846039 64.015266,182.188263 60.863884,181.087570 
	C60.863884,172.729324 60.863884,164.463257 60.863884,155.558029 
	C69.161926,155.940445 68.182907,164.655838 72.783585,167.879318 
	C77.300728,164.709335 76.318947,155.905518 84.957497,155.569778 
	C84.957497,163.780884 85.047638,171.394684 84.838425,179.000229 
	C84.813499,179.906265 83.156212,180.767380 82.255569,181.649307 
	C81.478020,180.650177 80.119102,179.700043 80.030022,178.642899 
	C79.742676,175.233047 79.922913,171.783813 79.922913,167.662872 
	C77.367920,170.598648 75.325539,172.945419 72.938843,175.297867 
z"/>
<path fill="#41505D" opacity="1.000000" stroke="none" 
	d="
M260.689941,163.007782 
	C263.698730,162.655930 266.316467,162.417435 268.939575,162.286682 
	C272.083923,162.129929 275.236572,161.918472 278.378845,161.998215 
	C282.180084,162.094666 284.760376,164.068436 285.224091,167.930542 
	C285.638641,171.383133 285.595947,174.891785 285.729126,178.376678 
	C285.864899,181.928284 283.962219,182.194382 280.706024,180.987259 
	C280.706024,177.827698 281.164520,174.442780 280.528107,171.278015 
	C280.166351,169.479034 278.013550,168.040253 276.667297,166.439240 
	C275.255859,167.977249 273.132660,169.306778 272.606262,171.103973 
	C271.885986,173.563187 272.567383,176.400314 272.253113,179.028214 
	C272.138885,179.983337 270.890045,180.802750 270.158875,181.684097 
	C269.245483,180.800415 267.614777,179.970535 267.543732,179.023636 
	C267.246979,175.068130 267.418732,171.077484 267.418732,167.121262 
	C259.175293,166.705170 259.243805,166.813736 258.949371,174.685074 
	C258.861206,177.042221 261.076111,181.415878 256.710693,181.455765 
	C251.760681,181.500992 254.774414,176.878693 254.199112,174.406433 
	C253.721390,172.353592 254.097137,170.101395 254.100235,167.937515 
	C254.109344,161.577728 254.452148,161.314941 260.689941,163.007782 
z"/>
<path fill="#324250" opacity="1.000000" stroke="none" 
	d="
M315.036255,170.098587 
	C316.281036,163.288452 319.744202,160.942398 326.158844,162.587204 
	C326.633118,162.708832 327.186859,163.278778 327.502594,163.149460 
	C335.094391,160.039871 333.228241,165.750412 333.298767,169.432434 
	C333.381378,173.744995 333.422516,178.074692 333.134155,182.373657 
	C332.810303,187.202957 329.456421,189.165955 325.100525,189.695923 
	C320.344574,190.274597 316.721863,187.952042 315.240906,183.448456 
	C319.205231,180.615143 325.289551,190.231277 328.432587,181.189850 
	C325.378998,181.189850 322.145447,182.042770 319.849426,180.941376 
	C317.707123,179.913712 316.561066,176.809341 315.023804,173.865936 
	C315.059479,172.108063 315.047852,171.103333 315.036255,170.098587 
M326.722260,176.665573 
	C327.384613,175.050507 328.505554,173.463989 328.608246,171.814087 
	C328.789490,168.901993 327.446472,166.538620 324.146240,166.455780 
	C320.798096,166.371765 319.624695,168.710800 319.461731,171.642609 
	C319.227264,175.860779 321.147461,177.399780 326.722260,176.665573 
z"/>
<path fill="#41505D" opacity="1.000000" stroke="none" 
	d="
M100.551331,181.627380 
	C98.765923,181.535538 97.265678,181.176361 95.959785,181.531601 
	C91.523117,182.738510 87.492828,181.200043 86.457092,177.648819 
	C85.421165,174.096939 87.592171,171.401031 92.521500,170.213257 
	C94.575096,169.718430 96.657219,169.341995 98.726364,168.911713 
	C98.673767,168.324371 98.621162,167.737030 98.568558,167.149689 
	C95.025642,167.345596 91.482727,167.541489 87.600891,167.756134 
	C88.627876,163.109741 91.752403,162.053375 95.424652,161.965546 
	C99.266411,161.873688 102.644127,163.251755 103.308090,167.317139 
	C103.969818,171.368835 103.809311,175.581268 103.668411,179.711594 
	C103.644905,180.400604 101.883766,181.030319 100.551331,181.627380 
z"/>
<path fill="#3C4B58" opacity="1.000000" stroke="none" 
	d="
M174.269714,165.352295 
	C177.614883,161.701065 181.347977,160.961365 185.364395,162.956253 
	C189.661163,165.090408 190.798187,168.867706 190.043503,173.828918 
	C185.883011,173.828918 181.801315,173.828918 177.719620,173.828918 
	C177.601456,174.443558 177.483307,175.058197 177.365158,175.672836 
	C179.249298,176.151962 181.127899,176.985672 183.019058,177.015213 
	C185.107559,177.047806 187.207565,176.343216 190.375076,175.763397 
	C187.670258,181.334457 184.027176,182.333420 179.876022,181.817474 
	C175.271393,181.245148 172.700333,178.094559 172.406342,173.744736 
	C172.227463,171.097839 173.444870,168.356567 174.269714,165.352295 
z"/>
<path fill="#3E4D5A" opacity="1.000000" stroke="none" 
	d="
M234.985718,172.992661 
	C238.901459,171.442795 242.817200,169.892929 246.732925,168.343063 
	C246.733276,167.941422 246.733627,167.539764 246.733994,167.138123 
	C243.205688,167.330536 239.677383,167.522934 235.725464,167.738449 
	C237.067154,162.932983 240.317535,161.901001 244.179886,161.978790 
	C248.103149,162.057770 251.136139,163.849716 251.684372,167.875549 
	C252.196198,171.633911 251.943527,175.504089 251.898788,179.323547 
	C251.890625,180.020538 251.446609,180.975052 250.891678,181.355942 
	C248.871582,182.742477 236.888107,180.629730 234.857193,177.924774 
	C234.805710,175.776627 234.895706,174.384644 234.985718,172.992661 
z"/>
<path fill="#3E4D5A" opacity="1.000000" stroke="none" 
	d="
M138.787750,180.916412 
	C138.392105,177.275696 138.683136,173.868195 137.992737,170.672729 
	C137.644608,169.061432 135.517456,167.834518 134.194717,166.433792 
	C132.816788,167.824951 130.696747,169.008057 130.234802,170.655991 
	C129.540787,173.131699 130.223053,175.961090 129.880600,178.582703 
	C129.736465,179.686188 128.471542,180.643280 127.716110,181.666916 
	C126.826462,180.600586 125.206451,179.560608 125.166855,178.463577 
	C124.926773,171.813232 124.929756,165.145782 125.161324,158.494827 
	C125.200592,157.366776 126.739853,156.290955 127.586105,155.191010 
	C128.385986,156.335236 129.518753,157.380798 129.895096,158.650558 
	C130.297256,160.007401 129.985733,161.575760 129.985733,163.148132 
	C139.668900,160.393723 143.084137,162.911484 143.191147,172.544434 
	C143.211487,174.375488 143.113968,176.211334 143.213257,178.037231 
	C143.384506,181.185989 142.225433,182.468445 138.787750,180.916412 
z"/>
<path fill="#FECD2D" opacity="1.000000" stroke="none" 
	d="
M114.536270,117.950966 
	C115.736526,115.810501 112.679459,111.320885 117.290771,111.366737 
	C121.464615,111.408226 118.953491,115.556328 119.818817,117.728218 
	C119.938377,118.028320 120.088455,118.316261 120.229172,118.607620 
	C130.001816,116.884338 132.857864,119.291336 132.896088,129.285065 
	C132.903061,131.110199 133.184647,133.005402 132.776733,134.735580 
	C132.512192,135.857574 131.226089,136.738724 130.397690,137.727783 
	C129.578461,136.761322 128.225128,135.881836 128.050644,134.810379 
	C127.681984,132.546600 128.451004,130.014557 127.772728,127.908333 
	C127.137352,125.935402 125.511795,123.283630 123.834114,122.859245 
	C120.688950,122.063644 119.771187,124.828491 119.734695,127.603905 
	C119.706337,129.760590 119.639984,131.920700 119.724586,134.074005 
	C119.848839,137.236694 118.487083,138.367935 115.107559,136.781158 
	C114.690033,130.059616 114.613152,124.005287 114.536270,117.950966 
z"/>
<path fill="#41505D" opacity="1.000000" stroke="none" 
	d="
M218.951340,179.139374 
	C218.409088,178.808807 217.866852,178.478241 217.324600,178.147675 
	C216.027771,183.710419 211.526398,181.545883 208.271255,181.620972 
	C198.237381,181.852432 198.234009,181.705658 198.234055,171.842682 
	C198.234070,167.692291 198.381439,163.535049 198.189438,159.393555 
	C198.021683,155.775269 199.612915,154.991455 203.230652,156.107712 
	C203.230652,162.686920 203.230652,169.424225 203.230652,176.590210 
	C207.938904,176.590210 212.155991,176.590210 215.644501,176.590210 
	C216.525558,172.855652 217.424240,169.046371 218.641907,165.475372 
	C218.957718,170.188889 218.954529,174.664139 218.951340,179.139374 
z"/>
<path fill="#3C4B58" opacity="1.000000" stroke="none" 
	d="
M314.686615,170.398804 
	C315.047852,171.103333 315.059479,172.108063 315.058228,173.489410 
	C314.497070,175.397354 314.107880,177.013367 313.351624,178.434006 
	C312.715637,179.628754 311.652496,180.596130 310.778503,181.664185 
	C310.019043,180.637131 308.749725,179.678665 308.600464,178.569504 
	C308.227020,175.793976 308.785095,172.845261 308.124268,170.175201 
	C307.760315,168.704620 305.660370,166.649277 304.396881,166.686447 
	C302.989410,166.727859 300.794037,168.646088 300.450714,170.102951 
	C299.781891,172.941254 300.333008,176.045547 300.015686,179.000656 
	C299.914062,179.946548 298.667419,180.769485 297.944702,181.648682 
	C297.030457,180.773727 295.376465,179.939285 295.325958,179.017029 
	C295.063293,174.220367 295.117584,169.397827 295.302155,164.593536 
	C295.333099,163.787979 296.480896,162.429596 297.221527,162.350861 
	C300.312836,162.022232 303.658478,161.371872 306.498627,162.220032 
	C308.944824,162.950546 310.945435,165.437943 312.911316,167.382812 
	C313.704132,168.167191 313.880219,169.574966 314.686615,170.398804 
z"/>
<path fill="#3C4B58" opacity="1.000000" stroke="none" 
	d="
M219.117081,179.459534 
	C218.954529,174.664139 218.957718,170.188889 218.957047,165.289398 
	C221.618820,161.542282 225.090210,161.284348 228.709320,162.660904 
	C232.966339,164.280090 234.393295,167.821350 234.065308,172.869370 
	C229.645218,173.825027 225.499283,174.039032 220.797592,174.281723 
	C222.761856,177.802460 225.144379,177.428055 227.892838,177.032425 
	C229.894455,176.744293 232.037369,177.437668 234.117279,177.693451 
	C228.826813,182.702042 225.078598,183.229172 219.117081,179.459534 
z"/>
<path fill="#3E4D5A" opacity="1.000000" stroke="none" 
	d="
M153.007782,180.289398 
	C152.901138,175.032867 152.792587,170.201141 152.956161,165.378647 
	C152.992218,164.315414 153.906891,162.447144 154.563980,162.379608 
	C158.011154,162.025253 161.658035,161.503418 164.929550,162.298599 
	C167.078827,162.820999 169.837616,165.200226 170.333008,167.233002 
	C171.295822,171.183731 170.965515,175.477615 170.895065,179.624649 
	C170.883286,180.318420 169.344452,181.645355 168.752884,181.521881 
	C167.768143,181.316345 166.327957,180.252502 166.226471,179.411682 
	C165.889496,176.619537 166.573074,173.628799 165.862137,170.983841 
	C165.390884,169.230591 163.203018,167.938721 161.783630,166.440308 
	C160.487991,167.897339 158.536499,169.167847 158.056244,170.856720 
	C157.397751,173.172394 157.836792,175.805481 157.839066,178.302521 
	C157.842651,182.235474 155.953873,182.406464 153.007782,180.289398 
z"/>
<path fill="#3E4D5A" opacity="1.000000" stroke="none" 
	d="
M123.132156,167.901489 
	C121.337746,168.117126 119.532425,167.847733 117.723877,167.823929 
	C115.503098,167.794708 111.616814,167.412476 111.365395,168.161392 
	C110.573799,170.519363 110.658661,173.508591 111.495506,175.866104 
	C111.739113,176.552368 115.669952,176.158859 117.852905,175.851028 
	C119.437523,175.627594 120.927116,174.730164 122.821938,173.991867 
	C122.440895,179.281921 119.900887,181.623398 115.145058,181.928116 
	C110.263657,182.240891 106.290031,179.343399 105.215469,174.687683 
	C103.997284,169.409683 106.258522,164.429276 110.697952,162.612442 
	C115.633110,160.592728 120.249100,162.418381 123.132156,167.901489 
z"/>
<path fill="#FECD2D" opacity="1.000000" stroke="none" 
	d="
M180.779602,128.323380 
	C178.722656,121.145294 185.077560,125.805763 186.044495,124.199402 
	C189.133041,121.852440 185.006119,116.304939 190.325745,116.694946 
	C191.616714,116.789597 192.615128,120.874382 193.429260,123.249313 
	C194.861420,125.663086 200.043610,121.644157 199.733429,126.753014 
	C199.663559,127.903801 195.745728,128.820953 193.905716,129.699356 
	C192.688232,131.921997 191.426254,134.225876 190.164276,136.529739 
	C188.852158,134.294632 187.540024,132.059525 185.766678,129.038742 
	C185.025772,128.964645 183.075195,128.769562 180.779602,128.323380 
z"/>
<path fill="#44535F" opacity="1.000000" stroke="none" 
	d="
M292.742310,167.346344 
	C292.742249,171.270172 292.948242,174.758850 292.631317,178.199371 
	C292.518494,179.424103 291.136719,180.531952 290.334167,181.693146 
	C289.462708,180.464584 287.955597,179.292725 287.839996,177.996719 
	C287.503632,174.226807 287.503967,170.387848 287.834351,166.616440 
	C287.968170,165.088547 289.144379,162.529297 290.111389,162.398438 
	C293.620178,161.923645 292.494904,164.964828 292.742310,167.346344 
z"/>
<path fill="#44535F" opacity="1.000000" stroke="none" 
	d="
M145.217560,177.535004 
	C145.223160,173.119156 145.067017,169.142563 145.342773,165.196167 
	C145.416046,164.147476 146.815277,163.191452 147.605698,162.192871 
	C148.481445,163.241547 150.036407,164.243240 150.112778,165.347214 
	C150.408539,169.622482 150.400818,173.941101 150.126007,178.219147 
	C150.048965,179.418503 148.669693,180.534180 147.887756,181.688248 
	C146.997711,180.454025 146.107651,179.219788 145.217560,177.535004 
z"/>
<path fill="#FFFAEB" opacity="1.000000" stroke="none" 
	d="
M114.233170,117.965836 
	C114.613152,124.005287 114.690033,130.059616 114.793640,136.586548 
	C114.306206,137.319916 113.792053,137.580688 112.987503,137.866547 
	C112.642105,136.684860 112.721375,134.447464 112.512680,134.420273 
	C105.060959,133.449402 107.283478,128.011124 107.093964,123.482895 
	C109.625832,122.489136 114.027084,123.986443 112.837830,118.523758 
	C113.125687,118.078514 113.527878,118.029602 114.233170,117.965836 
z"/>
<path fill="#FCC71D" opacity="1.000000" stroke="none" 
	d="
M71.869835,115.949478 
	C71.098480,110.622467 66.977745,113.713326 64.402626,113.250717 
	C63.848900,113.151253 62.194176,115.666405 62.120419,117.035011 
	C61.843170,122.179733 61.862633,127.355759 62.120621,132.502533 
	C62.180218,133.691544 63.624969,134.811111 64.874588,135.972076 
	C64.324623,136.522995 63.309193,137.501205 62.348396,137.450195 
	C61.723103,137.417007 60.691048,135.896088 60.672886,135.024353 
	C60.528652,128.099854 60.462383,121.166626 60.722012,114.249214 
	C60.756901,113.319595 62.699589,111.774467 63.834827,111.701820 
	C67.267982,111.482162 70.738533,111.846886 74.591125,112.111221 
	C74.709961,113.444519 74.432182,114.650444 73.621048,116.038040 
	C72.681732,116.129623 72.275787,116.039551 71.869835,115.949478 
z"/>
<path fill="#E4E6E8" opacity="1.000000" stroke="none" 
	d="
M234.139404,177.783890 
	C232.037369,177.437668 229.894455,176.744293 227.892838,177.032425 
	C225.144379,177.428055 222.761856,177.802460 220.797592,174.281723 
	C225.499283,174.039032 229.645218,173.825027 234.096130,173.282227 
	C234.401108,172.953430 234.698746,172.893799 234.842224,172.943237 
	C234.895706,174.384644 234.805710,175.776627 234.705063,177.589981 
	C234.502930,178.020462 234.325287,177.974792 234.139404,177.783890 
z"/>
<path fill="#44535F" opacity="1.000000" stroke="none" 
	d="
M404.661957,254.722198 
	C399.197357,255.092041 393.364563,255.281754 387.241089,255.164886 
	C392.731567,254.752899 398.512634,254.647476 404.661957,254.722198 
z"/>
<path fill="#306EA1" opacity="1.000000" stroke="none" 
	d="
M473.982483,71.127121 
	C476.358551,71.120415 478.734619,71.113716 481.556152,71.136856 
	C482.319824,73.256973 482.908112,75.346420 482.914642,77.437668 
	C482.983734,99.625603 482.960327,121.813828 482.973083,144.462143 
	C478.959106,144.946274 474.934479,144.970215 470.452881,144.494690 
	C469.980316,132.938843 469.964722,121.882454 469.949127,110.826073 
	C469.961334,109.183235 469.973572,107.540405 470.258850,105.191895 
	C471.682098,93.366516 472.832306,82.246819 473.982483,71.127121 
z"/>
<path fill="#4D6375" opacity="1.000000" stroke="none" 
	d="
M549.000000,210.989975 
	C560.130554,210.990112 570.764099,210.861969 581.388794,211.111420 
	C583.250183,211.155136 586.475586,212.567566 586.654236,213.721817 
	C587.200806,217.254227 584.003906,217.838669 581.308716,217.932709 
	C576.331665,218.106354 571.344299,217.989227 566.361267,217.989594 
	C552.076477,217.990631 537.791565,218.006989 523.506897,217.963699 
	C522.049805,217.959274 520.233765,218.052383 519.234314,217.269928 
	C518.146729,216.418350 517.095337,214.422180 517.379272,213.253250 
	C517.620972,212.258224 519.768921,211.119583 521.095093,211.092270 
	C530.226868,210.904175 539.364380,210.991364 549.000000,210.989975 
z"/>
<path fill="#4D6375" opacity="1.000000" stroke="none" 
	d="
M577.178223,115.263756 
	C578.266174,117.082367 578.952454,118.755463 579.638672,120.428558 
	C578.001404,120.955154 576.366943,121.929115 574.726440,121.939514 
	C557.247437,122.050339 539.767456,122.019882 522.287781,121.994225 
	C520.029541,121.990906 516.769775,122.438614 517.325317,119.036400 
	C517.582275,117.463257 520.570557,115.209450 522.346863,115.185066 
	C540.486938,114.935974 558.632446,115.082397 577.178223,115.263756 
z"/>
<path fill="#4E6476" opacity="1.000000" stroke="none" 
	d="
M536.001343,178.000610 
	C530.849060,178.000061 526.179199,178.224686 521.553162,177.872833 
	C520.003479,177.754990 518.565552,176.166824 517.076538,175.250732 
	C518.573120,173.837631 519.854309,171.736237 521.620178,171.183517 
	C523.891296,170.472641 526.551392,171.001297 529.043884,171.001099 
	C541.340454,171.000076 553.640381,170.855698 565.930054,171.147079 
	C567.921692,171.194305 571.405823,173.018036 571.538879,174.297379 
	C571.903381,177.801956 568.716125,178.017349 565.912903,178.010193 
	C556.108948,177.985138 546.304932,178.000565 536.001343,178.000610 
z"/>
<path fill="#2D81C5" opacity="1.000000" stroke="none" 
	d="
M528.928345,101.993584 
	C521.786743,101.993088 515.121521,102.226646 508.492493,101.840042 
	C506.661743,101.733269 503.594025,99.946014 503.432404,98.640343 
	C503.035797,95.436058 505.922882,94.973839 508.623016,94.983543 
	C517.103699,95.014023 525.584534,95.002876 534.065308,94.990913 
	C536.498169,94.987480 538.978271,94.981522 539.071777,98.323044 
	C539.174377,101.989540 536.541992,102.036850 533.908142,101.996498 
	C532.411926,101.973564 530.914978,101.993149 528.928345,101.993584 
z"/>
<path fill="#E1B31D" opacity="1.000000" stroke="none" 
	d="
M481.029205,223.852005 
	C480.575439,223.901108 480.121704,223.950211 479.285187,223.574341 
	C474.502899,212.502289 474.460449,201.339554 475.419312,190.037628 
	C477.575592,190.017075 479.304688,190.067734 481.131287,190.298309 
	C481.588287,190.642380 481.947784,190.806564 482.307281,190.970749 
	C482.386383,201.436295 482.465515,211.901825 482.073181,222.769653 
	C481.331085,223.331436 481.140259,223.558121 481.029205,223.852005 
z"/>
<path fill="#CC9A43" opacity="1.000000" stroke="none" 
	d="
M530.241638,195.743378 
	C531.654297,199.213287 530.468567,201.013763 527.227295,201.074783 
	C520.442566,201.202545 513.648743,201.248276 506.871216,200.993057 
	C505.607483,200.945450 503.583984,199.477142 503.393768,198.402130 
	C503.190674,197.254562 504.748169,194.647858 505.530975,194.650299 
	C513.684143,194.675537 521.836060,195.098236 530.241638,195.743378 
z"/>
<path fill="#D6AD22" opacity="1.000000" stroke="none" 
	d="
M476.977112,150.176880 
	C478.460602,150.092697 479.944061,150.008514 481.881531,149.930969 
	C482.335510,149.937592 482.359070,150.420929 482.087524,150.769836 
	C481.960907,151.450424 482.105865,151.782120 482.250824,152.113815 
	C482.426056,162.391830 482.601318,172.669846 482.599426,183.423981 
	C482.422302,183.900116 481.973206,183.930161 481.857452,183.769836 
	C481.473114,183.790909 481.204498,183.972275 480.531128,184.220734 
	C478.762848,184.246445 477.399292,184.205063 476.030426,183.720551 
	C476.342438,172.243896 476.659760,161.210373 476.977112,150.176880 
z"/>
<path fill="#444C45" opacity="1.000000" stroke="none" 
	d="
M481.973206,183.930161 
	C481.973206,183.930161 482.422302,183.900116 482.636108,183.831573 
	C482.861694,185.649979 482.873505,187.536957 482.536591,189.804321 
	C481.803192,190.162628 481.418457,190.140518 481.033752,190.118408 
	C479.304688,190.067734 477.575592,190.017075 475.002930,189.971573 
	C472.728088,189.879303 471.296875,189.781876 469.604919,189.666702 
	C469.604919,187.856476 469.604919,186.309723 469.604919,184.506592 
	C471.852173,184.386749 473.943970,184.275223 476.035767,184.163681 
	C477.399292,184.205063 478.762848,184.246445 480.807068,184.241119 
	C481.649597,184.106323 481.811401,184.018250 481.973206,183.930161 
z"/>
<path fill="#5F7383" opacity="1.000000" stroke="none" 
	d="
M511.307587,67.092819 
	C509.396149,67.420029 507.672119,67.648849 506.074493,67.299446 
	C505.729370,67.223969 505.309601,64.491272 505.852814,63.991230 
	C506.909424,63.018532 508.623688,62.760220 510.065552,62.205994 
	C510.557098,63.733089 511.048676,65.260193 511.307587,67.092819 
z"/>
<path fill="#5F7383" opacity="1.000000" stroke="none" 
	d="
M496.806610,62.747814 
	C498.661865,63.284149 500.317657,63.930820 501.690582,64.956215 
	C501.887360,65.103188 500.983398,67.660202 500.112488,68.057388 
	C499.084412,68.526260 496.598236,68.184227 496.403473,67.620445 
	C495.929993,66.250061 496.416626,64.547958 496.806610,62.747814 
z"/>
<path fill="#5F7383" opacity="1.000000" stroke="none" 
	d="
M516.853516,62.881138 
	C518.660095,62.964123 520.504639,62.947906 521.585449,63.848431 
	C522.141663,64.311852 521.725220,66.691353 521.012817,67.669006 
	C520.526428,68.336426 517.858765,68.465630 517.731079,68.166817 
	C517.068726,66.616821 516.909546,64.851799 516.853516,62.881138 
z"/>
<path fill="#EABA1D" opacity="1.000000" stroke="none" 
	d="
M481.131287,190.298294 
	C481.418457,190.140518 481.803192,190.162628 482.468628,190.269348 
	C482.749390,190.353943 482.576233,190.696091 482.441772,190.833420 
	C481.947784,190.806564 481.588287,190.642380 481.131287,190.298294 
z"/>
<path fill="#EABA1D" opacity="1.000000" stroke="none" 
	d="
M482.296783,151.806702 
	C482.105865,151.782120 481.960907,151.450424 482.024658,151.003479 
	C482.269775,151.092010 482.306244,151.295807 482.296783,151.806702 
z"/>
<path fill="#EABA1D" opacity="1.000000" stroke="none" 
	d="
M481.259064,223.905304 
	C481.140259,223.558121 481.331085,223.331436 481.811523,223.088501 
	C482.021362,223.005066 482.010925,223.452072 481.983826,223.674072 
	C481.956696,223.896072 481.488922,223.958588 481.259064,223.905304 
z"/>
<path fill="#347AB3" opacity="1.000000" stroke="none" 
	d="
M453.994019,144.960693 
	C450.364899,145.365280 446.691528,145.537827 443.115173,146.219269 
	C433.558655,148.040237 428.471252,154.570511 428.029602,165.713867 
	C427.782440,171.950394 427.985168,178.204742 427.985168,184.341293 
	C411.345947,186.590744 402.507996,185.471863 396.044373,167.837189 
	C390.527405,152.785156 390.660522,137.504013 398.077087,122.926369 
	C402.034912,115.147049 408.199615,110.523766 417.604218,110.791542 
	C429.417847,111.127899 441.247833,110.889305 453.485779,111.345711 
	C453.931885,122.848633 453.962952,133.904678 453.994019,144.960693 
z"/>
<path fill="#FCC71D" opacity="1.000000" stroke="none" 
	d="
M457.338348,223.036011 
	C450.147034,222.722595 443.736450,220.246399 438.179169,215.747696 
	C434.513733,212.780457 432.656128,208.883240 432.711243,204.003510 
	C432.831360,193.372498 432.730286,182.739182 432.753723,172.106888 
	C432.789642,155.830933 438.811981,149.900208 455.540649,150.526062 
	C455.645538,152.800049 455.040985,154.586288 455.044373,156.371399 
	C455.086548,178.616562 454.164459,200.898453 457.338348,223.036011 
z"/>
<path fill="#F3C11D" opacity="1.000000" stroke="none" 
	d="
M457.459534,223.176483 
	C454.164459,200.898453 455.086548,178.616562 455.044373,156.371399 
	C455.040985,154.586288 455.645538,152.800049 455.978149,150.604904 
	C459.022919,150.143539 462.057037,150.091583 465.542114,150.572418 
	C466.414612,175.459686 464.685547,199.873657 468.013245,224.147781 
	C465.308563,224.087753 462.603851,224.027725 459.449768,224.007309 
	C458.527161,223.803604 458.053925,223.560272 457.459534,223.176483 
z"/>
<path fill="#EABA1D" opacity="1.000000" stroke="none" 
	d="
M468.463501,224.239655 
	C464.685547,199.873657 466.414612,175.459686 465.990051,150.650391 
	C469.348602,150.144638 472.710175,150.093704 476.524414,150.109818 
	C476.659760,161.210373 476.342438,172.243896 476.030426,183.720551 
	C473.943970,184.275223 471.852173,184.386749 469.604919,184.506592 
	C469.604919,186.309723 469.604919,187.856476 469.604919,189.666702 
	C471.296875,189.781876 472.728088,189.879303 474.575684,190.042786 
	C474.460449,201.339554 474.502899,212.502289 478.946747,223.516602 
	C475.631958,224.033066 472.272888,224.182312 468.463501,224.239655 
z"/>
<path fill="#3275AD" opacity="1.000000" stroke="none" 
	d="
M454.460449,144.995972 
	C453.962952,133.904678 453.931885,122.848633 453.954407,111.372055 
	C459.014313,110.930580 464.020630,110.909653 469.488037,110.857399 
	C469.964722,121.882454 469.980316,132.938843 469.990234,144.455414 
	C464.965363,144.954132 459.946106,144.992676 454.460449,144.995972 
z"/>
<path fill="#3274AC" opacity="1.000000" stroke="none" 
	d="
M473.518982,71.085632 
	C472.832306,82.246819 471.682098,93.366516 470.220581,104.782501 
	C465.580994,105.072388 461.252777,105.065987 456.408020,104.609543 
	C455.506714,100.601646 455.121918,97.043793 454.798462,93.091217 
	C454.824829,90.164360 454.789856,87.632210 455.070984,84.868912 
	C456.583954,80.195755 457.780853,75.753754 458.977722,71.311737 
	C463.670288,71.222542 468.362885,71.133347 473.518982,71.085632 
z"/>
<path fill="#347AB3" opacity="1.000000" stroke="none" 
	d="
M458.608368,71.246811 
	C457.780853,75.753754 456.583954,80.195755 454.773376,84.666550 
	C450.603119,81.923218 446.908325,82.089195 443.816315,85.077057 
	C441.243317,87.563423 441.216614,90.943504 443.557892,93.681404 
	C446.492432,97.113029 450.002258,96.367363 453.421906,94.199059 
	C453.842102,93.932632 454.297852,93.722275 454.737122,93.485931 
	C455.121918,97.043793 455.506714,100.601646 455.944519,104.574318 
	C448.562012,104.989136 441.126465,104.989136 433.088013,104.989136 
	C433.088013,97.878738 432.305634,91.020126 433.307220,84.432777 
	C434.316376,77.795761 440.975555,76.308632 446.283966,74.133804 
	C449.173828,72.949852 452.301483,72.346451 455.655090,71.346741 
	C456.738525,71.202133 457.488770,71.192001 458.608368,71.246811 
z"/>
<path fill="#FFFAEB" opacity="1.000000" stroke="none" 
	d="
M71.502914,116.002708 
	C72.275787,116.039551 72.681732,116.129623 73.294731,116.237503 
	C74.171524,118.067680 74.841263,119.880058 75.511002,121.692429 
	C72.568352,122.618874 69.625702,123.545319 66.051010,124.670746 
	C66.051010,121.098885 66.051010,118.883530 66.051010,116.428268 
	C67.899521,116.292915 69.517754,116.174423 71.502914,116.002708 
z"/>
<path fill="#FFFAEB" opacity="1.000000" stroke="none" 
	d="
M139.803864,130.291351 
	C140.280365,127.662209 140.486603,125.193008 141.619019,123.268921 
	C142.056763,122.525162 145.246674,122.340927 146.030563,123.096741 
	C147.381851,124.399620 148.496140,126.651863 148.456924,128.478821 
	C148.423355,130.042938 146.762283,132.715790 145.592438,132.846085 
	C143.799194,133.045837 141.809662,131.483475 139.803864,130.291351 
z"/>
<path fill="#F1F2F3" opacity="1.000000" stroke="none" 
	d="
M326.358459,176.843903 
	C321.147461,177.399780 319.227264,175.860779 319.461731,171.642609 
	C319.624695,168.710800 320.798096,166.371765 324.146240,166.455780 
	C327.446472,166.538620 328.789490,168.901993 328.608246,171.814087 
	C328.505554,173.463989 327.384613,175.050507 326.358459,176.843903 
z"/>
<path fill="#EABA1D" opacity="1.000000" stroke="none" 
	d="
M481.857452,183.769836 
	C481.811401,184.018250 481.649597,184.106323 481.211853,184.174042 
	C481.204498,183.972275 481.473114,183.790909 481.857452,183.769836 
z"/>
<path fill="#324250" opacity="1.000000" stroke="none" 
	d="
M454.798462,93.091225 
	C454.297852,93.722275 453.842102,93.932632 453.421906,94.199059 
	C450.002258,96.367363 446.492432,97.113029 443.557892,93.681404 
	C441.216614,90.943504 441.243317,87.563423 443.816315,85.077057 
	C446.908325,82.089195 450.603119,81.923218 454.457306,84.897697 
	C454.789856,87.632210 454.824829,90.164360 454.798462,93.091225 
z"/>
</svg>