<svg version="1.1" id="Layer_1" xmlns="http://www.w3.org/2000/svg" xmlns:xlink="http://www.w3.org/1999/xlink" x="0px" y="0px"
	 width="100%" viewBox="0 0 678 370" enable-background="new 0 0 678 370" xml:space="preserve">
<path fill="#FEFFFE" opacity="1.000000" stroke="none" 
	d="
M501.000000,371.000000 
	C334.039673,371.000000 167.579376,371.000000 1.059530,371.000000 
	C1.059530,247.735779 1.059530,124.471512 1.059530,1.103627 
	C226.877014,1.103627 452.754089,1.103627 678.815552,1.103627 
	C678.815552,124.333107 678.815552,247.666534 678.815552,371.000000 
	C619.804749,371.000000 560.652405,371.000000 501.000000,371.000000 
M215.118546,200.867874 
	C215.118546,200.867874 215.146286,200.859955 215.166946,201.553070 
	C215.926895,202.373749 216.573822,203.351913 217.464188,203.990845 
	C226.815964,210.701752 237.183121,214.557190 248.661026,216.057938 
	C269.249207,218.749832 287.432587,213.033493 302.475159,199.428421 
	C326.138336,178.026550 332.023346,148.248627 319.103973,119.163422 
	C316.803467,113.984306 312.359711,109.757225 309.000000,105.001221 
	C309.000000,105.001221 308.902618,105.086678 308.969116,104.357597 
	C307.905975,103.301270 306.842834,102.244934 305.245331,100.797768 
	C283.433075,77.555336 252.311371,71.637459 224.203415,85.387421 
	C188.630508,102.789116 175.647980,150.522614 198.018967,182.723312 
	C202.400940,187.752609 206.782913,192.781921 211.229416,198.523514 
	C212.528000,199.296204 213.826584,200.068878 215.118546,200.867874 
M606.931458,108.394432 
	C605.924011,107.287331 604.916504,106.180229 603.418152,104.627869 
	C585.437622,81.365746 554.473633,72.122414 527.386230,81.930916 
	C498.845459,92.265678 480.828033,118.524544 482.168549,148.537827 
	C483.140991,170.311188 492.915344,187.633865 510.156219,201.551331 
	C510.916992,202.373978 511.556610,203.372086 512.456482,203.993225 
	C528.387573,214.990143 545.987061,219.144867 564.991272,215.557419 
	C605.960205,207.823700 630.547302,165.128723 616.746338,125.742126 
	C614.627869,119.696152 613.036560,112.951157 606.952393,109.053322 
	C606.952393,109.053322 606.831238,109.119804 606.931458,108.394432 
M68.040146,200.961945 
	C68.040146,200.961945 68.161812,200.850616 68.170616,201.546402 
	C68.927238,202.369019 69.569077,203.351578 70.458168,203.989609 
	C79.809860,210.700592 90.176544,214.557526 101.654846,216.059357 
	C122.243561,218.753189 140.427750,213.038147 155.472031,199.434738 
	C179.135681,178.037476 185.024841,148.244003 172.105591,119.161240 
	C169.805283,113.983040 165.360397,109.757523 162.000122,105.003540 
	C162.000122,105.003540 161.900879,105.085602 161.965652,104.356911 
	C160.905319,103.302200 159.844971,102.247490 158.254547,100.795280 
	C157.337936,99.831421 156.444641,98.844078 155.501266,97.907173 
	C135.715378,78.257080 105.902321,72.615570 80.760391,83.756538 
	C54.819088,95.251724 38.924770,120.427818 40.149212,148.536682 
	C41.013363,168.374527 49.512287,184.625092 64.232552,198.513809 
	C65.533020,199.284653 66.833496,200.055481 68.040146,200.961945 
M455.510864,104.794739 
	C455.286743,104.557152 455.126221,104.282387 455.058014,103.269150 
	C454.301147,102.576759 453.544281,101.884369 452.260071,100.790710 
	C451.343018,99.827164 450.448883,98.840553 449.505493,97.903496 
	C429.729858,78.259743 399.917145,72.618927 374.759491,83.753616 
	C348.822296,95.233345 332.932739,120.400818 334.149506,148.535629 
	C335.007507,168.375259 343.506531,184.627304 358.243439,198.488815 
	C359.169037,198.988678 360.094604,199.488525 361.463928,200.169434 
	C361.758881,200.319763 361.983612,200.541306 362.158203,201.533020 
	C362.913086,202.357758 363.551758,203.344513 364.440765,203.982269 
	C373.791443,210.690201 384.149902,214.575790 395.631805,216.053635 
	C416.203857,218.701431 434.417328,213.051041 449.470673,199.441147 
	C473.079102,178.096405 479.000092,148.145493 466.101807,119.147430 
	C463.798676,113.969543 459.354095,109.744179 455.510864,104.794739 
M128.475586,244.992065 
	C128.330124,243.378067 128.184677,241.764069 128.050919,240.279739 
	C118.931625,238.394669 117.833725,238.973999 114.701202,247.041443 
	C112.393417,252.984833 110.094910,258.931824 107.461052,265.732422 
	C106.442390,263.160156 105.740448,261.493835 105.118683,259.798096 
	C103.121300,254.350616 101.082314,248.916794 99.194458,243.431213 
	C97.323059,237.993423 92.800957,239.676056 89.092331,239.728378 
	C85.328873,239.781494 86.027748,242.970840 86.014191,245.359009 
	C85.965088,254.013641 86.034760,262.669037 85.971153,271.323456 
	C85.951401,274.011108 85.846840,276.237885 89.715385,276.142120 
	C93.433418,276.050110 93.011314,273.742645 93.008606,271.396362 
	C92.999496,263.495514 93.005135,255.594635 93.005135,247.693787 
	C94.191994,248.303131 94.632568,249.085754 94.922241,249.920715 
	C97.366890,256.967316 99.763252,264.030701 102.220634,271.072815 
	C103.074631,273.520081 103.476433,276.122192 107.241295,276.173859 
	C111.145378,276.227417 111.251495,273.417236 112.115158,271.049286 
	C115.083733,262.910217 118.001816,254.752701 120.939140,246.602203 
	C121.927628,254.913788 121.912491,262.987427 121.932930,271.061005 
	C121.946655,276.483398 122.358360,276.752228 128.475677,275.187439 
	C128.475677,265.499359 128.475677,255.698013 128.475586,244.992065 
M534.997559,249.588715 
	C534.997559,256.752136 535.245728,263.927094 534.912781,271.075012 
	C534.679749,276.078552 536.835815,276.838379 541.230347,275.513336 
	C541.230347,266.629333 541.230347,257.700256 541.230347,247.862793 
	C542.191406,249.390182 542.739258,250.150558 543.174988,250.970551 
	C546.997864,258.165314 550.889465,265.325806 554.570129,272.592957 
	C556.262146,275.933502 559.065125,276.500702 562.104614,275.824554 
	C563.270142,275.565277 564.899780,273.719482 564.922791,272.568726 
	C565.138123,261.782867 565.050537,250.990952 565.050537,239.985428 
	C562.767395,239.985428 560.937012,239.985428 558.530273,239.985428 
	C558.530273,248.404755 558.530273,256.328979 558.530273,265.556366 
	C554.063416,257.078888 550.277466,249.892136 546.490051,242.706146 
	C544.527893,238.983261 541.110413,239.243835 537.773010,239.703140 
	C534.006042,240.221527 535.189331,243.309418 535.010376,245.625900 
	C534.933655,246.619507 534.997559,247.624008 534.997559,249.588715 
M395.186188,263.008179 
	C397.446564,260.156403 400.304016,260.200897 402.360107,263.489899 
	C403.840057,265.857300 405.081482,268.498474 405.807953,271.185516 
	C407.205933,276.356445 410.321045,277.021912 415.514221,275.190063 
	C412.814697,269.539520 410.225311,264.119476 407.482025,258.377350 
	C407.394684,258.434082 407.906128,258.092926 408.426331,257.765686 
	C412.671906,255.094742 413.922180,251.151917 412.690735,246.536514 
	C411.513306,242.123566 408.067841,240.180847 403.737946,239.888489 
	C399.757690,239.619736 395.758270,239.630066 391.766968,239.530884 
	C389.072754,239.463928 387.926666,240.687576 387.956360,243.481277 
	C388.058960,253.140030 388.049774,262.801056 387.959137,272.460052 
	C387.935669,274.961548 388.709320,276.089630 391.360474,276.119720 
	C394.083557,276.150543 395.382812,275.299133 395.211273,272.395813 
	C395.044556,269.574371 395.176788,266.735291 395.186188,263.008179 
M252.648880,254.495804 
	C252.002014,251.540375 251.355133,248.584930 250.554459,244.926804 
	C256.177521,244.926804 260.578735,244.926804 265.193024,244.926804 
	C265.104523,242.940262 265.039307,241.476471 264.954346,239.569733 
	C259.252838,239.569733 253.778275,239.659821 248.308594,239.535278 
	C245.128250,239.462830 243.881653,240.643967 243.941422,243.936539 
	C244.107559,253.090683 244.061569,262.250488 243.964462,271.406616 
	C243.931961,274.471924 244.889511,276.103241 248.229950,276.031769 
	C253.706421,275.914551 259.187256,276.000031 264.943481,276.000031 
	C264.943481,274.102905 264.943481,272.429260 264.943481,270.377960 
	C260.214813,270.377960 255.942902,270.377960 251.516769,270.377960 
	C251.516769,266.609161 251.516769,263.224762 251.516769,259.445251 
	C255.472229,259.445251 259.089996,259.445251 262.852112,259.445251 
	C262.852112,257.651123 262.852112,256.257721 262.852112,254.556931 
	C259.560028,254.556931 256.576752,254.556931 252.648880,254.495804 
z"/>
<path fill="#3E2D28" opacity="1.000000" stroke="none" 
	d="
M64.180580,197.797928 
	C49.512287,184.625092 41.013363,168.374527 40.149212,148.536682 
	C38.924770,120.427818 54.819088,95.251724 80.760391,83.756538 
	C105.902321,72.615570 135.715378,78.257080 155.501266,97.907173 
	C156.444641,98.844078 157.337936,99.831421 158.578766,101.311295 
	C159.902283,102.913399 160.901581,103.999504 161.900879,105.085602 
	C161.900879,105.085602 162.000122,105.003540 161.993713,105.392303 
	C173.033508,121.273003 177.004364,138.328934 174.191757,157.222992 
	C168.975296,192.265457 132.843826,218.520905 98.043312,212.597366 
	C87.156006,210.744186 77.490662,206.369263 68.161812,200.850616 
	C68.161812,200.850616 68.040146,200.961945 67.975533,200.591156 
	C66.667473,199.412872 65.424026,198.605392 64.180580,197.797928 
M156.507278,187.024948 
	C169.989105,171.202347 174.957275,152.700317 170.527161,132.737885 
	C162.982147,98.739578 133.831772,76.447411 96.372879,82.451050 
	C60.395718,88.217209 38.142609,121.681007 44.289036,156.841370 
	C50.392349,191.755081 83.648186,215.016129 118.416412,208.944382 
	C133.400009,206.327713 146.279724,199.592545 156.507278,187.024948 
z"/>
<path fill="#1D3B52" opacity="1.000000" stroke="none" 
	d="
M362.138184,200.834030 
	C361.983612,200.541306 361.758881,200.319763 361.137939,199.781662 
	C359.933838,198.862564 359.055725,198.331238 358.177643,197.799911 
	C343.506531,184.627304 335.007507,168.375259 334.149506,148.535629 
	C332.932739,120.400818 348.822296,95.233345 374.759491,83.753616 
	C399.917145,72.618927 429.729858,78.259743 449.505493,97.903496 
	C450.448883,98.840553 451.343018,99.827164 452.578094,101.299759 
	C453.607208,102.529350 454.318268,103.249893 455.029327,103.970444 
	C455.126221,104.282387 455.286743,104.557152 455.747559,105.282227 
	C467.161682,121.419037 470.998596,138.657257 468.156830,157.721405 
	C463.051239,191.973129 426.746368,218.390640 392.512726,212.707260 
	C381.456268,210.871689 371.608307,206.463547 362.138184,200.834030 
M364.554749,93.001511 
	C347.986572,105.082344 338.499634,121.490204 337.290588,141.781250 
	C336.047394,162.644867 343.786224,180.320374 359.676392,194.301483 
	C384.462189,216.109467 422.666351,215.590927 446.897217,191.360306 
	C461.967468,176.290237 468.146698,157.795502 465.131775,136.338852 
	C460.641998,104.386299 432.764130,80.764069 400.142792,81.175377 
	C387.484985,81.334961 375.667267,85.301018 364.554749,93.001511 
z"/>
<path fill="#567E35" opacity="1.000000" stroke="none" 
	d="
M510.131653,200.852417 
	C492.915344,187.633865 483.140991,170.311188 482.168549,148.537827 
	C480.828033,118.524544 498.845459,92.265678 527.386230,81.930916 
	C554.473633,72.122414 585.437622,81.365746 603.694153,105.173691 
	C604.923828,106.852936 605.877563,107.986374 606.831238,109.119812 
	C606.831238,109.119804 606.952393,109.053322 606.935303,109.459541 
	C618.406738,129.616867 620.534119,150.133453 612.088867,171.573975 
	C600.889526,200.006592 569.327759,217.467667 539.055725,212.382538 
	C528.465210,210.603500 519.235718,206.037125 510.131653,200.852417 
M544.815796,81.037315 
	C543.189270,81.343224 541.572754,81.722778 539.934814,81.944115 
	C509.802429,86.015800 487.151215,110.947868 485.200745,140.952881 
	C483.730072,163.577271 492.077820,182.549591 510.240753,196.715302 
	C534.858032,215.914948 570.911194,214.261856 593.510254,192.934799 
	C620.345764,167.609802 621.174805,125.764526 595.067261,99.729843 
	C581.526245,86.226616 564.750488,80.499969 544.815796,81.037315 
z"/>
<path fill="#252525" opacity="1.000000" stroke="none" 
	d="
M197.917343,182.034637 
	C175.647980,150.522614 188.630508,102.789116 224.203415,85.387421 
	C252.311371,71.637459 283.433075,77.555336 305.574066,101.310379 
	C306.902740,102.910889 307.902679,103.998779 308.902618,105.086678 
	C308.902618,105.086678 309.000000,105.001221 308.995514,105.390152 
	C309.565491,106.591553 310.155823,107.393318 310.712097,108.218079 
	C329.288055,135.760422 324.633301,174.654190 299.957458,195.085983 
	C299.364349,195.008682 299.126862,194.980057 298.949951,194.609955 
	C300.155457,192.866135 301.244690,191.413620 302.454193,190.069351 
	C311.991455,179.469635 317.682281,166.993347 318.867340,152.899521 
	C320.725891,130.795761 313.295990,111.954308 296.610474,97.206894 
	C280.983765,83.395271 262.403992,79.444870 242.232239,82.855904 
	C225.181244,85.739220 211.769592,95.014908 201.846008,108.905411 
	C191.892014,122.838470 187.627747,138.642334 190.922333,155.605591 
	C192.603119,164.259674 196.271179,172.527786 198.914581,181.205261 
	C198.497894,181.638321 198.207611,181.836472 197.917343,182.034637 
z"/>
<path fill="#3D8841" opacity="1.000000" stroke="none" 
	d="
M128.475632,245.444366 
	C128.475677,255.698013 128.475677,265.499359 128.475677,275.187439 
	C122.358360,276.752228 121.946655,276.483398 121.932930,271.061005 
	C121.912491,262.987427 121.927628,254.913788 120.939140,246.602203 
	C118.001816,254.752701 115.083733,262.910217 112.115158,271.049286 
	C111.251495,273.417236 111.145378,276.227417 107.241295,276.173859 
	C103.476433,276.122192 103.074631,273.520081 102.220634,271.072815 
	C99.763252,264.030701 97.366890,256.967316 94.922241,249.920715 
	C94.632568,249.085754 94.191994,248.303131 93.005135,247.693787 
	C93.005135,255.594635 92.999496,263.495514 93.008606,271.396362 
	C93.011314,273.742645 93.433418,276.050110 89.715385,276.142120 
	C85.846840,276.237885 85.951401,274.011108 85.971153,271.323456 
	C86.034760,262.669037 85.965088,254.013641 86.014191,245.359009 
	C86.027748,242.970840 85.328873,239.781494 89.092331,239.728378 
	C92.800957,239.676056 97.323059,237.993423 99.194458,243.431213 
	C101.082314,248.916794 103.121300,254.350616 105.118683,259.798096 
	C105.740448,261.493835 106.442390,263.160156 107.461052,265.732422 
	C110.094910,258.931824 112.393417,252.984833 114.701202,247.041443 
	C117.833725,238.973999 118.931625,238.394669 128.050919,240.279739 
	C128.184677,241.764069 128.330124,243.378067 128.475632,245.444366 
z"/>
<path fill="#B1B0B0" opacity="1.000000" stroke="none" 
	d="
M68.166214,201.198517 
	C77.490662,206.369263 87.156006,210.744186 98.043312,212.597366 
	C132.843826,218.520905 168.975296,192.265457 174.191757,157.222992 
	C177.004364,138.328934 173.033508,121.273003 161.946548,105.436577 
	C165.360397,109.757523 169.805283,113.983040 172.105591,119.161240 
	C185.024841,148.244003 179.135681,178.037476 155.472031,199.434738 
	C140.427750,213.038147 122.243561,218.753189 101.654846,216.059357 
	C90.176544,214.557526 79.809860,210.700592 70.458168,203.989609 
	C69.569077,203.351578 68.927238,202.369019 68.166214,201.198517 
z"/>
<path fill="#B0B0B0" opacity="1.000000" stroke="none" 
	d="
M300.313110,195.134644 
	C324.633301,174.654190 329.288055,135.760422 310.712097,108.218079 
	C310.155823,107.393318 309.565491,106.591553 308.948303,105.434814 
	C312.359711,109.757225 316.803467,113.984306 319.103973,119.163422 
	C332.023346,148.248627 326.138336,178.026550 302.475159,199.428421 
	C287.432587,213.033493 269.249207,218.749832 248.661026,216.057938 
	C237.183121,214.557190 226.815964,210.701752 217.464188,203.990845 
	C216.573822,203.351913 215.926895,202.373749 215.433838,201.213470 
	C216.045273,201.006989 216.389847,201.140121 216.770752,201.255432 
	C216.807114,201.237610 216.837036,201.162354 217.003052,201.457855 
	C221.111176,203.826797 225.053299,205.900253 229.112350,208.060303 
	C229.229263,208.146896 229.512863,208.081757 229.780655,208.307861 
	C230.712112,208.715210 231.375778,208.896439 232.250732,209.260315 
	C232.982239,209.606552 233.502487,209.770111 234.385971,210.077377 
	C242.834946,211.103806 250.920685,211.986526 259.429626,212.939545 
	C275.391815,211.696671 289.076355,206.185898 300.313110,195.134644 
z"/>
<path fill="#B0B1B2" opacity="1.000000" stroke="none" 
	d="
M362.148193,201.183533 
	C371.608307,206.463547 381.456268,210.871689 392.512726,212.707260 
	C426.746368,218.390640 463.051239,191.973129 468.156830,157.721405 
	C470.998596,138.657257 467.161682,121.419037 455.941254,105.424362 
	C459.354095,109.744179 463.798676,113.969543 466.101807,119.147430 
	C479.000092,148.145493 473.079102,178.096405 449.470673,199.441147 
	C434.417328,213.051041 416.203857,218.701431 395.631805,216.053635 
	C384.149902,214.575790 373.791443,210.690201 364.440765,203.982269 
	C363.551758,203.344513 362.913086,202.357758 362.148193,201.183533 
z"/>
<path fill="#79B845" opacity="1.000000" stroke="none" 
	d="
M534.997559,249.106140 
	C534.997559,247.624008 534.933655,246.619507 535.010376,245.625900 
	C535.189331,243.309418 534.006042,240.221527 537.773010,239.703140 
	C541.110413,239.243835 544.527893,238.983261 546.490051,242.706146 
	C550.277466,249.892136 554.063416,257.078888 558.530273,265.556366 
	C558.530273,256.328979 558.530273,248.404755 558.530273,239.985428 
	C560.937012,239.985428 562.767395,239.985428 565.050537,239.985428 
	C565.050537,250.990952 565.138123,261.782867 564.922791,272.568726 
	C564.899780,273.719482 563.270142,275.565277 562.104614,275.824554 
	C559.065125,276.500702 556.262146,275.933502 554.570129,272.592957 
	C550.889465,265.325806 546.997864,258.165314 543.174988,250.970551 
	C542.739258,250.150558 542.191406,249.390182 541.230347,247.862793 
	C541.230347,257.700256 541.230347,266.629333 541.230347,275.513336 
	C536.835815,276.838379 534.679749,276.078552 534.912781,271.075012 
	C535.245728,263.927094 534.997559,256.752136 534.997559,249.106140 
z"/>
<path fill="#B1B2B0" opacity="1.000000" stroke="none" 
	d="
M510.143921,201.201874 
	C519.235718,206.037125 528.465210,210.603500 539.055725,212.382538 
	C569.327759,217.467667 600.889526,200.006592 612.088867,171.573975 
	C620.534119,150.133453 618.406738,129.616867 606.888062,109.510025 
	C613.036560,112.951157 614.627869,119.696152 616.746338,125.742126 
	C630.547302,165.128723 605.960205,207.823700 564.991272,215.557419 
	C545.987061,219.144867 528.387573,214.990143 512.456482,203.993225 
	C511.556610,203.372086 510.916992,202.373978 510.143921,201.201874 
z"/>
<path fill="#276391" opacity="1.000000" stroke="none" 
	d="
M395.181946,263.456055 
	C395.176788,266.735291 395.044556,269.574371 395.211273,272.395813 
	C395.382812,275.299133 394.083557,276.150543 391.360474,276.119720 
	C388.709320,276.089630 387.935669,274.961548 387.959137,272.460052 
	C388.049774,262.801056 388.058960,253.140030 387.956360,243.481277 
	C387.926666,240.687576 389.072754,239.463928 391.766968,239.530884 
	C395.758270,239.630066 399.757690,239.619736 403.737946,239.888489 
	C408.067841,240.180847 411.513306,242.123566 412.690735,246.536514 
	C413.922180,251.151917 412.671906,255.094742 408.426331,257.765686 
	C407.906128,258.092926 407.394684,258.434082 407.482025,258.377350 
	C410.225311,264.119476 412.814697,269.539520 415.514221,275.190063 
	C410.321045,277.021912 407.205933,276.356445 405.807953,271.185516 
	C405.081482,268.498474 403.840057,265.857300 402.360107,263.489899 
	C400.304016,260.200897 397.446564,260.156403 395.181946,263.456055 
M405.166870,247.379898 
	C402.415192,243.746460 398.850861,245.028488 395.448029,245.400116 
	C395.448029,249.010376 395.448029,252.252731 395.448029,255.448105 
	C403.425751,256.391998 406.018677,254.426910 405.166870,247.379898 
z"/>
<path fill="#363636" opacity="1.000000" stroke="none" 
	d="
M253.121185,254.526367 
	C256.576752,254.556931 259.560028,254.556931 262.852112,254.556931 
	C262.852112,256.257721 262.852112,257.651123 262.852112,259.445251 
	C259.089996,259.445251 255.472229,259.445251 251.516769,259.445251 
	C251.516769,263.224762 251.516769,266.609161 251.516769,270.377960 
	C255.942902,270.377960 260.214813,270.377960 264.943481,270.377960 
	C264.943481,272.429260 264.943481,274.102905 264.943481,276.000031 
	C259.187256,276.000031 253.706421,275.914551 248.229950,276.031769 
	C244.889511,276.103241 243.931961,274.471924 243.964462,271.406616 
	C244.061569,262.250488 244.107559,253.090683 243.941422,243.936539 
	C243.881653,240.643967 245.128250,239.462830 248.308594,239.535278 
	C253.778275,239.659821 259.252838,239.569733 264.954346,239.569733 
	C265.039307,241.476471 265.104523,242.940262 265.193024,244.926804 
	C260.578735,244.926804 256.177521,244.926804 250.554459,244.926804 
	C251.355133,248.584930 252.002014,251.540375 253.121185,254.526367 
z"/>
<path fill="#2D2D2D" opacity="1.000000" stroke="none" 
	d="
M216.734406,201.273254 
	C216.389847,201.140121 216.045273,201.006989 215.423492,200.866913 
	C215.146286,200.859955 215.118546,200.867874 215.007370,200.553101 
	C213.652435,199.429291 212.408661,198.620255 211.164886,197.811218 
	C206.782913,192.781921 202.400940,187.752609 197.968155,182.378967 
	C198.207611,181.836472 198.497894,181.638321 199.207245,181.368652 
	C204.837570,186.812073 210.089188,192.289948 215.217758,197.880692 
	C216.012085,198.746628 216.242966,200.129456 216.734406,201.273254 
z"/>
<path fill="#B1B0B0" opacity="1.000000" stroke="none" 
	d="
M64.206566,198.155869 
	C65.424026,198.605392 66.667473,199.412872 68.022446,200.523346 
	C66.833496,200.055481 65.533020,199.284653 64.206566,198.155869 
z"/>
<path fill="#B0B0B0" opacity="1.000000" stroke="none" 
	d="
M211.197144,198.167358 
	C212.408661,198.620255 213.652435,199.429291 215.010681,200.539948 
	C213.826584,200.068878 212.528000,199.296204 211.197144,198.167358 
z"/>
<path fill="#B1B0B0" opacity="1.000000" stroke="none" 
	d="
M161.933258,104.721260 
	C160.901581,103.999504 159.902283,102.913399 158.843811,101.510040 
	C159.844971,102.247490 160.905319,103.302200 161.933258,104.721260 
z"/>
<path fill="#B1B2B0" opacity="1.000000" stroke="none" 
	d="
M606.881348,108.757126 
	C605.877563,107.986374 604.923828,106.852936 603.939575,105.396317 
	C604.916504,106.180229 605.924011,107.287331 606.881348,108.757126 
z"/>
<path fill="#B0B0B0" opacity="1.000000" stroke="none" 
	d="
M308.935852,104.722137 
	C307.902679,103.998779 306.902740,102.910889 305.841248,101.505798 
	C306.842834,102.244934 307.905975,103.301270 308.935852,104.722137 
z"/>
<path fill="#B0B1B2" opacity="1.000000" stroke="none" 
	d="
M455.043671,103.619797 
	C454.318268,103.249893 453.607208,102.529350 452.841736,101.500397 
	C453.544281,101.884369 454.301147,102.576759 455.043671,103.619797 
z"/>
<path fill="#B0B1B2" opacity="1.000000" stroke="none" 
	d="
M358.210541,198.144363 
	C359.055725,198.331238 359.933838,198.862564 360.916077,199.691132 
	C360.094604,199.488525 359.169037,198.988678 358.210541,198.144363 
z"/>
<path fill="#5D4037" opacity="1.000000" stroke="none" 
	d="
M156.260544,187.284424 
	C146.279724,199.592545 133.400009,206.327713 118.416412,208.944382 
	C83.648186,215.016129 50.392349,191.755081 44.289036,156.841370 
	C38.142609,121.681007 60.395718,88.217209 96.372879,82.451050 
	C133.831772,76.447411 162.982147,98.739578 170.527161,132.737885 
	C174.957275,152.700317 169.989105,171.202347 156.260544,187.284424 
M111.766457,185.832397 
	C113.187706,184.695450 114.750755,183.696198 116.008698,182.400681 
	C131.846359,166.089935 135.606369,146.987534 129.305359,125.441292 
	C125.640762,112.910248 117.898087,103.120392 108.950531,93.302513 
	C108.335983,92.259117 107.721443,91.215721 107.016426,90.018715 
	C105.811035,91.463379 105.006424,92.522156 104.101677,93.487053 
	C103.076965,94.579865 101.933815,95.560760 100.891342,96.637917 
	C85.607185,112.430672 79.688248,131.402039 83.160149,152.886658 
	C85.423943,166.895370 93.121384,178.055405 104.955238,187.075378 
	C107.271027,191.232269 104.243919,197.185074 109.093086,201.650009 
	C109.913002,195.631744 110.556465,190.908646 111.766457,185.832397 
z"/>
<path fill="#24628F" opacity="1.000000" stroke="none" 
	d="
M364.833740,92.776047 
	C375.667267,85.301018 387.484985,81.334961 400.142792,81.175377 
	C432.764130,80.764069 460.641998,104.386299 465.131775,136.338852 
	C468.146698,157.795502 461.967468,176.290237 446.897217,191.360306 
	C422.666351,215.590927 384.462189,216.109467 359.676392,194.301483 
	C343.786224,180.320374 336.047394,162.644867 337.290588,141.781250 
	C338.499634,121.490204 347.986572,105.082344 364.833740,92.776047 
M430.785187,106.038574 
	C426.856995,100.100395 423.304138,98.642250 416.900391,101.096733 
	C413.528839,102.389023 410.006500,104.017822 407.403137,106.417709 
	C403.241333,110.254318 400.048889,110.724487 395.733826,106.587791 
	C393.191010,104.150093 389.611603,102.541878 386.229736,101.281380 
	C378.095703,98.249641 372.154724,101.612152 371.124481,110.212273 
	C370.425934,116.043671 370.991150,122.026474 370.991150,127.276367 
	C365.358398,130.923187 359.285156,134.088028 354.167694,138.389893 
	C349.309845,142.473557 349.540222,147.974869 354.149841,152.384521 
	C356.982788,155.094574 360.485260,157.183823 363.907562,159.172455 
	C366.416931,160.630600 369.284485,161.472366 371.799286,162.509216 
	C371.321716,166.542679 370.613922,169.997559 370.570190,173.460831 
	C370.498474,179.138962 370.508789,185.171738 375.842133,188.792480 
	C381.192871,192.425034 386.491180,189.803055 391.307953,187.084869 
	C394.894806,185.060715 398.102539,182.364807 401.670868,179.831970 
	C404.000610,181.574738 406.270294,183.526505 408.784271,185.083817 
	C411.453522,186.737305 414.226593,188.400513 417.179169,189.385345 
	C425.223999,192.068680 430.907684,188.775131 431.917511,180.356583 
	C432.616730,174.527390 432.051971,168.546555 432.051971,163.147949 
	C437.509186,159.736420 443.493744,156.744263 448.554871,152.619186 
	C453.542145,148.554321 453.581818,143.345551 449.197723,138.583084 
	C446.673157,135.840668 443.315765,133.751999 440.061584,131.828690 
	C437.278168,130.183594 434.107574,129.193466 432.501770,128.508255 
	C431.960358,120.514626 431.495483,113.651024 430.785187,106.038574 
z"/>
<path fill="#79B745" opacity="1.000000" stroke="none" 
	d="
M545.280396,81.032486 
	C564.750488,80.499969 581.526245,86.226616 595.067261,99.729843 
	C621.174805,125.764526 620.345764,167.609802 593.510254,192.934799 
	C570.911194,214.261856 534.858032,215.914948 510.240753,196.715302 
	C492.077820,182.549591 483.730072,163.577271 485.200745,140.952881 
	C487.151215,110.947868 509.802429,86.015800 539.934814,81.944115 
	C541.572754,81.722778 543.189270,81.343224 545.280396,81.032486 
M576.869202,119.663483 
	C569.225098,115.247910 561.540833,110.899818 553.955811,106.384872 
	C550.743225,104.472565 547.787476,104.433708 544.575500,106.316574 
	C535.379089,111.707497 525.967102,116.753555 517.003540,122.502243 
	C514.783325,123.926109 512.791138,127.448395 512.670044,130.096420 
	C512.183533,140.738007 512.178894,151.428955 512.682922,162.069122 
	C512.807373,164.695816 515.092529,167.639175 517.157959,169.637421 
	C519.238098,171.649826 522.193787,172.861465 524.918396,174.084091 
	C533.396545,177.888580 539.653809,173.940445 539.733276,164.750443 
	C539.818237,154.920303 539.616638,145.086075 539.815735,135.259216 
	C539.907593,130.726669 538.333557,129.531082 534.341003,131.260178 
	C534.243042,131.600082 534.157288,131.759979 534.156433,131.920334 
	C534.099548,142.579712 534.192505,153.243469 533.868652,163.894562 
	C533.809631,165.835083 532.531616,168.608124 530.977173,169.453232 
	C527.700989,171.234390 518.106018,164.402435 518.085754,160.641769 
	C518.032776,150.811172 517.945251,140.977020 518.191833,131.152328 
	C518.231750,129.561234 519.526184,127.382339 520.895081,126.545387 
	C529.134705,121.507622 537.487488,116.636871 545.998962,112.077126 
	C547.654602,111.190125 550.583679,111.155884 552.230530,112.032921 
	C560.605469,116.492920 568.856201,121.215714 576.892639,126.257401 
	C578.558960,127.302765 579.990601,130.059296 580.062805,132.079651 
	C580.395630,141.398773 580.101624,150.738403 580.274048,160.066223 
	C580.327332,162.946457 579.381897,164.609238 576.866333,165.998856 
	C569.140442,170.266739 561.441345,174.603638 553.945129,179.257416 
	C550.536438,181.373627 547.663269,181.835190 544.516968,179.155930 
	C541.508667,176.594193 538.618103,176.857208 535.407898,180.068924 
	C538.247620,181.796326 540.971741,183.303802 543.534668,185.048035 
	C547.255798,187.580383 550.692871,187.633743 554.646484,185.218948 
	C563.172546,180.011383 571.870789,175.077957 580.599304,170.213196 
	C584.353943,168.120590 586.078064,165.366425 585.954712,160.959564 
	C585.712402,152.301849 585.417419,143.599518 586.027771,134.978210 
	C586.542786,127.703499 584.450256,122.674583 576.869202,119.663483 
M543.582520,140.237793 
	C544.003479,145.094666 547.327148,147.036636 551.522705,147.876099 
	C555.753174,148.722595 560.090881,149.083069 564.274353,150.098282 
	C567.556946,150.894897 568.350952,153.933014 566.209595,156.081741 
	C562.707214,159.596237 550.896362,158.227478 548.827637,153.722488 
	C547.320801,150.441299 545.391724,150.900543 542.752686,151.574738 
	C542.307068,156.865723 544.748840,160.557983 549.281738,161.594330 
	C554.183533,162.715027 559.497498,163.075836 564.486816,162.504089 
	C570.565369,161.807541 573.848572,157.525375 573.699768,152.491364 
	C573.562683,147.852432 570.727600,145.288803 564.204651,144.046707 
	C560.287903,143.300888 556.315308,142.815247 552.440918,141.902267 
	C551.408264,141.658920 550.206848,140.402237 549.900391,139.368500 
	C549.666321,138.578873 550.472229,137.111511 551.247314,136.456421 
	C554.517456,133.692368 563.733521,134.739029 565.717896,138.429169 
	C567.437744,141.627365 569.463501,141.508133 572.315796,140.673538 
	C572.178467,135.038803 569.296875,131.582382 564.213135,130.620911 
	C560.365662,129.893265 556.240845,129.799896 552.355896,130.310349 
	C547.302368,130.974365 543.817322,133.890137 543.582520,140.237793 
z"/>
<path fill="#3A3A3A" opacity="1.000000" stroke="none" 
	d="
M216.770752,201.255432 
	C216.242966,200.129456 216.012085,198.746628 215.217758,197.880692 
	C210.089188,192.289948 204.837570,186.812073 199.333649,181.133759 
	C196.271179,172.527786 192.603119,164.259674 190.922333,155.605591 
	C187.627747,138.642334 191.892014,122.838470 201.846008,108.905411 
	C211.769592,95.014908 225.181244,85.739220 242.232239,82.855904 
	C262.403992,79.444870 280.983765,83.395271 296.610474,97.206894 
	C313.295990,111.954308 320.725891,130.795761 318.867340,152.899521 
	C317.682281,166.993347 311.991455,179.469635 302.454193,190.069351 
	C301.244690,191.413620 300.155457,192.866135 298.613220,194.659302 
	C297.523529,195.485535 296.775208,195.852631 296.147095,196.366577 
	C285.328857,205.218735 273.163422,210.637146 258.537598,211.005005 
	C252.039810,210.655487 246.010574,210.284409 239.978027,209.977829 
	C237.997299,209.877136 236.008072,209.943634 234.022720,209.933670 
	C233.502487,209.770111 232.982239,209.606552 232.039642,208.967056 
	C230.915802,208.354660 230.214325,208.218216 229.512863,208.081757 
	C229.512863,208.081757 229.229263,208.146896 229.068634,207.715683 
	C224.884338,205.243774 220.860687,203.203064 216.837036,201.162354 
	C216.837036,201.162354 216.807114,201.237610 216.770752,201.255432 
M232.500580,148.965927 
	C238.747742,148.965927 244.994919,148.965927 251.933731,148.965927 
	C251.190353,144.577652 250.911774,140.917770 249.918976,137.463135 
	C247.286636,128.303268 240.362274,122.510132 231.863358,121.918716 
	C221.829651,121.220497 213.689911,125.830437 209.545486,134.640289 
	C206.591202,140.920227 206.360443,147.452072 207.827423,154.153152 
	C211.135910,169.266129 226.302780,176.762604 240.308105,170.080780 
	C245.798248,167.461456 249.438034,163.335388 250.433868,156.868423 
	C246.331924,156.409485 243.303268,155.871109 240.985703,160.351410 
	C238.362228,165.423096 230.081100,166.678955 223.830765,164.029160 
	C217.838242,161.488663 214.841797,155.784317 216.123840,148.965927 
	C221.210922,148.965927 226.356445,148.965927 232.500580,148.965927 
M290.670074,134.195938 
	C293.512543,130.381516 296.355042,126.567078 299.458954,122.401802 
	C293.461121,121.215851 289.014679,121.531181 285.988037,127.202835 
	C283.741821,131.412064 280.493042,135.086288 277.409576,139.391541 
	C274.639252,135.401871 271.575562,131.983688 269.664795,128.010956 
	C266.602112,121.643227 261.815613,121.021881 255.168900,122.467270 
	C260.987305,130.418030 266.532318,137.995193 272.187469,145.722885 
	C266.017914,154.402145 259.944458,162.946213 253.811935,171.573349 
	C260.739349,173.571396 264.865173,171.470673 267.885010,165.715607 
	C270.461243,160.806046 274.010193,156.406921 277.391327,151.392700 
	C280.952728,156.685394 284.104004,161.369751 287.256500,166.053284 
	C291.986267,173.080109 292.297943,173.204849 300.924347,171.529404 
	C300.895935,171.220886 300.978485,170.831619 300.822479,170.611313 
	C297.266602,165.590057 293.688080,160.584854 290.106964,155.581528 
	C282.572632,145.055084 282.571014,145.056244 290.670074,134.195938 
z"/>
<path fill="#2B2B2B" opacity="1.000000" stroke="none" 
	d="
M259.004883,211.008545 
	C273.163422,210.637146 285.328857,205.218735 296.147095,196.366577 
	C296.775208,195.852631 297.523529,195.485535 298.552673,195.000763 
	C299.126862,194.980057 299.364349,195.008682 299.957458,195.085983 
	C289.076355,206.185898 275.391815,211.696671 259.427673,212.629395 
	C259.003326,211.835495 259.004089,211.422012 259.004883,211.008545 
z"/>
<path fill="#303030" opacity="1.000000" stroke="none" 
	d="
M258.537598,211.005005 
	C259.004089,211.422012 259.003326,211.835495 259.004486,212.559113 
	C250.920685,211.986526 242.834946,211.103806 234.385971,210.077377 
	C236.008072,209.943634 237.997299,209.877136 239.978027,209.977829 
	C246.010574,210.284409 252.039810,210.655487 258.537598,211.005005 
z"/>
<path fill="#2D2D2D" opacity="1.000000" stroke="none" 
	d="
M217.003052,201.457855 
	C220.860687,203.203064 224.884338,205.243774 228.951721,207.629089 
	C225.053299,205.900253 221.111176,203.826797 217.003052,201.457855 
z"/>
<path fill="#2D2D2D" opacity="1.000000" stroke="none" 
	d="
M229.780655,208.307861 
	C230.214325,208.218216 230.915802,208.354660 231.828354,208.784393 
	C231.375778,208.896439 230.712112,208.715210 229.780655,208.307861 
z"/>
<path fill="#EFF4F7" opacity="1.000000" stroke="none" 
	d="
M405.348907,247.732788 
	C406.018677,254.426910 403.425751,256.391998 395.448029,255.448105 
	C395.448029,252.252731 395.448029,249.010376 395.448029,245.400116 
	C398.850861,245.028488 402.415192,243.746460 405.348907,247.732788 
z"/>
<path fill="#58A950" opacity="1.000000" stroke="none" 
	d="
M104.802376,186.303879 
	C93.121384,178.055405 85.423943,166.895370 83.160149,152.886658 
	C79.688248,131.402039 85.607185,112.430672 100.891342,96.637917 
	C101.933815,95.560760 103.076965,94.579865 104.101677,93.487053 
	C105.006424,92.522156 105.811035,91.463379 107.016426,90.018715 
	C107.721443,91.215721 108.335983,92.259117 108.629761,93.710747 
	C107.932243,94.601219 107.220810,95.087936 107.227196,95.565048 
	C107.442917,111.675034 107.805595,127.783279 107.973885,143.893600 
	C108.089752,154.985886 107.949959,166.080841 107.649567,177.391815 
	C106.517265,180.507309 105.659821,183.405594 104.802376,186.303879 
z"/>
<path fill="#499D4A" opacity="1.000000" stroke="none" 
	d="
M107.924431,177.174606 
	C107.949959,166.080841 108.089752,154.985886 107.973885,143.893600 
	C107.805595,127.783279 107.442917,111.675034 107.227196,95.565048 
	C107.220810,95.087936 107.932243,94.601219 108.682877,94.050201 
	C117.898087,103.120392 125.640762,112.910248 129.305359,125.441292 
	C135.606369,146.987534 131.846359,166.089935 116.008698,182.400681 
	C114.750755,183.696198 113.187706,184.695450 111.261024,185.700165 
	C109.811874,182.770172 108.868156,179.972382 107.924431,177.174606 
z"/>
<path fill="#A09E7E" opacity="1.000000" stroke="none" 
	d="
M107.649567,177.391815 
	C108.868156,179.972382 109.811874,182.770172 110.977768,185.876740 
	C110.556465,190.908646 109.913002,195.631744 109.093086,201.650009 
	C104.243919,197.185074 107.271027,191.232269 104.878807,186.689636 
	C105.659821,183.405594 106.517265,180.507309 107.649567,177.391815 
z"/>
<path fill="#5FD6F7" opacity="1.000000" stroke="none" 
	d="
M430.907898,106.413002 
	C431.495483,113.651024 431.960358,120.514626 432.501770,128.508255 
	C434.107574,129.193466 437.278168,130.183594 440.061584,131.828690 
	C443.315765,133.751999 446.673157,135.840668 449.197723,138.583084 
	C453.581818,143.345551 453.542145,148.554321 448.554871,152.619186 
	C443.493744,156.744263 437.509186,159.736420 432.051971,163.147949 
	C432.051971,168.546555 432.616730,174.527390 431.917511,180.356583 
	C430.907684,188.775131 425.223999,192.068680 417.179169,189.385345 
	C414.226593,188.400513 411.453522,186.737305 408.784271,185.083817 
	C406.270294,183.526505 404.000610,181.574738 401.670868,179.831970 
	C398.102539,182.364807 394.894806,185.060715 391.307953,187.084869 
	C386.491180,189.803055 381.192871,192.425034 375.842133,188.792480 
	C370.508789,185.171738 370.498474,179.138962 370.570190,173.460831 
	C370.613922,169.997559 371.321716,166.542679 371.799286,162.509216 
	C369.284485,161.472366 366.416931,160.630600 363.907562,159.172455 
	C360.485260,157.183823 356.982788,155.094574 354.149841,152.384521 
	C349.540222,147.974869 349.309845,142.473557 354.167694,138.389893 
	C359.285156,134.088028 365.358398,130.923187 370.991150,127.276367 
	C370.991150,122.026474 370.425934,116.043671 371.124481,110.212273 
	C372.154724,101.612152 378.095703,98.249641 386.229736,101.281380 
	C389.611603,102.541878 393.191010,104.150093 395.733826,106.587791 
	C400.048889,110.724487 403.241333,110.254318 407.403137,106.417709 
	C410.006500,104.017822 413.528839,102.389023 416.900391,101.096733 
	C423.304138,98.642250 426.856995,100.100395 430.907898,106.413002 
M384.176208,142.658966 
	C383.968231,143.901703 383.187958,145.437149 383.648682,146.337891 
	C385.986145,150.908051 388.484528,155.419342 391.300415,159.705612 
	C392.045593,160.839951 394.063080,161.501724 395.586426,161.704834 
	C409.381958,163.544113 411.083893,162.613876 417.486725,150.305679 
	C418.022949,149.274872 418.788605,148.280365 418.997070,147.183350 
	C419.251587,145.844223 419.499939,144.171753 418.929779,143.067337 
	C416.802155,138.945862 414.464081,134.915329 411.916870,131.040009 
	C411.241211,130.012024 409.587311,129.218994 408.294495,129.066895 
	C393.237671,127.295525 391.749298,128.125381 384.749786,141.568192 
	C384.673065,141.715500 384.596344,141.862793 384.176208,142.658966 
M382.966431,185.537888 
	C388.091370,182.764099 393.216309,179.990311 398.275238,177.252243 
	C393.091919,167.941040 386.606232,163.219360 375.937683,164.456284 
	C375.937683,169.778091 375.648285,175.319839 376.046143,180.811798 
	C376.285156,184.111328 378.471436,186.214691 382.966431,185.537888 
M427.903076,115.637276 
	C427.650543,113.840599 427.532440,112.012405 427.119965,110.253235 
	C425.946350,105.247711 423.470276,103.409431 418.909424,105.389885 
	C413.930695,107.551804 409.429321,110.812950 405.082886,113.380493 
	C409.853882,123.110977 416.737091,127.008385 426.738617,126.137566 
	C427.116150,123.013130 427.508789,119.763596 427.903076,115.637276 
M426.113708,183.378723 
	C429.007477,176.975281 428.190155,170.584473 426.433441,164.391937 
	C416.310638,163.250702 409.906708,168.062988 404.852112,177.129395 
	C409.662018,179.819458 414.353210,182.820312 419.388428,185.041183 
	C421.007568,185.755341 423.533813,184.412903 426.113708,183.378723 
M388.040436,124.956657 
	C391.322144,121.633598 394.603882,118.310539 399.018311,113.840500 
	C393.119812,110.574593 388.445465,107.565063 383.421783,105.346703 
	C379.811646,103.752541 376.443817,105.341621 376.072754,109.474953 
	C375.569336,115.082527 375.947418,120.769234 375.947418,126.850319 
	C380.442322,126.123047 383.842712,125.572868 388.040436,124.956657 
M440.563110,153.180176 
	C442.121613,151.948456 443.781891,150.823914 445.216187,149.461441 
	C447.757507,147.047318 448.266510,144.140060 445.780884,141.534058 
	C441.472595,137.017151 436.048615,134.461929 430.461243,133.153870 
	C424.827820,141.482086 424.799683,149.271149 430.633148,157.551880 
	C433.630859,156.261017 436.775726,154.906799 440.563110,153.180176 
M374.047821,135.581772 
	C373.031097,134.885025 371.588806,133.354294 371.064209,133.621979 
	C366.395660,136.004303 361.657135,138.381866 357.421082,141.430374 
	C354.823425,143.299789 355.037201,146.470169 357.265656,148.911285 
	C361.521271,153.573044 366.954407,156.015533 372.884308,157.306793 
	C376.658936,150.154160 378.693665,143.410233 374.047821,135.581772 
M405.374359,168.875702 
	C405.747833,168.094818 406.121338,167.313919 406.465942,166.593369 
	C403.099243,166.593369 400.083038,166.593369 395.904449,166.593369 
	C398.145264,169.096512 399.620361,170.744308 401.367737,172.696304 
	C402.759552,171.403137 403.822540,170.415497 405.374359,168.875702 
M420.903748,160.049789 
	C422.271118,159.676697 423.638489,159.303619 425.417114,158.818314 
	C424.447052,156.176834 423.682068,154.093735 422.508667,150.898529 
	C420.360168,154.627609 418.799194,157.336960 416.765625,160.866531 
	C418.623962,160.475327 419.403809,160.311157 420.903748,160.049789 
M385.223907,158.987335 
	C383.772797,156.668640 382.321686,154.349945 380.278870,151.085739 
	C379.281158,154.373383 378.610504,156.583359 377.701630,159.578247 
	C380.857178,159.578247 383.182739,159.578247 385.223907,158.987335 
M424.092285,135.298874 
	C425.176270,130.841614 423.990448,129.972916 417.606506,130.982101 
	C419.138000,133.636932 420.581055,136.138428 422.341705,139.190491 
	C423.079468,137.687134 423.493103,136.844315 424.092285,135.298874 
M381.063751,138.269913 
	C382.491821,135.807266 383.919922,133.344604 385.999664,129.758148 
	C382.456635,130.542191 380.232727,131.034317 377.449005,131.650330 
	C378.623840,134.364960 379.514069,136.421967 381.063751,138.269913 
M403.164429,119.583084 
	C398.650543,117.257622 398.865875,121.618759 396.684937,123.689117 
	C400.207458,123.689117 402.968750,123.689117 406.410400,123.689117 
	C405.193512,122.090218 404.433258,121.091293 403.164429,119.583084 
z"/>
<path fill="#F6FAF3" opacity="1.000000" stroke="none" 
	d="
M577.192322,119.834534 
	C584.450256,122.674583 586.542786,127.703499 586.027771,134.978210 
	C585.417419,143.599518 585.712402,152.301849 585.954712,160.959564 
	C586.078064,165.366425 584.353943,168.120590 580.599304,170.213196 
	C571.870789,175.077957 563.172546,180.011383 554.646484,185.218948 
	C550.692871,187.633743 547.255798,187.580383 543.534668,185.048035 
	C540.971741,183.303802 538.247620,181.796326 535.407898,180.068924 
	C538.618103,176.857208 541.508667,176.594193 544.516968,179.155930 
	C547.663269,181.835190 550.536438,181.373627 553.945129,179.257416 
	C561.441345,174.603638 569.140442,170.266739 576.866333,165.998856 
	C579.381897,164.609238 580.327332,162.946457 580.274048,160.066223 
	C580.101624,150.738403 580.395630,141.398773 580.062805,132.079651 
	C579.990601,130.059296 578.558960,127.302765 576.892639,126.257401 
	C568.856201,121.215714 560.605469,116.492920 552.230530,112.032921 
	C550.583679,111.155884 547.654602,111.190125 545.998962,112.077126 
	C537.487488,116.636871 529.134705,121.507622 520.895081,126.545387 
	C519.526184,127.382339 518.231750,129.561234 518.191833,131.152328 
	C517.945251,140.977020 518.032776,150.811172 518.085754,160.641769 
	C518.106018,164.402435 527.700989,171.234390 530.977173,169.453232 
	C532.531616,168.608124 533.809631,165.835083 533.868652,163.894562 
	C534.192505,153.243469 534.099548,142.579712 534.156433,131.920334 
	C534.157288,131.759979 534.243042,131.600082 534.341003,131.260178 
	C538.333557,129.531082 539.907593,130.726669 539.815735,135.259216 
	C539.616638,145.086075 539.818237,154.920303 539.733276,164.750443 
	C539.653809,173.940445 533.396545,177.888580 524.918396,174.084091 
	C522.193787,172.861465 519.238098,171.649826 517.157959,169.637421 
	C515.092529,167.639175 512.807373,164.695816 512.682922,162.069122 
	C512.178894,151.428955 512.183533,140.738007 512.670044,130.096420 
	C512.791138,127.448395 514.783325,123.926109 517.003540,122.502243 
	C525.967102,116.753555 535.379089,111.707497 544.575500,106.316574 
	C547.787476,104.433708 550.743225,104.472565 553.955811,106.384872 
	C561.540833,110.899818 569.225098,115.247910 577.192322,119.834534 
z"/>
<path fill="#F8FBF5" opacity="1.000000" stroke="none" 
	d="
M543.557373,139.869629 
	C543.817322,133.890137 547.302368,130.974365 552.355896,130.310349 
	C556.240845,129.799896 560.365662,129.893265 564.213135,130.620911 
	C569.296875,131.582382 572.178467,135.038803 572.315796,140.673538 
	C569.463501,141.508133 567.437744,141.627365 565.717896,138.429169 
	C563.733521,134.739029 554.517456,133.692368 551.247314,136.456421 
	C550.472229,137.111511 549.666321,138.578873 549.900391,139.368500 
	C550.206848,140.402237 551.408264,141.658920 552.440918,141.902267 
	C556.315308,142.815247 560.287903,143.300888 564.204651,144.046707 
	C570.727600,145.288803 573.562683,147.852432 573.699768,152.491364 
	C573.848572,157.525375 570.565369,161.807541 564.486816,162.504089 
	C559.497498,163.075836 554.183533,162.715027 549.281738,161.594330 
	C544.748840,160.557983 542.307068,156.865723 542.752686,151.574738 
	C545.391724,150.900543 547.320801,150.441299 548.827637,153.722488 
	C550.896362,158.227478 562.707214,159.596237 566.209595,156.081741 
	C568.350952,153.933014 567.556946,150.894897 564.274353,150.098282 
	C560.090881,149.083069 555.753174,148.722595 551.522705,147.876099 
	C547.327148,147.036636 544.003479,145.094666 543.557373,139.869629 
z"/>
<path fill="#F6F6F6" opacity="1.000000" stroke="none" 
	d="
M232.001266,148.965927 
	C226.356445,148.965927 221.210922,148.965927 216.123840,148.965927 
	C214.841797,155.784317 217.838242,161.488663 223.830765,164.029160 
	C230.081100,166.678955 238.362228,165.423096 240.985703,160.351410 
	C243.303268,155.871109 246.331924,156.409485 250.433868,156.868423 
	C249.438034,163.335388 245.798248,167.461456 240.308105,170.080780 
	C226.302780,176.762604 211.135910,169.266129 207.827423,154.153152 
	C206.360443,147.452072 206.591202,140.920227 209.545486,134.640289 
	C213.689911,125.830437 221.829651,121.220497 231.863358,121.918716 
	C240.362274,122.510132 247.286636,128.303268 249.918976,137.463135 
	C250.911774,140.917770 251.190353,144.577652 251.933731,148.965927 
	C244.994919,148.965927 238.747742,148.965927 232.001266,148.965927 
M235.708359,130.427750 
	C225.108841,126.307724 216.064621,131.573715 215.976959,142.376190 
	C223.400208,142.376190 230.828537,142.387253 238.256775,142.366760 
	C239.717148,142.362732 241.177185,142.236816 242.853195,142.156830 
	C242.531418,137.066422 240.390854,133.418915 235.708359,130.427750 
z"/>
<path fill="#F8F8F8" opacity="1.000000" stroke="none" 
	d="
M290.446838,134.476501 
	C282.571014,145.056244 282.572632,145.055084 290.106964,155.581528 
	C293.688080,160.584854 297.266602,165.590057 300.822479,170.611313 
	C300.978485,170.831619 300.895935,171.220886 300.924347,171.529404 
	C292.297943,173.204849 291.986267,173.080109 287.256500,166.053284 
	C284.104004,161.369751 280.952728,156.685394 277.391327,151.392700 
	C274.010193,156.406921 270.461243,160.806046 267.885010,165.715607 
	C264.865173,171.470673 260.739349,173.571396 253.811935,171.573349 
	C259.944458,162.946213 266.017914,154.402145 272.187469,145.722885 
	C266.532318,137.995193 260.987305,130.418030 255.168900,122.467270 
	C261.815613,121.021881 266.602112,121.643227 269.664795,128.010956 
	C271.575562,131.983688 274.639252,135.401871 277.409576,139.391541 
	C280.493042,135.086288 283.741821,131.412064 285.988037,127.202835 
	C289.014679,121.531181 293.461121,121.215851 299.458954,122.401802 
	C296.355042,126.567078 293.512543,130.381516 290.446838,134.476501 
z"/>
<path fill="#266693" opacity="1.000000" stroke="none" 
	d="
M384.347900,142.334534 
	C384.596344,141.862793 384.673065,141.715500 384.749786,141.568192 
	C391.749298,128.125381 393.237671,127.295525 408.294495,129.066895 
	C409.587311,129.218994 411.241211,130.012024 411.916870,131.040009 
	C414.464081,134.915329 416.802155,138.945862 418.929779,143.067337 
	C419.499939,144.171753 419.251587,145.844223 418.997070,147.183350 
	C418.788605,148.280365 418.022949,149.274872 417.486725,150.305679 
	C411.083893,162.613876 409.381958,163.544113 395.586426,161.704834 
	C394.063080,161.501724 392.045593,160.839951 391.300415,159.705612 
	C388.484528,155.419342 385.986145,150.908051 383.648682,146.337891 
	C383.187958,145.437149 383.968231,143.901703 384.347900,142.334534 
M398.350464,136.384308 
	C392.188477,139.897324 390.431030,144.646912 393.353455,149.889145 
	C395.812408,154.300110 401.207306,155.895706 405.848969,153.584808 
	C409.506805,151.763718 411.708160,147.024796 410.738708,143.058502 
	C409.550079,138.195450 405.503082,135.786636 398.350464,136.384308 
z"/>
<path fill="#266593" opacity="1.000000" stroke="none" 
	d="
M382.594360,185.638245 
	C378.471436,186.214691 376.285156,184.111328 376.046143,180.811798 
	C375.648285,175.319839 375.937683,169.778091 375.937683,164.456284 
	C386.606232,163.219360 393.091919,167.941040 398.275238,177.252243 
	C393.216309,179.990311 388.091370,182.764099 382.594360,185.638245 
z"/>
<path fill="#266592" opacity="1.000000" stroke="none" 
	d="
M427.902222,116.075668 
	C427.508789,119.763596 427.116150,123.013130 426.738617,126.137566 
	C416.737091,127.008385 409.853882,123.110977 405.082886,113.380493 
	C409.429321,110.812950 413.930695,107.551804 418.909424,105.389885 
	C423.470276,103.409431 425.946350,105.247711 427.119965,110.253235 
	C427.532440,112.012405 427.650543,113.840599 427.902222,116.075668 
z"/>
<path fill="#266593" opacity="1.000000" stroke="none" 
	d="
M425.879395,183.695023 
	C423.533813,184.412903 421.007568,185.755341 419.388428,185.041183 
	C414.353210,182.820312 409.662018,179.819458 404.852112,177.129395 
	C409.906708,168.062988 416.310638,163.250702 426.433441,164.391937 
	C428.190155,170.584473 429.007477,176.975281 425.879395,183.695023 
z"/>
<path fill="#266593" opacity="1.000000" stroke="none" 
	d="
M387.641754,124.989670 
	C383.842712,125.572868 380.442322,126.123047 375.947418,126.850319 
	C375.947418,120.769234 375.569336,115.082527 376.072754,109.474953 
	C376.443817,105.341621 379.811646,103.752541 383.421783,105.346703 
	C388.445465,107.565063 393.119812,110.574593 399.018311,113.840500 
	C394.603882,118.310539 391.322144,121.633598 387.641754,124.989670 
z"/>
<path fill="#266592" opacity="1.000000" stroke="none" 
	d="
M440.241882,153.366379 
	C436.775726,154.906799 433.630859,156.261017 430.633148,157.551880 
	C424.799683,149.271149 424.827820,141.482086 430.461243,133.153870 
	C436.048615,134.461929 441.472595,137.017151 445.780884,141.534058 
	C448.266510,144.140060 447.757507,147.047318 445.216187,149.461441 
	C443.781891,150.823914 442.121613,151.948456 440.241882,153.366379 
z"/>
<path fill="#266592" opacity="1.000000" stroke="none" 
	d="
M374.156006,135.950928 
	C378.693665,143.410233 376.658936,150.154160 372.884308,157.306793 
	C366.954407,156.015533 361.521271,153.573044 357.265656,148.911285 
	C355.037201,146.470169 354.823425,143.299789 357.421082,141.430374 
	C361.657135,138.381866 366.395660,136.004303 371.064209,133.621979 
	C371.588806,133.354294 373.031097,134.885025 374.156006,135.950928 
z"/>
<path fill="#2E76A2" opacity="1.000000" stroke="none" 
	d="
M405.129944,169.151779 
	C403.822540,170.415497 402.759552,171.403137 401.367737,172.696304 
	C399.620361,170.744308 398.145264,169.096512 395.904449,166.593369 
	C400.083038,166.593369 403.099243,166.593369 406.465942,166.593369 
	C406.121338,167.313919 405.747833,168.094818 405.129944,169.151779 
z"/>
<path fill="#2C719E" opacity="1.000000" stroke="none" 
	d="
M420.543701,160.098389 
	C419.403809,160.311157 418.623962,160.475327 416.765625,160.866531 
	C418.799194,157.336960 420.360168,154.627609 422.508667,150.898529 
	C423.682068,154.093735 424.447052,156.176834 425.417114,158.818314 
	C423.638489,159.303619 422.271118,159.676697 420.543701,160.098389 
z"/>
<path fill="#296C99" opacity="1.000000" stroke="none" 
	d="
M385.366119,159.282791 
	C383.182739,159.578247 380.857178,159.578247 377.701630,159.578247 
	C378.610504,156.583359 379.281158,154.373383 380.278870,151.085739 
	C382.321686,154.349945 383.772797,156.668640 385.366119,159.282791 
z"/>
<path fill="#2B6F9B" opacity="1.000000" stroke="none" 
	d="
M423.999512,135.650177 
	C423.493103,136.844315 423.079468,137.687134 422.341705,139.190491 
	C420.581055,136.138428 419.138000,133.636932 417.606506,130.982101 
	C423.990448,129.972916 425.176270,130.841614 423.999512,135.650177 
z"/>
<path fill="#2A6E9A" opacity="1.000000" stroke="none" 
	d="
M380.734039,138.374451 
	C379.514069,136.421967 378.623840,134.364960 377.449005,131.650330 
	C380.232727,131.034317 382.456635,130.542191 385.999664,129.758148 
	C383.919922,133.344604 382.491821,135.807266 380.734039,138.374451 
z"/>
<path fill="#286996" opacity="1.000000" stroke="none" 
	d="
M403.418701,119.837723 
	C404.433258,121.091293 405.193512,122.090218 406.410400,123.689117 
	C402.968750,123.689117 400.207458,123.689117 396.684937,123.689117 
	C398.865875,121.618759 398.650543,117.257622 403.418701,119.837723 
z"/>
<path fill="#3C3C3C" opacity="1.000000" stroke="none" 
	d="
M236.035828,130.634735 
	C240.390854,133.418915 242.531418,137.066422 242.853195,142.156830 
	C241.177185,142.236816 239.717148,142.362732 238.256775,142.366760 
	C230.828537,142.387253 223.400208,142.376190 215.976959,142.376190 
	C216.064621,131.573715 225.108841,126.307724 236.035828,130.634735 
z"/>
<path fill="#5FD7F8" opacity="1.000000" stroke="none" 
	d="
M398.733582,136.262604 
	C405.503082,135.786636 409.550079,138.195450 410.738708,143.058502 
	C411.708160,147.024796 409.506805,151.763718 405.848969,153.584808 
	C401.207306,155.895706 395.812408,154.300110 393.353455,149.889145 
	C390.431030,144.646912 392.188477,139.897324 398.733582,136.262604 
z"/>
</svg>