<?xml version="1.0" encoding="UTF-8"?>
<svg version="1.1" viewBox="0 0 1296 1296" width="1280" height="1280" xmlns="http://www.w3.org/2000/svg">
<path transform="translate(662,272)" d="m0 0h14l30 2 31 4 36 8 21 6 26 9 25 11 19 9 16 8 20 11 15 9 9 6 9 5 10 7 2 1 1-6 4-11 10-5 7 1 10 2 11 7 5 4 8 14 1 3v8l-3 10v11l2 12 4 7 6 2 7 6-1 3-8-4h-3l7 4 19 9 15 9 10 9 9 14 8 19 9 31 4 20v9l-3 10-7 6-16 5-18 4-1 1v104l3 51 9 74 4 44 2 12v5h48l52 5 17 4 9 5 1 1v11l-3 10-6 10-12 6-19 5-33 5-68 6-60 4-77 5-18 2-5 3-5 5-26 12-42 16-25 9-27 8-35 8-27 4-16 2-14 1h-42l-23-2-31-4-23-4-27-7-22-7-30-11-16-7-19-10-18-10-12-6-11-2-77-5-39-2-84-8-36-5-17-3-11-6-6-5-4-7-2-11 1-8 4-5 8-3 21-4 42-4 32-2-2-15-3-19-8-38-2-7-2-16-1-4v-7l3-3 3-1 38-1-3-3-20-12-14-11-21-21-10-13-8-14-1-3v-15l2-12v-13l-4-14-7-17-2-6-4-49v-17l3-16 2-4 7 1 12 8 10 9 11 9 14 8 17 6 23 7 15 6v-2l2-1 3-6 3-4 2-9 1-25v-143l3-11 5-8 8-7 4-2 21-1 86-2 6-2 10-6 9-6 25-15 15-8 17-8 11-5 36-12 34-9 25-5 30-3zm331 142v4h2z" fill="#D7E6FB"/>
<path transform="translate(856,544)" d="m0 0h3l8 10 25 25 5 6 13 10 17 3 33 2 65 1-1-10v-10l8-1h10v106l3 51 9 74 4 44 2 12v5h48l52 5 17 4 9 5 1 1v11l-3 10-6 10-12 6-19 5-33 5-68 6-60 4-77 5-18 2-5 3-5 5-26 12-42 16-25 9-27 8-35 8-27 4-16 2-14 1h-42l-23-2-31-4-23-4-27-7-22-7-30-11-16-7-19-10-18-10-12-6-11-2-77-5-39-2-84-8-36-5-17-3-11-6-6-5-4-7-2-11 1-8 4-5 8-3 21-4 42-4 32-2-2-15-3-19-8-38-2-7-2-16-1-4v-7l4-2 1 1 6 34 5 23 3 12 3 14 4 22v12h-3l1 5 2 1 32 1h67l2-5 1-1h30l-3 7-5 3h-2v5l2 1 25 1 150 1 87 1-4-17-3-19-5-23-4-22v-10l4-28 5-25 12-42 3-13v-21l7-9 11-6 7-3 1-3v-3l12-1h12l10 3h29l1 1 2 12 6 17v30l-5 66v70l-4 40-1 5h141l-8-17-8-16v-2l5-5 3-6 2-8 3-5 1-5z" fill="#2E6CF9"/>
<path transform="translate(413,353)" d="m0 0 350 1 62 1 11 1 9 4v2l4 2 6 8 1 2v146l2 1-6-1-5-8-3-20-4-7-4-4-2-7-1-20-1-2-2 21-3 5-2 2-2 7-1 1-9 1-6 2-1 7-1 1-24 3-2 2h6l5 5-1 4-10 5-4 9-4 4h4v2h-5l-1 7-5 5-7 8-3 3-8-1-3 5 1 8 4 8 3 2 5 1 3 5-2 4-16 2 1 1h5l1 3-1 10-2 4h-4l-1-7-2-1 1-1v-9l-8-16-10-10-6-5-19-9-1-5h5l-2-57-2-10-6-12-8-6-8-2h-18l-9 2-10 6-4 8 1 8 4 8 4 3 4 1h7l9-1 7 8h13l1 1v8l-3 6v7l9 16 5 6-2 1-2 4-6 9-10 12-3 5-5-1-7-12-2-9-1-13-6-2 1 13-13 3-19 3-6 22v13l4 14v5l-10-1-8-2-79-1-20-1-1-3 103-1 1-2h-110l-26-1h-147l-17-4-13 1-1 5h-1l-2-15-1-20-6 7h-4v-2l2-1 3-6 3-4 2-9 1-25v-143l3-11 5-8 8-7 4-2 21-1z" fill="#FDFDFD"/>
<path transform="translate(651,657)" d="m0 0h4l1 5-5 4-10 4-7 5-4 6v21l-7 27-9 32-6 33-2 16v10l7 37 4 19 3 18 1 7h-87l-150-1-25-1-3-2 1-5 5-3h2l2-6h-29l-3 6h-67l-32-1-3-2v-5h3l-2-17-3-17-4-18-2-8-8-39-1-18 1-1 27-1h64l1-7h8l1-6h2l1-3h2l2-4 8-9 5-8 5-3-6-2 2-4 4-2 6-12 2-2 1-7 4 4 1 2 12 1 48 1 167 1 3-9 4-27h13l33-2v-2l6-2 3-2z" fill="#D8E6FB"/>
<path transform="translate(856,544)" d="m0 0h3l8 10 25 25 5 6 13 10 17 3 33 2 65 1-1-10v-10l8-1h10v106l3 51 9 74 4 44 1 6v8l-2 2-40 1-2 3-61-1-3-2-1-4 1-37 2-48 1-41 2-39-1-1-3 13-2 38v6l-1 4 1 4-1 1v7l-1 1v22l-1 10v41l-1 20-2 2h-3l-3-15v-2h-3l-1 11 3 5v2h-30l-6 2-5 1-1 3-9 6-8 7-3 5h-12l-6-2-5-6-4-9-6-12v-2l5-5 3-6 2-8 3-5 1-5z" fill="#080D40"/>
<path transform="translate(126,886)" d="m0 0 3 1-2 4 1 3 5 2 22 2 59 2 109 1 9 3 1 4-4 6-6 5h-2v2l10 3 19 2 23 1h19l19-1 69 1h381l83-1 18-1-15-3-14-3-9-1-9-2-10-2-1-4-16-4-12-1v-2l-5-1v-2l35-1h47l2 1 66 1 6 2h53l44-3 8-1 34-2 2-1 11-1 4-2h4l-1 10-7 14-8 5-15 5-20 4-31 4-59 5-60 4-77 5-18 2-5 3-5 5-26 12-42 16-25 9-27 8-35 8-27 4-16 2-14 1h-42l-23-2-31-4-23-4-27-7-22-7-30-11-16-7-19-10-18-10-12-6-11-2-77-5-39-2-84-8-36-5-17-3-11-6-6-5-4-7-2-11v-5l3-2h2z" fill="#2938EE"/>
<path transform="translate(662,272)" d="m0 0h14l30 2 31 4 36 8 21 6 26 9 25 11 19 9 16 8 20 11 15 9 9 6 9 5 10 7 2 1 1-6 4-11 10-5 7 1 10 2 11 7 5 4 8 14 1 3v8l-3 10v11l2 12 4 7 6 2 7 6-1 3-8-4h-3l7 4 6 3-3 1-15-6-6-5-5-12 1-11 2-12-18-6v-12l-18-3-10-3-2 18-1 6v12l3 12 4 6 6 3 10 1-2 9-4 6-23 11-10 8-6 12-3 17-3 29h-38l-21-1v-137l-3-10-6-8-3-2v-2l-4-1-5-2-11-1-62-1-348-1 4-3 10-6 9-6 25-15 15-8 17-8 11-5 36-12 34-9 25-5 30-3zm331 142v4h2z" fill="#2F46C3"/>
<path transform="translate(947,370)" d="m0 0 6 1 20 4 2 1v12l6 1 12 4 1 4-3 14 1 9 5 10 8 5 11 4 10 3 18 10 10 8 8 10 8 16 6 16 8 29 3 16v9l-3 10-7 6-16 5-19 4h-18l1 10v10h-65l-33-2-17-3-9-7-9-8-7-8-22-22-4-5v-2h-4l-1-4 3-8 4-1v-2l13-6 7-2v-1h35l1-17 2-20 3-12 6-10 10-8 23-11 3-5 3-9h-10l-8-5-4-7-2-10v-12l2-11 1-11z" fill="#E8F5FD"/>
<path transform="translate(651,657)" d="m0 0h4l1 5-5 4-10 4-7 5-4 6v21l-7 27-9 32-2 10-2 3-77-1-177-1-6 1h-9l-13 2h-38l-17-2-16-1h-15l-9 3-1 1v10l-1 3v10l-2 10-2 2-4-1-3-16-3-7-2-17v-6l1-1 27-1h64l1-7h8l1-6h2l1-3h2l2-4 8-9 5-8 5-3-6-2 2-4 4-2 6-12 2-2 1-7 4 4 1 2 12 1 48 1 167 1 3-9 4-27h13l33-2v-2l6-2 3-2z" fill="#FDFDFD"/>
<path transform="translate(166,520)" d="m0 0 7 1 12 8 10 9 11 9 14 8 17 6 23 7 13 5h6l5-6 2-3 1 23v21l-1 10v10l4 7 13 13 4 2 6-4-2 4-2 3h-2l-2 5-4 5-3 10 4 8 3 12 5 7 3 6 2 1v2l4 2-4 21-4 5-3 11-2 11-4 2h-14l-2-14-2-22-2-6v18l1 10v14h-29l-4-4-20-12-14-11-21-21-10-13-8-14-1-3v-15l2-12v-13l-4-14-7-17-2-6-4-49v-17l3-16z" fill="#3385F9"/>
<path transform="translate(412,949)" d="m0 0 22 1 56 1 94 1h155l86-1 42-1h23l-6 7-16 8-16 7-44 17-33 11-26 7-34 7-32 4-14 1h-42l-23-2-31-4-23-4-27-7-22-7-30-11-16-7-19-10-18-10-10-6z" fill="#1E33BA"/>
<path transform="translate(667,656)" d="m0 0h12l10 3h29l1 1 2 12 6 17v30l-5 66v70l-4 40-1 6h-37v-10l3-20v-32l-5-43-3-28-3-8-6 9-4 8-13 23-8 17 1 5 8 22 1 4v38l-1 13-4 2h-24l-3-7-5-29-5-23-4-22v-10l4-28 5-25 12-42 3-13v-21l7-9 11-6 7-3 1-3v-3z" fill="#14162A"/>
<path transform="translate(413,353)" d="m0 0 350 1 62 1 11 1 9 4v2l4 2 6 8 1 2v146l2 1-6-1-5-8-3-20-4-7-4-4-2-7-1-20-1-2-2 21-3 5-2 2-2 7-1 1-9 1-6 2-1 7-1 1-24 3-2 2h6l5 5-1 4-10 5-4 9-4 4h4v2h-5l-1 7-5 5-7 8-3 3-8-1-3 5 1 8 4 8 3 2 5 1 3 5-2 4-16 2 1 1h5l1 3-1 10-2 4h-4l-1-7-2-1 1-1v-9l-8-16-10-10-6-5-19-9-1-5h5l-1-34v-21h1l1 12 2-1 4-20 3-5 1-8 7-5 8-1-2-5 2-4 14-5 2-2v-3l-8-2-26-3h-12l-1-1-10-1-369-1-15-1v-2h372l66-2 21-6 3-6 3-5 3-4 5 1 4 4h6l-1-5-2-4v-10l1-8 1-1v-9l3-3 4-2v-5l3-2 13-2 3-2-16-2h-7l-3-1-19-1-101-1-295-1v-1z" fill="#E7F3FD"/>
<path transform="translate(379,775)" d="m0 0h230v13l-3 22v10l7 37 3 13v10h-225l-32-1-15-1-4-2 3-11 1-8 5-2 30-1 81-1 50-1-2-1h-160l-2-1 1-12 5-29 2-4 5 3 6 10 10 7 6 2h161l23-1 1-5 1-3 1-21-27-1h-78l-60 1h-22v-2l-5-1-1-8-4-8 1-2z" fill="#FDFDFD"/>
<path transform="translate(1032,580)" d="m0 0h10v106l3 51 9 74 4 44 1 6v8l-2 2-40 1-2 3-61-1-3-2-1-4 1-37 2-48 1-41 2-39-1-1-3 13-2 38v6l-1 4 1 4-1 1v7l-1 1v22l-1 10v41l-1 20-2 2h-3l-3-15v-2h-3l-1 11 3 5v2h-16l3-1-4-40-1-14-1-38-1-15v-12l4-26 3-9 6-10 13-12 11-9 3-5 8-24 4-10 2 2 8 24 9 30 8 36 5 35 3 16 3 21 7 36 3 16 1 6 16-1v-20l-1-37v-12l1-2v-34l-2-18v-6l-3-13-1-7-5-39-2-28v-25l4-13 2-8v-5h-2l-1-10v-10z" fill="#122790"/>
<path transform="translate(339,633)" d="m0 0h14l10 1h146l5 3 6 11 1 4h2l5 6 1 4h19l-8-2-10-1-1-2 54-1h31v1l-15 3-1 1-17 1 9 3-1 16-2 12-4 9h-167l-48-1-12-1-4-5-2 6-4 6-4 8-5 3-1 2 7 1-1 2-5 3-6 9-9 11-3 3h-2l-1 6-7 1-2 6-64 1-27 1v13h-1l-2-13-1-2 3-1 28-1 11-1v2h29l-2-24v-18l2-1 2 7 3 36 14-1 3-1 3-16 3-7 3-5 4-20-3-2v-2l-4-2-5-10-3-5-3-12-3-6 4-11 5-6 1-2h2l2-4h-1l-4 2-1-2 5-3 9-7 14-5z" fill="#6CB5FB"/>
<path transform="translate(675,287)" d="m0 0h8l7 2 11 3 24 3 15 1 2 1 13 2 10 3 9 3 1 2 10 1 7 5 14 5 4 5 6 3 7 5 7 3v2l6 2 8 5 4 4 1 11-3-1 2 3-1 3-2-1v-2l-4-1-5-2-11-1-62-1-304-1-6-1v-1l13-1-1-4h2v-2l-2-1h3l1-3 30-10 7-4 12-4 9-1 5-3h7l5-6 6-3 8-3 8-1 2-2h15v-2h3v-2l9-1h8l8-3 18-2 1-1 18-1h3v-2l20-2z" fill="#374ED5"/>
<path transform="translate(336,528)" d="m0 0h157l90 1 2 1 2 49v8h-40l-64-2-148-1-7-2-2-1-1-10v-26l2-9 5-5z" fill="#BBF7FE"/>
<path transform="translate(856,544)" d="m0 0h3l8 10 25 25 5 6 13 10 10 2v1l-9 1-3 1-3 24-4 40-2 5-3 29v56l2 21 3 33 5 37 3 22 1 2 10 1v1l-13 1-6 2-5 1-1 3-9 6-8 7-3 5h-12l-6-2-5-6-4-9-6-12v-2l5-5 3-6 2-8 3-5 1-5z" fill="#132891"/>
<path transform="translate(656,457)" d="m0 0h18l10 3 7 6 6 12 2 10 1 23v34l-4 1v4l5 1 15 8 13 12 6 8 5 11v9l-10 7-18 6h-3l-4 27-13 1h-47l-8-1 3 7-1 5-15 2h-6l-2-9-9-10-7-10-1-4-56-1h-26l5 2 24 2v1l-15 1-13 3-8 1-6-7-6-11v-3h101l18 4-4-17-1-2v-13l4-14 3-9 25-4 7-1-1-13 6 1 1 1 2 18 3 8 3 5 2 3 4 1 2-5 11-13 9-13-8-11-6-11v-7l3-6v-8h-13l-7-8-16 1-7-3-5-7-2-7 1-7 5-7 11-6z" fill="#3384F8"/>
<path transform="translate(955,701)" d="m0 0 2 3-2 43-2 64-2 49v12l3 1 61 1 2-3 40-1 3-3v5h48l52 5 17 4 9 5 1 1v6l-8 3-11 1-2 1-34 2-33 3-19 1h-53l-6-2-66-1-2-1h-82l1 2 4 1v2h12l12 3 4 2 1 4 13 1 6 2 9 1 18 4 16 3v1l-23 1-83 1h-98v-1l56-1-8-1-8-3-11-4-1-2 1-4-6-2-5-5 1-3 27-1h49l-3-7-1-4 4 4 5 1h12l4-6 9-8 5-3h2l1-4 5-1 6-2h29l-2-5-1-3 2-9h3l3 13v4l4-2 1-25v-41l1-6v-22h2l-1-7 1-3-1-5 1-1 1-26 1-18 3-13z" fill="#335BFD"/>
<path transform="translate(966,476)" d="m0 0h27l15 3 6 3 6 7 5 9 6 20 1 4v23l1 9 1 4-10 2-21 2h-15l-13-1 10 14 4 5 6 2v-2h29l1 11v10h-65l-33-2-17-3-1-3 7 2-1-3 4-1 1-14-4-6-3-7-9-6-7-1h-5l-1-2 3-5 9-9 11-8 3-3h2l2-4 4-2h6l6 2-3-7-1-6v-26l2-2 7-3 18-5z" fill="#63ABFA"/>
<path transform="translate(287,594)" d="m0 0 2 3 7-2h7l17 4h147l26 1h110v3l-1 1-102 1v2h20v1h-22l7 14 5 6 12-2 9-2 4-1-13-1-5-2-9-1v-1h35l53 1 3 1 8 13 8 8 3 6v6l6-1h8v1l-5 1h-18l-7-2-2-6-6-1-1 3-4-1-1-4-4-2v-2l-12-1h-10l5 2v1h7l2 1h9l3 2-1 6h-14l19 2v1l7 1v1l-16 1v1l-53 1 13 2 23 1v1l-18 1h-19l-3-6-3-3v-2h-2l-4-8-5-8-3-1h-146l-10-1h-14l-12 3-9 4-10 8h-5l-10-10-5-6-3-5v-10z" fill="#DAE8FC"/>
<path transform="translate(126,886)" d="m0 0 3 1-2 4 1 3 5 2 22 2 59 2 109 1 9 3 1 4-4 6-6 5h-2v2l10 3 19 2 23 1h19l19-1 308 3v1l-40 1-128 1-17 1-49 1-42 4-12 2-8 2h-5l1 6 173 3h233v1l-86 1h-155l-96-1-54-1-22-1-6 1-11-2-77-5-39-2-84-8-36-5-17-3-11-6-6-5-4-7-2-11v-5l3-2h2z" fill="#2837EA"/>
<path transform="translate(960,346)" d="m0 0 7 1 10 2 11 7 5 4 8 14 1 3v8l-3 10v11l2 12 4 7 6 2 7 6-1 3-8-4h-3l7 4 6 3-3 1-15-6-6-5-5-12 1-11 2-12-18-6v-12l-18-3-10-3-2 18-1 6v12l3 12 4 6 6 3 10 1-2 9-4 6-23 11-10 8-6 12-3 17-3 29h-38l-10-1-1-1-1-41 1-26 2-34 6-9 12-5h6l2 1h18l7-2 10-1 6-2 1-5 2-5-1-12-2-5-5-8 1-2 5 1 8 5 1-6 4-11zm33 68v4h2z" fill="#0F2480"/>
<path transform="translate(344,842)" d="m0 0h1l-1 13-5 19-1 6h278l1-4 3 18 1 7h-87l-150-1-25-1-3-2 1-5 5-3h2l2-6h-29l-3 6h-67l-32-1-3-2v-5h3l-2-17-1-8 2 4 4-2 4-10 3-2 6-2 2-1h10l8 1 3-1h47l10 2 9-1z" fill="#B0D1F7"/>
<path transform="translate(166,520)" d="m0 0 7 1 12 8 9 8-2 7 4 5 4 7 2 2 4 12 4 9 8 15 11 18 9 12 9 13v2h2l4 5 5 11-2 2-2-1v-2l-4-1-11-8-1-4-3-1v-2l-4-1-2-6-4-2-7-2 1 4 3 5 8 8 8 7 3 5v6l-2 1-1 6h2l-1 7-5 5v3l2 3-1 6-3 5-3 7-5 10-2 9h-2v3h-2l-1 7-7-6-15-15-10-13-8-14-1-3v-15l2-12v-13l-4-14-7-17-2-6-4-49v-17l3-16z" fill="#34A3FE"/>
<path transform="translate(663,318)" d="m0 0 5 1 13 2 2-1h7l3 1 4-2h11l6 1h6l2 1 11 1 8 3 7-1 5 3 13 2h8l8 3 15 3 12 4 5 5 3 2 2 7 13 2v1l-69-1-288-1v-1l8-1h14v-2l-1-3h7l2-5 9-3 11-1 16-1 7-2 14-1 11-1 10-2 7-1v2l7-4 6-2 17-1 12-3h14l5-2h12z" fill="#3F55DF"/>
<path transform="translate(667,930)" d="m0 0h89l68 2 26 1 1 2-1 2 3 1-1 1-1 7-6 1-18 1-11 1-20 2-61 1h-143l-126-2-42-1-5-1-1-6 13-3 20-3 39-3 44-1 27-1z" fill="#2B54FB"/>
<path transform="translate(663,692)" d="m0 0h49l1 2-2 35-1 10-1 52v34l4 8 1 1 1 8-1 2v24l2 16v16h-35v-16l2-13v-32l-5-43-3-28-3-8-1-4-3-5-3-9-10-22-8-14-7-2 4-5 1-5 3-1z" fill="#14162A"/>
<path transform="translate(966,677)" d="m0 0 5 1 6 17 1 5 2 26v16l-2 5h-2l-1 7-6 5-4 2 4 3v2h-2l-1 3-4 1-2-4h-2l1-10h-2l-1 12v45l-2 19-2 40-2-4 1-37 2-48 1-41 2-39-1-1-3 13-2 38v6l-1 4 1 4-1 1v7l-1 1v22l-1 10v41l-1 20-2 2h-3l-3-15v-2h-3l-1 11 3 5v2h-16l3-1-4-40-1-14-1-38-1-15v-12l4-26 3-9 6-10 13-12 11-9 6-6 5-2z" fill="#142DA5"/>
<path transform="translate(719,565)" d="m0 0 5 1 8 8 8 16v9l-10 7-18 6h-3l-4 27-13 1h-47l-8-1 3 7-1 5-15 2h-6l-2-9-9-10-7-10-1-4-56-1h-26l5 2 24 2v1l-15 1-13 3-8 1-6-7-6-11v-3h101l16 4 9 11-2-6 8-2 5-1 15-4 16-2 11-5 5-3 6-7h4l2-5 8-10h4l1-5 1-3 4-2 6-1z" fill="#2E6BF9"/>
<path transform="translate(462,636)" d="m0 0h28v2l-7 2-24 3-15 2-8 3 1 4 7 3 1-1 13 1 12 2 1 2 9 1v-2l-6-2-2-2v-7l2-2 19-2 5-2h10l5 10 4 6 2 2 5 2 3 7 7 5v5l-2 4v2l4-2 40-1v9l-1 1h-18l-21-1-1 4-5 3-7-1-7-2v3l-9 1h-9l-11-1h-33l-7-2v-2h-19v2h-2l-1-2-7 1-12-1-1 1h-6l-4-2-6-1-23-1-2-4 3-4 25 1 3 1 1 4 1-2h11l5-2h21l3-3v-2l8-2 5-4 7-1h21v-3l-3-1-30 1-1-1-12-1-3-2v-5l-2 1-1 5h-36l-5-1-4 1-9-2-1-3 3-4h5l5 3 1-1 36-1-6-1-3-3-12-3-1-5 4-2 9-2 3 1v-2l27-2h7z" fill="#7CBCFB"/>
<path transform="translate(1017,488)" d="m0 0 3 1 5 9 6 20 1 4v23l1 9 1 4-10 2-21 2h-15l-13-1 10 14 4 5 6 2v-2h29l1 11v10h-65l-33-2 2-2-6-4 1-5v-11h2l2-2 5-4 5-8 2-4 2-1 3-5 4-4 1-4h2l2-7 4 2 4 5 5 5 6 7h30l6-2v-14h-2v-2l-27-1-15-1-6-2 2-5 2-2h3l1-3h8l19-6 6-4 6-5 3-3 4-2 3-7z" fill="#5FA1F8"/>
<path transform="translate(667,656)" d="m0 0h12l10 3h29l1 1 2 12 6 17v30l-5 66v70l-4 40-1 6h-37v-10h1v9h35l-2-24-1-8v-24l1-3-1-7-4-6-1-3v-34l1-52 2-24 1-22h-49l-18 1-1 7-4 3-6 2h-5v-25l7-9 11-6 7-3 1-3v-3z" fill="#0D1F72"/>
<path transform="translate(1032,580)" d="m0 0h10v106l3 51 9 74 4 44 1 6v8l-2 2-40 1-2 3-61-1-1-2h60l2 1-2-15v-5l2 2 3 14 16-1v-20l-1-37v-12l1-2v-34l-2-18v-6l-3-13-1-7-5-39-2-28v-25l4-13 2-8v-5h-2l-1-10v-10z" fill="#1F34BA"/>
<path transform="translate(476,602)" d="m0 0 19 1 4 8 6 11 3 4-1 7-24 1h-114l-2-1h-12l-11-1-3-3-3-9-5-5-1-3v-7l5-2z" fill="#FDFDFD"/>
<path transform="translate(339,633)" d="m0 0h14l15 2-2 8-10 30-3 10v8l1 5-2-1-2 6-4 6-4 8-5 3-1 2 7 1-1 2-5 3-6 9-9 11-3 3h-2l-1 6-7 1-2 6-64 1-27 1v13h-1l-2-13-1-2 3-1 28-1 11-1v2h29l-2-24v-18l2-1 2 7 3 36 14-1 3-1 3-16 3-7 3-5 4-20-3-2v-2l-4-2-5-10-3-5-3-12-3-6 4-11 5-6 1-2h2l2-4h-1l-4 2-1-2 5-3 9-7 14-5z" fill="#7FC3FB"/>
<path transform="translate(166,520)" d="m0 0 7 1 2 2v4l3 5 5 3 8 14 1 8-1 5-4 1-1 3 1 4 2 20 4 11 7 19 4 8 6 7 3 2 2 7-2 5v8l-4 14-2 9-4 10-3 4-3 7 1 8-4 2-6-7-10-16-2-5v-15l2-12v-13l-4-14-7-17-2-6-4-49v-17l3-16z" fill="#45B3FD"/>
<path transform="translate(211,763)" d="m0 0 3 1 6 34 5 23 3 12 3 14 4 22v12h-3l1 5 2 1 32 1h67l2-5 1-1h30l-3 7-5 3h-2v5l7 2v1l-81 1h-69l-59-2-22-2-6-3-1-4 3-3h-3l-2 4h-4l2-5 4-3 12-3 15-3 42-4 32-2-2-15-3-19-8-38-2-7-2-16-1-4v-7z" fill="#335BFD"/>
<path transform="translate(960,346)" d="m0 0 7 1 10 2 11 7 5 4 8 14 1 3v8l-3 10v11l2 12 4 7 6 2 7 6-1 3-8-4h-3l7 4 6 3-3 1-15-6-6-5-5-12 1-11 2-12-18-6v-12l-18-3-10-3-2 18-1 6v15l-2 2 1 10 5 12 1 1v5h-7l-1 1h-10l-10-6-4-3-8 1-13 1-5-2-9 2-3 1v2l-4 4-2 5-2 14-1 27 1 14v17l7 1v1h-10l-1-1-1-41 1-26 2-34 6-9 12-5h6l2 1h18l7-2 10-1 6-2 1-5 2-5-1-12-2-5-5-8 1-2 5 1 8 5 1-6 4-11zm33 68v4h2z" fill="#132891"/>
<path transform="translate(126,886)" d="m0 0 3 1-2 4 1 3 5 2 22 2 27 1 9 1 21 1 52 1v3l-5 6h-4l1 3-6 3 1 5 6 1 10 2 3 3 7 3 3 5-3 5h-9l-82-8-40-6-10-4-9-6-6-9-2-11v-5l3-2h2z" fill="#272DDE"/>
<path transform="translate(1059,867)" d="m0 0h1v5h48l52 5 17 4 9 5 1 1v6l-8 3-11 1-2 1-34 2-33 3-19 1h-53l-6-2-4-18-1-12 1-1 40-1z" fill="#4866EF"/>
<path transform="translate(409,797)" d="m0 0h158l1 1-1 23-3 4-3 1-44 1h-88l-3-3-5-10-8-11-4-4z" fill="#80C4FB"/>
<path transform="translate(585,550)" d="m0 0h1l1 37h-40l-64-2-148-1-7-2-2-1-1-10v-19h1l1 18 2 9 9 1 5-5 17-6 2-1 12-1 51-1 13-2h18l25 1h20l3 1h14l3-1h10l23 3 11-1 7-1 8 13-1 5h5z" fill="#C9F8FD"/>
<path transform="translate(672,759)" d="m0 0 2 2 3 13 4 41 3 24v32l-4 29-1 1h-27l-1-1v-16l-1-36-8-24-2-4 1-5 8-17 9-16 6-11 6-10z" fill="#EAF6FD"/>
<path transform="translate(351,693)" d="m0 0 4 4 1 2 12 1 48 1 157 1v1h-158l-47-1v7l5 5 3 4v2l212 1 3 3 2 4v12l-2-4-1-11h-198l-12 1-6 3-3 4-1 4 3 7 216 2-1 2-11 1h-209l-6 2-7 6 1 7h-45l-5-1 2-8h8l1-6h2l1-3h2l2-4 8-9 5-8 5-3-6-2 2-4 4-2 6-12 2-2z" fill="#D5E4FB"/>
<path transform="translate(736,601)" d="m0 0h4l4 20v10l-3 13-7 11-9 6-5 1v-2h-31l-10-3h-12l-16 1-7 2v1l-6 1 5 1v1l-20 2-30 1-8-3-9-1v-1l5-1 17-1 9-3-30-1v-1l10-1v-1l-8-1-28-1v-1l22-1h13l2-5-5-1h-7l-4-1h-6l-4-3-6-1v-1h16l12 2v2l5 2 1 4 3 1v-5l1 2 6 1v2l2 1v2l7 2h18l12-3-1-6-1-5h68v-9l3-16 1-2 21-7z" fill="#ECA7A8"/>
<path transform="translate(1183,893)" d="m0 0h4l-1 10-7 14-8 5-15 5-20 4-31 4-24 2h-24l1-2-5-1v-2l-6 1-5-1h-10l3-1 1-2 15-3 25-2 9-2 1-1 7-1-1-3-13-1-10-1-9-1-6 1-19-4-6-3v-2l-2-1 18-1 35-1 44-3 8-1 34-2 2-1 11-1z" fill="#272DDE"/>
<path transform="translate(1076,520)" d="m0 0h5l5 21 1 6v9l-3 10-7 6-16 5-19 4h-18l-29-1v2l-6-1-9-11-5-7v-2l4-1 9 1h15l31-3-2-4-1-9v-13l2-2 5 2h11l13-5z" fill="#F3B6B6"/>
<path transform="translate(285,564)" d="m0 0h1l1 23v21l-1 10v10l4 7 13 13 4 2 6-4-2 4-2 3h-2l-2 5-4 5-6 9-10 13h-2v7l-2 2-9-23v-3h-2v-3h-2l-7-11-8-11-8-12-6-8v-7l1-1 13 1 4-6 5-2 1-3-2-5 2-2 4 3h3l1-3-2-8-3-1 3-9-6-5v-3l5 1h2 9l5-6z" fill="#257AF8"/>
<path transform="translate(364,899)" d="m0 0h20l60 1 26 2h5l1 3-5 2-10 1h-8l-5 2-12 3 4 3 3 4-4 4v1l122 2v1h-81l-76-1-15 1h-19l-20-1-13-1-13-3-3-2v-2l9-7 2-6-1-2-8-2-40-1v-1z" fill="#335BFC"/>
<path transform="translate(876,330)" d="m0 0 11 3 13 7 15 9 9 6 9 5v3 2l5 9 1 3 1 13-4 9-6 3-10 1-7 2h-18l-2-1h-6l-13 6-4 7-2 34-1 34v33h-4l1-13v-38l1-28v-29l1-21 2-4 8-4 4-1 1-2h2l2-4 5-2 3-1 5-13h2v-5l-3-3v-3l-5-3-9-5-2-1v-2h-2v-3h-2z" fill="#2039A2"/>
<path transform="translate(235,877)" d="m0 0h1l1 9h91l6-1 2-4h62l23 1 2 3 5 2 3 3 5 2 1 2 5 1 20 1v-2l3-1-1-2 13-3h8l5-2h10l3-1 8 1 5-2 16-1h9l18 3 9 6 28 4 3 1 17 1 5 1v2h-87l-150-1-25-1-3-2 1-5 5-3h2l2-6h-29l-3 6h-67l-32-1-3-2v-5h3z" fill="#B0D1F7"/>
<path transform="translate(656,457)" d="m0 0h18l10 3 7 6 6 12 2 10 1 23v34l-4 1-2 5h-2l-2 4-10 12-3 5-4 5-3 1 2-5 10-13 6-8 5-7-8-11-6-11v-7l3-6v-8h-13l-7-8-16 1-7-3-5-7-2-7 1-7 5-7 11-6z" fill="#0D1239"/>
<path transform="translate(955,685)" d="m0 0h1l-1 10-7 31-2 6-2 21-1 25-1 13-1 3-2 16-2 1-2-15-2-14h-1l-1 17-1 2-1 32 1 21 2 18h-11l3-1-4-40-1-14-1-38-1-15v-12l4-26 3-9 6-10 13-12 11-9z" fill="#0B1D8C"/>
<path transform="translate(947,370)" d="m0 0 6 1 20 4 2 1v12l6 1 12 4 1 4-3 14 1 9 5 10 7 5-6 8-6 5-7 3h-17l-5-3-1-7 5-13h-10l-8-5-4-7-2-10v-12l2-11 1-11z" fill="#F2B7B7"/>
<path transform="translate(955,701)" d="m0 0 2 3-2 43-2 64-2 49v12l3 1 62 1 5 27-9 1-57-1-2-1-16-2v-3l9-1 5-3-4-1-1-9-6-4-6-3-8-1v-1l10-1-2-5-1-3 2-9h3l3 13v4l4-2 1-25v-41l1-6v-22h2l-1-7 1-3-1-5 1-1 1-26 1-18 3-13z" fill="#364DD4"/>
<path transform="translate(619,956)" d="m0 0h54l14 1 5 2 4 1h11l12 3 7 6-1 2-7 1-2-1v2l-9 2-9-1-1-2-4 2 1-3-12 4-2 5h-7l-1 1h-21l-7-1-7 1h9l-2 2h-9l-4-2 2-1-6-3v-2h-10l-5 4h-12l-8 1-15-7-3-1v3h-2v-2l-8 1-2-4 3-1-1-1h-6l3-2 7-3 12-2 2 1v-2l16-3z" fill="#1F2ECC"/>
<path transform="translate(336,528)" d="m0 0h157l90 1 2 1v45l-2-2-2-33-4-2h-45l-51 1h-96l-14-1-29 2-9 2-1 2-1 34-3 1-2-9-1-25 2-9 5-5z" fill="#ACEBFD"/>
<path transform="translate(909,605)" d="m0 0 5 1v18l-1 9 1 24-3 17-2 16-2 9-1 14h8l9-1-4 16-4 15h-2l-1 5-4 2-1 3-1 12v11l2 10 6 7 2 6v25l-1 8 1 7-2 3-4-1-2-3v-5l1-4-3-8-1-3h-2l-3-24-2-25-1-2-1-51v-30l2-17 2-5 4-40 1-6h2v-8z" fill="#0C1136"/>
<path transform="translate(916,512)" d="m0 0h1v9l12 2-4 2-5 3-5 5-10 8-8 7-4 4-1 4h7l7 2 9 7 4 9 2 3v7l-2 7-3 2v2l-6-1h-3l-14-12-9-10-21-21-4-5v-2h-4l-1-4 3-8 4-1v-2l13-6 7-2v-1h35z" fill="#91C6FA"/>
<path transform="translate(347,825)" d="m0 0h1v13l-2 12h162l18 1v1l-16 1-55 1-76 1-30 1-4 1-2 12-2 7 3 1 15 1 32 1v1h-53l1-10 4-15 1-12-7 3-12-1-4-1h-47l-7 1-4-1h-10l-3 2-8 2-3 10-5 2-3-9 1-3h2l4-14 4-4 10-2h26l9-2h45l6 1 8-1z" fill="#CAE0FA"/>
<path transform="translate(640,493)" d="m0 0 13 1 9-1 7 8h13l1 1v8l-3 6v7l9 16 5 6-2 1-2 4-6 9-10 12-3 5-5-1-7-12-2-9-1-13-8-4-2-3-2-6-6-8-1-12 2-13z" fill="#EBA8A9"/>
<path transform="translate(350,457)" d="m0 0h63l7 2 3 4 1 4v10h-2l-1 4-5 3h-87l-5-3-1-2v-13l3-6 3-2z" fill="#C9F9FE"/>
<path transform="translate(319,639)" d="m0 0h5l6 11 7 12 3 10 1 17-1 16-4 2-2 5-2 2-3 9-12 13-5 4-1 2-2-1 2-5 3-5 4-20-3-2v-2l-4-2-5-10-3-5-3-12-3-6 4-11 5-6 1-2h2l2-4h-1l-4 2-1-2 5-3z" fill="#67C1FD"/>
<path transform="translate(966,476)" d="m0 0h27l15 3 6 3 5 5-1 2-2 1-2-3-2 4h-2l-2 5-7 4-8 3-15 7-14 4-10 2-7 4-9-5-1-1v-5h-2v10h-1l-1-6v-26l2-2 7-3 18-5z" fill="#68C2FD"/>
<path transform="translate(368,748)" d="m0 0h59v1l-46 1-5 3-1 7-2 9 1 1 34 1v1h-52l-6 1h-9l-13 2h-38l-17-2-16-1h-15l-9 3-1 1v10l-1 3v10l-2 10-2 2-4-1-3-16-3-7-2-17v-6l1-1 27-1h63l5 1h44l-1-6 9-8z" fill="#EAF6FD"/>
<path transform="translate(907,871)" d="m0 0h14l13 2 9 5 4 3v9l4 1-1 2-4 2h-9v3h6v1l-37 1h-35l1 2 4 1v2h12l12 3 4 2 1 4 13 1 6 2 9 1 18 4 16 3v1l-23 1h-16v-1l6-1-8-2h-12l-14-3-1-1-9-2-3-3-9-3-6-4-9-3-1-4-5-3-3-5 1-2 3 4 5 1h12l4-6 9-8 5-3h2l1-4 5-1z" fill="#2C55FC"/>
<path transform="translate(627,710)" d="m0 0 2 3 5-1 1 3-7 25-3 11-6 29-3 13-1 27 3 27 3 12 3 19v9l-1 8v2h2v2h22l1-15-1-19-3-8-3-3-4-7-4-4-3-8 1-13 4-13 8-10 6-8h2l1-4 4-7h3l-2 6-12 22-4 9 1 5 8 22 1 4v38l-1 13-4 2h-24l-3-7-5-29-5-23-4-22v-10l4-28 5-25 12-42z" fill="#0C164E"/>
<path transform="translate(721,855)" d="m0 0h1v25l5 1-3 1v6l4 6 4 1 5 2 7 1v-2l-3-1h6v-2l-2-1 1-1-9-2h-5l4-2 1-1h7l4 1 1-3 4-1 9-1 5-1 30-1 48-1 2 1 1-2 3 5 7 14v3h-141l1-14z" fill="#B9D0F7"/>
<path transform="translate(998,794)" d="m0 0 2 1 5 22 5 25 2 8 2 14v7h-10l-1-1-17 1h-19l-6-3-1-7-1-4 1-9 3-4 3-6h2l2-4 12-6 4-6 5-6 4-4 1-7 1-4z" fill="#0F2480"/>
<path transform="translate(856,544)" d="m0 0h3l4 6 2 32 1 76v72l-1 46v36l-1 3v17l-3 6h-2l-5 8v-3l2-7z" fill="#2F46C3"/>
<path transform="translate(337,882)" d="m0 0h30l-3 7-5 3h-2v5l7 2v1l-81 1h-69l-59-2-10-1v-2l-2-1 5-1h34l4-2h6l6 1h12l3 1h9l3-5 5-1 2-3 3 2 32 1h67l2-5z" fill="#4765EE"/>
<path transform="translate(880,569)" d="m0 0 4 2 8 8 5 6 13 10 10 2v1l-9 1-3 1-3 24-4 40-2 5-3 29v56l2 21 3 33 5 37 3 22 1 2 10 1v1l-13 1-6 2-5 1-1 3-9 6-7 6h-3l-1-5 6-9h2l1-8-9-2-5-5-5-3v-2l-3-1 9-8 17-6 11-4h2l-1-13-4-14-1-8-1-1-1-24-1-11-1-9v-12l-1-8 3-35 3-31 2-13 4-29 3-23v-6-2l-8-2-4-4v-3h-2v-2l-4-2v-3h-2l-2-5h-2l-2-7z" fill="#0F2480"/>
<path transform="translate(961,442)" d="m0 0 2 4 2 3 5 2 12 1-3 1v5l-5 1 1 3 12 6-3 3-4 2-18 1-2 4-18 5-8 4v26l2 7 1 6-6-1-14-4v-18l2-20 3-12 6-10 10-8z" fill="#FBFCFD"/>
<path transform="translate(463,795)" d="m0 0h78l27 1 1 1-1 21h-1v-20l-158-1 9 11 6 9 3 9h90l44-1 4-1v2l-2 1-21 1h-161l-8-3-9-7-7-12 3-9 21-1h26z" fill="#B5EBFC"/>
<path transform="translate(337,874)" d="m0 0h1v6h278l1-4 3 18 1 5-22-1-15-3-16-2-9-6-19-3h-16l-11 2-3 1-8-1-5 1h-7l-6 2h-7l-12 3 3 2h-6v2h-20l-6-2v-2l-5-1-3-2v-2l-6-2-2-2-22-1h-63v-2h2z" fill="#BCD1F6"/>
<path transform="translate(861,927)" d="m0 0h64v1l-53 1 3 1 34 3 5 3-1 4h-2v2h3l-1 2 1 1h41v1l-46 3-19 2h-94v-1l24-2 7-1 24-1v-7l1-1-2-1v-3l-54-2-54-1h-58v-1l-100-1v-1z" fill="#2845F5"/>
<path transform="translate(906,899)" d="m0 0h47l2 1 49 1v1l-29 1-2 4-1 4 11 1 17 4 7 3 6 2 1 3-2 1-24 2h-44v-1l18-1-15-3-14-3-9-1-9-2-10-2-1-4-16-4-12-1v-2l-5-1v-2z" fill="#2947F7"/>
<path transform="translate(1017,488)" d="m0 0 3 1 5 9 6 20 1 4v23l1 9 1 4-10 2-17 1 1-2 3-1-1-18-45-3-6-2 2-5 2-2h3l1-3h8l19-6 6-4 6-5 3-3 4-2 3-7z" fill="#34A3FE"/>
<path transform="translate(247,693)" d="m0 0 6 2 9 7v2l5 2 12 8 1 1v22h2l1 10v14h-29l-4-4-18-11v-3h-2l1-6 5 1 5-1 1-7 3-3 3-1 4-9 3-7 1-6-1-3-3-1-5-5z" fill="#257BF8"/>
<path transform="translate(367,636)" d="m0 0h95l-2 2-11 2h-11l-21 2-2-1v2l-6 1-9 2v5l12 2 3 2v2l9 1v1h-39l-1 3v-2l-4-1-1-1h-5l-2 5 7 2 1 2-2 4-7 4h-3l-2 7h-2l-1 10h23l6 2 1 5-6 1h-31l-4-9v-8l4-13 3-10 4-9z" fill="#62ABFA"/>
<path transform="translate(663,692)" d="m0 0h45v1l-18 2-2 15-4 13-2 11-1 24-2 6v9l1 10v24h-1l-3-33-3-13-2-1-1-6-3-7-4-10-7-15-9-16-7-2 4-5 1-5 3-1z" fill="#080D41"/>
<path transform="translate(1063,482)" d="m0 0 3 1 4 7 2 1 7 21 1 8-10 4-12 6-9 3h-11l-6-3-3-16-3-9 1-3h2l2-6 4-4 8-3 1-1 9-2z" fill="#80C4FB"/>
<path transform="translate(427,660)" d="m0 0h2v5l3 1 12 1 4 1 28-1 3 3-1 2-3 1h-20l-6 2-6 4h-6l1 3-4 3h-23l-3 2h-7l-4-1-1 3-2-1 1-4-28-1-2 5 1 1 23 1 8 2 2 1h6l4-1 12 2 2 1 1 4-1 1h-34l3-2-2-2h2v-2h-5l-1-1h-20l-3-1-1-6 2-4 2-1 2-6 7-3 3-2 1-5h5l4-1 2 1 36 1v-5z" fill="#63A7F9"/>
<path transform="translate(1032,580)" d="m0 0h10l-1 30-4 5v4h-2v2l-6-1-3 3-1 4v9l-1 9 2 26 4 26 3 15v14h2l2 8v7l2 3-1 22 1 8 1 10v35l1 8 1 19-1 3v20l-1 1h-16v-1l10-1v-20l-1-37v-12l1-2v-34l-2-18v-6l-3-13-1-7-5-39-2-28v-25l4-13 2-8v-5h-2l-1-10v-10z" fill="#132891"/>
<path transform="translate(947,600)" d="m0 0 80 1 1 5-2 8-4 13v25l2 28 5 39 2 13 2 8v9l2 14v34l-1 4v18l1 41v8l-1 1-16 1-2-7v-5l2 3 3 3 5-2 2-7 1-17v-27l-2-43-3-21-2-46-4-40-2-17-4-2-2-4-3-1 3-6 3-11 3-5 3-2 1-3h2l2-8h-74z" fill="#0C164E"/>
<path transform="translate(957,685)" d="m0 0 2 2-2 36h-1v-20l-1-1-3 13-2 38v6l-1 4 1 4-1 1v7l-1 1v22l-1 10v41l-1 20-2 2h-3l-3-15v-2h-3l-1 11 3 5v2h-5l-3-16v-10l-1-14 1-31 1-2 1-17h3l2 14 1 11 1 3 2-16 1-7 1-16 2-31 2-11 6-25 4-16z" fill="#1E33BA"/>
<path transform="translate(551,931)" d="m0 0h51v1l-35 1h-26v2l-13 8-7 1v2l3 1-1 3h-57l-42-1-5-1-1-6 13-3 20-3 39-3 44-1z" fill="#2946F7"/>
<path transform="translate(501,634)" d="m0 0h8l5 3 6 11 1 4h2l5 6 1 4h19l-8-2-10-1-1-2 54-1h31v1l-15 3-1 1-17 1 9 3-2 1-16-1h-43l5 3 6 2 6 10 2 2-12 1-4 1-1-3 2-3v-5l-8-6-2-6-5-2-4-4-5-10-1-3h-10l-5 2-19 2-1 5 1 4 6 3v2h-49v-1l39-1-20-3h-5-3l-6-3-1-5 9-3 15-2 8-1 12-1h4l1-2h4 2v-2h-122v-1z" fill="#7AB5FA"/>
<path transform="translate(625,932)" d="m0 0h62l13 2-1 3 2 1-2 1-9 1v1l-7 2h-5v2l14 1 9 1 4 1h6l3 3h-114v-1l20-1 3-1-15-2-1-2h-12l-1-3 12-5 12-3z" fill="#2A62F8"/>
<path transform="translate(895,698)" d="m0 0h1l1 28 1 41 1 2 3 35 1 6v8h2l4 7 1 7-1 1 1 7 4 1 1-3-1-11 1-3v-25l-2-6v-2l-3-1-3-4-2-10v-11l1-12 3-5h3l1-5h2l1-9 4-13 7-12 2-1-6 15-4 20-1 9v12l1 15 1 41 4 40 1 9-1 2-14-1-2-3-5-36-4-32-2-24-2-21z" fill="#080D3F"/>
<path transform="translate(412,949)" d="m0 0 22 1 56 1 94 1h155l86-1 42-1h23l-3 3-6 2h-25l-102 1h-310l-4 2-9 1-3 2-5-1-15-9z" fill="#0B1D8C"/>
<path transform="translate(126,886)" d="m0 0 3 1-2 4 1 3 5 2 36 3 5 1 23 2 1 2-3 5-7 1-5 2-1 2h-2v2h-3l2 4-1 4h-2v2h-10l-8-2-3 2-5-4-9-1v-2h-2v2h-7l-7-6-4-7-2-11v-5l3-2h2z" fill="#202ECD"/>
<path transform="translate(795,376)" d="m0 0h35l1 3v28l-2 3-10 1h-21l-8-2v-2l-5-2-1-3v-20l3-5z" fill="#96C8FA"/>
<path transform="translate(699,935)" d="m0 0 15 1 10 1v2h11l7 1 16 1 26 2 2 1v2h5l-3 3-11 2-42 1h-143l-29-1-7-1 1-2 12-3 19-3h8v1h12v2l18 2-3 2-3 1h92l-1-1h-8l-2-1-23-3v-2l10-3v-1l11-1z" fill="#3259FD"/>
<path transform="translate(925,524)" d="m0 0h6l6 2 1-2 11 9 1 3h2v2l-11 3-6 10-6 11-2 2-2 10-2 1 2 6v7l-1 5 7 4v1h-11l-10-2-1-3 7 2-1-3 4-1 1-14-4-6-3-7-9-6-7-1h-5l-1-2 3-5 9-9 11-8 3-3h2l2-4z" fill="#7AB4F9"/>
<path transform="translate(725,686)" d="m0 0 2 3v30l-5 66v70l-1 12h-1l-1-34-7-5-1-2v-43l1-37 2-27 2-14 1-5 4 1 1-5 2-6z" fill="#132891"/>
<path transform="translate(235,877)" d="m0 0h1l1 9h91l6-1 2-4h62l23 1-2 4-5 4h-2l-2 6 18 2 193 1v2h-87l-150-1-25-1-3-2 1-5 5-3h2l2-6h-29l-3 6h-67l-32-1-3-2v-5h3z" fill="#77B2F9"/>
<path transform="translate(165,547)" d="m0 0h1l3 21 4 10 3 9 2 9 3 13 7 14 5 8-1 18-4 14-1 10-2 6-3 3 1 8v3l-3-1-4-9v-15l2-12v-13l-4-14-7-17-2-6-2-28 1-28z" fill="#69C2FD"/>
<path transform="translate(650,541)" d="m0 0 2 3 4 15 1 8 1 2h-3l1 11-4 5-13 4-10 5h-2v2l-5 1-6 1-2-5h-2v-13l4-14 3-9 25-4 7-1z" fill="#65ADFA"/>
<path transform="translate(918,599)" d="m0 0h25l7 2 74 1v5l-3 2-26 1-23 4-5 3-4 5-10 2-11 6-6 5-4 6-3-3 1-4 4-4 3-5 5-6v-3l-13-2-2-3-11-2v-7z" fill="#0D1135"/>
<path transform="translate(351,693)" d="m0 0 4 4 1 2 12 1v1l-9 1-2 3-1 15 21 2v1l-15 2-5 4-4 9v5l6 2 10 1v1l-19 1h-5v6l-1 1-21 3 4 2 17 2v1h-38l2-8h8l1-6h2l1-3h2l2-4 8-9 5-8 5-3-6-2 2-4 4-2 6-12 2-2z" fill="#C9DFF9"/>
<path transform="translate(865,589)" d="m0 0h1l2 18v11l1 16 1 20-1 2 1 10v15l-1 36-1 10 1 38 1 25v11l1 14 2 9 2 4h6l2 1v6l-2 4-14 9-12 4-4 4-1-2 2-8 4-4 2-5 3 1 2-6v-18l1-2v-39l1-48z" fill="#1E33BA"/>
<path transform="translate(989,393)" d="m0 0 5 1-2 12-1 11 5 12 8 6-6 8-6 5-7 3h-17l-5-3-1-7 5-13h-8v-1l6-1 2-6h2v-2l2-2v-2h2v-2h2l2-5 3-4h2l1-3 6-1 2-5z" fill="#EBA7A9"/>
<path transform="translate(1035,448)" d="m0 0 6 2 12 9 7 8 8 14 3 7-1 3-4-6v-2l-7 1-8 4-7 1-5 3h-4l-2 4h-2l-2 7-4-1-4-10-6-8-2-3 5-2 2-4h2l2-4h2v-2l7-4 5-4 2-6-2-4z" fill="#B0EEFD"/>
<path transform="translate(462,636)" d="m0 0h28v2l-7 2-24 3-15 2-8 3 1 4 7 3 1-1 13 1 12 2 1 2-40 1-1 5h-1v-5l-2 1-1 5h-36l-5-1-4 1-9-2-1-3 3-4h5l5 3 1-1 36-1-6-1-3-3-12-3-1-5 4-2 9-2 3 1v-2l27-2h7z" fill="#6AB4FA"/>
<path transform="translate(672,759)" d="m0 0 2 2 3 13 4 41 2 15v21l-5-1-1-1-1-20-4-20-3-17-5 2-7 9-6 11v15l1 5-2 1-5-2-5-13 1-5 8-17 9-16 6-11 6-10z" fill="#F6F9FC"/>
<path transform="translate(298,667)" d="m0 0 1 2-1 4 4 8 3 12 5 7 3 6 2 1v2l4 2-4 21-4 5-2 4-2-7-1-3-4-2-9-7-7-5v-12l1-11-3-4 1-7 10-12z" fill="#34A3FE"/>
<path transform="translate(323,901)" d="m0 0h44l10 2 6 4-2 4-5 4-6 3-2 4 6 3 10 1h18v1l-13 1h-19l-20-1-13-1-13-3-3-2v-2l9-7 2-6-1-2-8-2z" fill="#2947F8"/>
<path transform="translate(708,674)" d="m0 0 10 2 4-1 3 8v7l-2 6-2 5-4-1v8l-2 11-2 27-1 51v29l4 4h2l2 3v43l-3 25h-37v-10h1v9h35l-2-24-1-8v-24l1-3-1-7-4-6-1-3v-34l1-52 2-24 1-22-1-1-10-1v-3l5-5v-8z" fill="#0D1F72"/>
<path transform="translate(873,843)" d="m0 0m-1 1m-1 1m-2 1h2l-1 3-7 6 2 1v2l5 2 2 4 5 2 5 1 2 1v6l-7 9-1 7 2 1-3 5h-12l-6-2-5-6-4-9-6-12v-2l5-5 2-4 4-2 2-3 9-3z" fill="#142993"/>
<path transform="translate(990,881)" d="m0 0 10 1 7-1h2v2l5 2 2 7v6l-2 2-15 1h-44l-2-1-16-2v-3l9-1 5-3-4-2h5v-2l14-3 7-2z" fill="#4866EF"/>
<path transform="translate(344,842)" d="m0 0h1l-1 10h-2l-3 5h-19l-9-2-12-1h-17l-28 2-9 1v2h-2l-2 5-5 4-3-4-1-8 2 4 4-2 4-10 3-2 6-2 2-1h10l8 1 3-1h47l10 2 9-1z" fill="#BBDDF9"/>
<path transform="translate(711,694)" d="m0 0h1v21l-2 24-1 52v34l4 8 1 1 1 8-1 2v24l2 16v16h-35v-16l2-13v-32l-2-21h2l1 5 3 36-1 26v3l5 1-2 4 3 5 8 1v-4l-2-2h2l-1-6 6-11 3-10 3-24v-7l-1-4-4-2-2-15 1-23 1-47 1-19 2-12h2z" fill="#0C123A"/>
<path transform="translate(536,690)" d="m0 0h40v2l-16 1 1 1h5v7h17v1h-167l-48-1 2-2h53v-4l-4-2 6-1 1 3h2v-2l6-1 13 1 1 2 11 1h31l14 1h12v-3l10 2 5-1 4-1z" fill="#7BB6FA"/>
<path transform="translate(495,797)" d="m0 0h72l1 1-1 23-3 4-3 1-44 1h-65l-6-1v-1l8-2 18-2 19-1 7 1v-2l7 1 8-1h9l2 1 8-1h11l11 1 8-4v-9l-4-5-3-1h-22l-7 1h-28l-4-1-2 1-18-2h-6v-2z" fill="#7CBBFB"/>
<path transform="translate(719,565)" d="m0 0 5 1 8 8 8 16v9l-10 7-21 7h-1l-1-10v-30l1-3 4-2 6-1z" fill="#0C1E71"/>
<path transform="translate(287,594)" d="m0 0h1l1 16 10-4 7 1 5 3 7 11 5 5-1 5 2 7-8 4-8 7h-5l-10-10-5-6-3-5v-10z" fill="#B7DBF9"/>
<path transform="translate(609,533)" d="m0 0h37l3 4 3 2h-2l1 13-13 3-19 3-6 22-1 13h-1v-12l-3-1v-45z" fill="#E5F3FD"/>
<path transform="translate(880,569)" d="m0 0 4 2 8 8 5 6 13 10 10 2v1l-9 1-3 1-3 24-4 40-2 5-3 29v56l2 21 3 33 5 37 3 22 1 2 10 1v1h-16v-7l-2-10-2-4v-26l-4-14-1-8-1-1-1-24-1-11-1-9v-12l-1-8 3-35 3-31 2-13 4-29 3-23v-6-2l-8-2-4-4v-3h-2v-2l-4-2v-3h-2l-2-5h-2l-2-7z" fill="#0D1F72"/>
<path transform="translate(548,610)" d="m0 0h52l6 3v2l5-1 5 3 7 9 4 12 2 7v6l-5 2h-6l-2-9-9-10-7-10-1-4-26-1-6-1-27-2-4-1 1-2 5-2z" fill="#142DA4"/>
<path transform="translate(659,459)" d="m0 0h5v2l12 4 1 3 4 2 2 5v7l-3 5-7 2-4-4-1-4h-3l-1 5-2 3h-2l-1 4-6 2h-7l-7-3-2-2v-3l2-1v-11l-1-1v-5l4-2 7-1-1 4 6-1v-4l-3-3 7-2z" fill="#14162A"/>
<path transform="translate(627,710)" d="m0 0 2 3 5-1 1 3-7 25-3 11-6 29-3 13-2 17v16l2 12v8l-3 1-1 5-2-4-5-28v-10l4-28 5-25 12-42z" fill="#0E2076"/>
<path transform="translate(857,551)" d="m0 0 2 4 2 3 1 10 1 1v93l-1 17v7l-1 3v47l-1 42-1 19-1 38h-1z" fill="#384ED6"/>
<path transform="translate(342,851)" d="m0 0 2 1-2 10-3 12-6-6-14-2-8-2-15 1-19-1-5 2-17-2-9 3-9 4h-2l-1-5 2 1 5-5 2-3h2v-2l9-2 28-2h17l16 2 11 1h13z" fill="#BAD0F7"/>
<path transform="translate(516,638)" d="m0 0 20 2 7 1 17 1h25l3 2-1 6h-14l19 2v1l7 1v1l-16 1v1l-53 1 13 2 23 1v1l-18 1h-19l-3-6-3-3v-2h-2l-4-8-1-1z" fill="#F9FBFD"/>
<path transform="translate(508,618)" d="m0 0h35l53 1 3 1 8 13 8 8 3 6v6l6-1h8v1l-5 1h-18l-7-2-2-6-6-1-1-3-5-5-9-10-9-2-24-1-24-2-5-2-9-1z" fill="#68BFFD"/>
<path transform="translate(963,355)" d="m0 0h9l13 3 5 5 6 7v2h2l2 4v8h-1l-1 7-2 1-2 4-1-2-18-6v-12l-18-3-5-2 4-3 4-10z" fill="#0C1137"/>
<path transform="translate(379,854)" d="m0 0h56v1l-35 1-17 3v3h2l1 5h-3l-2 4-6 3 6 3 9 1v1h-31l-15-1-4-2 3-11 1-8 5-2z" fill="#EBF7FE"/>
<path transform="translate(350,457)" d="m0 0h63l7 2 3 4 1 4v10h-2l-1 4-5 3h-87l-5-3-1-2v-13l3-6 3-2zm21 6-35 2-8 2-1 2v9l2 2 8 2h53l28-1 3-4v-9l-1-3-5-2z" fill="#B4EAFC"/>
<path transform="translate(1183,893)" d="m0 0h4l-1 10-7 14h-2l-3-5h-11l-9-1-15-1-2 1-9-1-15-1-7-1-15-1-3-1v-2l11-2 33-3 34-2 2-1 11-1z" fill="#2231D0"/>
<path transform="translate(905,872)" d="m0 0h11l7 3 1 6h2v2h2l2 5 4 5-4 1-5-1-15 2-2 3-5 1h-26l-2-1 1-5 7-8 10-7h2l1-4 5-1z" fill="#E7F3FD"/>
<path transform="translate(367,901)" d="m0 0h42l7 1 1 1 7 1 1 3 3 1-3 2v3l-10 5-10 2-7 3-3 3-12 1-12-2-4-4 4-5 6-3 5-4 1-2-4-2-5-2-7-1z" fill="#2C55FC"/>
<path transform="translate(705,624)" d="m0 0h1l-1 15-13 1h-47l-7-1-7-11v-1l10-1z" fill="#080D3F"/>
<path transform="translate(597,278)" d="m0 0h10l-2 4-5 2h-13l-5 2-1 3-1-2h-2v2h-9l-1 2-3 2v-2l-7 1h-6l-2 4-11 3-2 1-2-1 1 3-4-1-1 2h-4l-7 4-2 2h-5l-2 2-7 2-1 2-5 3-9 2-2-1v2l-8 1-1 2h-5l-3 3h-2v2h-3v2h-2v2l-7 3v-2l-3 2h-3v3l-5-1 5-5 7-3 2-4 19-10 17-8 11-5 36-12 34-9z" fill="#273DBF"/>
<path transform="translate(261,703)" d="m0 0 8 4 11 8v22h2l1 10v14h-29l-5-6 8 1v2l12-1 2-6-5-3v-2l-5-2-6-3v-3h-2l3-11 5-3 3-1 6-6-2-6-7-6z" fill="#2E6CF8"/>
<path transform="translate(954,538)" d="m0 0 4 3 8 16 4 5v10l-10 5-13 1-10 2v3l-8 4-4 1-1-11h2l2-2 5-4 5-8 2-4 2-1 3-5 4-4 1-4h2z" fill="#62ABFA"/>
<path transform="translate(323,508)" d="m0 0h314v3l-56 1h-231l-30-1v-2z" fill="#C4D7F7"/>
<path transform="translate(1022,499)" d="m0 0 3 1 5 14 2 8v23l1 9 1 4-10 2-17 1 1-2 3-1-1-18-10-1 3-3 7-3 6-7 2-9 2-3z" fill="#3284F9"/>
<path transform="translate(1076,520)" d="m0 0h5l5 21 1 6v9l-3 10-7 6-16 5-10 1-2-4 6-7 10-5 9-4-2-11-3-5-2-9-2-7z" fill="#EDA6A7"/>
<path transform="translate(164,876)" d="m0 0h7l5 6 3 3 4 1 5-1 4 1v3h-2l1 3-11 3h-35v2h-12l-6-3-1-4 3-3h-3l-2 4h-4l2-5 4-3 12-3 15-3z" fill="#4055DD"/>
<path transform="translate(960,346)" d="m0 0 7 1 10 2 11 7 5 4 8 14 1 3v8l-3 10v11l2 12 4 7 6 2 7 6-1 3-8-4h-3l7 4 6 3-3 1-15-6-6-5-5-12 1-11 2-9 3-6h2v-8h1v-7l-1-4h-2l-7-9-2-4-15-3h-11l-3 9-2 5-5 1-4-1-1 2v-2h-2l2-8 4-11zm33 68v4h2z" fill="#102586"/>
<path transform="translate(787,880)" d="m0 0h32v1l-15 1v1l-9 1v3l4 2 5 2 1 1h6l-1 2-12 2-3-1-6 2-18 2h-25l-2-1v-2l-3-1h6v-2l-2-1 1-1-9-2h-5l4-2 1-1h7l4 1 1-3 4-1 9-1 5-1z" fill="#C6D4F1"/>
<path transform="translate(1172,890)" d="m0 0 11 1-1 4-3 1-11 1-2 1-34 2-33 3-19 1h-32l-10-1-2-2 3-1 22-2 16-2h10l11-2h7l13-2h35l16-1z" fill="#306BF8"/>
<path transform="translate(897,556)" d="m0 0 9 2 9 7 4 9 2 3v7l-2 7-3 2v2l-6-1h-3l-14-12-7-8-1-9 5-6z" fill="#F4B6B5"/>
<path transform="translate(1017,871)" d="m0 0 28 1 4 3 4 12 2 3-1 5-25 5h-8l-2-5-3-17v-6z" fill="#D2E3FB"/>
<path transform="translate(956,536)" d="m0 0 18 2 33 2 2 1 1 5v9l-2 2-5 1h-30l-7-8-8-8v-2l-3-1z" fill="#C6D3F1"/>
<path transform="translate(531,624)" d="m0 0h39l9 2 8 8 4 5v2l3 1-1 6-4-1-1-4-4-2v-2l-12-1h-31l-7-5h-12l-3 2-5-1-3-5 11-3z" fill="#C8D3EF"/>
<path transform="translate(640,493)" d="m0 0 13 1 9-1 7 8h13l1 1v8l-3 6-3 1 2-9h-2l-2-3-14-1-2 2v8l-4 8-1 5-3 7h-2l-1 3-2-3-2-6-6-8-1-12 2-13z" fill="#F4B6B5"/>
<path transform="translate(891,469)" d="m0 0 4 1 3 9 4 6 1 5-5 15-2 5v9h-18l-2-2 5-7 3-3-2-9-3-3v-13l5-4z" fill="#0D1F72"/>
<path transform="translate(884,953)" d="m0 0 2 1-5 5-24 11h-5l-4-2-9 1-2-1-1-3-5-1v-1l-21-3-18-2-2-1-30-1v-1l111-1h11z" fill="#142DA5"/>
<path transform="translate(916,512)" d="m0 0h1v9l8 1v1l-10 1h-16v2l-10 4-7 3-6 2-5 5 1 9 5 8 5 6h4v10l-7-6-16-16-4-5v-2h-4l-1-4 3-8 4-1v-2l13-6 7-2v-1h35z" fill="#B0D1F7"/>
<path transform="translate(1026,601)" d="m0 0 2 2-1 9-3 7-2 8v25l2 28 5 39 2 13 2 8v9l2 14v34l-1 4v18l1 41v8l-1 1-16 1 2-2 10-1 1-3v-48l-2-58-3-33-3-27-3-30-2-27v-14l3-14 4-8z" fill="#0D2076"/>
<path transform="translate(1035,633)" d="m0 0 2 1v2h2v5l1-6h1l1 51 3 51 2 19-1 5-2-4-1-8-2-1v-7l-1-4-2-18-1-4-1-16-4-20-1-27 2-18z" fill="#3850D5"/>
<path transform="translate(345,844)" d="m0 0h1v6h162l18 1v1l-16 1-55 1-76 1-30 1-4 1-2 12-2 7 3 1 15 1 32 1v1h-53l1-10 4-15z" fill="#D8E6FB"/>
<path transform="translate(948,873)" d="m0 0 68 1 5 27-9 1-13-1v-1l15-1 1-1-1-10-1-3-6-3-10 1-7-1-17 1-18 4h-3v2h-5l-1-5v-3l-6-4-4-2 2-1 10 4z" fill="#3E54DD"/>
<path transform="translate(954,690)" d="m0 0h1l-1 10-6 26-2 6-2 21-1 25-1 13-1 3-2 16-2 1-2-15-2-14h-1l-1 17-1 2-1 32 1 21 2 18-4-1 1-1-2-15-1-44 1-15 2-6v-10l-1-14-1-5v-7l2-3 1 6h2l3 19h3v-23h2v-9l6-21 1-14h2l3-10z" fill="#142DA5"/>
<path transform="translate(371,463)" d="m0 0h46l3 2 1 3v9l-3 4h-10l4-3 6-2 1-6v-2l-59 2-16 3-4 2-1 4 60 1v1l-9 1h-53l-9-3-1-1v-9l1-2 8-2z" fill="#BAF6FE"/>
<path transform="translate(1014,654)" d="m0 0 3 1 2 6 4 41-1 7-3 2-5-3-3-3v-2l-6-2-2-6v-15l4-11 3-10 2-4z" fill="#0C1035"/>
<path transform="translate(347,698)" d="m0 0h4l-2 4-7 13-5 3-1 2 7 1-1 2-5 3-6 9-9 11-3 3h-2l-1 6-7 1-2 6-64 1-27 1v13h-1l-2-13-1-2 3-1 28-1 11-1v2h29l-2-24v-18l2-1 2 7 3 36 14-1 3-1 2-11 3-5h2v2l4-1 5-5 3-4h2l2-6 5-6h3v-2l-3-1 1-4 8-11z" fill="#90C5FB"/>
<path transform="translate(700,516)" d="m0 0h28l4 2v16l-4 2h-4v2l-10 1h-14z" fill="#D7E7FC"/>
<path transform="translate(359,663)" d="m0 0 20 2 1 2-2 4-7 4h-3l-2 7h-2l-1 10h23l6 2 1 5-6 1h-31l-4-9v-8l4-13z" fill="#3488F9"/>
<path transform="translate(379,775)" d="m0 0h117v1l-65 1-24 2-12 2 1 3v7l10 3 11 1v1l-14 1h-22v-2l-5-1-1-8-4-8 1-2z" fill="#EAF6FD"/>
<path transform="translate(726,689)" d="m0 0h1v30l-5 66-1 47h-1l-1-37-2-3-1-3v-2h-1v-18l1-5v-18l-1-2 1-14v-4l3-12 3-4h2v-2h2z" fill="#152FA7"/>
<path transform="translate(498,608)" d="m0 0h25l31 1-4 2-8 1-6 3 31 2 6 1v1h-56l5 2 24 2v1l-15 1-13 3-8 1-6-7-6-11z" fill="#1F35BA"/>
<path transform="translate(1033,739)" d="m0 0 2 3 2 22-1 2h2l1 8 1 10v35l1 8 1 19-1 3v20l-1 1h-16v-1l10-1v-20l-1-37v-12l1-2v-34l-2-18v-5z" fill="#132891"/>
<path transform="translate(758,284)" d="m0 0h7l26 7 29 10 25 11 11 5 1 5-10-2-7-2-4-2-7-5-2 1-2-2-11-2v-2l-4-1v-2l-3 1-1-2-7-1-5-1-4-1-5-2h-3l-5-1-4-3-10-2-9-3v-2z" fill="#243ABE"/>
<path transform="translate(291,726)" d="m0 0 8 2 9 8v12l-2 11-4 2h-14l-2-14v-17l4-2z" fill="#364FD5"/>
<path transform="translate(211,763)" d="m0 0 3 1 6 34 5 23 3 12 3 14 3 17v13h-2l-2 4v-6h-2l-4-24-2-14-8-38-2-7-2-16-1-4v-7z" fill="#4575F3"/>
<path transform="translate(706,574)" d="m0 0h1l1 29 1 11-2 12-2-1-35 1h-26v-2l8-3 27-4 14-7 12-4z" fill="#374ED5"/>
<path transform="translate(374,745)" d="m0 0h89l126 1-1 2-11 1h-150l-58-1v-1l5-1z" fill="#D9E7FC"/>
<path transform="translate(475,903)" d="m0 0h25l3 1v3l9-3 4-1 1 3-17 5-13 1-11 3-10 2-3 1h-10l-6 2-6-1-2-3-4-2 3-3 10-2 6-2h11l7-2z" fill="#2A63F8"/>
<path transform="translate(561,881)" d="m0 0h41l5 1-1 6-5 2 2 4-1 1 7 2v1h-10l-15-3-16-2-9-6-18-3v-2z" fill="#BBD1F6"/>
<path transform="translate(377,600)" d="m0 0h226v3l-1 1-102 1v2h20v1l-23 1-2-6-145-1v-1z" fill="#C7D4F1"/>
<path transform="translate(955,685)" d="m0 0h1v5h-3v2l-5 4h-2l-1 3-8 5-7 8-5 11-1 5-2 48 1 10v45l4 39-3 1-4-40-1-14-1-38-1-15v-12l4-26 3-9 6-10 13-12 11-9z" fill="#0D2075"/>
<path transform="translate(715,610)" d="m0 0h2l-1 7 2 6 1 16-6 2-8 2-46 1-12 1-2 2h-4l2 4-1 1h-8v-1l5-1-1-6-1-5h68v-9l3-16 1-2z" fill="#F0B9BB"/>
<path transform="translate(907,871)" d="m0 0h14l13 2 9 5 4 3v9l4 1-1 2-4 2h-9v3h6v1h-40v-1h5l2-4 15-2 8 1-5-6v-4h-2v-2h-2l-3-6-5-2-9-1z" fill="#2F6AF7"/>
<path transform="translate(1074,509)" d="m0 0 3 1 3 6v4l-10 4-12 6-9 3h-11l-6-3v-8l4 2h4l4-6 5-3 5 1 4-1v-2l5-1 2 2 8-3z" fill="#7DBCFB"/>
<path transform="translate(923,742)" d="m0 0h2l1 11 3 13 1 20-1 7-1 3-1 16 1 43 1 7v8l2 1-3 1h-7v-1l5-1-4-42v-47l-1-10z" fill="#0B1D8C"/>
<path transform="translate(651,852)" d="m0 0h1l1 30 1 1h26l3-23h1v11l-4 29-1 1h-27l-1-1z" fill="#A8CCF7"/>
<path transform="translate(654,556)" d="m0 0 2 3 1 8 1 2h-3l1 11-4 5-13 4-10 5h-2v2l-5 1-6 1-2-5h-2v-6l2-2h10l14-7 6-5h2l1-3h2l2-6 1-2h2z" fill="#60A2F8"/>
<path transform="translate(574,666)" d="m0 0h16l-1 15-2 12-4 8h-17v-5l-6-1v-2l-2-1h18l-1-11-2-2v-12z" fill="#63ACFA"/>
<path transform="translate(585,550)" d="m0 0h1l1 37h-40l-64-2-148-1-7-2-2-1-1-10v-19h1l1 18 2 11 34 1h90l106 2h25z" fill="#DCEAFC"/>
<path transform="translate(433,667)" d="m0 0h11l4 1 28-1 3 3-1 2-3 1h-20l-6 2-6 4h-6l1 3-4 3h-21l4-2v-6l4-4 5-2 3-3z" fill="#78B4FA"/>
<path transform="translate(351,693)" d="m0 0 4 4 1 3-3 2-3 7-4 10 13 3v1l-9 2-6 8-5 5-4 2v2l-5 2v2l-3 2v5h3v2l-16 1 2-1 1-6h2l1-3h2l2-4 8-9 5-8 5-3-6-2 2-4 4-2 6-12 2-2z" fill="#B1D1F7"/>
<path transform="translate(817,430)" d="m0 0h15l1 5-4 1-333-1v-1l327-1 8 1v-2l-78 1h-39l-1-2z" fill="#D9E7FC"/>
<path transform="translate(337,882)" d="m0 0h30l-3 7-5 3h-2v5l2 2h-28l-4-1-1-4h2v-2l2-1-8-1v-1l12-1 2-5z" fill="#2E6CF9"/>
<path transform="translate(554,820)" d="m0 0m-56-1 7 1 8-1h9l2 1 8-1h11l11 2v3l-10-1-11 1h-19l-2 1 5 1v1h-65l-6-1v-1l8-2 18-2 19-1 7 1z" fill="#7DBDFB"/>
<path transform="translate(508,627)" d="m0 0 5 5 3 2 4-1 2-1h12l7 5 21 1 5 2v1h7l2 2h-16l-17-1-23-3-4-1-1 3-3-5-3-1h-146l-22-2v-1h27l1 1h138z" fill="#D8E7FC"/>
<path transform="translate(337,603)" d="m0 0h29v1l-12 2-5 2 1 4 4 3 5 3-2 5-2 3v6h-11l-3-3-3-9-5-5-1-3v-7z" fill="#EBF7FE"/>
<path transform="translate(719,565)" d="m0 0 5 1 8 8 8 16-1 4v-3l-12-2-5-3-8-1-6-3v21h-1v-30l1-3 4-2 6-1z" fill="#142A94"/>
<path transform="translate(708,674)" d="m0 0 10 2 4-1 3 8v7l-2 6-2 5-4-1v8l-2 11-2 27-1 37h-1l-1-7v-14l3-55 1-13v-2l-13-1v-3l5-5v-8z" fill="#0F2481"/>
<path transform="translate(616,876)" d="m0 0h1l3 18 1 5-12-1-12-3v-1l5-1-1-3 5-2 1-6h-48l-158-1v-1h215z" fill="#C9E1FA"/>
<path transform="translate(657,944)" d="m0 0h21l23 3 4 1h6l3 3h-114v-1l20-1 9-3z" fill="#2E6CFA"/>
<path transform="translate(368,702)" d="m0 0h47v1l-12 2-9 1h-5l1 4 8 7 7 3v1h-27l-3-3-5-6-3-3z" fill="#EBF7FE"/>
<path transform="translate(1035,448)" d="m0 0 6 2 12 9 7 8-1 3-6-4-3-1-2 1-1 3-5 1v2l-11 6-5 2-1 4-5 4-7-6 4-2 3-5h2l2-4h2v-2l7-4 5-4 2-6-2-4z" fill="#C9F8FE"/>
<path transform="translate(641,810)" d="m0 0 2 1-2 9 7 18 3 10v38h-1l-2-25-2-6-4-4-2-5-5-5-4-8 2-13 7-9z" fill="#132991"/>
<path transform="translate(1059,867)" d="m0 0h1v5h48l23 2 5 1-2 2-6 1-3-1h-30l-7 1-18 1-5 1-10 1v-3h-2v-2l-5-1-3-2-18-1v-1l30-1z" fill="#485EE0"/>
<path transform="translate(916,734)" d="m0 0h1l-1 16v14l1 14v36h-1l-1-15-2-6v-2l-3-1-3-4-2-10v-11l1-12 3-5h3l1-5h2z" fill="#080D40"/>
<path transform="translate(999,432)" d="m0 0 5 3-6 8-6 5-7 3h-17l-5-3-1-7 1-3h14l21-3z" fill="#F4B6B5"/>
<path transform="translate(905,872)" d="m0 0h11l7 3 1 6h2v2h2l2 5 4 5-4 1-5-1-15 2-2 3-5 1h-26v-1l22-1 6-3 4-9h3v-5l2-1-1-5-7 1-4 4-11 1 4-2 1-4 5-1z" fill="#77B2F9"/>
<path transform="translate(303,578)" d="m0 0 10 2 4 9 2 5 10 4 6 1v1h-15l-17-4-13 1-1 5h-1l-1-14 1 2 6-3 6-8z" fill="#EAF6FD"/>
<path transform="translate(392,724)" d="m0 0h175v1l-164 1-12 2-6 4-3 12 2 1h-11l-4-9 3-6 5-4 5-1z" fill="#EBF7FE"/>
<path transform="translate(705,590)" d="m0 0h1v13l-1 3h-2l-1 3h-2l-8 3-13 6-27 4-4 2h-4v2l-13 2-2-2 2-4 9-4 8-1h10l16-4 7-3 15-6 3-1 2-6z" fill="#2A62F6"/>
<path transform="translate(867,727)" d="m0 0h1l1 38 1 25v11l1 14 2 9 2 4h6l2 1v6l-2 4-14 9-2-1 2-4v-54l-1-25v-22z" fill="#142DA4"/>
<path transform="translate(287,594)" d="m0 0h1l1 16 10-4 7 1 5 3 7 11 5 5-1 5 2 7-8 4-3 3-4-1 1-2h2v-2l3-3-2-9-5-8h-4l-2-2-1-2h-8l-5 2-1-1z" fill="#C8DFF9"/>
<path transform="translate(656,457)" d="m0 0h18v2h2v2l5 2 6 5 4 7v4l-3-1-5-6-6-4-3-3-10-3-1-2-5 1-6 2 3 3-1 3-6 1-1-3-7 1-1 1v5l1 1v11l-4 2-3-6-1-8 4-8 9-6 4-2z" fill="#10237B"/>
<path transform="translate(279,879)" d="m0 0h7l7 1 5 1h12l6 1v2h7l12-2-1 3-6 2h-53l-14-1-12-2 3-3 8-1z" fill="#BBD1F7"/>
<path transform="translate(427,660)" d="m0 0h2v5l4 2 1 2h-6l-2 3-7 3-1 5-1 4-8 2-1 1h-7l-4-1-1 3-2-1 1-4-3-1h3l2-7 4-1v-2l6-1 1-2 7-2-18-1 4-2 25 1v-5z" fill="#69B2FA"/>
<path transform="translate(951,533)" d="m0 0 6 2-5 10h-2l-1 5-5 5-2 4-2 1-4 8-7 8-3 2-3-1-1-4 3 1-1-3 3-8 3-4 4-8 4-7 5-5 9-1z" fill="#69B3FA"/>
<path transform="translate(641,669)" d="m0 0m9-1 3 3 1 7-2 5h-8l-2 4-3 4h-3l1 6h-2v5l2 1v2l-8 1v-25l7-9 5-2h7z" fill="#0F2481"/>
<path transform="translate(925,524)" d="m0 0h6l6 2 1-2 1 3-6 2-8 9-4 1-2 4-10 6-11 6-1 2h-5l-1-2 3-5 9-9 11-8 3-3h2l2-4z" fill="#7CBCFB"/>
<path transform="translate(788,378)" d="m0 0h17l-2 1-1 5-3 2-7 1-1 7 2 6 10 4 13-1 2 1v2h2v2l-8 2-18-1-7-3-2-1-1-3v-20l4-2z" fill="#86C5FB"/>
<path transform="translate(354,805)" d="m0 0 5 3 6 10 10 7 6 2 47 1v1l-8 1-42-1-8-2-12-6h-4l-1 4-4 19v6l11-1 7-1 60 1v1l-50 1h-29l-2-1 1-12 5-29z" fill="#E9F5FD"/>
<path transform="translate(947,600)" d="m0 0 79 1-1 7-4 8-2 11v14l3 39 2 18v11h-1l-2-18-3-31-2-16-4-2-2-4-3-1 3-6 3-11 3-5 3-2 1-3h2l2-8h-74z" fill="#0D1958"/>
<path transform="translate(367,682)" d="m0 0 25 1 3 1 1 4 1-2h11l5-2 12 1 2 2-6 5-5 1h-10l-1 1h-6l-4-2-6-1-23-1-2-4z" fill="#82C2FB"/>
<path transform="translate(714,776)" d="m0 0h1l1 7 2 2-1 5 2 2h1l1 40 1 1v22l-1 12h-1l-1-34-7-5-1-2v-28l2-5z" fill="#142DA4"/>
<path transform="translate(1032,530)" d="m0 0 6 2 9 1-2 1 5 12 2 8-5 2-12 3-3-1h2l-2-4-1-9v-13z" fill="#C7D1EE"/>
<path transform="translate(998,383)" d="m0 0h1v23l2 12 4 7 6 2 7 6-1 3-8-4h-3l7 4 6 3-3 1-15-6-6-5-5-12 1-11 2-9 3-6h2zm-5 31v4h2z" fill="#1F3186"/>
<path transform="translate(583,656)" d="m0 0h31v1l-15 3-1 1-17 1 9 3-2 1-16-1-39-1v-1l15-1-8-2-10-1-1-2z" fill="#C9D2EE"/>
<path transform="translate(420,884)" d="m0 0 6 2 5 4 5 2 1 2 5 1 27 1 6 1 42 1v1h-89l-13-1-5-2 1-4 1-2h2l1-2z" fill="#91C6FB"/>
<path transform="translate(1026,507)" d="m0 0 3 3 3 12v23l1 9 1 4-2 1h-9l-2-7v-12l1-10 3-12z" fill="#364FD5"/>
<path transform="translate(272,657)" d="m0 0 6 2 5 4 7 5 4 2-1 4-8 11h-2v7l-2 2-9-23v-3h-2l-1-6h3l-1-4z" fill="#2D6DF9"/>
<path transform="translate(352,723)" d="m0 0h7l-4 3-5 5-5 9-8 8 1 6-1 2-14 2 4 2 17 2v1h-38l2-8h22v-2h-3l-1-5 4-2v-2l5-2v-2l7-5 6-9z" fill="#BCDEFA"/>
<path transform="translate(667,656)" d="m0 0h12l10 3h29l1 1v10l-2-3-3-1-20-2h-19l-2 2h-19l1-9z" fill="#0E1238"/>
<path transform="translate(329,384)" d="m0 0 4 2 3 15h3l3-12 2-4 4 1 6 15 6-16h3l4 10 1 11h-4l-1-13h-2l-1 8-3 5-4 1-3-3-3-12-2 1-2 10-1 2-7 1-3-5-4-8-1-7z" fill="#0E1545"/>
<path transform="translate(865,589)" d="m0 0h1l2 18v11l1 16 1 20-1 2 1 10v15l-1 36-1 9h-1l-2-57z" fill="#1D36A3"/>
<path transform="translate(993,374)" d="m0 0 7 2v8h-1l-1 7-2 1-2 4-1-2-18-6v-9l2-4z" fill="#14162A"/>
<path transform="translate(345,747)" d="m0 0h23v2l-6 2-7 6 1 7h-45v-1l26-1-10-1-5-2 1-2 21-3v-6z" fill="#D9E7FC"/>
<path transform="translate(588,942)" d="m0 0h8v1h12v2l18 2-3 2-3 1-20 1h-37l-7-1 1-2 12-3z" fill="#335CFD"/>
<path transform="translate(1032,580)" d="m0 0h10l-1 27-3-1-3-3h-4l-6-3-1-9v-10z" fill="#2035BB"/>
<path transform="translate(656,562)" d="m0 0 3 4 1 6-2 4v6h2l1 5h-2v2l-12 5-9 4-11 3h-11l-1 2-2-8v-5l2 3 1 5 8-3 3 1v-2l14-7 11-3 3-4v-11l2-1-1-1z" fill="#35A2FE"/>
<path transform="translate(928,708)" d="m0 0 1 2-5 9-4 18-2 15v12l1 15 1 41 4 40 1 9-1 2-5-1 2-5v-7l-2-6-2-5 1-3v-17l-1-13-1-36-1-14v-14l2-18 3-11 7-12z" fill="#0C164E"/>
<path transform="translate(670,625)" d="m0 0h19v1l-36 2 4 4v2h2l1 4 32 1v1h-47l-7-1-7-11v-1l10-1z" fill="#10237C"/>
<path transform="translate(602,623)" d="m0 0 5 3h10l4 4v3h3v3h2l3 9v6l-5 2h-6l-2-9-9-10-5-7z" fill="#142DA5"/>
<path transform="translate(559,849)" d="m0 0h44l2 2-9 2-43 1h-93v-1l50-1-2-2z" fill="#EBF7FE"/>
<path transform="translate(1027,713)" d="m0 0h1l2 10 2 14 1 3v9l2 14v34l-1 4v18l1 41v8l-1 1-16 1 2-2 10-1 1-3v-74h2v-9l-2-24-2-19-2-18z" fill="#0D2075"/>
<path transform="translate(298,667)" d="m0 0 1 2-1 4 4 8 3 12 5 7 3 6 2 1v2l4 2-1 5-6-2-8-4-7-10-1-9 1-6-2-11 2-6z" fill="#44B2FE"/>
<path transform="translate(631,555)" d="m0 0h3l2 4v6l-3 5h-2l-1 3-8 5h-9l3-12 3-9z" fill="#6AB5FB"/>
<path transform="translate(867,950)" d="m0 0h23l-3 3-6 2h-97l-3-2 44-2z" fill="#0D1F7A"/>
<path transform="translate(411,459)" d="m0 0h9l3 4 1 4v10h-2l-1 4-5 3h-87l-5-3-1-2v-7l3-10 3-2 1 2h-2l-2 7v12h64l28-1 2-3v-9l-3-6-6-2z" fill="#6FBAFB"/>
<path transform="translate(650,539)" d="m0 0 6 1 1 1 2 18 3 8 3 5 2 3 4 2 5-5 3-2 1 3-2 5-1 4-5 3-8 1-4-2v-2h-2l-1-6 2-5-3-9-4-13z" fill="#2E6CF9"/>
<path transform="translate(367,636)" d="m0 0h73v1l-27 3-13 1-1 1h-18l-7 2-5 1-3 4-2 5-1-3z" fill="#60A3F9"/>
<path transform="translate(571,681)" d="m0 0h5v9l-1 1h-18l-21-2-1-1v-5l1-1z" fill="#DDEEFC"/>
<path transform="translate(857,551)" d="m0 0 2 4 2 3 1 9-1 16v13l-2 3-1 164h-1z" fill="#375FEA"/>
<path transform="translate(651,884)" d="m0 0 1 4v12h28l29 1v1l-25 1-1 1-23 1-6 1-34 1-3-3v-2h4l1-2h24l3-1 1-13z" fill="#2A60F8"/>
<path transform="translate(916,512)" d="m0 0h1v9l8 1v1l-10 1-37 1-12 7-3 1-3 6 2 5 5 5 2 5h-3l-7-8v-2h-4l-1-4 3-8 4-1v-2l13-6 7-2v-1h35z" fill="#C9DFFA"/>
<path transform="translate(374,657)" d="m0 0h5l5 3 1-1 39 1 1 1v5h-35l-5-1-4 1-9-2-1-3z" fill="#D4E6FB"/>
<path transform="translate(1022,878)" d="m0 0h8l5 5v2l3 1v2l4 1-1 5-9 3h-10l-2-3-1-12z" fill="#EBF7FE"/>
<path transform="translate(403,796)" d="m0 0 4 2v2l1 4 6 1 6 9 1 4-1 4-6-1-8-5v-2h-7l-6-4 1-5 6-3z" fill="#BBF7FE"/>
<path transform="translate(1037,766)" d="m0 0 2 4 1 23v26l1 8 1 19-1 3v20l-5 1 1-4v-37l-1-13v-42z" fill="#142DA5"/>
<path transform="translate(323,508)" d="m0 0h15l19 1v1l224 1v1h-231l-30-1v-2z" fill="#D4E5FB"/>
<path transform="translate(928,751)" d="m0 0 2 2v4h2l2 14v11h-2l-1 17-1 2-1 32 1 21 2 18-4-1 1-1-2-15-1-44 1-15 2-6v-10l-1-14-1-5v-7z" fill="#142DA5"/>
<path transform="translate(391,666)" d="m0 0 25 1-2 3-7 2-6 1v2l-4 1-1 5-1 2h-19l-6-1 4-2 9-2v-2h2l1-4 2-4h3z" fill="#63ACFB"/>
<path transform="translate(1012,488)" d="m0 0 2 2-1 6-9 6-9 3-3 2-7 2-4 3-25 7-9 6-3 1v-3l-7-2-1 2-1-3v-11h2l2 6 8 4 10-5 15-3 13-5 12-6 10-4 3-5h2z" fill="#68B2FA"/>
<path transform="translate(584,928)" d="m0 0h190v2l-25 1h-65v-1l-100-1z" fill="#2945F5"/>
<path transform="translate(282,718)" d="m0 0 2 2 2 13 2 24 1 5-46 1-27 1v13h-1l-2-13-1-2 3-1 28-1 11-1v2h29l-2-24v-18z" fill="#99DAFC"/>
<path transform="translate(708,582)" d="m0 0 10 2 6 2 6 3 7 1 2 1-1 4-12 3-10-1-4-1-4 1z" fill="#0B1D8C"/>
<path transform="translate(711,831)" d="m0 0 5 2 2 13 1 18v22l-2 15h-37v-10h1v9h35l-2-24-1-8v-24l1-3-1-7z" fill="#0F1D63"/>
<path transform="translate(884,953)" d="m0 0 2 1-5 5-9 4h-2v-3l-4 1-16-3-20-1-70-1v-1l111-1h11z" fill="#162B93"/>
<path transform="translate(430,660)" d="m0 0h49v5l-1 1-31 1-16-1-1-1z" fill="#D1E3FB"/>
<path transform="translate(541,616)" d="m0 0 26 1 6 1v1h-56l5 2 24 2v1l-15 1-13 3-8 1-6-7-2-5z" fill="#3B5FE7"/>
<path transform="translate(758,284)" d="m0 0h7l26 7 1 4 6 1 7 3 1 2-5 1-3-2h-4l-4-1-5-2h-3l-5-1-4-3-10-2-9-3v-2z" fill="#2035BA"/>
<path transform="translate(950,839)" d="m0 0h1v33l2 1h-5l1 5h-3l-12-4-8-1v-1l10-1-2-5-1-3 2-9h3l3 13v4l4-2 1-20 2-6z" fill="#2F46C3"/>
<path transform="translate(681,818)" d="m0 0h2l1 5 3 36-1 26v3l5 1-2 4 3 5 24 1v1h-35v-16l2-13v-32z" fill="#0D1441"/>
<path transform="translate(893,702)" d="m0 0h1v41l1 21 3 28 3 27v5l-2-3-3-11-1-8-1-1-1-24-1-11-1-9v-12l-1-8z" fill="#0F2480"/>
<path transform="translate(218,627)" d="m0 0 7 1 5 5 1 4 4 1 4 5 4 6 6 5v2l5 2 6 7-4 1-7-7-8-6-3-3-5-2-1-3-4-2-9-9-2-5z" fill="#267BF9"/>
<path transform="translate(927,761)" d="m0 0h1l1 5 1 20-1 7-1 3-1 16 1 43 1 7v8l2 1-3 1h-7v-1l5-1-2-22v-47l1-4v-9l2-13z" fill="#132891"/>
<path transform="translate(794,385)" d="m0 0 3 1 4 8 17 2v5l-6 3-9 1-10-4-2-2-1-10z" fill="#B9DDF9"/>
<path transform="translate(556,637)" d="m0 0h16l12 2v2l5 2 1 4 3 1v-5l1 2 6 1v2l2 1v2l3 2v2l-18-1v-1l-8-1-28-1v-1l22-1h13l2-5-5-1h-7l-4-1h-6l-4-3-6-1z" fill="#EEC6CB"/>
<path transform="translate(955,726)" d="m0 0h1v87l-2 19-2 40-2-4 1-37 2-48 1-41z" fill="#1E33BA"/>
<path transform="translate(336,528)" d="m0 0h157l90 1v1l-110 1-6-1-131-1z" fill="#C9E1FA"/>
<path transform="translate(895,698)" d="m0 0h1l1 28 1 41 1 2 3 35 3 21 2 17 2 15 3 13-3-1-2-10-4-28-4-32-2-24-2-21z" fill="#0C164E"/>
<path transform="translate(500,605)" d="m0 0h99l-4 3h-75l-20-1z" fill="#CCDEF8"/>
<path transform="translate(614,800)" d="m0 0h1v20l3 27 2 10 1 19-1 12v6h-1l-5-29-2-8v-7l1-3 2-1v-8l-2-12v-16z" fill="#0D1855"/>
<path transform="translate(367,882)" d="m0 0h14l-3 1-1 5-1 3h-2v5l1 1 7 1v1h-23l-3-2 1-5 5-3h2l2-6z" fill="#61A3F9"/>
<path transform="translate(880,569)" d="m0 0 4 2 8 8 5 6 13 10 10 2v1l-9 1-5 1-1-2-8-2-4-4v-3h-2v-2l-4-2v-3h-2l-2-5h-2l-2-7z" fill="#0F237F"/>
<path transform="translate(601,612)" d="m0 0 5 1v2l5-1 5 3 7 9 2 5v5l-1-3h-3v-3l-4-2-4-1h-6l-4-3h-3l-1-4-3-1h4l-1-5h2z" fill="#1F34BB"/>
<path transform="translate(765,508)" d="m0 0h2l-1 5-5 3-26-1-5-1 1 3-30-1 4-2h10l1-1-8-1v-2h32l3 1 16 1 3-3z" fill="#D8E7FC"/>
<path transform="translate(906,899)" d="m0 0h27l17 1v3l-5 1h-49l-12-1v-3z" fill="#2835EB"/>
<path transform="translate(719,565)" d="m0 0 5 1 3 4 1 3-1 1v5l-2 2-11-1-4-2-1-1-1 26h-1v-30l1-3 4-2 6-1z" fill="#142CA4"/>
<path transform="translate(669,693)" d="m0 0h32v1l-11 1-2 15-4 13-3 15h-1v-10l3-17v-6l-5-5-9-5z" fill="#0D1135"/>
<path transform="translate(422,692)" d="m0 0 4 1v2h2v-2l6-1 13 1-4 5v2l3-1 1 2h-79l2-2h53v-4l-4-2z" fill="#6DB4FA"/>
<path transform="translate(494,602)" d="m0 0h108v2l-102 1v2h20v1l-23 1z" fill="#6F95EA"/>
<path transform="translate(908,873)" d="m0 0 5 1 2 5-3 1v5h-3l-3 9-7 4-3-1 3-4-1-4-2-2 1-7-2-1 7-1 3-1 1-3z" fill="#BBD1F6"/>
<path transform="translate(705,624)" d="m0 0h1l-1 15h-26l5-4 2-6h2v5l3-5 2 1 2-2 4 2 1-3h-24v-1z" fill="#0D1445"/>
<path transform="translate(651,852)" d="m0 0h1l1 30 1 1h26l3-23h1v11l-2 13-3 1v2l-12-1-5 2-1 3v5h-2l-1 3h-6l-1-15z" fill="#B9D0F6"/>
<path transform="translate(723,749)" d="m0 0h1l-1 23-1 13-1 47h-1l-1-37-2-3-1-3v-2h-1v-18l3-6 1-3 2-1v-3h1z" fill="#2846B6"/>
<path transform="translate(322,699)" d="m0 0 2 3v2h2v2h5l-2 9h-2l-1 4-5 9-5 7h-2l1-8 3-16 3-11z" fill="#63ACFA"/>
<path transform="translate(508,618)" d="m0 0h35l6 1 23 1 4 2v2h-30l-24-2-5-2-9-1z" fill="#92C3F8"/>
<path transform="translate(1017,871)" d="m0 0 28 1 4 3 4 12 2 3-1 5-25 5h-8v-3h13l16-4 1-3-7-2-1-4 1-1 1-8-27-1-2 4v-6z" fill="#B0CCF7"/>
<path transform="translate(978,560)" d="m0 0 10 1h27v1h-8v2l-12 1v2l-8 2 3 5 3 4v2h2v2l-6-1-9-11-5-7v-2z" fill="#F0F5FD"/>
<path transform="translate(1023,645)" d="m0 0h1l2 26 4 26 3 15v14h2l2 8v7l2 3-1 21-2 1-1-15-2-16-3-23-1-5-3-16-2-19-1-4z" fill="#142DA5"/>
<path transform="translate(723,757)" d="m0 0h1v13h106l-1 3h-48l-58-1z" fill="#C3D3F1"/>
<path transform="translate(859,711)" d="m0 0h2v25l-1 42-1 19-1 38h-1v-72l1-51z" fill="#3B51D9"/>
<path transform="translate(961,374)" d="m0 0 12 1 2 1v11l-4 6 2 1-5 1-5-6-3-2-1-6h2l1-5z" fill="#ECA7A9"/>
<path transform="translate(551,610)" d="m0 0h49l2 2-1 2h-2l1 5h-27v-1l9-1-2-4-28-1-2-1z" fill="#2039A4"/>
<path transform="translate(721,785)" d="m0 0h1v8h108l-3 3-105-1-1 2z" fill="#C0D1F2"/>
<path transform="translate(1025,600)" d="m0 0 5 1 4 3 1-3v2l5 2 1 5-4 5v4h-2v2l-6-1-3 3-1 4v9l-1 8-2 1 1-20 5-15v-6l-1-3z" fill="#142CA4"/>
<path transform="translate(386,692)" d="m0 0h8l11 1 4-1 12 2 2 1 1 4-1 1h-34l3-2-2-2h2v-2h-5z" fill="#61A3F9"/>
<path transform="translate(610,638)" d="m0 0 4 2 4 7v6l6-1h8v1l-5 1h-18l-7-2-2-6-6-1v-2h11l4-2z" fill="#BDD2F5"/>
<path transform="translate(647,466)" d="m0 0 2 1-1 3 3 1-6 4h-2l3 6v4h2l2 7 3 3h-7l-7-3-2-2v-3l2-1v-11l-1-1v-5l4-2z" fill="#0C1752"/>
<path transform="translate(211,763)" d="m0 0 3 1 6 34 2 9v6l-2 1-3-12-1-7h-3l-2-13-2-10v-7z" fill="#395AE4"/>
<path transform="translate(937,725)" d="m0 0 2 4 1 5-3 7-2 15-3 4-3-14v-13l1-4 3-3z" fill="#0D1F74"/>
<path transform="translate(413,385)" d="m0 0 5 3 2 9v9l-2 1-2-1-2-13-2-2h-3l-1 3v12l-3 1-2-1-1-3v-11l2-6h7z" fill="#102170"/>
<path transform="translate(943,733)" d="m0 0h1l-1 18-1 5-2 30-2 16-2-4-1-5-1-7v-10h4v-23h2v-9z" fill="#132891"/>
<path transform="translate(626,624)" d="m0 0 6 4 6 9 1 7 1 6-6 2h-8l3-1-1-11 1-4-3-8-1-2z" fill="#3170F6"/>
<path transform="translate(722,834)" d="m0 0h1v18h92v2l-5 1-80-1-7-1-1 2z" fill="#C5D3F1"/>
<path transform="translate(576,682)" d="m0 0 2 2 3 7 5 2-2 7-1 1h-17v-5l-6-1v-2l-2-1h18z" fill="#6CB5FB"/>
<path transform="translate(641,810)" d="m0 0 2 1-3 11-1 3h-3v2h-2l4 14 6 5 2 4 3 2 1 4 1 13v17h-1l-2-25-2-6-4-4-2-5-5-5-4-8 2-13 7-9z" fill="#0D1F72"/>
<path transform="translate(729,693)" d="m0 0h102l-1 2-7 1-94-1z" fill="#C6D3F1"/>
<path transform="translate(620,859)" d="m0 0h1l3 19v9l-1 8v2h2v2h22l1-15v-11h1l1 7v19l-4 2h-24l-2-4-1-14 1-8z" fill="#0D1137"/>
<path transform="translate(723,668)" d="m0 0h6l2 2 2 14v8l-1 1h-5l-6-18v-5h2z" fill="#E7F4FD"/>
<path transform="translate(721,665)" d="m0 0h109v4l-4-1-82-1-23-1z" fill="#C6D3F1"/>
<path transform="translate(523,608)" d="m0 0h76l16 4 6 7-1 4-6-7-8-1v-2l-4-1-2-1-77-2z" fill="#3352D6"/>
<path transform="translate(708,517)" d="m0 0h19l5 1v16l-4 2h-4v2h-22l-1-3 3-1 16-1 7-2 1-3v-8l-20-2z" fill="#68B2FB"/>
<path transform="translate(1033,533)" d="m0 0h2l2 7 2-6h4l1 9-3 7-1 4-6 1-2-1v-20z" fill="#E8BEC5"/>
<path transform="translate(721,855)" d="m0 0h1v25l5 1-3 1v6l4 6 4 1 5 2 6 1v1h-23l-1-1-1-12z" fill="#C0DAF9"/>
<path transform="translate(376,385)" d="m0 0 4 2 4 4 3 2v13h-5l-1-2-1-10-3 7-1 5h-4l2-18z" fill="#0E164C"/>
<path transform="translate(323,700)" d="m0 0 5 2 10 1v4h-2l-2 5-2 2-3 9-12 13-5 4-1 2-2-1 2-5 3-3v2l3-3 6-9 4-8h2v-5l1-3-4-1v-2h-2z" fill="#68B4FB"/>
<path transform="translate(789,385)" d="m0 0 3 1-1 8 2 6 10 4 13-1 2 1v2h2v2l-8 2-18-1-4-2 4-2-5-4-2-5z" fill="#91C6FB"/>
<path transform="translate(1049,458)" d="m0 0 4 1 7 8-1 3-6-4-3-1-2 1-1 3-5 1v2l-11 6-5 2-1 4-5 4-3-3 5-1v-3h2l2-4 13-8 5-1v-7z" fill="#BDF6FE"/>
<path transform="translate(712,797)" d="m0 0h1l1 19 2 6h2l2 4 2 7v22l-1 12h-1l-1-34-7-5-1-2v-28z" fill="#132891"/>
<path transform="translate(932,492)" d="m0 0h1l1 21 2 7 1 6-6-1-14-4v-18h1l2 10 2 4v2l5 1 2-3-2-2 4-12z" fill="#E3F1FD"/>
<path transform="translate(367,682)" d="m0 0 25 1 2 3-1 3h-19l-2 1h-6l-2-4z" fill="#80C2FB"/>
<path transform="translate(744,613)" d="m0 0h73l15 1v2h-19l-70-1z" fill="#C6D3F1"/>
<path transform="translate(983,358)" d="m0 0 4 1 9 11v2h2v3l-21 1-2 3v-3l-8-1-1-2 5-2h15l1-7-1-4h-3z" fill="#0E1B60"/>
<path transform="translate(153,877)" d="m0 0h17l-3 3-19 2v2l-3-1-7 1-6 2h-2l-1 2-3-1-2 4h-4l2-5 4-3 12-3z" fill="#3B53D9"/>
<path transform="translate(695,548)" d="m0 0 1 2 5 1 15 8 6 5-4 4h-6v-3-2h-2l-5-5-8-3v2l-4 1-4-3z" fill="#4463EC"/>
<path transform="translate(905,600)" d="m0 0h3l-3 24-4 40-2 5-3 27-2 1 1-18 3-21 4-29 3-23z" fill="#0D2178"/>
<path transform="translate(1007,540)" d="m0 0h3l2 10v8l-5 3-4 1h-15l-10-1-5 1-2-3 1-3 1 1h30l6-2v-14z" fill="#6FABF9"/>
<path transform="translate(725,732)" d="m0 0h1v9l54-1h49v2l-67 1h-36l-1 2z" fill="#C1D2F2"/>
<path transform="translate(341,632)" d="m0 0h27l1 1 132 1v1h-138l-22-2z" fill="#CBE2FA"/>
<path transform="translate(857,379)" d="m0 0 3 2 1 2v11l-1 1-1 17-1 101h-1z" fill="#385BE6"/>
<path transform="translate(710,783)" d="m0 0 2 4v39l4 4h2l2 3v43h-1l-3-40-1-3-5-3-1-23z" fill="#0F247C"/>
<path transform="translate(1025,713)" d="m0 0h2l4 31 2 29 1 14-1 3h-2l-1-5-1-27-3-33z" fill="#0D1F72"/>
<path transform="translate(1013,853)" d="m0 0 2 2 3 14 1 2-4 4-61-1-1-2h60l2 1-2-15z" fill="#283FBB"/>
<path transform="translate(538,636)" d="m0 0 3 1 21 1 5 2v1h7l2 2h-16l-17-1-15-2-7-2v-1z" fill="#D5E3FA"/>
<path transform="translate(631,627)" d="m0 0h7l1 3 9 3 1 4 2 1 41 1v1h-47l-7-1-7-11z" fill="#102391"/>
<path transform="translate(235,877)" d="m0 0h1l1 9h66v2h31v1h-67l-32-1-3-2v-5h3z" fill="#6DABF9"/>
<path transform="translate(650,539)" d="m0 0 6 1 1 1 2 18 3 8 3 5 2 3 6 2-1 2-6 1-2-1-1-6h-2l-5-11-4-13z" fill="#2B3FCF"/>
<path transform="translate(1034,798)" d="m0 0 1 4 1 35 1 7 1 1v21l-2 4h-12v-1l10-1v-20l-1-37v-12z" fill="#0E218E"/>
<path transform="translate(680,738)" d="m0 0h1v20l-2 6v9l1 10v24h-1l-3-33v-16l3-19z" fill="#0C1135"/>
<path transform="translate(1027,713)" d="m0 0h1l2 10 2 14 1 3v9l2 14v34l-2-1v-15l-2-24-2-19-2-18z" fill="#0C2086"/>
<path transform="translate(585,550)" d="m0 0h1l1 37h-40l-2-1-21-1v-1h60z" fill="#CEE3FA"/>
<path transform="translate(872,524)" d="m0 0h6l-5 4-10 5-3 6 2 5 5 5 2 5h-3l-7-8v-2h-4l-1-4 3-8 4-1v-2z" fill="#B8DBF9"/>
<path transform="translate(995,417)" d="m0 0h1l3 9 4 3h4l-5-5 1-2 4 4 4 1 7 6-1 3-8-4h-3l7 4 6 3-3 1-15-6-6-5-1-6v-5z" fill="#19235A"/>
<path transform="translate(642,273)" d="m0 0h10l-1 3-5 2-19 1-12 1-6-2 1-2z" fill="#253CC0"/>
<path transform="translate(608,788)" d="m0 0 2 3v17l1 2v14l-3 7-2-4-1-7v-10z" fill="#152C90"/>
<path transform="translate(963,357)" d="m0 0h12l3 1 2 4v3h-3l-1 2-11-1-4-2-1-6z" fill="#14162A"/>
<path transform="translate(367,636)" d="m0 0h40v1l-16 1-17 4-6 4-4 8-1-3z" fill="#339DFD"/>
<path transform="translate(714,692)" d="m0 0 3 1 1 7-1 5-3 26-1 15-1 37h-1l-1-7v-14l3-55 1-13z" fill="#0F2480"/>
<path transform="translate(549,619)" d="m0 0h47l3 1 1 4h-16l-4 1h-10v-1h6v-2l-4-1-23-1z" fill="#7EC1FB"/>
<path transform="translate(914,487)" d="m0 0h1l2 8v17l-2 7h-15v-1h13l-1-7-2-10 2-9z" fill="#0E2075"/>
<path transform="translate(351,693)" d="m0 0 4 4 1 3-3 2-3 7-4 11v1h-8l-2-1 2-4 4-2 6-12 2-2z" fill="#AFD2F7"/>
<path transform="translate(526,656)" d="m0 0h57v1l-53 1 13 2 23 1v1l-18 1h-19z" fill="#C6D4F1"/>
<path transform="translate(319,387)" d="m0 0 4 1 3 6 2 5-1 5-10 2-1-5 2-9z" fill="#111E64"/>
<path transform="translate(529,657)" d="m0 0h54l-2 3h-41l-10-1z" fill="#0E1440"/>
<path transform="translate(969,647)" d="m0 0 2 2 8 24-1 4-4-10v-2l-10-1-2 4 1-6z" fill="#0E237D"/>
<path transform="translate(615,637)" d="m0 0 6 4 6 1 2 3v6l-5 2h-6l-2-9-3-4v-2z" fill="#142996"/>
<path transform="translate(720,678)" d="m0 0 3 4 2 2-1 11-3 6-3-1-2-8 1-9h-2l1-4z" fill="#0B1D8B"/>
<path transform="translate(285,564)" d="m0 0h1v26l-4-4v-2h-2l-4-7-5-3 2-1h6l5-6z" fill="#152B94"/>
<path transform="translate(665,459)" d="m0 0h8l10 5 5 6 3 5v4l-3-1-5-6-6-4-3-3-8-3z" fill="#102382"/>
<path transform="translate(646,700)" d="m0 0 5 5 4 9 10 19 7 20 1 3h-2l-3-5-3-9-10-22-8-14-4-3z" fill="#0D1135"/>
<path transform="translate(602,603)" d="m0 0 2 3v3l-9-1-4-2-92-1v-1z" fill="#E8F5FD"/>
<path transform="translate(954,789)" d="m0 0 2 2v22l-2 19-2 40-2-4 1-37 1-1 1-12z" fill="#172FA8"/>
<path transform="translate(926,725)" d="m0 0 3 1 1 20 1 4v7l-2-4-3 3-1-3-1-17 1-10z" fill="#122790"/>
<path transform="translate(661,660)" d="m0 0h22l10 2v1l-18 1-2 2h-19l1-4 5-1z" fill="#0C164E"/>
<path transform="translate(1e3 435)" d="m0 0 7 3 1 3-7 2-1 2h-2l-1 3-5 3h-9l3-3 6-4z" fill="#F8FAFC"/>
<path transform="translate(956,348)" d="m0 0 2 1-6 4-1 2h5l-1 9-2 2 1 2-3 2h-4l-1 2v-2h-2l2-8 4-11z" fill="#24399E"/>
<path transform="translate(736,601)" d="m0 0h4l4 20v10l-3 13-3 5-1-2 2-7v-10l1-16-1-11-6 1z" fill="#F4B6B5"/>
<path transform="translate(498,608)" d="m0 0h15l9 1-2 3-6 1-1 2-11 2-4-6z" fill="#1931AD"/>
<path transform="translate(1059,522)" d="m0 0h3v2l5-1-1 3-8 4-9 3h-9l2-1v-2l2-1 1-3 11-2z" fill="#81B7F9"/>
<path transform="translate(253,759)" d="m0 0 1 2h31v1l-69 2v13h-1l-2-13-1-2 3-1 28-1z" fill="#BAD6F7"/>
<path transform="translate(1040,650)" d="m0 0h1v35h-1l-1 6h-1l-1-15h-2v-5h2v-3h-2v-10l2 2 2-2z" fill="#2D63F6"/>
<path transform="translate(928,751)" d="m0 0 2 2v4h2l2 14v11h-2l-2 3-1-5-1-14-1-5v-7z" fill="#132CA3"/>
<path transform="translate(286,530)" d="m0 0h1v57h-1l-1-20-6 7h-4v-2l2-1 3-6 3-4 2-9z" fill="#C6D3F1"/>
<path transform="translate(543,660)" d="m0 0h26v2l16 1 5 2-2 1-16-1-39-1v-1l15-1-5-1z" fill="#C4D4F2"/>
<path transform="translate(1029,519)" d="m0 0 3 3v23l1 9 1 4h-5l-1-21-1-10z" fill="#2039BC"/>
<path transform="translate(899,945)" d="m0 0h6l5 1 4-1h41v1l-46 3h-15l2-3z" fill="#374EDA"/>
<path transform="translate(867,727)" d="m0 0h1l1 38 1 25-1 11-2-1v-11l-1-25v-22z" fill="#1B34A3"/>
<path transform="translate(218,627)" d="m0 0 7 1 5 5 1 4 4 1 4 5v2l-3-1v-2l-5-2v-2l-5-1 2 5-7-6-4-6z" fill="#3385F9"/>
<path transform="translate(215,793)" d="m0 0 2 2 3 17h3l3 15v4h-3l-2-9h-2l-6-27h2z" fill="#4778F5"/>
<path transform="translate(1046,896)" d="m0 0h7l-2 4-12 1-1 1 10 1v1h-21l-6-2v-2z" fill="#4261EA"/>
<path transform="translate(185,874)" d="m0 0h14v2l3 1-5 1h-8l-1 2h-14l-3-2v-2l3-1z" fill="#2947F8"/>
<path transform="translate(653,627)" d="m0 0h9v3h2v2l5 2 3 4-4 1h-9v-5h-2v-2l-4-2-3-2z" fill="#0C164E"/>
<path transform="translate(857,840)" d="m0 0h2l2 2 6-1 1 4-4 4-9 3-4 4-1-2 2-8 4-4z" fill="#223CA9"/>
<path transform="translate(299,620)" d="m0 0 5 2v2l3 1 2 4v5l-7-1-5-4-1-7z" fill="#BBD1F7"/>
<path transform="translate(983,690)" d="m0 0 2 3 6 22 5 24 3 23v6h-1l-5-28-2-13-7-30z" fill="#0D2177"/>
<path transform="translate(958,428)" d="m0 0h9l-2 9-4 6-16 7 2-4 8-3 2-6h2v-7z" fill="#0E2176"/>
<path transform="translate(329,384)" d="m0 0 4 2 3 15h3l2-4 1 4v4l-7 1-3-5-4-8-1-7z" fill="#0E1850"/>
<path transform="translate(636,834)" d="m0 0 3 6h7v-2h2l3 10v21h-1l-1-13-1-4-9-9-3-4z" fill="#122888"/>
<path transform="translate(347,844)" d="m0 0 2 3v3l11-1 7-1 60 1v1l-50 1h-29l-2-1v-5z" fill="#EBF7FE"/>
<path transform="translate(522,626)" d="m0 0h6l6 5v1l-12 1-3 2-5-1-3-5z" fill="#B8D8F8"/>
<path transform="translate(392,385)" d="m0 0 4 1v20l-2 1-3-2-1-4v-11z" fill="#0D1959"/>
<path transform="translate(890,880)" d="m0 0h7v7l3 3-1 4-3 4h-8l3-1v-15z" fill="#D7E6FB"/>
<path transform="translate(857,889)" d="m0 0m-3 1 4 4 17 2v2l31 1v1h-43l-6-3-3-5z" fill="#3B53DB"/>
<path transform="translate(374,657)" d="m0 0h5l5 3 1-1h11v1h-7l1 5h-5l-4 1-9-2-1-3z" fill="#CEE3FB"/>
<path transform="translate(409,390)" d="m0 0 4 1 2 2 1 5v8l2 1h-3v-3l-6-1-1 4-1-5v-8z" fill="#E4ECF8"/>
<path transform="translate(903,670)" d="m0 0 2 1-2 21-4 14h-2v-8l4-22z" fill="#15172A"/>
<path transform="translate(411,459)" d="m0 0h9l3 4 1 4v10h-2l-1 4-2 2-29-1v-1l28-1 2-3v-9l-3-6-6-2z" fill="#74C0FC"/>
<path transform="translate(983,353)" d="m0 0 9 6 8 13 2 5v8l-2 5h-1v-14l-1-4h-2l-7-9-2-4-3-1z" fill="#3B55C6"/>
<path transform="translate(544,822)" d="m0 0h6l2 3-1 1h-42l3-2 6-1h15z" fill="#79B4FA"/>
<path transform="translate(1025,505)" d="m0 0h2l-2 19-2 6-1 10v12l1 1v5l-2-4-2-2-1-10 3-17 2-6z" fill="#2C68F9"/>
<path transform="translate(866,479)" d="m0 0h1v39h-4l1-13v-24z" fill="#1C35A6"/>
<path transform="translate(1045,873)" d="m0 0 4 2 4 12 2 3-1 5-25 5h-8v-3h13l18-4-1-4-2-2-3-12z" fill="#93C0F8"/>
<path transform="translate(434,686)" d="m0 0h15l2 1v3l-3 2h-15l-1-4z" fill="#C7E2FA"/>
<path transform="translate(413,385)" d="m0 0 5 3 2 9v9l-2 1-2-1-2-13-5-3v-3z" fill="#0E217A"/>
<path transform="translate(556,637)" d="m0 0h16l12 2v2l5 2-1 2-5-2h-7l-4-1h-6l-4-3-6-1z" fill="#F5B6B5"/>
<path transform="translate(1012,488)" d="m0 0 2 2-1 6-9 6-9 3-3 2-7 1 4-4 8-4 10-4 3-5h2z" fill="#69B4FB"/>
<path transform="translate(235,871)" d="m0 0h1l2 12 8 1h11l4 1 14 1v1h-38l-1-1z" fill="#90C5FA"/>
<path transform="translate(223,871)" d="m0 0h5v2l-4 2-18 2-7-1v-2l-4-1z" fill="#364DDD"/>
<path transform="translate(694,545)" d="m0 0h1v5l-3 1-2 4-10 12-3 5-4 5-3 1 2-5 10-13 6-8 4-6z" fill="#0E1A5D"/>
<path transform="translate(425,385)" d="m0 0 5 2v17l-1 2h-4z" fill="#0C195D"/>
<path transform="translate(437,386)" d="m0 0 5 1-2 19-2 1-3-2-1-8z" fill="#11247C"/>
<path transform="translate(308,755)" d="m0 0 13 1-2 1 1 3 4 1v2h-18z" fill="#BCDEFA"/>
<path transform="translate(139,919)" d="m0 0h2v2l5-1 5 2 5 4v2l-10-1-10-4-2-2h5zm19 4 2 2-3-1z" fill="#2C34DE"/>
<path transform="translate(856,544)" d="m0 0h3l4 6 1 12v20h-1l-1-13-1-3-2-10-2-5z" fill="#2E45C2"/>
<path transform="translate(665,481)" d="m0 0h3l1 2v8l-2 8-5-5-3-2 1-3h2l2-5z" fill="#0D1855"/>
<path transform="translate(681,818)" d="m0 0h2l1 5 3 36v8l-3 1-1-29z" fill="#121D5C"/>
<path transform="translate(656,780)" d="m0 0h3l-2 6-6 10-4 2-4 6h-2l-2 4-4 3 2-4 12-16h2l1-4z" fill="#0C1036"/>
<path transform="translate(975,379)" d="m0 0 2 3 5-2 4 3v6l4 2-3 1-12-4z" fill="#0D1134"/>
<path transform="translate(850,848)" d="m0 0h1v6l-5 9-4 2v2h-7l-2-1v-2l9-1h2v-9l4-4h2z" fill="#B6CFF7"/>
<path transform="translate(641,810)" d="m0 0 2 1-3 11-1 3h-3v2h-2l2 7h-3v-14l7-9z" fill="#0E2075"/>
<path transform="translate(286,587)" d="m0 0h1v21l-1 10h-2v6l-2-2 1-7 1-26z" fill="#316FF9"/>
<path transform="translate(1039,534)" d="m0 0h4l1 9-3 7-1 4-5 1v-4l3-2v-14z" fill="#EAA9AB"/>
<path transform="translate(681,855)" d="m0 0 2 1v13l-2 3-3-1-2-4v-6l3-5z" fill="#FEFEFE"/>
<path transform="translate(354,700)" d="m0 0h14v1h-12l-3 11-1 4v5l-7-1 4-11 4-8z" fill="#BBDCF9"/>
<path transform="translate(726,602)" d="m0 0 4 1v3l-18 6h-3v-6h9z" fill="#0C1652"/>
<path transform="translate(679,900)" d="m0 0 30 1v1l-25 1-1 1h-23l-1-3z" fill="#355CEA"/>
<path transform="translate(587,634)" d="m0 0 7 5v-2h3l1-2h2l1 2 3 1v2h2v2l4-1-1 2-6 1-9-1-5-5z" fill="#82C2FB"/>
<path transform="translate(916,567)" d="m0 0 3 3 4 9-1 11-1 7h-7l-4-1-1-3 7 2-1-3 4-1 1-14-4-6z" fill="#C8D5F1"/>
<path transform="translate(323,508)" d="m0 0h15l19 1-1 2h-36v-2z" fill="#CAD9F4"/>
<path transform="translate(211,763)" d="m0 0 3 1 1 10h-1v17l-2 1-2-16-1-4v-7z" fill="#4871EA"/>
<path transform="translate(954,690)" d="m0 0h1l-1 10-6 26-3 7-1-3 3-14v-7h2l3-10z" fill="#132996"/>
<path transform="translate(1022,669)" d="m0 0h1l4 36v8h-2l-2-15-2-20z" fill="#0E2179"/>
<path transform="translate(339,874)" d="m0 0 5 3 15 1 32 1v1h-53z" fill="#D9E7FC"/>
<path transform="translate(956,536)" d="m0 0 16 2-3 4h-2l-1 3-4 1-4-4v-2l-3-1z" fill="#B5CEF7"/>
<path transform="translate(585,666)" d="m0 0h5l-1 15-2 7-2-4v-6l-1-6v-5z" fill="#6EACF9"/>
<path transform="translate(522,622)" d="m0 0h13l11 1v1l-15 1-13 3-8 1 1-3 9-2z" fill="#2E6DF9"/>
<path transform="translate(801,395)" d="m0 0h11l6 1v5l-5 2-2-2h-3l-5-1z" fill="#B7E3FB"/>
<path transform="translate(892,568)" d="m0 0h14l10 1 1 3-8 1h-9l-3-2-6-1z" fill="#EDA6A7"/>
<path transform="translate(700,516)" d="m0 0h28l3 2h-15l12 1 1 1v8h-1l-1-7-27-2z" fill="#B1EDFD"/>
<path transform="translate(651,884)" d="m0 0 1 4-1 15h-26l-4-1 1-2h24l3-1 1-13z" fill="#243DBB"/>
<path transform="translate(629,828)" d="m0 0 2 2 1 8 2 7 4 2 6 9 3 5 1 10-2-4-6-11-3-6v-2l-4-2-4-10z" fill="#0D1135"/>
<path transform="translate(356,787)" d="m0 0 4 1 1 3v4l11 1v1l-12 1-2 6h-2l-1-6v-8z" fill="#C9DDF8"/>
<path transform="translate(625,556)" d="m0 0 4 1-4 8-8 1 1-8z" fill="#6AC2FD"/>
<path transform="translate(957,685)" d="m0 0 2 2-2 36h-1v-20l-1-1-2 2 1-9z" fill="#2136BB"/>
<path transform="translate(449,386)" d="m0 0 3 1v18h-4l-2-4v-6z" fill="#122588"/>
<path transform="translate(810,389)" d="m0 0 5 1 2 2-1 4-15-1-1-4 4-1z" fill="#80C4FB"/>
<path transform="translate(479,661)" d="m0 0h1v5l-5 2-30 1-1-1-12-1v-1h23l23-1z" fill="#8FC5FA"/>
<path transform="translate(675,501)" d="m0 0h7l1 1v8l-3 6-3 1 2-9h-2l-3-5z" fill="#EFB8BA"/>
<path transform="translate(685,474)" d="m0 0 5 4 2-1 2 14-1 3-3-1v-9l-4-2z" fill="#080E42"/>
<path transform="translate(535,683)" d="m0 0h19l-4 3h-2v2h-13z" fill="#EAF5FD"/>
<path transform="translate(382,392)" d="m0 0 5 1v13h-5l-1-2v-8z" fill="#0C113B"/>
<path transform="translate(243,762)" d="m0 0h28v1l-7 2-38-1v-1z" fill="#D9E7FC"/>
<path transform="translate(508,627)" d="m0 0 9 9-1 5-4-5-3-1-26-1v-1h24z" fill="#E3F1FD"/>
<path transform="translate(719,565)" d="m0 0 5 1v3l-2 2-3 2-2 1h-6v-2h-3v-2l4-2 6-1z" fill="#1E33BA"/>
<path transform="translate(812,403)" d="m0 0 6 1v2h2v2l-6 1h-9l-3-1 1-3z" fill="#81C4FB"/>
<path transform="translate(132,881)" d="m0 0h8v2l-5 2-5 1-1 2-3-1-2 4h-4l2-5 4-3z" fill="#3852D8"/>
<path transform="translate(231,858)" d="m0 0 2 2 1 4v13h-2l-2 4v-6h-2l-1-5 2-1z" fill="#4469F0"/>
<path transform="translate(285,719)" d="m0 0 5 2 9 6-2 1-6-2-1 3-3 1-2 3z" fill="#2D6DF9"/>
<path transform="translate(995,411)" d="m0 0h1v5l5 2 3 8 5 4h-6l-5-4-3-9z" fill="#111C58"/>
<path transform="translate(718,888)" d="m0 0h1l1 10h26l25 1v1h-54z" fill="#BBD1F7"/>
<path transform="translate(648,873)" d="m0 0h1l1 7v19l-4 2h-24v-1l25-1 1-15z" fill="#0C1340"/>
<path transform="translate(710,783)" d="m0 0 2 4v39l3 6-5-2-1-23z" fill="#0E237E"/>
<path transform="translate(712,659)" d="m0 0h6l1 4h-20v-2h-8v-1z" fill="#0E1235"/>
<path transform="translate(162,536)" d="m0 0 2 2v32l-2-3-1-10v-17z" fill="#45A6FD"/>
<path transform="translate(637,704)" d="m0 0 3 1-2 4-2 6-2-1v-2l-6 2v-7z" fill="#0C1242"/>
<path transform="translate(1076,520)" d="m0 0h5l4 16v5l-3-4-1-5-2-1v-3h-2l-1-4 1-2-3-1z" fill="#F4B6B5"/>
<path transform="translate(858,889)" d="m0 0 10 2 7 4v1h-12l-6-2v-4z" fill="#1F38A4"/>
<path transform="translate(674,458)" d="m0 0 8 1 8 6v4l-1 3-4-5-9-6v-2z" fill="#0C123F"/>
<path transform="translate(529,660)" d="m0 0h14l23 1v1l-18 1h-19z" fill="#D2E4FB"/>
<path transform="translate(916,512)" d="m0 0h1v9l8 1v1l-10 1h-14l5-4h10z" fill="#B4D3F7"/>
<path transform="translate(686,629)" d="m0 0h2v5l3-5 2 4-1 2h-2l1 2 7 1v1h-19l5-4z" fill="#0D1135"/>
<path transform="translate(993,399)" d="m0 0 2 1v10l-1 8 1 5-2 2-3-8 1-11z" fill="#0D1A5D"/>
<path transform="translate(1061,898)" d="m0 0m-10 1h10l-3 2h-8v2h9v1h-11l-10-1-2-2 3-1z" fill="#2E6CFA"/>
<path transform="translate(609,538)" d="m0 0 3 3v25h-2l-1-12z" fill="#D2EEFC"/>
<path transform="translate(864,524)" d="m0 0h8l-4 3-4 2h-3v2l-4 2-2 7h-1l1-10 3-3z" fill="#CAE0FA"/>
<path transform="translate(707,611)" d="m0 0 2 3-2 12-2-1h-25v-1h21v-2h2l2-5z" fill="#2B43BE"/>
<path transform="translate(665,459)" d="m0 0h8l8 4v5l-14-5z" fill="#172D94"/>
<path transform="translate(659,569)" d="m0 0 2 1v3h2l1 6h2v2l-6 2-3-3 1-5z" fill="#385AF5"/>
<path transform="translate(708,517)" d="m0 0h19l5 1v16h-1l-1-6h-1l-1-8-20-2z" fill="#80C5FC"/>
<path transform="translate(284,716)" d="m0 0 11 6 11 9 3 4v8h-1l-1-7-8-7-4-4-10-6v6h-1z" fill="#2B7EF9"/>
<path transform="translate(724,719)" d="m0 0h2v13l-1 15h-1l-1-14h-1v-11z" fill="#2745BA"/>
<path transform="translate(541,616)" d="m0 0 26 1 6 1v1h-30l-2-1z" fill="#294BCE"/>
<path transform="translate(959,355)" d="m0 0 4 1h-2l-3 9-2 5-5 1 2-4-1-2 2-2 1-6 2-1v2h2z" fill="#0E227B"/>
<path transform="translate(632,722)" d="m0 0h1l-1 11-4 15-3 8h-1l1-9z" fill="#0B1241"/>
<path transform="translate(567,653)" d="m0 0h20l12 1v1l-22 1h-12z" fill="#F0F8FD"/>
<path transform="translate(396,389)" d="m0 0 2 4 4-1v11l-4-1-1 5h-1z" fill="#E4EEF9"/>
<path transform="translate(701,607)" d="m0 0 2 3-8 4-7 3h-7l4-3 8-4z" fill="#4055DE"/>
<path transform="translate(284,560)" d="m0 0h2l-1 7-6 7h-4v-2l2-1 3-6z" fill="#7694EB"/>
<path transform="translate(1e3 422)" d="m0 0 5 4 4 1 7 6-1 3-8-4-7-1v-1l5-1-5-5z" fill="#5669B5"/>
<path transform="translate(683,860)" d="m0 0h1v11l-2 13-3 1v2l-6-1-13-2v-1h20z" fill="#C4DAF6"/>
<path transform="translate(409,797)" d="m0 0 18 1-1 2-11 3-4-2z" fill="#7BBDFC"/>
<path transform="translate(676,772)" d="m0 0 3 1 1 10v24h-1z" fill="#101B5E"/>
<path transform="translate(321,756)" d="m0 0h7v1l-5 1 4 2 17 2v1h-20v-2l-5-1v-3z" fill="#CAE0FA"/>
<path transform="translate(610,638)" d="m0 0 4 2 4 7v5l-1-3-4-1-5-5z" fill="#9ED1FA"/>
<path transform="translate(653,859)" d="m0 0 5 1v9l-2 3-3-1z" fill="#FEFEFE"/>
<path transform="translate(1027,713)" d="m0 0h1l2 10 2 14 1 3v8l-2 1-3-20z" fill="#0E2281"/>
<path transform="translate(410,693)" d="m0 0h8l5 2 1 4-5 1v-3l-7 1-2-2z" fill="#64ACFA"/>
<path transform="translate(978,560)" d="m0 0 10 1h27v1l-8 1-31 1-1-3z" fill="#C7D4F1"/>
<path transform="translate(650,539)" d="m0 0 6 1 1 1v11l-1-2-3 1z" fill="#2039B4"/>
<path transform="translate(923,840)" d="m0 0h1l3 30-3 1-1-11z" fill="#0D217B"/>
<path transform="translate(721,833)" d="m0 0h1v22l-1 12h-1l-1-30h2z" fill="#233FB2"/>
<path transform="translate(424,814)" d="m0 0 4 1 3 3-1 6-1 2h-2l-5-11z" fill="#91C6FB"/>
<path transform="translate(322,393)" d="m0 0 2 1 2 7 2-2-1 5-10 2 2-1 2-10z" fill="#192A80"/>
<path transform="translate(126,886)" d="m0 0 3 1-2 4 1 3 5 2-3 1-5-1v-2l-6 3v-5l3-2h2z" fill="#293AEA"/>
<path transform="translate(185,874)" d="m0 0h14v2l3 1h-21l-3 1-1-2z" fill="#2E42EE"/>
<path transform="translate(708,276)" d="m0 0h16l6 1v1l-9 1-5 1-4-1-1 2-1-3-4-1z" fill="#2237BB"/>
<path transform="translate(897,873)" d="m0 0h9l-1 4-4 2-10 1 4-2 1-4z" fill="#77A7F7"/>
<path transform="translate(550,685)" d="m0 0h2v4h11l12 1v1h-18l-21-2v-1h12v-2z" fill="#CAE2FB"/>
<path transform="translate(636,641)" d="m0 0 3 3 1 6-6 2h-8l3-1 1-4v2l6-1-1-3z" fill="#3167F4"/>
<path transform="translate(1058,900)" d="m0 0h13l1 2-2 1h-20v-2z" fill="#61A3F9"/>
<path transform="translate(661,852)" d="m0 0h9l8 1-3 2h-23v-2z" fill="#D9E7FC"/>
<path transform="translate(955,685)" d="m0 0h1v5h-3v2l-5 4h-2l-1 3-5 2 2-4 7-7z" fill="#0D2079"/>
<path transform="translate(651,657)" d="m0 0h4v3l-8 3h-11l2-2 7-3z" fill="#D0CDE4"/>
<path transform="translate(1032,858)" d="m0 0h3v10l-1 1-16 1 2-2 10-1z" fill="#0E2178"/>
<path transform="translate(458,661)" d="m0 0h14l1 4h-12l-4-2z" fill="#EBF7FE"/>
<path transform="translate(328,460)" d="m0 0 2 2h-2l-2 7v12h11v1l-11 1-3-4v-7l3-10z" fill="#7CBFFB"/>
<path transform="translate(327,388)" d="m0 0h1l5 15h-4l-4-9-2-5 3 1z" fill="#DAE8F9"/>
<path transform="translate(792,292)" d="m0 0 11 3 9 3v2h-7l-5-2h-2v-2l-6-1z" fill="#3A50C6"/>
<path transform="translate(648,796)" d="m0 0 3 1-7 14-2-2-1-5h2l2-4z" fill="#0F1D62"/>
<path transform="translate(458,660)" d="m0 0h21v5l-5 1-3-3 1-2h-14z" fill="#D7E6FB"/>
<path transform="translate(552,620)" d="m0 0h20l4 2v2h-6l-1-1-16-1z" fill="#B0ECFD"/>
<path transform="translate(1032,530)" d="m0 0 11 3-4 3-1 6-3-3v-6l-2 1-1 11h-1v-13z" fill="#BBCFF3"/>
<path transform="translate(994,375)" d="m0 0h5l1 1v8h-1l-1 7-3 1-1-3 2-4v-6z" fill="#0B113F"/>
<path transform="translate(653,890)" d="m0 0 4 2 3 4-2 3h-6v-8z" fill="#BCDEFA"/>
<path transform="translate(565,817)" d="m0 0h1l-1 7-4 2h-10l1-2h2v-2l9-1z" fill="#7CB7FA"/>
<path transform="translate(694,663)" d="m0 0h25v7l-2-3-3-1-20-2z" fill="#0C164F"/>
<path transform="translate(980,569)" d="m0 0 4 1 5 5 3 4 3 1v2l-6-1-9-11z" fill="#E8EEF9"/>
<path transform="translate(373,485)" d="m0 0h44l-2 3-5-1-37-1z" fill="#EBF7FE"/>
<path transform="translate(1045,873)" d="m0 0 4 2 4 12 2 3-1 5-3-1h2l-2-5-2-2-3-12z" fill="#73B0F9"/>
<path transform="translate(1017,871)" d="m0 0h10l13 2v1h-22l-2 4v-6z" fill="#BCCFF2"/>
<path transform="translate(985,522)" d="m0 0 4 1-8 3-11 3h-7l3-1 1-3h8z" fill="#45B2FD"/>
<path transform="translate(423,471)" d="m0 0h1v6h-2l-1 4-2 2-29-1v-1l28-1 3-4h2z" fill="#87C4FB"/>
<path transform="translate(560,902)" d="m0 0h29l-3 2-11 1-15-2z" fill="#2A63F8"/>
<path transform="translate(1058,869)" d="m0 0 1 3-1 1h-13l-18-1v-1l30-1z" fill="#3254DA"/>
<path transform="translate(1e3 653)" d="m0 0 1 2-3 8-5 3-1-5 4-4 1-3z" fill="#0C164E"/>
<path transform="translate(522,626)" d="m0 0h6l3 3-2 1-11-1v2h-6l-1-2z" fill="#79B5FA"/>
<path transform="translate(947,601)" d="m0 0 13 1 1 3-7 2-5-2v-2h-2z" fill="#080D40"/>
<path transform="translate(955,478)" d="m0 0 8 1v1l-15 4-5 1 1-4z" fill="#6BB7FB"/>
<path transform="translate(958,428)" d="m0 0h9l-2 9-3 3-2-9z" fill="#0D123A"/>
<path transform="translate(713,868)" d="m0 0h1l2 16v9l-3-2z" fill="#080D40"/>
<path transform="translate(220,822)" d="m0 0 2 3 1 6h3l1-2v3h-2v11l-2-1-3-14z" fill="#5185F7"/>
<path transform="translate(994,739)" d="m0 0h2l3 23v6h-1l-5-28z" fill="#0E2179"/>
<path transform="translate(593,643)" d="m0 0 1 2 4 2-1 3-5 1v-2h-4l1-4 1 2 3 1zm-14 8h13v1h-13z" fill="#DCE9FC"/>
<path transform="translate(889,520)" d="m0 0h17l-2 3-3 1h-13v-1l6-1-5-1z" fill="#BCDEFA"/>
<path transform="translate(425,385)" d="m0 0 5 2v4h-2l-1 4-1 11h-1z" fill="#122682"/>
<path transform="translate(949,892)" d="m0 0 2 1-1 4-3 1h-10v-3l9-1z" fill="#61A3F9"/>
<path transform="translate(195,873)" d="m0 0h9l6 1h6l-1 2-9 1-7-1v-2z" fill="#3D56DB"/>
<path transform="translate(555,798)" d="m0 0h13l-1 13-2-2-1-7-1-3h-8z" fill="#7AB5FA"/>
<path transform="translate(713,681)" d="m0 0h2v2h2v9l-4-1-1-1v-8z" fill="#132891"/>
<path transform="translate(622,625)" d="m0 0h2v2l4 2 2 9-1 2h-2l-4-11z" fill="#4057DF"/>
<path transform="translate(700,532)" d="m0 0 20 1v1l-19 1 1 2 12 1v1h-14z" fill="#B9E4FB"/>
<path transform="translate(345,392)" d="m0 0h2l2 9-7 4 2-12z" fill="#DBE7F9"/>
<path transform="translate(897,870)" d="m0 0 3 2-4 3-1 3-7 4h-2l2-4 3-1 1-4 5-1z" fill="#0F227A"/>
<path transform="translate(704,534)" d="m0 0h14v1h-12v2h18v1h-22l-1-3z" fill="#8BC3FA"/>
<path transform="translate(659,459)" d="m0 0h5v2l3 2-10 1-2 5-1-4-3-3 7-2z" fill="#0B1343"/>
<path transform="translate(884,900)" d="m0 0h10l8 2-4 2-14-1z" fill="#2938EF"/>
<path transform="translate(393,684)" d="m0 0h2l2 8-25-2 3-2 18 1z" fill="#7CBBFB"/>
<path transform="translate(955,668)" d="m0 0h5l-1 6-1 3h-5z" fill="#0D1135"/>
<path transform="translate(960,346)" d="m0 0 7 1 10 2 5 3-4 1-5-1v-2l-13-2z" fill="#3A53C0"/>
<path transform="translate(948,873)" d="m0 0h6v1h-5l2 5-2 4-1-3-5-1-7-4 2-1 10 4z" fill="#394FD7"/>
<path transform="translate(656,780)" d="m0 0h3l-2 6-5 9-2-1 1-6 4-5z" fill="#0F1851"/>
<path transform="translate(638,818)" d="m0 0 2 4-1 3h-3v2h-2l2 7h-3v-11z" fill="#0F2480"/>
<path transform="translate(778,740)" d="m0 0m-11 0h9l2 1-1 2h-23v-2z" fill="#C7D4F1"/>
<path transform="translate(655,657)" d="m0 0 9 1 10 1v1l-13 1-4 2-2-3z" fill="#0B103B"/>
<path transform="translate(971,371)" d="m0 0h10l1 2-6 2h-9l-1-2z" fill="#0C1650"/>
<path transform="translate(530,902)" d="m0 0h16l-2 1-1 2-13 1-1-3z" fill="#2A63F8"/>
<path transform="translate(719,660)" d="m0 0h1l1 5 15 1v1l-13 1v2h-2l-1 2-1-4z" fill="#D0E0F8"/>
<path transform="translate(989,565)" d="m0 0h6v2l-8 2 3 5 3 4-1 2-6-7v-2l-2-1v-3z" fill="#EAF6FD"/>
<path transform="translate(418,392)" d="m0 0h1l1 5v9l-2 1-2-1v-9h2z" fill="#0E1958"/>
<path transform="translate(816,770)" d="m0 0h14l-1 3h-11l-4-2z" fill="#BDD1F5"/>
<path transform="translate(616,750)" d="m0 0 4 2v6l-2 5-4-2 1-7z" fill="#142A8B"/>
<path transform="translate(794,385)" d="m0 0 3 1 2 5-7 1-2 2 1-7z" fill="#B0EFFE"/>
<path transform="translate(356,795)" d="m0 0 16 1v1l-12 1-2 6h-2z" fill="#BDDEFA"/>
<path transform="translate(215,761)" d="m0 0h18v1l-16 1-1 1v13h-1l-2-13-1-2z" fill="#9CC5F9"/>
<path transform="translate(434,688)" d="m0 0h13v3h-13z" fill="#EBF7FE"/>
<path transform="translate(630,683)" d="m0 0 4 2-1 8h-1l-1 6h-1l-1-15z" fill="#1C33A2"/>
<path transform="translate(384,684)" d="m0 0h9l1 2-1 2h-10z" fill="#B3D8F8"/>
<path transform="translate(684,658)" d="m0 0 7 2 8 1v2l-13-1-9-2v-1z" fill="#0B0F3B"/>
<path transform="translate(922,590)" d="m0 0 2 3 7 4v1h-11l1-7z" fill="#73ADF9"/>
<path transform="translate(678,565)" d="m0 0 3 1-4 6-4 5-3 1 2-5z" fill="#132791"/>
<path transform="translate(656,562)" d="m0 0 3 4 1 6-3 7h-1l-1-10 2-1-1-1z" fill="#3287F9"/>
<path transform="translate(654,550)" d="m0 0h2l3 9v4l-3-1-3-11z" fill="#2A40BF"/>
<path transform="translate(319,391)" d="m0 0h2v7l-2 7h-3l1-7z" fill="#0F174D"/>
<path transform="translate(765,285)" d="m0 0 8 1 12 3v2l-5 1-4-3-5-1-6-1z" fill="#3F56CA"/>
<path transform="translate(227,853)" d="m0 0 2 3 1 13h-3l-2-14h2z" fill="#5999F8"/>
<path transform="translate(288,751)" d="m0 0 3 3v3l7 2v1l-10 1z" fill="#1E34B8"/>
<path transform="translate(390,395)" d="m0 0 2 2 1 3h3v6l-2 1-3-2z" fill="#0A1148"/>
<path transform="translate(1044,737)" d="m0 0h1l2 19-1 5-2-4v-12l-1-2z" fill="#4C66DF"/>
<path transform="translate(282,718)" d="m0 0 2 2 1 5v7h-1l-1-6-1 11h-1v-18z" fill="#70B9FB"/>
<path transform="translate(617,609)" d="m0 0 3 4 5 9-1 2-9-11 2-1z" fill="#72AEF9"/>
<path transform="translate(937,521)" d="m0 0 5 1 2 1 2 7-4-2-5-4z" fill="#509AFA"/>
<path transform="translate(329,384)" d="m0 0 4 2-1 6-4 1-1-7z" fill="#0D1445"/>
<path transform="translate(727,896)" d="m0 0h8l8 2v1h-19l3-1z" fill="#BCDEFA"/>
<path transform="translate(321,729)" d="m0 0 2 1-11 10-1 2-2-1 2-5 3-3v2z" fill="#67BEFD"/>
<path transform="translate(587,721)" d="m0 0 3 1 3 6v12l-2-4-1-11-4-1z" fill="#D9E7FC"/>
<path transform="translate(1023,581)" d="m0 0h1l1 17-1-2-4-1 1-5 1-1z" fill="#3580F7"/>
<path transform="translate(1009,507)" d="m0 0h3l-2 5-10 6-2-1 6-5 2-2z" fill="#45B3FE"/>
<path transform="translate(1023,500)" d="m0 0h2l1 5-3 17h-1l1-13z" fill="#257CF9"/>
<path transform="translate(657,493)" d="m0 0h5l3 3v2l-5 1-4-4z" fill="#E1B3BD"/>
<path transform="translate(866,479)" d="m0 0h1v21h-1l-1-9h-1v-10z" fill="#1B33A3"/>
<path transform="translate(739,279)" d="m0 0 8 1v3l-9 1-2-2h2z" fill="#293EBE"/>
<path transform="translate(718,888)" d="m0 0h1l1 10 17 1v1h-20z" fill="#A7CDF8"/>
<path transform="translate(338,706)" d="m0 0v3l-3 3v-3zm-5 6 1 3-3 9-4 1 3-6 2-6z" fill="#7AB8FB"/>
<path transform="translate(602,603)" d="m0 0 2 3v3l-9-1-4-2h8v-2z" fill="#DFEEFC"/>
<path transform="translate(713,559)" d="m0 0 4 1 5 5-4 3h-6l4-1v-3l-2-1 2-1z" fill="#3953DB"/>
<path transform="translate(857,889)" d="m0 0m-3 1 4 4 17 2v1h-18l-3-5z" fill="#2E49C6"/>
<path transform="translate(928,856)" d="m0 0h2l2 16-4-1 1-1z" fill="#152EA4"/>
<path transform="translate(215,793)" d="m0 0 2 2 1 13h-2l-3-13h2z" fill="#5088F8"/>
<path transform="translate(1047,761)" d="m0 0h1l2 20-2-3v-2h-2v-8z" fill="#405FDB"/>
<path transform="translate(370,658)" d="m0 0 3 1-1 4 6 1v1h-9v-2l-4-1z" fill="#7AB9FB"/>
<path transform="translate(1039,534)" d="m0 0h4l-1 4 1 4-2 2-3-3v-6z" fill="#F4B5B4"/>
<path transform="translate(218,802)" d="m0 0h3l1 11-2 1-2-6z" fill="#3D5AE4"/>
<path transform="translate(287,721)" d="m0 0 6 4-2 1-1 3-4 1v-7z" fill="#2A63F8"/>
<path transform="translate(538,636)" d="m0 0h2v3h-13l-6-1v-1z" fill="#BCE1FA"/>
<path transform="translate(611,611)" d="m0 0 5 2 5 6-1 4-6-7z" fill="#3352D7"/>
<path transform="translate(614,600)" d="m0 0 2 3 1 9-10-1-3-2h10z" fill="#BED8FA"/>
<path transform="translate(648,485)" d="m0 0 6 6 5 1-2 2h-6l-3-4z" fill="#0C1139"/>
<path transform="translate(419,474)" d="m0 0h1v5l-2 2h-10l4-3 6-2z" fill="#B7F4FE"/>
<path transform="translate(458,329)" d="m0 0m-1 1m-1 1m-3 1h3v2l-3 2h-3v3l-5-1 5-5z" fill="#2035BB"/>
<path transform="translate(679,885)" d="m0 0h2l-1 10-2-2-2 1-1-7h4z" fill="#B5CEF6"/>
<path transform="translate(1138,876)" d="m0 0h13l5 1-1 2h-12l-5-2z" fill="#4359DE"/>
<path transform="translate(310,743)" d="m0 0h2v2l2 1-5 8h-1v-7z" fill="#B0EFFE"/>
<path transform="translate(905,716)" d="m0 0h2v10h-3l-1-6z" fill="#080D40"/>
<path transform="translate(693,632)" d="m0 0h2v2l3 1v3h-7l-1-3h2z" fill="#080D3F"/>
<path transform="translate(515,620)" d="m0 0h6v4h-8l-1-3z" fill="#3049C9"/>
<path transform="translate(327,467)" d="m0 0 1 2v9l5 2v1h-7l-1-3v-9z" fill="#B0EFFE"/>
<path transform="translate(1011,843)" d="m0 0 3 4v17h-1l-2-14z" fill="#1B339A"/>
<path transform="translate(856,544)" d="m0 0h3l4 6-2 4v-3l-3 1-2-7z" fill="#1F3DB7"/>
<path transform="translate(933,502)" d="m0 0h2l1 7-1 10h-1l-1-6z" fill="#81BFFA"/>
<path transform="translate(999,372)" d="m0 0 2 2 1 3v8l-2 5h-1z" fill="#536CC9"/>
<path transform="translate(159,877)" d="m0 0h11l-3 3-7 1-3-2z" fill="#3449DA"/>
<path transform="translate(937,725)" d="m0 0 2 4 1 5-3 7h-1v-12l-1-3z" fill="#0F2480"/>
<path transform="translate(634,632)" d="m0 0 5 2 5 3v2h-6z" fill="#1C33A8"/>
<path transform="translate(630,629)" d="m0 0 4 2 4 6-1 3-5-5z" fill="#61A7F9"/>
<path transform="translate(1177,882)" d="m0 0 6 2 4 3v6h-2l-2-7-5-2z" fill="#425BE1"/>
<path transform="translate(235,877)" d="m0 0h1l1 11-5-2v-5h3z" fill="#6DACF9"/>
<path transform="translate(837,863)" d="m0 0 7 1-2 1v2h-7l-2-1v-2z" fill="#ADCCF7"/>
<path transform="translate(306,754)" d="m0 0h1v8h-18v-1l13-1 3-1z" fill="#71AFFA"/>
<path transform="translate(598,646)" d="m0 0h2v2l2 1v3h-9l1-2 3-2z" fill="#D6CADD"/>
<path transform="translate(637,639)" d="m0 0h8l-2 1-1 4-2 1-3-3z" fill="#E4ECFA"/>
<path transform="translate(602,631)" d="m0 0 4 1 5 6-1 2-3-1-2-5h-2z" fill="#7ABDFB"/>
<path transform="translate(1011,429)" d="m0 0 4 1 3 3-1 3-8-4z" fill="#3245A1"/>
<path transform="translate(995,417)" d="m0 0h1l3 9 4 4-2 1-5-5-2-8z" fill="#192C8A"/>
<path transform="translate(438,397)" d="m0 0h1v10l-4-2v-6z" fill="#0D1B62"/>
<path transform="translate(413,385)" d="m0 0 2 1 1 5-2 2-5-3v-3z" fill="#1A3098"/>
<path transform="translate(958,363)" d="m0 0 1 4 1 5-3 1-5-2 4-3z" fill="#0C1753"/>
<path transform="translate(956,348)" d="m0 0 2 1-6 4-1 8-2 1v-9l4-4z" fill="#2F46AC"/>
<path transform="translate(234,869)" d="m0 0h1v12h-3l-1 4v-8l2-1z" fill="#2E6CFA"/>
<path transform="translate(174,875)" d="m0 0h5v3l-1 2-6-1-1-3z" fill="#2E49F2"/>
<path transform="translate(1032,845)" d="m0 0h2l1 4v8l-3 1z" fill="#0D1F73"/>
<path transform="translate(644,832)" d="m0 0 2 1 1 5-3 3-4-1 2-1 1-5z" fill="#0F228F"/>
<path transform="translate(308,755)" d="m0 0 6 1-3 1 2 5h-6z" fill="#B0D7F8"/>
<path transform="translate(335,711)" d="m0 0h2l-2 5-1 4 2 1v2h-5l1-7z" fill="#7EC1FC"/>
<path transform="translate(543,690)" d="m0 0h9l4 3-5 1-8-3z" fill="#69B4FB"/>
<path transform="translate(286,587)" d="m0 0h1v17h-1l-2-15z" fill="#324ACD"/>
<path transform="translate(1024,581)" d="m0 0h15l-3 2-9 1-3-1z" fill="#102590"/>
<path transform="translate(978,560)" d="m0 0 10 1 1 2-13 1-1-3z" fill="#C7D3EF"/>
<path transform="translate(609,538)" d="m0 0 3 3v5l-1 1-1 7h-1z" fill="#D9E7FC"/>
<path transform="translate(322,393)" d="m0 0 2 1v6l-4 4 1-9z" fill="#BFD9F8"/>
<path transform="translate(805,396)" d="m0 0 7 1-1 3-3 1-5-1-1-3z" fill="#D9E7FC"/>
<path transform="translate(998,383)" d="m0 0h1v12h-2v2l-3 1 2-7h2z" fill="#152368"/>
<path transform="translate(399,687)" d="m0 0 6 1-1 4h-6z" fill="#B0D3F7"/>
<path transform="translate(385,659)" d="m0 0h11v1h-7l1 5-5-1z" fill="#ACDEFB"/>
<path transform="translate(678,570)" d="m0 0 2 3-2 5-5-1 4-6z" fill="#4261E8"/>
<path transform="translate(1012,556)" d="m0 0 1 3h11v1l-17 1 1-2 3-1z" fill="#2E6CFA"/>
<path transform="translate(404,397)" d="m0 0 2 1v4h2l-1 5-4-2z" fill="#0F237B"/>
<path transform="translate(431,345)" d="m0 0 4 1h-2v2h-3l1 3h-7l1-3 6-1z" fill="#2239B6"/>
<path transform="translate(191,874)" d="m0 0h8v2l3 1h-10l-2-2z" fill="#293AF0"/>
<path transform="translate(1013,853)" d="m0 0 2 2 2 8v4h-2l-2-9z" fill="#273EB4"/>
<path transform="translate(221,815)" d="m0 0h1l2 7 1 9h-2l-2-6z" fill="#4057E0"/>
<path transform="translate(421,691)" d="m0 0h12l-3 2h-2v2h-2l-1-2-7 1-2-2z" fill="#7AB6FA"/>
<path transform="translate(969,647)" d="m0 0 2 2 3 8-1 3-4-6-1-5z" fill="#0D1F72"/>
<path transform="translate(636,641)" d="m0 0 3 3 1 6h-4l-1-5z" fill="#4261EB"/>
<path transform="translate(361,393)" d="m0 0h2l2 14h-2l-1-7h-2z" fill="#BFD2F4"/>
<path transform="translate(456,328)" d="m0 0h2l-2 4-9 4-3-1z" fill="#526ADC"/>
<path transform="translate(612,854)" d="m0 0 2 2 3 9-1 5h-1l-3-13z" fill="#182C8E"/>
<path transform="translate(280,756)" d="m0 0h3v5h-6l1-4z" fill="#2E5EEC"/>
<path transform="translate(687,554)" d="m0 0 1 3-7 8-2-1z" fill="#0C1650"/>
<path transform="translate(1041,537)" d="m0 0h3v6l-2 4-3-1-1-5 4 1z" fill="#EBA8AA"/>
</svg>
