<svg width="48" height="292" viewBox="0 0 48 292" fill="none" xmlns="http://www.w3.org/2000/svg" xmlns:xlink="http://www.w3.org/1999/xlink">
<rect  x="22" y="192" width="2" height="100" fill="#2AAA94"/>
<rect  x="22" y="0" width="2" height="100" fill="#2AAA94"/>
<circle cx="24" cy="146" r="24" fill="#81C7A2"/>
<path d="M16,152L16,148.316C16,147.197 16.193,146.01 16.579,144.754C16.979,143.485 17.551,142.264 18.297,141.091C19.056,139.904 19.968,138.873 21.034,138L23.591,140.129C22.752,141.357 22.019,142.639 21.393,143.977C20.781,145.3 20.475,146.719 20.475,148.234L20.475,152L16,152ZM26.227,152L26.227,148.316C26.227,147.197 26.421,146.01 26.807,144.754C27.206,143.485 27.779,142.264 28.525,141.091C29.284,139.904 30.196,138.873 31.261,138L33.818,140.129C32.979,141.357 32.247,142.639 31.621,143.977C31.008,145.3 30.702,146.719 30.702,148.234L30.702,152L26.227,152Z" fill="#FFFFFF"/>
</svg>
