<svg width="90" height="90" viewBox="0 0 90 90" fill="none" xmlns="http://www.w3.org/2000/svg">
<rect width="90" height="90" rx="8" fill="#5AB48E"/>
<g clip-path="url(#clip0_1_727)">
<path d="M40.7231 49.5C40.6342 49.5 40.5009 49.4555 40.3231 49.3666L36.0564 45.7666C35.8786 45.5889 35.7897 45.4111 35.7897 45.2333C35.7897 45.0555 35.8786 44.8778 36.0564 44.7L40.3231 41.1C40.5009 41.0111 40.6786 40.9666 40.8564 40.9666C41.0342 40.9666 41.1675 41.0333 41.2564 41.1666C41.3453 41.3 41.3897 41.4555 41.3897 41.6333C41.3897 41.8111 41.3453 41.9444 41.2564 42.0333L37.5231 45.2333L41.2564 48.4333C41.3453 48.5222 41.3897 48.6555 41.3897 48.8333C41.3897 49.0111 41.3453 49.1666 41.2564 49.3C41.1675 49.4333 40.9897 49.5 40.7231 49.5ZM49.2564 49.5C48.9897 49.5 48.812 49.4333 48.7231 49.3C48.6342 49.1666 48.5897 49.0111 48.5897 48.8333C48.5897 48.6555 48.6342 48.5222 48.7231 48.4333L52.4564 45.2333L48.7231 42.0333C48.6342 41.9444 48.5897 41.8111 48.5897 41.6333C48.5897 41.4555 48.6342 41.3 48.7231 41.1666C48.812 41.0333 48.9453 40.9666 49.1231 40.9666C49.3009 40.9666 49.4786 41.0111 49.6564 41.1L53.9231 44.7C54.1009 44.8778 54.1897 45.0555 54.1897 45.2333C54.1897 45.4111 54.1009 45.5889 53.9231 45.7666L49.6564 49.3666C49.4786 49.4555 49.3453 49.5 49.2564 49.5ZM43.5231 52.3C43.4342 52.3 43.3453 52.2778 43.2564 52.2333C43.1675 52.1889 43.0564 52.1 42.9231 51.9666C42.7897 51.8333 42.7675 51.6778 42.8564 51.5L45.5231 38.8333C45.5231 38.6555 45.612 38.5222 45.7897 38.4333C45.9675 38.3444 46.1453 38.3 46.3231 38.3C46.5009 38.3 46.6342 38.3889 46.7231 38.5666C46.812 38.7444 46.812 38.9222 46.7231 39.1L44.0564 51.7666C44.0564 52.1222 43.8786 52.3 43.5231 52.3ZM60.5897 59.1H29.3897C28.2342 59.1 27.212 58.6778 26.3231 57.8333C25.4342 56.9889 24.9897 55.9444 24.9897 54.7V28.3C24.9897 27.0555 25.4342 26.0111 26.3231 25.1666C27.212 24.3222 28.2342 23.9 29.3897 23.9H60.5897C61.7453 23.9 62.7675 24.3222 63.6564 25.1666C64.5453 26.0111 64.9897 27.0555 64.9897 28.3V54.7C64.9897 55.9444 64.5453 56.9889 63.6564 57.8333C62.7675 58.6778 61.7453 59.1 60.5897 59.1ZM29.3897 25.2333C28.5897 25.2333 27.8786 25.5222 27.2564 26.1C26.6342 26.6778 26.3231 27.4111 26.3231 28.3V54.7C26.3231 55.5889 26.6342 56.3222 27.2564 56.9C27.8786 57.4778 28.5897 57.7666 29.3897 57.7666H60.5897C61.3897 57.7666 62.1009 57.4778 62.7231 56.9C63.3453 56.3222 63.6564 55.5889 63.6564 54.7V28.3C63.6564 27.4111 63.3453 26.6778 62.7231 26.1C62.1009 25.5222 61.3897 25.2333 60.5897 25.2333H29.3897ZM64.3231 34.4333H25.6564C25.4786 34.4333 25.3231 34.3666 25.1897 34.2333C25.0564 34.1 24.9897 33.9444 24.9897 33.7666C24.9897 33.5889 25.0564 33.4333 25.1897 33.3C25.3231 33.1666 25.4786 33.1 25.6564 33.1H64.3231C64.5009 33.1 64.6564 33.1666 64.7897 33.3C64.9231 33.4333 64.9897 33.5889 64.9897 33.7666C64.9897 33.9444 64.9231 34.1 64.7897 34.2333C64.6564 34.3666 64.5009 34.4333 64.3231 34.4333ZM36.3231 31.2333C35.7009 31.2333 35.1897 31.0333 34.7897 30.6333C34.3897 30.2333 34.1897 29.7444 34.1897 29.1666C34.1897 28.5889 34.3897 28.1 34.7897 27.7C35.1897 27.3 35.6786 27.1 36.2564 27.1C36.8342 27.1 37.3231 27.3 37.7231 27.7C38.1231 28.1 38.3231 28.5889 38.3231 29.1666C38.3231 29.7444 38.1231 30.2333 37.7231 30.6333C37.3231 31.0333 36.8564 31.2333 36.3231 31.2333ZM36.3231 28.4333C36.0564 28.4333 35.8564 28.5 35.7231 28.6333C35.5897 28.7666 35.5231 28.9444 35.5231 29.1666C35.5231 29.3889 35.5897 29.5666 35.7231 29.7C35.8564 29.8333 36.0342 29.9 36.2564 29.9C36.4786 29.9 36.6564 29.8333 36.7897 29.7C36.9231 29.5666 36.9897 29.3889 36.9897 29.1666C36.9897 28.9444 36.9231 28.7666 36.7897 28.6333C36.6564 28.5 36.5009 28.4333 36.3231 28.4333ZM29.7897 31.2333C29.2564 31.2333 28.7897 31.0333 28.3897 30.6333C27.9897 30.2333 27.7897 29.7444 27.7897 29.1666C27.7897 28.5889 27.9897 28.1 28.3897 27.7C28.7897 27.3 29.2786 27.1 29.8564 27.1C30.4342 27.1 30.9231 27.3 31.3231 27.7C31.7231 28.1 31.9231 28.5889 31.9231 29.1666C31.9231 29.7444 31.7231 30.2333 31.3231 30.6333C30.9231 31.0333 30.412 31.2333 29.7897 31.2333ZM29.7897 28.4333C29.612 28.4333 29.4564 28.5 29.3231 28.6333C29.1897 28.7666 29.1231 28.9444 29.1231 29.1666C29.1231 29.3889 29.1897 29.5666 29.3231 29.7C29.4564 29.8333 29.6342 29.9 29.8564 29.9C30.0786 29.9 30.2564 29.8333 30.3897 29.7C30.5231 29.5666 30.5897 29.3889 30.5897 29.1666C30.5897 28.9444 30.5231 28.7666 30.3897 28.6333C30.2564 28.5 30.0564 28.4333 29.7897 28.4333ZM42.7231 31.2333C42.1009 31.2333 41.5897 31.0333 41.1897 30.6333C40.7897 30.2333 40.5897 29.7444 40.5897 29.1666C40.5897 28.5889 40.7897 28.1 41.1897 27.7C41.5897 27.3 42.0786 27.1 42.6564 27.1C43.2342 27.1 43.7231 27.3 44.1231 27.7C44.5231 28.1 44.7231 28.5889 44.7231 29.1666C44.7231 29.7444 44.5231 30.2333 44.1231 30.6333C43.7231 31.0333 43.2564 31.2333 42.7231 31.2333ZM42.7231 28.4333C42.4564 28.4333 42.2564 28.5 42.1231 28.6333C41.9897 28.7666 41.9231 28.9444 41.9231 29.1666C41.9231 29.3889 41.9897 29.5889 42.1231 29.7666C42.2564 29.9444 42.4342 30.0333 42.6564 30.0333C42.8786 30.0333 43.0786 29.9444 43.2564 29.7666C43.4342 29.5889 43.5231 29.3889 43.5231 29.1666C43.5231 28.9444 43.4342 28.7666 43.2564 28.6333C43.0786 28.5 42.9009 28.4333 42.7231 28.4333Z" fill="white"/>
</g>
<defs>
<clipPath id="clip0_1_727">
<rect width="40.02" height="40" fill="white" transform="matrix(1 0 0 -1 24.98 61.5)"/>
</clipPath>
</defs>
</svg>
